<svg width="24" height="24" viewBox="0 0 24 24" fill="none" xmlns="http://www.w3.org/2000/svg">
<path d="M22.37 5.98595C21.8454 5.06791 21.2178 4.24356 20.4871 3.51288C19.7564 2.7822 18.9321 2.15457 18.0141 1.62998C17.096 1.08665 16.1358 0.679158 15.1335 0.407494C14.1311 0.13583 13.0867 0 12 0C10.9133 0 9.86886 0.13583 8.86651 0.407494C7.86416 0.679158 6.90399 1.08665 5.98595 1.62998C5.06791 2.15457 4.24356 2.7822 3.51288 3.51288C2.7822 4.24356 2.15457 5.06791 1.62998 5.98595C1.08665 6.90399 0.679158 7.86416 0.407494 8.86651C0.13583 9.86886 0 10.9133 0 12C0 13.0867 0.13583 14.1311 0.407494 15.1335C0.679158 16.1358 1.08665 17.096 1.62998 18.0141C2.15457 18.9321 2.7822 19.7564 3.51288 20.4871C4.24356 21.2178 5.06791 21.8454 5.98595 22.37C6.90399 22.9134 7.86416 23.3208 8.86651 23.5925C9.86886 23.8642 10.9133 24 12 24C13.0867 24 14.1311 23.8642 15.1335 23.5925C16.1358 23.3208 17.096 22.9134 18.0141 22.37C18.9321 21.8454 19.7564 21.2178 20.4871 20.4871C21.2178 19.7564 21.8548 18.9321 22.3981 18.0141C22.9227 17.096 23.3208 16.1358 23.5925 15.1335C23.8642 14.1311 24 13.0867 24 12C24 10.9133 23.8642 9.86886 23.5925 8.86651C23.3208 7.86416 22.9134 6.90399 22.37 5.98595ZM12 1.99532C13.1991 1.99532 14.3279 2.18735 15.3864 2.57143C16.445 2.95551 17.4426 3.53161 18.3794 4.29977C17.8361 5.01171 17.1522 5.65339 16.3279 6.22482C15.5035 6.79626 14.548 7.31616 13.4614 7.78454C12.8618 6.69789 12.2342 5.70024 11.5785 4.79157C10.9227 3.8829 10.2482 3.06324 9.55504 2.33255C9.96722 2.22014 10.3747 2.13583 10.7775 2.07963C11.1803 2.02342 11.5878 1.99532 12 1.99532ZM4.21546 5.76112C4.66511 5.19906 5.16159 4.69789 5.70492 4.25761C6.24825 3.81733 6.8384 3.42857 7.47541 3.09133C8.20609 3.82202 8.90398 4.637 9.56909 5.5363C10.2342 6.4356 10.8665 7.4192 11.466 8.48712C10.267 8.86183 9.03514 9.13817 7.77049 9.31616C6.50585 9.49415 5.20844 9.58314 3.87822 9.58314C3.52225 9.58314 3.2178 9.57845 2.96487 9.56909C2.71194 9.55972 2.4918 9.54567 2.30445 9.52693C2.4918 8.83372 2.74473 8.1733 3.06323 7.54567C3.38173 6.91803 3.76581 6.32319 4.21546 5.76112ZM1.99532 12C1.99532 11.9625 1.99532 11.9251 1.99532 11.8876C1.99532 11.8501 2.00468 11.8033 2.02342 11.7471C2.02342 11.7096 2.02342 11.6721 2.02342 11.6347C2.02342 11.5972 2.02342 11.5597 2.02342 11.5222C2.1733 11.5222 2.36534 11.5269 2.59953 11.5363C2.83372 11.5457 3.11007 11.5504 3.42857 11.5504C4.21546 11.5504 4.99297 11.5222 5.76112 11.466C6.54801 11.4098 7.31147 11.3255 8.05152 11.2131C8.79157 11.1007 9.51756 10.9602 10.2295 10.7916C10.9415 10.6417 11.644 10.4543 12.3372 10.2295C12.4496 10.4543 12.5621 10.6932 12.6745 10.9461C12.7869 11.1991 12.9087 11.466 13.0398 11.7471C12.2342 11.9157 11.4286 12.2155 10.623 12.6464C9.81733 13.0773 8.99298 13.63 8.14988 14.3044C7.32552 14.9789 6.6089 15.6768 6 16.3981C5.3911 17.1194 4.8993 17.8548 4.52459 18.6042C3.68149 17.6487 3.04918 16.623 2.62763 15.5269C2.20609 14.4309 1.99532 13.2553 1.99532 12ZM12 22.0047C10.8571 22.0047 9.77986 21.8267 8.76815 21.4707C7.75643 21.1148 6.79157 20.5902 5.87354 19.897C6.24825 19.185 6.71194 18.4871 7.26464 17.8033C7.81733 17.1194 8.46838 16.459 9.2178 15.822C9.94848 15.1663 10.6885 14.637 11.4379 14.2342C12.1874 13.8314 12.9274 13.5457 13.6581 13.377C14.1265 14.6698 14.5152 15.9766 14.8244 17.2974C15.1335 18.6183 15.363 19.9625 15.5129 21.3302C14.9321 21.555 14.3513 21.7237 13.7705 21.8361C13.1897 21.9485 12.5995 22.0047 12 22.0047ZM20.4871 17.2553C20.0937 17.8923 19.6393 18.4731 19.1241 18.9977C18.6089 19.5222 18.0328 19.9906 17.3958 20.4028C17.2459 19.1475 17.0351 17.911 16.7635 16.6932C16.4918 15.4754 16.1499 14.2764 15.7377 13.096C16.2998 13.0585 16.829 13.0304 17.3255 13.0117C17.822 12.993 18.2951 12.9836 18.7447 12.9836C19.2131 12.9836 19.7143 12.993 20.2482 13.0117C20.7822 13.0304 21.3396 13.0585 21.9204 13.096C21.8454 13.8454 21.6862 14.5667 21.4426 15.26C21.1991 15.9532 20.8806 16.6183 20.4871 17.2553ZM18.9977 11.2693C18.3044 11.2693 17.6347 11.2834 16.9883 11.3115C16.3419 11.3396 15.7283 11.3817 15.1475 11.4379C14.9977 11.0445 14.8525 10.6838 14.7119 10.356C14.5714 10.0281 14.445 9.73302 14.3326 9.47073C15.5691 8.9274 16.6276 8.32787 17.5082 7.67213C18.3888 7.01639 19.082 6.30445 19.5878 5.5363C20.3185 6.3794 20.8806 7.28337 21.274 8.24824C21.6674 9.21312 21.8923 10.2389 21.9485 11.3255C21.4614 11.3068 20.9742 11.2927 20.4871 11.2834C20 11.274 19.5035 11.2693 18.9977 11.2693Z" fill="#EEEEEE"/>
</svg>
