<svg width="24" height="24" viewBox="0 0 24 24" fill="none" xmlns="http://www.w3.org/2000/svg">
<path d="M12 5.82857C11.1458 5.82857 10.3438 5.98441 9.59375 6.2961C8.84375 6.62857 8.19271 7.07013 7.64063 7.62078C7.08854 8.17143 6.64584 8.82078 6.3125 9.56883C6 10.3169 5.84375 11.1169 5.84375 11.9688C5.84375 12.8208 6 13.6208 6.3125 14.3688C6.64584 15.1169 7.08854 15.7662 7.64063 16.3169C8.19271 16.8675 8.84375 17.3091 9.59375 17.6416C10.3438 17.9532 11.1458 18.1091 12 18.1091C12.8542 18.1091 13.6562 17.9532 14.4063 17.6416C15.1563 17.3091 15.8073 16.8675 16.3594 16.3169C16.9115 15.7662 17.3542 15.1169 17.6875 14.3688C18 13.6208 18.1562 12.8208 18.1562 11.9688C18.1562 11.1169 18 10.3169 17.6875 9.56883C17.3542 8.82078 16.9115 8.17143 16.3594 7.62078C15.8073 7.07013 15.1563 6.62857 14.4063 6.2961C13.6562 5.98441 12.8542 5.82857 12 5.82857ZM12 15.9584C10.8958 15.9584 9.95313 15.5688 9.17188 14.7896C8.39062 14.0104 8 13.0701 8 11.9688C8 10.8675 8.39062 9.92728 9.17188 9.14805C9.95313 8.36883 10.8958 7.97922 12 7.97922C13.1042 7.97922 14.0469 8.36883 14.8281 9.14805C15.6094 9.92728 16 10.8675 16 11.9688C16 13.0701 15.6094 14.0104 14.8281 14.7896C14.0469 15.5688 13.1042 15.9584 12 15.9584ZM19.8438 5.57922C19.8438 5.18441 19.7031 4.85195 19.4219 4.58182C19.1406 4.31169 18.8021 4.17662 18.4063 4.17662C18.0104 4.17662 17.6719 4.31169 17.3906 4.58182C17.1094 4.85195 16.9688 5.18441 16.9688 5.57922C16.9688 5.99481 17.1094 6.33766 17.3906 6.60779C17.6719 6.87792 18.0104 7.01299 18.4063 7.01299C18.8021 7.01299 19.1406 6.87792 19.4219 6.60779C19.7031 6.33766 19.8438 5.99481 19.8438 5.57922ZM23.375 4.14545C23.0625 3.33506 22.599 2.62338 21.9844 2.01039C21.3698 1.3974 20.6667 0.935067 19.875 0.623377C19.3958 0.457142 18.9115 0.327274 18.4219 0.233767C17.9323 0.140259 17.4375 0.0935069 16.9375 0.0935069C16.3125 0.0519479 15.7396 0.025974 15.2188 0.0155839C14.6979 0.005195 13.625 0 12 0C10.375 0 9.30209 0.005195 8.78125 0.0155839C8.26041 0.025974 7.6875 0.0519479 7.0625 0.0935069C6.5625 0.0935069 6.06771 0.140259 5.57813 0.233767C5.08854 0.327274 4.61459 0.457142 4.15625 0.623377C3.34375 0.935067 2.63021 1.3974 2.01562 2.01039C1.40104 2.62338 0.937502 3.33506 0.625001 4.14545C0.458333 4.6026 0.328126 5.07532 0.234375 5.56364C0.140624 6.05195 0.0833333 6.54545 0.0625003 7.04416C0.0416661 7.68832 0.0260416 8.26493 0.0156245 8.77403C0.00520853 9.28312 0 10.348 0 11.9688C0 13.5896 0.00520853 14.6597 0.0156245 15.1792C0.0260416 15.6987 0.0416661 16.2805 0.0625003 16.9247C0.0833333 17.4234 0.140624 17.9117 0.234375 18.3896C0.328126 18.8675 0.458333 19.3455 0.625001 19.8234C0.937502 20.6338 1.40104 21.3403 2.01562 21.9429C2.63021 22.5455 3.34375 23.0026 4.15625 23.3143C4.61459 23.5013 5.08854 23.6468 5.57813 23.7506C6.06771 23.8545 6.5625 23.9065 7.0625 23.9065C7.70834 23.9481 8.28646 23.974 8.79688 23.9844C9.30729 23.9948 10.375 24 12 24C13.625 24 14.6979 23.9948 15.2188 23.9844C15.7396 23.974 16.3229 23.9481 16.9688 23.9065C17.4479 23.9065 17.9323 23.8597 18.4219 23.7662C18.9115 23.6727 19.3958 23.5429 19.875 23.3766C20.6875 23.0649 21.3958 22.6026 22 21.9896C22.6042 21.3766 23.0625 20.6649 23.375 19.8545C23.5625 19.3974 23.7031 18.9247 23.7969 18.4364C23.8906 17.948 23.9375 17.4545 23.9375 16.9558C23.9583 16.3117 23.974 15.7351 23.9844 15.226C23.9948 14.7169 24 13.652 24 12.0312C24 10.3896 24 9.31429 24 8.80519C24 8.2961 23.9792 7.71948 23.9375 7.07533C23.9375 6.57662 23.8906 6.07792 23.7969 5.57922C23.7031 5.08052 23.5625 4.6026 23.375 4.14545ZM21.75 16.8C21.75 17.1948 21.7135 17.5792 21.6406 17.9532C21.5677 18.3273 21.4688 18.6909 21.3438 19.0442C21.1354 19.5844 20.8333 20.0519 20.4375 20.4468C20.0417 20.8416 19.5833 21.1325 19.0625 21.3195C18.7083 21.4649 18.3438 21.5688 17.9688 21.6312C17.5938 21.6935 17.2188 21.7351 16.8438 21.7558C16.1979 21.7766 15.6302 21.7922 15.1406 21.8026C14.651 21.813 13.5938 21.8182 11.9688 21.8182C10.3437 21.8182 9.28646 21.813 8.79688 21.8026C8.30729 21.7922 7.73959 21.7766 7.09375 21.7558C6.69792 21.7558 6.31771 21.7195 5.95313 21.6468C5.58854 21.574 5.21875 21.4649 4.84375 21.3195C4.32291 21.1325 3.86459 20.8416 3.46875 20.4468C3.07292 20.0519 2.77083 19.5844 2.5625 19.0442C2.4375 18.6909 2.33854 18.3273 2.26562 17.9532C2.19271 17.5792 2.15625 17.2052 2.15625 16.8312C2.11458 16.2078 2.09375 15.6468 2.09375 15.1481C2.09375 14.6493 2.09375 13.5896 2.09375 11.9688C2.09375 10.348 2.09375 9.29351 2.09375 8.80519C2.09375 8.31688 2.11458 7.75065 2.15625 7.10649C2.15625 6.73247 2.19271 6.35844 2.26562 5.98442C2.33854 5.61039 2.4375 5.23637 2.5625 4.86234C2.77083 4.34285 3.07292 3.88572 3.46875 3.49091C3.86459 3.0961 4.32291 2.79481 4.84375 2.58701C5.21875 2.46234 5.58854 2.36364 5.95313 2.29091C6.31771 2.21818 6.69792 2.18182 7.09375 2.18182C7.71875 2.16104 8.28125 2.14545 8.78125 2.13506C9.28125 2.12467 10.3437 2.11948 11.9688 2.11948C13.5938 2.11948 14.651 2.11948 15.1406 2.11948C15.6302 2.11948 16.1979 2.14026 16.8438 2.18182C17.2188 2.18182 17.5938 2.21818 17.9688 2.29091C18.3438 2.36364 18.7083 2.46234 19.0625 2.58701C19.5833 2.79481 20.0417 3.0961 20.4375 3.49091C20.8333 3.88572 21.1354 4.34285 21.3438 4.86234C21.4688 5.23637 21.5677 5.60519 21.6406 5.96883C21.7135 6.33247 21.75 6.71169 21.75 7.10649C21.7708 7.72987 21.7865 8.29091 21.7969 8.78961C21.8073 9.28831 21.8125 10.348 21.8125 11.9688C21.8125 13.5896 21.8125 14.6442 21.8125 15.1325C21.8125 15.6208 21.8021 16.1766 21.7813 16.8H21.75Z" fill="#EEEEEE"/>
</svg>
