<svg width="26" height="21" viewBox="0 0 26 21" fill="none" xmlns="http://www.w3.org/2000/svg">
<path d="M24.9177 0.210545C24.7529 0.111666 24.5592 0.0622263 24.3368 0.0622263C24.1143 0.0622263 23.9206 0.111666 23.7558 0.210545C23.3933 0.474226 23.0019 0.713183 22.5816 0.927424C22.1614 1.14166 21.7453 1.32294 21.3333 1.47126C20.8059 1.00982 20.2127 0.655506 19.5535 0.408305C18.9107 0.144624 18.2515 0.00866638 17.5759 0.000426226C16.9002 -0.00781392 16.2245 0.103425 15.5488 0.334146C14.8896 0.548386 14.2881 0.894461 13.7443 1.37238C13.0521 1.94918 12.5248 2.62073 12.1622 3.38706C11.7996 4.15338 11.6184 4.95677 11.6184 5.79725C10.8603 5.74781 10.1187 5.61597 9.39357 5.40173C8.68493 5.17101 8.00514 4.87437 7.35418 4.51181C6.70322 4.14925 6.09758 3.71254 5.53726 3.20166C4.97694 2.69077 4.47431 2.11398 4.02935 1.47126C3.93047 1.32294 3.80275 1.21582 3.64619 1.1499C3.48963 1.08398 3.30423 1.05102 3.08999 1.05102C2.87575 1.05102 2.69447 1.11694 2.54615 1.24878C2.39783 1.38062 2.29895 1.52894 2.24951 1.69374C2.18359 1.74318 1.9776 2.32409 1.63151 3.4365C1.28543 4.5489 1.13712 5.86316 1.18656 7.37932C1.21952 8.03852 1.31839 8.73891 1.4832 9.48052C1.648 10.2056 1.91991 10.939 2.29895 11.6806C2.67799 12.4222 3.18887 13.1473 3.83159 13.8559C4.47431 14.5646 5.28182 15.2238 6.25414 15.8335C5.4631 16.1961 4.62675 16.4598 3.74507 16.6246C2.86339 16.7894 1.9776 16.8718 1.08768 16.8718C0.873436 16.8718 0.655079 16.9418 0.432599 17.0819C0.210118 17.222 0.0741597 17.3991 0.0247202 17.6134C-0.02472 17.8276 -2.30509e-07 18.0501 0.0988795 18.2808C0.19776 18.5115 0.346078 18.6763 0.543838 18.7752C1.20304 19.1542 1.87871 19.4756 2.57087 19.7393C3.24655 20.0194 3.92634 20.2543 4.61027 20.4438C5.29419 20.6333 5.98222 20.7693 6.67438 20.8517C7.35006 20.9506 8.01749 21 8.67669 21C9.99509 21 11.2805 20.8352 12.533 20.5056C13.7855 20.176 14.9967 19.6734 16.1668 18.9977C17.304 18.355 18.3092 17.5804 19.1827 16.674C20.0561 15.7676 20.7936 14.75 21.3951 13.6211C21.9966 12.4922 22.4539 11.2686 22.767 9.95019C23.0802 8.63179 23.2367 7.24749 23.2367 5.79725C23.2367 5.69837 23.2367 5.61185 23.2367 5.53769C23.2367 5.46353 23.2367 5.37701 23.2367 5.27813C23.7641 4.70133 24.2049 4.0751 24.5592 3.39942C24.9136 2.72373 25.1731 2.0151 25.3379 1.2735C25.3874 1.05926 25.3709 0.857385 25.2885 0.667864C25.2061 0.478344 25.0825 0.325906 24.9177 0.210545ZM21.3333 4.21517C21.2179 4.33053 21.1355 4.47885 21.0861 4.66013C21.0367 4.84141 21.0119 5.01445 21.0119 5.17925C21.0614 5.27813 21.0902 5.38113 21.0985 5.48825C21.1067 5.59537 21.1108 5.69837 21.1108 5.79725C21.1108 7.06621 20.979 8.26923 20.7153 9.40636C20.4516 10.5435 20.0602 11.5982 19.5411 12.5705C19.022 13.5428 18.3916 14.4163 17.65 15.1908C16.9084 15.9819 16.0597 16.6493 15.1039 17.1931C14.3623 17.6216 13.596 17.9677 12.8049 18.2314C11.9974 18.495 11.1775 18.6804 10.3453 18.7876C9.51305 18.8947 8.66022 18.9153 7.78678 18.8494C6.92981 18.7999 6.06463 18.6681 5.19118 18.4538C5.88334 18.2561 6.54254 18.013 7.16878 17.7246C7.79502 17.4362 8.40477 17.086 8.99805 16.674C9.19581 16.5587 9.33177 16.4227 9.40593 16.2661C9.48009 16.1096 9.51717 15.9242 9.51717 15.7099C9.51717 15.5122 9.45125 15.335 9.31941 15.1785C9.18757 15.0219 9.03925 14.9189 8.87445 14.8695C7.35829 14.1938 6.19646 13.3863 5.38894 12.4469C4.5979 11.5075 4.04171 10.5476 3.72035 9.56704C3.39899 8.58647 3.26303 7.63477 3.31247 6.71189C3.34543 5.789 3.44431 4.99797 3.60911 4.33877C4.18591 4.91557 4.82038 5.42645 5.51254 5.87141C6.2047 6.33285 6.93805 6.72012 7.71262 7.03324C8.48718 7.34636 9.28645 7.57708 10.1104 7.7254C10.9509 7.87372 11.8079 7.93964 12.6813 7.92316C12.945 7.92316 13.1881 7.81192 13.4106 7.58944C13.633 7.36696 13.7443 7.12388 13.7443 6.8602V5.79725C13.7443 5.26989 13.8473 4.75901 14.0533 4.26461C14.2593 3.77021 14.5765 3.3335 15.005 2.95446C15.7466 2.27878 16.6365 1.97802 17.6747 2.05218C18.713 2.12634 19.5452 2.53421 20.1715 3.27582C20.3363 3.44062 20.5134 3.54773 20.7029 3.59718C20.8925 3.64661 21.0696 3.64661 21.2344 3.59718C21.3333 3.54773 21.4528 3.51066 21.5929 3.48593C21.7329 3.46121 21.8524 3.42414 21.9513 3.3747C21.8524 3.5395 21.7494 3.68369 21.6423 3.80729C21.5352 3.93089 21.4322 4.06685 21.3333 4.21517Z" fill="#EEEEEE"/>
</svg>
