<svg width="706" height="126" viewBox="0 0 706 126" fill="none" xmlns="http://www.w3.org/2000/svg">
<path d="M76.232 74.12L76.7007 73.9459L76.5797 73.62H76.232V74.12ZM74.048 119.48L73.9366 118.993L73.548 119.081V119.48H74.048ZM74.048 122H73.548V122.5H74.048V122ZM123.44 122V122.5H123.94V122H123.44ZM123.44 119.48H123.94V119.065L123.532 118.989L123.44 119.48ZM102.608 99.824L103.077 99.6506L103.076 99.6483L102.608 99.824ZM65.648 1.37599L66.1161 1.20025L65.8154 0.399323L65.2652 1.05439L65.648 1.37599ZM53.384 10.448L53.1954 9.98495L52.6636 10.2016L52.9513 10.6985L53.384 10.448ZM51.536 22.04L52.0053 22.2127L52.0085 22.2036L51.536 22.04ZM41.456 49.424L41.923 49.6029L41.9252 49.5967L41.456 49.424ZM22.472 98.984L22.9367 99.1687L22.9389 99.1629L22.472 98.984ZM0.8 119.48L0.669819 118.997L0.3 119.097V119.48H0.8ZM0.8 122H0.3V122.5H0.8V122ZM46.832 122V122.5H47.332V122H46.832ZM46.832 119.48H47.332V119.052L46.9089 118.986L46.832 119.48ZM37.928 74.12V73.62H37.5699L37.4546 73.959L37.928 74.12ZM74.048 66.392V66.892H74.7865L74.5122 66.2063L74.048 66.392ZM40.784 66.392L40.3138 66.222L40.0716 66.892H40.784V66.392ZM56.576 22.712L57.0402 22.5263L56.5524 21.3067L56.1058 22.542L56.576 22.712ZM75.7633 74.2941C77.9515 80.1855 80.6336 87.0577 82.7726 93.349C84.9192 99.6626 86.484 105.296 86.484 108.728H87.484C87.484 105.104 85.8568 99.3134 83.7194 93.027C81.5744 86.7183 78.8805 79.8145 76.7007 73.9459L75.7633 74.2941ZM86.484 108.728C86.484 112.31 84.8318 114.514 82.4544 116.012C80.0385 117.535 76.888 118.318 73.9366 118.993L74.1594 119.967C77.088 119.298 80.4055 118.485 82.9876 116.858C85.6082 115.206 87.484 112.706 87.484 108.728H86.484ZM73.548 119.48V122H74.548V119.48H73.548ZM74.048 122.5H123.44V121.5H74.048V122.5ZM123.94 122V119.48H122.94V122H123.94ZM123.532 118.989C116.86 117.737 112.903 115.918 110.045 112.959C107.167 109.979 105.349 105.793 103.077 99.6506L102.139 99.9974C104.403 106.119 106.281 110.501 109.325 113.653C112.389 116.826 116.58 118.703 123.348 119.971L123.532 118.989ZM103.076 99.6483L66.1161 1.20025L65.1799 1.55173L102.14 99.9997L103.076 99.6483ZM65.2652 1.05439C61.7876 5.19436 57.6535 8.16868 53.1954 9.98495L53.5727 10.911C58.1865 9.03132 62.4524 5.95764 66.0309 1.69759L65.2652 1.05439ZM52.9513 10.6985C53.7777 12.1259 53.7275 13.7731 53.2359 15.6781C52.7374 17.6095 51.8401 19.6329 51.0635 21.8764L52.0085 22.2036C52.7439 20.079 53.6946 17.9025 54.2041 15.9279C54.7206 13.9268 54.8383 11.9621 53.8167 10.1975L52.9513 10.6985ZM51.0668 21.8673L40.9868 49.2513L41.9252 49.5967L52.0052 22.2127L51.0668 21.8673ZM40.9891 49.2451L22.0051 98.8051L22.9389 99.1629L41.9229 49.6029L40.9891 49.2451ZM22.0074 98.7993C19.3916 105.381 17.7456 109.39 14.9314 112.286C12.1337 115.164 8.13276 116.985 0.669819 118.997L0.930181 119.963C8.41925 117.943 12.6503 116.068 15.6486 112.982C18.6304 109.914 20.3444 105.691 22.9366 99.1687L22.0074 98.7993ZM0.3 119.48V122H1.3V119.48H0.3ZM0.8 122.5H46.832V121.5H0.8V122.5ZM47.332 122V119.48H46.332V122H47.332ZM46.9089 118.986C45.9558 118.838 44.9408 118.708 43.9017 118.576C42.8602 118.443 41.7931 118.307 40.725 118.146C38.5861 117.822 36.4683 117.397 34.5952 116.701C32.7225 116.005 31.1247 115.049 29.995 113.681C28.8726 112.321 28.18 110.516 28.18 108.056H27.18C27.18 110.72 27.9364 112.758 29.2238 114.317C30.5038 115.868 32.2765 116.907 34.2468 117.639C36.2167 118.371 38.4144 118.807 40.5753 119.134C41.657 119.298 42.7358 119.435 43.7753 119.568C44.8172 119.701 45.8182 119.828 46.7551 119.974L46.9089 118.986ZM28.18 108.056C28.18 106.103 28.6295 103.548 29.3642 100.656C30.0971 97.7714 31.1055 94.5833 32.2059 91.3763C33.3062 88.1699 34.4959 84.9518 35.5906 82.0064C36.6839 79.0647 37.6845 76.3893 38.4014 74.2809L37.4546 73.959C36.7435 76.0506 35.7491 78.7093 34.6532 81.6581C33.5586 84.6032 32.3649 87.8321 31.2601 91.0517C30.1555 94.2706 29.1374 97.4876 28.395 100.41C27.6545 103.324 27.18 105.977 27.18 108.056H28.18ZM37.928 74.62H76.232V73.62H37.928V74.62ZM74.048 65.892H40.784V66.892H74.048V65.892ZM41.2542 66.562L57.0462 22.882L56.1058 22.542L40.3138 66.222L41.2542 66.562ZM56.1118 22.8977L73.5838 66.5777L74.5122 66.2063L57.0402 22.5263L56.1118 22.8977ZM130.779 116.96H130.279V117.285L130.576 117.417L130.779 116.96ZM143.716 55.472H143.216V56.3184L143.957 55.9099L143.716 55.472ZM143.716 2.04799H144.216V1.69778L143.886 1.5781L143.716 2.04799ZM141.867 1.37599L142.038 0.906094L141.863 0.842343L141.689 0.909005L141.867 1.37599ZM122.547 8.768L122.369 8.30101L122.047 8.42395V8.768H122.547ZM122.547 10.448H122.047V10.7041L122.255 10.8538L122.547 10.448ZM143.716 58.16L143.522 57.6989L143.216 57.8275V58.16H143.716ZM130.576 117.417C139.671 121.459 147.307 124.18 157.492 124.18V123.18C147.516 123.18 140.032 120.525 130.983 116.503L130.576 117.417ZM157.492 124.18C166.833 124.18 178.407 120.915 187.656 113.893C196.92 106.86 203.856 96.0513 203.856 81.008H202.856C202.856 95.7007 196.099 106.228 187.051 113.097C177.988 119.977 166.63 123.18 157.492 123.18V124.18ZM203.856 81.008C203.856 63.1699 190.768 45.564 171.772 45.564V46.564C190.071 46.564 202.856 63.5661 202.856 81.008H203.856ZM171.772 45.564C162.054 45.564 151.704 50.4993 143.474 55.0341L143.957 55.9099C152.191 51.3727 162.337 46.564 171.772 46.564V45.564ZM144.216 55.472V2.04799H143.216V55.472H144.216ZM143.886 1.5781L142.038 0.906094L141.697 1.84589L143.545 2.51789L143.886 1.5781ZM141.689 0.909005L122.369 8.30101L122.726 9.23498L142.046 1.84298L141.689 0.909005ZM122.047 8.768V10.448H123.047V8.768H122.047ZM122.255 10.8538C126.449 13.8729 128.41 15.8668 129.36 17.9235C130.311 19.9861 130.279 22.1689 130.279 25.736H131.279C131.279 22.2471 131.332 19.8099 130.267 17.5045C129.201 15.1932 127.046 13.071 122.84 10.0422L122.255 10.8538ZM130.279 25.736V116.96H131.279V25.736H130.279ZM143.909 58.6211C149.093 56.4473 153.725 54.964 159.339 54.964V53.964C153.53 53.964 148.754 55.5047 143.522 57.6989L143.909 58.6211ZM159.339 54.964C175.326 54.964 188.576 67.81 188.576 87.728H189.576C189.576 67.326 175.945 53.964 159.339 53.964V54.964ZM188.576 87.728C188.576 99.2904 184.878 106.84 180.096 111.499C175.302 116.169 169.383 117.972 164.884 117.972V118.972C169.624 118.972 175.801 117.079 180.793 112.215C185.797 107.34 189.576 99.5176 189.576 87.728H188.576ZM164.884 117.972C160.074 117.972 156.406 117.05 153.601 115.457C150.801 113.866 148.828 111.589 147.438 108.819C144.642 103.247 144.216 95.7178 144.216 87.896H143.216C143.216 95.6982 143.629 103.457 146.545 109.267C148.011 112.188 150.112 114.625 153.108 116.326C156.099 118.025 159.949 118.972 164.884 118.972V117.972ZM144.216 87.896V58.16H143.216V87.896H144.216ZM295.343 84.536C295.343 72.5543 290.708 62.7993 283.165 56.0445C275.627 49.2948 265.214 45.564 253.683 45.564V46.564C265.001 46.564 275.167 50.2252 282.498 56.7895C289.823 63.3487 294.343 72.8297 294.343 84.536H295.343ZM253.683 45.564C230.94 45.564 211.687 61.7051 211.687 85.208H212.687C212.687 62.3429 231.403 46.564 253.683 46.564V45.564ZM211.687 85.208C211.687 97.273 216.322 107.029 223.888 113.763C231.447 120.493 241.903 124.18 253.515 124.18V123.18C242.111 123.18 231.903 119.559 224.553 113.017C217.209 106.479 212.687 96.999 212.687 85.208H211.687ZM253.515 124.18C275.926 124.18 295.343 107.7 295.343 84.536H294.343C294.343 107.068 275.457 123.18 253.515 123.18V124.18ZM278.719 86.216C278.719 93.3659 276.846 101.715 272.89 108.259C268.941 114.793 262.951 119.484 254.691 119.484V120.484C263.4 120.484 269.673 115.515 273.746 108.777C277.812 102.049 279.719 93.5141 279.719 86.216H278.719ZM254.691 119.484C245.837 119.484 239.258 114.534 234.87 107.6C230.475 100.656 228.311 91.7634 228.311 84.032H227.311C227.311 91.9246 229.515 101.008 234.025 108.134C238.541 115.27 245.402 120.484 254.691 120.484V119.484ZM228.311 84.032C228.311 76.3718 230.145 67.9013 234.2 61.3635C238.244 54.8436 244.482 50.26 253.347 50.26V49.26C244.069 49.26 237.538 54.0844 233.35 60.8365C229.173 67.5707 227.311 76.2362 227.311 84.032H228.311ZM253.347 50.26C262.274 50.26 268.6 55.3656 272.718 62.4435C276.844 69.5334 278.719 78.5562 278.719 86.216H279.719C279.719 78.4198 277.815 69.2146 273.582 61.9405C269.343 54.6544 262.732 49.26 253.347 49.26V50.26ZM376.587 47.744L377.087 47.7531L377.097 47.2047L376.55 47.2454L376.587 47.744ZM347.187 49.928L347.15 49.4294L346.687 49.4638V49.928H347.187ZM347.187 52.448H346.687V52.948H347.187V52.448ZM362.643 107.888L362.978 108.26L363.143 108.111V107.888H362.643ZM326.523 47.744H327.023V47.1991L326.48 47.2458L326.523 47.744ZM301.155 49.928L301.112 49.4298L300.655 49.4692V49.928H301.155ZM301.155 52.448H300.655V52.9541L301.161 52.948L301.155 52.448ZM362.643 111.416L363.143 111.435L363.182 110.41L362.35 111.011L362.643 111.416ZM362.139 124.52L361.64 124.501L361.614 125.161L362.256 125.006L362.139 124.52ZM390.699 117.632L390.816 118.118L391.314 117.998L391.182 117.503L390.699 117.632ZM390.027 115.112L390.51 114.983L390.402 114.578L389.984 114.614L390.027 115.112ZM382.299 115.784V116.284H382.321L382.342 116.282L382.299 115.784ZM375.579 103.352L376.079 103.366L376.079 103.361L375.579 103.352ZM376.55 47.2454L347.15 49.4294L347.224 50.4266L376.624 48.2426L376.55 47.2454ZM346.687 49.928V52.448H347.687V49.928H346.687ZM347.187 52.948C354.751 52.948 358.351 54.1392 360.167 56.9016C361.09 58.3052 361.593 60.1704 361.857 62.6364C362.122 65.1014 362.143 68.1081 362.143 71.768H363.143C363.143 68.1199 363.123 65.0576 362.852 62.5298C362.581 60.0031 362.054 57.9518 361.003 56.3523C358.871 53.1087 354.743 51.948 347.187 51.948V52.948ZM362.143 71.768V107.888H363.143V71.768H362.143ZM362.309 107.516C357.348 111.981 350.912 114.78 344.163 114.78V115.78C351.19 115.78 357.858 112.867 362.978 108.26L362.309 107.516ZM344.163 114.78C339.332 114.78 335.884 113.605 333.412 111.778C330.938 109.95 329.398 107.436 328.445 104.68C326.527 99.1329 327.023 92.7426 327.023 89.24H326.023C326.023 92.6254 325.511 99.255 327.5 105.006C328.5 107.899 330.141 110.604 332.817 112.582C335.496 114.561 339.166 115.78 344.163 115.78V114.78ZM327.023 89.24V47.744H326.023V89.24H327.023ZM326.48 47.2458L301.112 49.4298L301.198 50.4262L326.566 48.2422L326.48 47.2458ZM300.655 49.928V52.448H301.655V49.928H300.655ZM301.161 52.948C304.622 52.9063 307.067 53.2421 308.798 53.919C310.505 54.5866 311.522 55.5866 312.147 56.9228C312.785 58.2869 313.03 60.0346 313.106 62.2224C313.182 64.4156 313.087 66.9515 313.087 69.92H314.087C314.087 67.0085 314.182 64.3994 314.105 62.1879C314.029 59.9709 313.78 58.0541 313.053 56.4992C312.313 54.9164 311.094 53.7429 309.162 52.9877C307.255 52.2419 304.66 51.9057 301.149 51.948L301.161 52.948ZM313.087 69.92V99.32H314.087V69.92H313.087ZM313.087 99.32C313.087 102.827 312.996 109.026 315.334 114.347C316.509 117.02 318.303 119.488 321.038 121.284C323.773 123.08 327.412 124.18 332.235 124.18V123.18C327.567 123.18 324.128 122.117 321.587 120.448C319.046 118.779 317.364 116.48 316.25 113.945C314.01 108.85 314.087 102.869 314.087 99.32H313.087ZM332.235 124.18C343.827 124.18 353.849 118.384 362.936 111.821L362.35 111.011C353.293 117.552 343.492 123.18 332.235 123.18V124.18ZM362.144 111.397L361.64 124.501L362.639 124.539L363.143 111.435L362.144 111.397ZM362.256 125.006L390.816 118.118L390.582 117.146L362.022 124.034L362.256 125.006ZM391.182 117.503L390.51 114.983L389.544 115.241L390.216 117.761L391.182 117.503ZM389.984 114.614L382.256 115.286L382.342 116.282L390.07 115.61L389.984 114.614ZM382.299 115.284C380.3 115.284 378.95 114.896 378.032 114.277C377.123 113.665 376.582 112.79 376.27 111.699C375.954 110.595 375.88 109.289 375.901 107.853C375.922 106.387 376.035 104.932 376.079 103.366L375.079 103.338C375.039 104.796 374.921 106.407 374.901 107.839C374.879 109.301 374.952 110.725 375.308 111.973C375.668 113.234 376.324 114.333 377.473 115.107C378.613 115.874 380.182 116.284 382.299 116.284V115.284ZM376.079 103.361L377.087 47.7531L376.087 47.7349L375.079 103.343L376.079 103.361ZM421.035 56.48V55.98H420.535V56.48H421.035ZM447.579 56.48V56.98H448.079V56.48H447.579ZM447.579 49.424H448.079V48.924H447.579V49.424ZM421.035 49.424H420.535V49.924H421.035V49.424ZM421.035 31.952H421.535V31.452H421.035V31.952ZM419.523 31.952V31.452H419.317L419.171 31.5972L419.523 31.952ZM396.003 55.304L395.651 54.9492L395.349 55.2487L395.596 55.5946L396.003 55.304ZM396.843 56.48L396.436 56.7706L396.586 56.98H396.843V56.48ZM408.099 56.48H408.599V55.98H408.099V56.48ZM450.099 118.304L450.277 118.771L450.692 118.614L450.584 118.183L450.099 118.304ZM449.427 115.616L449.912 115.495L449.789 115.004L449.3 115.132L449.427 115.616ZM421.035 56.98H447.579V55.98H421.035V56.98ZM448.079 56.48V49.424H447.079V56.48H448.079ZM447.579 48.924H421.035V49.924H447.579V48.924ZM421.535 49.424V31.952H420.535V49.424H421.535ZM421.035 31.452H419.523V32.452H421.035V31.452ZM419.171 31.5972L395.651 54.9492L396.355 55.6588L419.875 32.3068L419.171 31.5972ZM395.596 55.5946L396.436 56.7706L397.25 56.1894L396.41 55.0134L395.596 55.5946ZM396.843 56.98H408.099V55.98H396.843V56.98ZM407.599 56.48V102.176H408.599V56.48H407.599ZM407.599 102.176C407.599 105.395 407.546 108.383 407.723 111.027C407.901 113.672 408.311 116.032 409.266 117.998C410.23 119.981 411.738 121.54 414.058 122.594C416.362 123.641 419.444 124.18 423.555 124.18V123.18C419.518 123.18 416.594 122.648 414.472 121.684C412.366 120.727 411.029 119.336 410.166 117.56C409.294 115.767 408.896 113.559 408.721 110.96C408.547 108.359 408.599 105.425 408.599 102.176H407.599ZM423.555 124.18C432.873 124.18 441.839 121.978 450.277 118.771L449.921 117.837C441.559 121.014 432.716 123.18 423.555 123.18V124.18ZM450.584 118.183L449.912 115.495L448.942 115.737L449.614 118.425L450.584 118.183ZM449.3 115.132C446.159 115.959 442.843 116.292 439.515 116.292V117.292C442.907 117.292 446.311 116.953 449.554 116.1L449.3 115.132ZM439.515 116.292C430.433 116.292 426.046 113.963 423.846 109.977C422.727 107.952 422.144 105.451 421.845 102.496C421.546 99.5409 421.535 96.1755 421.535 92.432H420.535C420.535 96.1645 420.545 99.5821 420.85 102.596C421.155 105.611 421.758 108.265 422.97 110.461C425.431 114.917 430.285 117.292 439.515 117.292V116.292ZM421.535 92.432V56.48H420.535V92.432H421.535ZM525.551 63.2L525.191 62.8527L525.051 62.998V63.2H525.551ZM561.335 102.512L561.835 102.518V102.512H561.335ZM549.071 119.48L548.992 118.986L548.571 119.053V119.48H549.071ZM549.071 122H548.571V122.5H549.071V122ZM586.031 122V122.5H586.531V122H586.031ZM586.031 119.48H586.531V119.056L586.113 118.987L586.031 119.48ZM574.271 63.032L573.911 62.6845L573.771 62.8298V63.032H574.271ZM610.055 102.512L610.555 102.518V102.512H610.055ZM597.791 119.48L597.712 118.986L597.291 119.053V119.48H597.791ZM597.791 122H597.291V122.5H597.791V122ZM634.751 122V122.5H635.251V122H634.751ZM634.751 119.48H635.251V119.056L634.833 118.987L634.751 119.48ZM573.263 59.672L572.791 59.8384L573.033 60.5239L573.587 60.0528L573.263 59.672ZM524.879 59.672L524.381 59.6203L524.25 60.8809L525.207 60.0493L524.879 59.672ZM526.223 46.736L526.72 46.7877L526.76 46.3995L526.394 46.2661L526.223 46.736ZM524.375 46.064L524.546 45.5941L524.373 45.5314L524.201 45.595L524.375 46.064ZM504.383 53.456L504.209 52.987L503.883 53.1078V53.456H504.383ZM504.383 55.136H503.883V55.3921L504.09 55.5418L504.383 55.136ZM512.615 102.512L513.115 102.518V102.512H512.615ZM500.351 119.48L500.272 118.986L499.851 119.053V119.48H500.351ZM500.351 122H499.851V122.5H500.351V122ZM537.311 122V122.5H537.811V122H537.311ZM537.311 119.48H537.811V119.056L537.393 118.987L537.311 119.48ZM525.91 63.5473C530.573 58.7178 535.491 55.3 542.519 55.3V54.3C535.098 54.3 529.936 57.9382 525.191 62.8527L525.91 63.5473ZM542.519 55.3C547.641 55.3 551.307 56.579 553.943 58.594C556.583 60.6113 558.236 63.4022 559.264 66.5072C561.331 72.7507 560.835 80.1132 560.835 84.704H561.835C561.835 80.2228 562.346 72.6333 560.213 66.1928C559.141 62.9558 557.393 59.9717 554.551 57.7995C551.706 55.625 547.813 54.3 542.519 54.3V55.3ZM560.835 84.704V102.512H561.835V84.704H560.835ZM560.835 102.506C560.793 105.786 560.729 108.342 560.481 110.371C560.233 112.4 559.806 113.847 559.072 114.938C558.346 116.017 557.287 116.798 555.672 117.426C554.045 118.059 551.886 118.525 548.992 118.986L549.149 119.974C552.052 119.511 554.302 119.032 556.035 118.358C557.781 117.679 559.031 116.79 559.902 115.496C560.764 114.214 561.218 112.585 561.474 110.492C561.73 108.4 561.793 105.79 561.835 102.518L560.835 102.506ZM548.571 119.48V122H549.571V119.48H548.571ZM549.071 122.5H586.031V121.5H549.071V122.5ZM586.531 122V119.48H585.531V122H586.531ZM586.113 118.987C583.339 118.525 581.262 118.1 579.689 117.518C578.13 116.94 577.107 116.221 576.406 115.188C575.696 114.142 575.278 112.72 575.046 110.659C574.813 108.599 574.771 105.959 574.771 102.512H573.771C573.771 105.953 573.812 108.647 574.052 110.771C574.292 112.895 574.735 114.507 575.579 115.75C576.432 117.006 577.656 117.831 579.342 118.455C581.014 119.075 583.178 119.511 585.948 119.973L586.113 118.987ZM574.771 102.512V63.032H573.771V102.512H574.771ZM574.63 63.3795C579.456 58.387 584.039 55.3 591.071 55.3V54.3C583.655 54.3 578.829 57.597 573.911 62.6845L574.63 63.3795ZM591.071 55.3C596.393 55.3 600.17 56.7418 602.862 58.9605C605.559 61.1843 607.212 64.2266 608.211 67.5039C610.22 74.0885 609.555 81.4481 609.555 84.704H610.555C610.555 81.5759 611.233 73.9835 609.168 67.2121C608.131 63.8114 606.392 60.5747 603.498 58.189C600.598 55.7982 596.584 54.3 591.071 54.3V55.3ZM609.555 84.704V102.512H610.555V84.704H609.555ZM609.555 102.506C609.513 105.786 609.449 108.342 609.201 110.371C608.953 112.4 608.526 113.847 607.792 114.938C607.066 116.017 606.007 116.798 604.392 117.426C602.765 118.059 600.606 118.525 597.712 118.986L597.869 119.974C600.772 119.511 603.022 119.032 604.755 118.358C606.501 117.679 607.751 116.79 608.622 115.496C609.484 114.214 609.938 112.585 610.194 110.492C610.45 108.4 610.513 105.79 610.555 102.518L609.555 102.506ZM597.291 119.48V122H598.291V119.48H597.291ZM597.791 122.5H634.751V121.5H597.791V122.5ZM635.251 122V119.48H634.251V122H635.251ZM634.833 118.987C632.059 118.525 629.982 118.1 628.409 117.518C626.85 116.94 625.827 116.221 625.126 115.188C624.416 114.142 623.998 112.72 623.766 110.659C623.533 108.599 623.491 105.959 623.491 102.512H622.491C622.491 105.953 622.532 108.647 622.772 110.771C623.012 112.895 623.455 114.507 624.299 115.75C625.152 117.006 626.376 117.831 628.062 118.455C629.734 119.075 631.898 119.511 634.668 119.973L634.833 118.987ZM623.491 102.512V80.504H622.491V102.512H623.491ZM623.491 80.504C623.491 76.0338 624.254 67.3039 621.872 59.7319C620.675 55.9283 618.676 52.3756 615.361 49.7761C612.043 47.1737 607.455 45.564 601.151 45.564V46.564C607.279 46.564 611.636 48.1253 614.744 50.5629C617.856 53.0034 619.762 56.3596 620.918 60.032C623.24 67.4121 622.491 75.9022 622.491 80.504H623.491ZM601.151 45.564C590.026 45.564 580.825 52.5795 572.939 59.2912L573.587 60.0528C581.492 53.3245 590.435 46.564 601.151 46.564V45.564ZM573.734 59.5056C570.627 50.702 561.674 45.564 552.767 45.564V46.564C561.331 46.564 569.85 51.5059 572.791 59.8384L573.734 59.5056ZM552.767 45.564C541.811 45.564 532.277 52.5759 524.551 59.2947L525.207 60.0493C532.936 53.3281 542.218 46.564 552.767 46.564V45.564ZM525.376 59.7237L526.72 46.7877L525.725 46.6843L524.381 59.6203L525.376 59.7237ZM526.394 46.2661L524.546 45.5941L524.204 46.5339L526.052 47.2059L526.394 46.2661ZM524.201 45.595L504.209 52.987L504.556 53.925L524.548 46.533L524.201 45.595ZM503.883 53.456V55.136H504.883V53.456H503.883ZM504.09 55.5418C508.284 58.5609 510.245 60.5548 511.195 62.6115C512.147 64.6741 512.115 66.8569 512.115 70.424H513.115C513.115 66.9351 513.167 64.4979 512.103 62.1925C511.036 59.8812 508.881 57.759 504.675 54.7302L504.09 55.5418ZM512.115 70.424V102.512H513.115V70.424H512.115ZM512.115 102.506C512.073 105.786 512.009 108.342 511.761 110.371C511.513 112.4 511.086 113.847 510.352 114.938C509.626 116.017 508.567 116.798 506.952 117.426C505.325 118.059 503.166 118.525 500.272 118.986L500.429 119.974C503.332 119.511 505.582 119.032 507.315 118.358C509.061 117.679 510.311 116.79 511.182 115.496C512.044 114.214 512.498 112.585 512.754 110.492C513.01 108.4 513.073 105.79 513.115 102.518L512.115 102.506ZM499.851 119.48V122H500.851V119.48H499.851ZM500.351 122.5H537.311V121.5H500.351V122.5ZM537.811 122V119.48H536.811V122H537.811ZM537.393 118.987C534.619 118.525 532.542 118.1 530.969 117.518C529.41 116.94 528.387 116.221 527.686 115.188C526.976 114.142 526.558 112.72 526.326 110.659C526.093 108.599 526.051 105.959 526.051 102.512H525.051C525.051 105.953 525.092 108.647 525.332 110.771C525.572 112.895 526.015 114.507 526.859 115.75C527.712 117.006 528.936 117.831 530.622 118.455C532.294 119.075 534.458 119.511 537.228 119.973L537.393 118.987ZM526.051 102.512V63.2H525.051V102.512H526.051ZM654.212 67.568L653.724 67.4606L653.585 68.0946L654.233 68.0676L654.212 67.568ZM686.468 66.224L686.489 66.7236L687.071 66.6993L686.959 66.128L686.468 66.224ZM653.708 70.76V70.26H653.247L653.21 70.7201L653.708 70.76ZM702.428 70.76V71.26H702.951L702.928 70.7378L702.428 70.76ZM704.948 104.192L705.38 104.444L705.607 104.055L705.244 103.789L704.948 104.192ZM702.428 102.344L702.724 101.941L702.325 101.648L702.028 102.044L702.428 102.344ZM653.036 79.16L652.538 79.1201L652.538 79.1216L653.036 79.16ZM654.701 67.6754C655.612 63.5344 657.473 59.1618 660.265 55.8355C663.052 52.5162 666.744 50.26 671.348 50.26V49.26C666.377 49.26 662.425 51.7078 659.499 55.1925C656.58 58.6702 654.661 63.2016 653.724 67.4606L654.701 67.6754ZM671.348 50.26C675.613 50.26 678.881 52.3439 681.287 55.4031C683.702 58.473 685.232 62.508 685.978 66.32L686.959 66.128C686.193 62.212 684.614 58.015 682.073 54.7849C679.524 51.5441 675.988 49.26 671.348 49.26V50.26ZM686.448 65.7244L654.192 67.0684L654.233 68.0676L686.489 66.7236L686.448 65.7244ZM653.708 71.26H702.428V70.26H653.708V71.26ZM702.928 70.7378C702.587 63.0694 699.857 56.7664 695.255 52.3801C690.654 47.994 684.224 45.564 676.556 45.564V46.564C684.009 46.564 690.178 48.922 694.565 53.1039C698.952 57.2856 701.598 63.3306 701.929 70.7822L702.928 70.7378ZM676.556 45.564C653.551 45.564 638.256 64.4881 638.256 86.384H639.256C639.256 64.9359 654.202 46.564 676.556 46.564V45.564ZM638.256 86.384C638.256 106.777 652.887 124.18 674.036 124.18V123.18C653.522 123.18 639.256 106.311 639.256 86.384H638.256ZM674.036 124.18C687.365 124.18 698.933 115.473 705.38 104.444L704.517 103.94C698.196 114.751 686.916 123.18 674.036 123.18V124.18ZM705.244 103.789L702.724 101.941L702.133 102.747L704.653 104.595L705.244 103.789ZM702.028 102.044C697.061 108.667 691.151 112.428 682.604 112.428V113.428C691.53 113.428 697.715 109.461 702.828 102.644L702.028 102.044ZM682.604 112.428C663.964 112.428 652.209 96.435 653.535 79.1983L652.538 79.1216C651.176 96.829 663.277 113.428 682.604 113.428V112.428ZM653.535 79.1999L654.207 70.7999L653.21 70.7201L652.538 79.1201L653.535 79.1999Z" fill="#FAFAFA"/>
</svg>
