<svg style="" width="33.750000" height="33.750000" version="1.1" xmlns="http://www.w3.org/2000/svg">
<path d="M20.460938 10.335938 C21.023440 9.820310 21.035159 9.304690 20.496094 8.789062 C19.957029 8.273435 19.429690 8.273435 18.914062 8.789062 L11.601562 16.101562 C11.367186 16.289063 11.250000 16.546873 11.250000 16.875000 C11.250000 17.203127 11.367186 17.460937 11.601562 17.648438 L18.914062 24.960938 C19.429690 25.476565 19.945310 25.476565 20.460938 24.960938 C20.695314 24.726561 20.812500 24.457033 20.812500 24.152344 C20.812500 23.847655 20.695314 23.601563 20.460938 23.414062 L13.992188 16.875000 Z M28.757812 4.992188 C25.476546 1.664046 21.515648 -0.000000 16.875000 -0.000000 C12.234352 -0.000000 8.261735 1.652327 4.957031 4.957031 C1.652327 8.261735 0.000000 12.234352 0.000000 16.875000 C0.000000 21.515648 1.652327 25.488265 4.957031 28.792969 C8.261735 32.097673 12.234352 33.750000 16.875000 33.750000 C21.515648 33.750000 25.488265 32.097673 28.792969 28.792969 C32.097673 25.488265 33.750000 21.515648 33.750000 16.875000 C33.750000 12.234352 32.085954 8.273454 28.757812 4.992188 Z M27.210938 27.210938 C24.351548 30.070327 20.906270 31.500000 16.875000 31.500000 C12.843730 31.500000 9.398452 30.070327 6.539062 27.210938 C3.679673 24.351548 2.250000 20.906270 2.250000 16.875000 C2.250000 12.843730 3.679673 9.398452 6.539062 6.539062 C9.398452 3.679673 12.843730 2.250000 16.875000 2.250000 C20.906270 2.250000 24.351548 3.679673 27.210938 6.539062 C30.070327 9.398452 31.500000 12.843730 31.500000 16.875000 C31.500000 20.906270 30.070327 24.351548 27.210938 27.210938 Z M33.750000 31.500000" style="fill:black"/>
</svg>