<svg style="" width="33.609375" height="33.609375" version="1.1" xmlns="http://www.w3.org/2000/svg">
<path d="M22.007812 15.960938 L14.695312 8.648438 C14.179685 8.132810 13.652346 8.132810 13.113281 8.648438 C12.574216 9.164065 12.585935 9.679685 13.148438 10.195312 L19.617188 16.734375 L13.148438 23.273438 C12.585935 23.789065 12.574216 24.304685 13.113281 24.820312 C13.652346 25.335940 14.179685 25.335940 14.695312 24.820312 L22.007812 17.507812 C22.242189 17.320312 22.359375 17.062502 22.359375 16.734375 C22.359375 16.406248 22.242189 16.148438 22.007812 15.960938 Z M28.687500 4.921875 C25.406234 1.640609 21.445336 -0.000000 16.804688 -0.000000 C12.164039 -0.000000 8.203141 1.640609 4.921875 4.921875 C1.640609 8.203141 0.000000 12.164039 0.000000 16.804688 C0.000000 21.445336 1.640609 25.406234 4.921875 28.687500 C8.203141 31.968766 12.164039 33.609375 16.804688 33.609375 C21.445336 33.609375 25.406234 31.968766 28.687500 28.687500 C31.968766 25.406234 33.609375 21.445336 33.609375 16.804688 C33.609375 12.164039 31.968766 8.203141 28.687500 4.921875 Z M27.070312 27.140625 C24.257798 29.953139 20.847676 31.359375 16.839844 31.359375 C12.832011 31.359375 9.398452 29.941420 6.539062 27.105469 C3.679673 24.269517 2.250000 20.847676 2.250000 16.839844 C2.250000 12.832011 3.679673 9.398452 6.539062 6.539062 C9.398452 3.679673 12.832011 2.250000 16.839844 2.250000 C20.847676 2.250000 24.269517 3.679673 27.105469 6.539062 C29.941420 9.398452 31.359375 12.832011 31.359375 16.839844 C31.359375 20.847676 29.929702 24.281236 27.070312 27.140625 Z M33.609375 31.359375" style="fill:black"/>
</svg>