<svg width="762" height="78" fill="none" xmlns="http://www.w3.org/2000/svg"><path d="M69.734 68.637c-4.434 3.182-9.123 5.535-14.066 7.058-4.943 1.524-10.376 2.286-16.3 2.286-11.477 0-20.838-3.335-28.083-10.004C4.075 61.307.47 52.607.47 41.875c0-10.495 3.605-18.992 10.816-25.492 7.245-6.5 16.673-9.75 28.285-9.75 5.248 0 10.258.66 15.032 1.98 4.773 1.287 9.157 3.2 13.152 5.739l-3.555 12.543-1.015-.204c-1.727-5.992-4.401-10.444-8.024-13.355-3.588-2.945-8.226-4.418-13.914-4.418-8.26 0-14.828 2.98-19.703 8.938-4.841 5.958-7.262 13.998-7.262 24.12 0 10.258 2.438 18.468 7.313 24.63 4.875 6.127 11.324 9.19 19.347 9.19 6.094 0 11.274-1.81 15.54-5.433 4.265-3.656 6.99-8.599 8.175-14.828l1.016-.152 4.062 13.254zm70.737 6.855V76h-13a31.361 31.361 0 01-2.133-4.57 43.007 43.007 0 01-1.574-5.434c-1.998 3.792-4.621 6.652-7.871 8.582-3.25 1.93-7.042 2.895-11.375 2.895-4.435 0-8.346-.711-11.731-2.133-3.385-1.422-5.958-3.42-7.719-5.992-1.252-1.829-2.15-4.097-2.691-6.805-.508-2.742-.762-7.16-.762-13.254V35.984c0-3.994-.423-6.567-1.27-7.718-.812-1.185-2.37-1.88-4.671-2.082v-.813c2.065-.237 4.316-.643 6.754-1.219 2.471-.575 5.603-1.455 9.394-2.64a385.095 385.095 0 00-.406 17.672v6.754c0 11.34 1.168 18.958 3.504 22.851 2.336 3.893 6.432 5.84 12.289 5.84 5.315 0 9.411-2.268 12.289-6.805 2.911-4.57 4.367-11.104 4.367-19.601v-9.649c0-5.45-.389-8.836-1.168-10.156-.778-1.354-2.302-2.099-4.57-2.234v-.813c2.133-.27 4.435-.694 6.906-1.27 2.471-.609 5.501-1.472 9.09-2.59a370.795 370.795 0 00-.305 8.989c-.067 3.08-.101 6.365-.101 9.852V52.59c0 8.802.491 14.676 1.472 17.62.982 2.946 2.743 4.707 5.282 5.282zm5.177.813v-.813c2.607-.812 4.384-2.37 5.332-4.672.948-2.302 1.422-7.685 1.422-16.148V36.594c0-4.401-.406-7.228-1.219-8.48-.812-1.287-2.352-1.998-4.621-2.134v-.812a65.339 65.339 0 007.008-1.371 118.38 118.38 0 007.871-2.285v16.86c2.167-5.451 4.875-9.616 8.125-12.493 3.284-2.912 6.923-4.367 10.918-4.367.576 0 1.016.017 1.321.05.338 0 .609.017.812.051l-3.707 11.73h-.812c-.644-.778-1.389-1.37-2.235-1.777-.812-.406-1.743-.609-2.793-.609-3.453 0-6.094 1.557-7.922 4.672-1.794 3.08-2.691 7.6-2.691 13.559v6.093c0 8.26.457 13.508 1.371 15.742.948 2.201 2.725 3.69 5.332 4.47l-.051.812a339.309 339.309 0 00-5.738-.254c-1.862-.034-3.758-.051-5.688-.051-2.877 0-5.196.017-6.957.05-1.76.069-3.453.153-5.078.255zm41.283 0v-.813c2.607-.812 4.385-2.37 5.332-4.672.948-2.302 1.422-7.685 1.422-16.148V36.594c0-4.401-.406-7.228-1.218-8.48-.813-1.287-2.353-1.998-4.622-2.134v-.812a65.339 65.339 0 007.008-1.371 118.38 118.38 0 007.871-2.285v16.86c2.167-5.451 4.875-9.616 8.125-12.493 3.284-2.912 6.924-4.367 10.918-4.367.576 0 1.016.017 1.321.05.338 0 .609.017.812.051l-3.707 11.73h-.812c-.644-.778-1.388-1.37-2.235-1.777-.812-.406-1.743-.609-2.793-.609-3.453 0-6.093 1.557-7.922 4.672-1.794 3.08-2.691 7.6-2.691 13.559v6.093c0 8.26.457 13.508 1.371 15.742.948 2.201 2.725 3.69 5.332 4.47l-.051.812a339.309 339.309 0 00-5.738-.254c-1.862-.034-3.758-.051-5.687-.051-2.878 0-5.197.017-6.957.05-1.761.069-3.454.153-5.079.255zm99.53-34.43l-43.825.05c-.101 1.49-.186 2.777-.253 3.86a82.011 82.011 0 00-.051 2.54c0 8.158 1.845 14.54 5.535 19.144 3.69 4.57 8.785 6.855 15.285 6.855 5.349 0 10.004-1.794 13.965-5.383 3.961-3.588 6.889-8.683 8.785-15.285l1.574 2.082c-2.065 7.144-5.45 12.56-10.156 16.25-4.672 3.656-10.546 5.485-17.621 5.485-8.396 0-15.353-2.658-20.871-7.973-5.485-5.315-8.227-11.984-8.227-20.008 0-8.734 2.658-15.759 7.973-21.074 5.349-5.315 12.357-7.973 21.023-7.973 7.516 0 13.661 1.913 18.434 5.739 4.807 3.825 7.617 9.056 8.43 15.691zm-43.621-2.184h31.027c-.203-5.349-1.608-9.58-4.215-12.695-2.573-3.114-5.958-4.672-10.156-4.672-4.266 0-7.854 1.524-10.766 4.57-2.877 3.014-4.841 7.28-5.89 12.797zm50.83 36.614v-.813c2.539-.779 4.282-2.268 5.23-4.469.948-2.2 1.422-7.024 1.422-14.472V37c0-4.469-.406-7.313-1.219-8.531-.779-1.253-2.285-1.947-4.519-2.082v-.813a63.928 63.928 0 007.109-1.37 99.286 99.286 0 007.769-2.388v15.387c1.659-5.586 4.283-9.767 7.872-12.543 3.622-2.81 8.209-4.215 13.761-4.215 7.279 0 12.628 2.065 16.047 6.196 3.453 4.096 5.18 10.528 5.18 19.297v9.14c0 8.531.457 13.88 1.371 16.047.948 2.133 2.742 3.588 5.383 4.367l-.051.813c-1.93-.102-3.842-.187-5.738-.254-1.862-.034-3.758-.051-5.688-.051-2.877 0-5.196.017-6.957.05-1.76.069-3.453.153-5.078.255v-.813c2.539-.745 4.283-2.234 5.231-4.469.947-2.234 1.421-7.058 1.421-14.472V46.8c0-7.888-1.184-13.728-3.554-17.52-2.37-3.791-6.009-5.687-10.918-5.687-5.248 0-9.446 2.099-12.594 6.297-3.115 4.198-4.672 9.868-4.672 17.011v8.38c0 8.26.474 13.524 1.422 15.792.948 2.268 2.691 3.741 5.23 4.418v.813a339.309 339.309 0 00-5.738-.254c-1.862-.034-3.758-.051-5.687-.051-2.878 0-5.197.017-6.957.05-1.761.069-3.453.153-5.078.255zm70.533-48.852l.406-1.777c3.656-1.117 6.838-2.996 9.547-5.637 2.742-2.64 5.383-6.45 7.922-11.426h.761a155.71 155.71 0 00-.406 6.805 473.643 473.643 0 00-.254 8.531l11.375.051v.71l-1.066 2.743h-10.309v22.649c0 9.614.576 16.097 1.727 19.449 1.151 3.351 3.25 5.332 6.297 5.941v.61L383.55 76h-7.718c-1.388-.948-2.37-2.268-2.946-3.96-.575-1.694-.863-4.605-.863-8.735v-9.953l.609-25.899h-8.429zM432.804 9.02l.051-.813 2.996.152c3.487.237 6.043.356 7.668.356 1.557 0 4.062-.102 7.516-.305 1.726-.101 3.063-.17 4.011-.203v.813c-1.692.338-2.877.829-3.554 1.472-.678.643-1.016 1.608-1.016 2.895 0 1.015.254 2.488.762 4.418.541 1.93 1.252 3.96 2.132 6.093l14.473 34.938 20.719-52.203h.812l22.446 52.101 10.613-30.672a47.634 47.634 0 001.879-6.906c.474-2.336.711-4.232.711-5.687 0-2.031-.44-3.572-1.32-4.621-.847-1.05-2.167-1.66-3.961-1.828v-.711c1.625.101 3.199.186 4.722.254 1.558.033 3.098.05 4.621.05 1.524 0 3.03-.017 4.52-.05 1.489-.068 2.962-.153 4.418-.254v.71c-1.828.305-3.893 2.472-6.195 6.5-2.269 3.995-5.079 10.495-8.43 19.5l-15.945 42.962h-.407l-22.445-54.692-21.531 54.692h-.407l-22.597-58.043c-1.388-3.555-2.624-6.111-3.707-7.668-1.05-1.592-2.235-2.675-3.555-3.25zm115.475 39.609c0 8.565 1.608 15.15 4.824 19.754 3.216 4.604 7.786 6.906 13.711 6.906 5.823 0 10.325-2.285 13.508-6.855 3.182-4.605 4.773-11.172 4.773-19.703 0-8.464-1.608-14.981-4.824-19.551-3.216-4.57-7.804-6.856-13.762-6.856-5.687 0-10.156 2.32-13.406 6.957-3.216 4.638-4.824 11.087-4.824 19.348zm-11.832-.305c0-8.159 2.809-14.845 8.429-20.058 5.654-5.214 12.966-7.82 21.938-7.82 8.937 0 16.182 2.623 21.734 7.87 5.552 5.248 8.328 12.086 8.328 20.516 0 8.464-2.793 15.319-8.379 20.566-5.586 5.248-12.949 7.871-22.09 7.871-8.903 0-16.131-2.674-21.683-8.023-5.518-5.349-8.277-12.323-8.277-20.922zm67.841 27.98v-.812c2.607-.812 4.384-2.37 5.332-4.672.948-2.302 1.422-7.685 1.422-16.148V36.594c0-4.401-.406-7.228-1.219-8.48-.812-1.287-2.352-1.998-4.621-2.134v-.812a65.339 65.339 0 007.008-1.371 118.38 118.38 0 007.871-2.285v16.86c2.167-5.451 4.875-9.616 8.125-12.493 3.284-2.912 6.923-4.367 10.918-4.367.576 0 1.016.017 1.321.05.338 0 .609.017.812.051l-3.707 11.73h-.813c-.643-.778-1.388-1.37-2.234-1.777-.812-.406-1.743-.609-2.793-.609-3.453 0-6.094 1.557-7.922 4.672-1.794 3.08-2.691 7.6-2.691 13.559v6.093c0 8.26.457 13.508 1.371 15.742.948 2.201 2.725 3.69 5.332 4.47l-.051.812a339.309 339.309 0 00-5.738-.254c-1.862-.034-3.758-.051-5.688-.051-2.877 0-5.196.017-6.957.05-1.76.069-3.453.153-5.078.255zm40.776 0l-.051-.812c2.607-.812 4.384-2.404 5.332-4.773.982-2.404 1.473-7.651 1.473-15.742V16.94c0-5.484-.407-8.836-1.219-10.054-.813-1.219-2.353-1.896-4.621-2.032v-.812a70.033 70.033 0 007.668-1.422 104.47 104.47 0 008.531-2.437 223.214 223.214 0 00-.305 8.226 564.692 564.692 0 00-.101 11.73v24.477l12.898-10.969c2.979-2.505 5.01-4.418 6.094-5.738 1.083-1.32 1.625-2.454 1.625-3.402 0-.61-.22-1.084-.66-1.422-.44-.372-1.202-.694-2.285-.965v-.61c1.252.068 2.589.12 4.011.153 1.456.034 3.623.05 6.5.05 3.453 0 6.009-.016 7.668-.05 1.659-.034 3.149-.085 4.469-.152l.051.71c-6.331 1.186-13.508 4.757-21.532 10.715-.507.373-.897.66-1.167.864l-12.442 9.242c4.706.034 8.548.863 11.527 2.488 2.98 1.625 6.128 4.841 9.446 9.649a224.244 224.244 0 013.047 4.52c5.484 8.26 10.393 13.524 14.726 15.792v.813a142.679 142.679 0 00-4.012-.153c-1.354-.034-3.233-.05-5.636-.05-1.591 0-3.064.016-4.418.05a165.21 165.21 0 00-4.012.153 2745.655 2745.655 0 01-4.672-7.973c-8.565-14.794-14.354-22.191-17.367-22.191-1.388 0-2.387.524-2.996 1.574-.576 1.05-.863 2.877-.863 5.484 0 8.7.474 14.388 1.422 17.063.981 2.674 2.826 4.418 5.535 5.23v.813a178.903 178.903 0 00-4.875-.254c-1.727-.034-4.114-.051-7.16-.051-2.336 0-4.402.017-6.196.05-1.76.069-3.571.153-5.433.255zm63.83-3.757l3.554-11.73h.61c.507 4.333 2.725 7.837 6.652 10.511 3.927 2.64 8.853 3.961 14.777 3.961 4.977 0 9.023-1.185 12.137-3.555 3.149-2.37 4.723-5.382 4.723-9.039 0-3.013-.982-5.23-2.946-6.652-1.929-1.422-6.669-2.64-14.218-3.656-7.854-1.084-13.423-2.827-16.707-5.23-3.284-2.404-4.926-5.857-4.926-10.36 0-4.875 2.268-8.836 6.805-11.883 4.57-3.047 10.579-4.57 18.027-4.57 4.029 0 7.786.304 11.273.914 3.487.575 6.602 1.422 9.344 2.539L754.952 33.8h-.609c-1.117-3.893-3.03-6.788-5.738-8.684-2.675-1.93-6.162-2.894-10.461-2.894-4.672 0-8.515 1.117-11.528 3.351-3.013 2.235-4.519 5.01-4.519 8.328 0 2.776 1.117 4.858 3.351 6.246 2.235 1.388 6.382 2.387 12.442 2.996 8.971.915 15.116 2.472 18.433 4.672 3.318 2.167 4.977 5.468 4.977 9.903 0 6.161-2.471 11.002-7.414 14.523-4.943 3.487-11.832 5.23-20.668 5.23-4.435 0-8.684-.406-12.746-1.218a54.344 54.344 0 01-11.578-3.707z" fill="#fff"/></svg>