<svg width="851" height="319" viewBox="0 0 851 319" fill="none" xmlns="http://www.w3.org/2000/svg">
<path d="M34.2891 52.7422L63 27.3125C69.4531 21.7344 73.9648 17.3867 76.5352 14.2695C79.1602 11.1523 80.4727 8.55469 80.4727 6.47656C80.4727 5.10937 80.0898 4.125 79.3242 3.52344C78.6133 2.86719 77.2734 2.34766 75.3047 1.96484V0.652344C78.6953 0.816406 81.8398 0.953125 84.7383 1.0625C87.6367 1.11719 90.2344 1.14453 92.5312 1.14453C94.9922 1.14453 97.6445 1.11719 100.488 1.0625C103.332 0.953125 106.395 0.816406 109.676 0.652344V1.96484C105.246 3.66016 99.9688 6.50391 93.8438 10.4961C87.7734 14.4883 80.582 19.8203 72.2695 26.4922L43.2305 49.707C53.0195 49.9258 60.7852 51.4023 66.5273 54.1367C72.2695 56.8164 77.6016 61.5469 82.5234 68.3281C84.6016 71.2266 87.5273 75.5742 91.3008 81.3711C100.871 96.082 108.801 105.352 115.09 109.18L115.008 110.492C111.727 110.328 108.664 110.191 105.82 110.082C102.977 110.027 100.297 110 97.7812 110C96.5781 110 94.8555 110.027 92.6133 110.082C90.3711 110.191 87.6641 110.328 84.4922 110.492C80.8828 104.75 76.1797 97.0117 70.3828 87.2773C57.4219 65.5664 47.9609 54.7109 42 54.7109C39.375 54.7109 37.4336 55.5586 36.1758 57.2539C34.918 58.9492 34.2891 61.5742 34.2891 65.1289V72.1836C34.2891 87.2773 35.0547 96.9297 36.5859 101.141C38.1719 105.297 41.2617 107.977 45.8555 109.18V110.492C41.207 110.328 37.0781 110.191 33.4688 110.082C29.8594 110.027 26.7148 110 24.0352 110C20.8086 110 17.4727 110.027 14.0273 110.082C10.6367 110.191 7.16406 110.328 3.60938 110.492L3.52734 109.18C8.06641 108.086 11.1289 105.488 12.7148 101.387C14.3008 97.2305 15.0938 87.4961 15.0938 72.1836V15.2539C15.0938 11.3164 14.3555 8.33594 12.8789 6.3125C11.457 4.23438 9.02344 2.73047 5.57812 1.80078V0.488281C8.85938 0.707031 12.0859 0.871094 15.2578 0.980469C18.4297 1.08984 21.5742 1.14453 24.6914 1.14453C27.8086 1.14453 30.9805 1.08984 34.207 0.980469C37.4883 0.871094 40.7695 0.707031 44.0508 0.488281V1.80078C40.5508 2.56641 38.0352 3.98828 36.5039 6.06641C35.0273 8.14453 34.2891 11.207 34.2891 15.2539V52.7422ZM136.831 65.7852C136.831 79.6211 139.429 90.2578 144.624 97.6953C149.82 105.133 157.202 108.852 166.773 108.852C176.179 108.852 183.452 105.16 188.593 97.7773C193.734 90.3398 196.304 79.7305 196.304 65.9492C196.304 52.2773 193.706 41.75 188.511 34.3672C183.316 26.9844 175.906 23.293 166.281 23.293C157.093 23.293 149.874 27.0391 144.624 34.5312C139.429 42.0234 136.831 52.4414 136.831 65.7852ZM117.718 65.293C117.718 52.1133 122.257 41.3125 131.335 32.8906C140.468 24.4687 152.281 20.2578 166.773 20.2578C181.21 20.2578 192.913 24.4961 201.882 32.9727C210.851 41.4492 215.335 52.4961 215.335 66.1133C215.335 79.7852 210.824 90.8594 201.8 99.3359C192.777 107.812 180.882 112.051 166.117 112.051C151.734 112.051 140.058 107.73 131.089 99.0898C122.175 90.4492 117.718 79.1836 117.718 65.293ZM220.221 31.5781L220.877 28.707C226.784 26.9023 231.924 23.8672 236.299 19.6016C240.729 15.3359 244.995 9.18359 249.096 1.14453H250.327C250.053 4.37109 249.834 8.03516 249.67 12.1367C249.506 16.2383 249.37 20.832 249.26 25.918L267.635 26V27.1484L265.913 31.5781H249.26V68.1641C249.26 83.6953 250.19 94.168 252.049 99.582C253.909 104.996 257.299 108.195 262.221 109.18V110.164C258.612 110.109 255.03 110.055 251.475 110C247.975 110 243.819 110 239.006 110C236.764 108.469 235.178 106.336 234.248 103.602C233.319 100.867 232.854 96.1641 232.854 89.4922V83.0938V76.6953V73.4141L233.838 31.5781H220.221ZM369.6 110.328C365.663 110.219 362.573 110.137 360.33 110.082C358.143 110.027 356.147 110 354.342 110H348.6C347.342 107.703 346.194 105.242 345.155 102.617C344.17 99.9375 343.323 97.0117 342.612 93.8398C339.276 99.6914 334.764 104.23 329.077 107.457C323.444 110.629 317.073 112.215 309.963 112.215C299.901 112.215 291.698 109.645 285.354 104.504C279.065 99.3633 275.92 92.7461 275.92 84.6523C275.92 75.3008 281.444 68.2188 292.491 63.4062C303.592 58.5391 319.889 56.1055 341.381 56.1055L342.448 56.0234C342.338 44.7031 340.178 36.418 335.967 31.168C331.811 25.918 325.221 23.293 316.198 23.293C308.268 23.293 301.569 25.3711 296.1 29.5273C290.686 33.6836 287.432 39.1797 286.338 46.0156H285.436L280.104 28.8711C285.737 25.9727 291.78 23.7852 298.233 22.3086C304.686 20.832 311.522 20.0938 318.741 20.0938C324.811 20.0938 330.252 20.75 335.065 22.0625C339.877 23.3203 344.116 25.2617 347.78 27.8867C351.717 30.6758 354.506 34.2578 356.147 38.6328C357.842 43.0078 358.69 49.3242 358.69 57.582V79.7305C358.69 89.3008 359.538 96.4102 361.233 101.059C362.983 105.652 365.772 108.359 369.6 109.18V110.328ZM342.448 59.6328C341.627 59.5781 340.752 59.5508 339.823 59.5508C338.893 59.4961 337.58 59.4688 335.885 59.4688C322.651 59.4688 312.506 61.7383 305.452 66.2773C298.397 70.8164 294.87 77.3242 294.87 85.8008C294.87 92.418 296.674 97.6406 300.284 101.469C303.948 105.242 308.924 107.129 315.213 107.129C324.729 107.129 331.647 103.848 335.967 97.2852C340.288 90.7227 342.448 80.0039 342.448 65.1289V59.6328ZM373.784 110.492V109.18C377.995 107.867 380.866 105.352 382.397 101.633C383.928 97.9141 384.694 89.2188 384.694 75.5469V71.5273V46.3438C384.694 39.2344 384.038 34.668 382.725 32.6445C381.413 30.5664 378.924 29.418 375.26 29.1992V27.8867C378.87 27.3945 382.643 26.6562 386.58 25.6719C390.518 24.6875 394.756 23.457 399.295 21.9805V49.2148C402.795 40.4102 407.17 33.6836 412.42 29.0352C417.725 24.332 423.604 21.9805 430.057 21.9805C430.987 21.9805 431.698 22.0078 432.19 22.0625C432.737 22.0625 433.174 22.0898 433.502 22.1445L427.514 41.0938H426.202C425.163 39.8359 423.959 38.8789 422.592 38.2227C421.28 37.5664 419.776 37.2383 418.08 37.2383C412.502 37.2383 408.237 39.7539 405.284 44.7852C402.385 49.7617 400.936 57.0625 400.936 66.6875V76.5312C400.936 89.875 401.674 98.3516 403.151 101.961C404.682 105.516 407.553 107.922 411.764 109.18L411.682 110.492C408.565 110.328 405.475 110.191 402.413 110.082C399.405 110.027 396.342 110 393.225 110C388.577 110 384.83 110.027 381.987 110.082C379.143 110.191 376.409 110.328 373.784 110.492ZM458.4 65.7852C458.4 79.6211 460.998 90.2578 466.193 97.6953C471.389 105.133 478.772 108.852 488.342 108.852C497.748 108.852 505.022 105.16 510.162 97.7773C515.303 90.3398 517.873 79.7305 517.873 65.9492C517.873 52.2773 515.275 41.75 510.08 34.3672C504.885 26.9844 497.475 23.293 487.85 23.293C478.662 23.293 471.443 27.0391 466.193 34.5312C460.998 42.0234 458.4 52.4414 458.4 65.7852ZM439.287 65.293C439.287 52.1133 443.826 41.3125 452.904 32.8906C462.037 24.4687 473.85 20.2578 488.342 20.2578C502.779 20.2578 514.483 24.4961 523.451 32.9727C532.42 41.4492 536.904 52.4961 536.904 66.1133C536.904 79.7852 532.393 90.8594 523.369 99.3359C514.346 107.812 502.451 112.051 487.686 112.051C473.303 112.051 461.627 107.73 452.658 99.0898C443.744 90.4492 439.287 79.1836 439.287 65.293ZM0.410156 285.492L0.328125 284.18C5.79687 281.883 9.625 277.836 11.8125 272.039C14 266.242 15.0938 256.289 15.0938 242.18V235.453V198.457C15.0938 191.074 14.2461 186.043 12.5508 183.363C10.9102 180.684 7.95703 178.605 3.69141 177.129V175.816C6.53516 175.926 9.24219 176.008 11.8125 176.062C14.4375 176.117 16.8711 176.145 19.1133 176.145C22.832 176.145 25.7852 176.145 27.9727 176.145C30.1602 176.09 32.3203 176.035 34.4531 175.98C39.0469 186.918 44.4883 198.867 50.7773 211.828C57.0664 224.789 64.7773 239.938 73.9102 257.273L109.676 175.816C110.223 175.816 111.098 175.844 112.301 175.898C117.113 176.062 120.449 176.145 122.309 176.145C125.316 176.145 130.102 176.035 136.664 175.816C137.266 175.816 137.73 175.816 138.059 175.816V177.129C134.449 177.73 131.961 179.398 130.594 182.133C129.227 184.867 128.543 190.145 128.543 197.965V248.414C128.543 262.633 129.309 271.875 130.84 276.141C132.426 280.352 135.516 283.031 140.109 284.18V285.492C136.828 285.328 133.574 285.191 130.348 285.082C127.176 285.027 123.266 285 118.617 285C115.609 285 112.41 285.027 109.02 285.082C105.684 285.191 102.184 285.328 98.5195 285.492L98.4375 284.18C102.922 283.086 105.93 280.461 107.461 276.305C109.047 272.148 109.84 262.441 109.84 247.184V186.562L65.3789 288.199H64.1484C56.6016 269.551 49.0547 251.941 41.5078 235.371C33.9609 218.801 26.6328 203.707 19.5234 190.09V238.816C19.5234 255.551 20.5625 266.68 22.6406 272.203C24.7188 277.727 28.4922 281.719 33.9609 284.18L33.8789 285.492C30.4883 285.328 27.4531 285.191 24.7734 285.082C22.1484 285.027 19.9336 285 18.1289 285C15.2305 285 12.3047 285.027 9.35156 285.082C6.39844 285.191 3.41797 285.328 0.410156 285.492ZM146.59 285.492V284.18C150.965 282.812 153.945 279.969 155.531 275.648C157.172 271.328 157.992 262.004 157.992 247.676V243.492V224.543C157.992 215.738 157.309 210.27 155.941 208.137C154.629 205.949 152.059 204.746 148.23 204.527V203.215C152.277 202.723 156.461 201.984 160.781 201C165.156 199.961 169.777 198.621 174.645 196.98C174.645 197.582 174.535 201.629 174.316 209.121C174.098 216.613 173.988 223.312 173.988 229.219V248.578C173.988 262.633 174.781 271.738 176.367 275.895C177.953 279.996 180.961 282.758 185.391 284.18L185.309 285.492C182.738 285.328 180.031 285.191 177.188 285.082C174.398 285.027 170.57 285 165.703 285C161.547 285 158.02 285.027 155.121 285.082C152.277 285.191 149.434 285.328 146.59 285.492ZM155.613 176.309C155.613 173.52 156.543 171.195 158.402 169.336C160.316 167.477 162.695 166.547 165.539 166.547C168.328 166.547 170.68 167.504 172.594 169.418C174.508 171.332 175.465 173.629 175.465 176.309C175.465 179.043 174.508 181.34 172.594 183.199C170.734 185.004 168.383 185.906 165.539 185.906C162.586 185.906 160.18 185.031 158.32 183.281C156.516 181.477 155.613 179.152 155.613 176.309ZM192.855 285V284.016C200.457 275.266 209.316 264.219 219.434 250.875C220.91 248.961 221.977 247.566 222.633 246.691L246.34 215.602L246.75 214.945C251.18 209.039 253.395 205.348 253.395 203.871C253.395 202.832 252.465 202.066 250.605 201.574C248.746 201.082 245.793 200.836 241.746 200.836C230.59 200.836 221.922 202.176 215.742 204.855C209.617 207.535 203.902 212.129 198.598 218.637L197.613 218.309L205.652 197.473H278.906V198.621C262.828 218.473 249.512 236.027 238.957 251.285C228.402 266.488 223.125 275.484 223.125 278.273C223.125 279.422 223.863 280.27 225.34 280.816C226.871 281.363 229.223 281.637 232.395 281.637C244.973 281.637 254.898 280.078 262.172 276.961C269.5 273.844 276.145 268.566 282.105 261.129L283.254 261.457L275.379 285.328C274.832 285.328 273.984 285.301 272.836 285.246C267.312 285.082 263.457 285 261.27 285H250.031H192.855ZM310.652 240.785C310.652 254.621 313.25 265.258 318.445 272.695C323.641 280.133 331.023 283.852 340.594 283.852C350 283.852 357.273 280.16 362.414 272.777C367.555 265.34 370.125 254.73 370.125 240.949C370.125 227.277 367.527 216.75 362.332 209.367C357.137 201.984 349.727 198.293 340.102 198.293C330.914 198.293 323.695 202.039 318.445 209.531C313.25 217.023 310.652 227.441 310.652 240.785ZM291.539 240.293C291.539 227.113 296.078 216.312 305.156 207.891C314.289 199.469 326.102 195.258 340.594 195.258C355.031 195.258 366.734 199.496 375.703 207.973C384.672 216.449 389.156 227.496 389.156 241.113C389.156 254.785 384.645 265.859 375.621 274.336C366.598 282.812 354.703 287.051 339.938 287.051C325.555 287.051 313.879 282.73 304.91 274.09C295.996 265.449 291.539 254.184 291.539 240.293ZM441.578 278.438C432.007 278.438 424.57 280.023 419.265 283.195C414.015 286.312 411.39 290.66 411.39 296.238C411.39 301.98 414.179 306.52 419.757 309.855C425.335 313.246 432.937 314.941 442.562 314.941C453.335 314.941 461.839 313.164 468.074 309.609C474.363 306.109 477.507 301.379 477.507 295.418C477.507 289.84 474.472 285.629 468.402 282.785C462.386 279.887 453.445 278.438 441.578 278.438ZM444.12 198.129C436.847 198.129 430.941 200.754 426.402 206.004C421.863 211.199 419.593 218.035 419.593 226.512C419.593 234.77 421.808 241.387 426.238 246.363C430.722 251.285 436.683 253.746 444.12 253.746C451.722 253.746 457.574 251.23 461.675 246.199C465.777 241.168 467.828 233.949 467.828 224.543C467.828 216.449 465.695 210.023 461.429 205.266C457.163 200.508 451.394 198.129 444.12 198.129ZM426.976 275.895C421.015 275.457 416.695 274.5 414.015 273.023C411.335 271.492 409.995 269.277 409.995 266.379C409.995 263.48 411.691 261.074 415.081 259.16C418.472 257.191 423.613 255.66 430.503 254.566C421.261 252.762 414.097 249.398 409.011 244.477C403.98 239.5 401.464 233.402 401.464 226.184C401.464 217.379 405.484 209.996 413.523 204.035C421.562 198.074 431.597 195.094 443.628 195.094C445.652 195.094 447.839 195.258 450.191 195.586C452.597 195.859 455.66 196.379 459.378 197.145C463.699 192.551 468.21 189.051 472.913 186.645C477.671 184.238 482.347 183.035 486.941 183.035C487.87 183.035 488.91 183.09 490.058 183.199C491.261 183.254 492.574 183.363 493.995 183.527L488.335 201.328H487.269C486.12 198.977 484.261 197.035 481.691 195.504C479.12 193.918 476.495 193.125 473.816 193.125C471.847 193.125 469.96 193.562 468.156 194.438C466.351 195.258 464.546 196.543 462.742 198.293C470.671 201.355 476.55 205.156 480.378 209.695C484.206 214.234 486.12 219.676 486.12 226.02C486.12 234.332 482.785 241.332 476.113 247.02C469.495 252.652 460.855 255.797 450.191 256.453C448.277 256.562 445.679 256.672 442.398 256.781C432.773 257.164 427.96 258.668 427.96 261.293C427.96 263.809 434.085 265.586 446.335 266.625C449.835 266.953 452.57 267.199 454.538 267.363C468.101 268.566 478.027 271.027 484.316 274.746C490.66 278.465 493.831 283.688 493.831 290.414C493.831 298.836 489.074 305.535 479.558 310.512C470.097 315.543 457.109 318.059 440.593 318.059C427.413 318.059 416.558 315.926 408.027 311.66C399.495 307.395 395.23 301.98 395.23 295.418C395.23 290.059 397.828 285.793 403.023 282.621C408.218 279.449 416.203 277.207 426.976 275.895ZM603.835 284.18V285H582.835C581.523 282.703 580.374 280.242 579.39 277.617C578.406 274.938 577.558 272.012 576.847 268.84C573.62 274.965 569.382 279.586 564.132 282.703C558.882 285.82 552.757 287.379 545.757 287.379C538.593 287.379 532.277 286.23 526.808 283.934C521.339 281.637 517.183 278.41 514.339 274.254C512.316 271.301 510.867 267.637 509.992 263.262C509.171 258.832 508.761 251.695 508.761 241.852V236.766V220.359C508.761 213.906 508.078 209.75 506.71 207.891C505.398 205.977 502.882 204.855 499.163 204.527V203.215C502.499 202.832 506.136 202.176 510.074 201.246C514.066 200.316 519.124 198.895 525.249 196.98C525.031 201.738 524.867 206.496 524.757 211.254C524.648 216.012 524.593 220.77 524.593 225.527V236.438C524.593 254.758 526.48 267.062 530.253 273.352C534.027 279.641 540.644 282.785 550.105 282.785C558.691 282.785 565.308 279.121 569.956 271.793C574.66 264.41 577.011 253.855 577.011 240.129V224.543C577.011 215.738 576.382 210.27 575.124 208.137C573.867 205.949 571.406 204.746 567.742 204.527V203.215C571.187 202.777 574.906 202.094 578.898 201.164C582.89 200.18 587.785 198.785 593.581 196.98C593.363 201.684 593.199 206.523 593.089 211.5C592.98 216.477 592.925 221.781 592.925 227.414V247.184C592.925 261.402 593.718 270.891 595.304 275.648C596.89 280.406 599.734 283.25 603.835 284.18ZM693.171 259.488L695.632 262.688C691.858 270.727 686.718 276.852 680.21 281.062C673.702 285.273 666.018 287.379 657.159 287.379C643.214 287.379 631.784 283.086 622.87 274.5C613.956 265.914 609.499 254.922 609.499 241.523C609.499 227.742 613.983 216.586 622.952 208.055C631.921 199.523 643.678 195.258 658.225 195.258C665.116 195.258 671.624 196.105 677.749 197.801C683.874 199.496 689.616 202.012 694.975 205.348L689.479 223.312H688.413C686.772 215.711 683.327 209.668 678.077 205.184C672.827 200.699 666.593 198.457 659.374 198.457C650.186 198.457 642.776 202.121 637.143 209.449C631.565 216.777 628.776 226.566 628.776 238.816C628.776 252.324 631.675 262.961 637.471 270.727C643.323 278.438 651.253 282.293 661.26 282.293C668.206 282.293 674.385 280.379 679.8 276.551C685.214 272.668 689.671 266.98 693.171 259.488ZM701.62 285.492L701.538 284.18C705.749 282.977 708.62 280.516 710.151 276.797C711.682 273.023 712.448 264.793 712.448 252.105V246.527V186.891C712.448 179.836 711.792 175.297 710.479 173.273C709.221 171.25 706.76 170.129 703.096 169.91V168.598C706.87 168.27 710.889 167.613 715.155 166.629C719.475 165.59 724.124 164.168 729.1 162.363C728.827 166.52 728.608 171.141 728.444 176.227C728.335 181.312 728.28 187.383 728.28 194.438V219.293C730.632 211.527 734.706 205.594 740.503 201.492C746.354 197.336 753.546 195.258 762.077 195.258C773.889 195.258 782.557 198.594 788.081 205.266C793.659 211.883 796.448 222.273 796.448 236.438V251.203V253.09C796.448 265.832 797.214 273.898 798.745 277.289C800.276 280.68 803.12 282.977 807.276 284.18L807.194 285.492C804.077 285.328 800.987 285.191 797.925 285.082C794.917 285.027 791.854 285 788.737 285C784.089 285 780.343 285.027 777.499 285.082C774.655 285.191 771.921 285.328 769.296 285.492V284.18C773.452 282.977 776.296 280.488 777.827 276.715C779.413 272.941 780.206 264.738 780.206 252.105V246.527V237.832C780.206 225.09 778.292 215.656 774.464 209.531C770.635 203.406 764.757 200.344 756.827 200.344C748.296 200.344 741.487 203.734 736.401 210.516C731.315 217.297 728.772 226.457 728.772 237.996V251.531C728.772 264.875 729.51 273.379 730.987 277.043C732.518 280.707 735.362 283.086 739.518 284.18V285.492C736.346 285.328 733.229 285.191 730.167 285.082C727.159 285.027 724.124 285 721.061 285C716.413 285 712.667 285.027 709.823 285.082C706.979 285.191 704.245 285.328 701.62 285.492ZM811.706 285.492V284.18C816.081 282.812 819.061 279.969 820.647 275.648C822.288 271.328 823.108 262.004 823.108 247.676V243.492V224.543C823.108 215.738 822.425 210.27 821.057 208.137C819.745 205.949 817.175 204.746 813.346 204.527V203.215C817.393 202.723 821.577 201.984 825.897 201C830.272 199.961 834.893 198.621 839.76 196.98C839.76 197.582 839.651 201.629 839.432 209.121C839.214 216.613 839.104 223.312 839.104 229.219V248.578C839.104 262.633 839.897 271.738 841.483 275.895C843.069 279.996 846.077 282.758 850.507 284.18L850.425 285.492C847.854 285.328 845.147 285.191 842.303 285.082C839.514 285.027 835.686 285 830.819 285C826.663 285 823.135 285.027 820.237 285.082C817.393 285.191 814.55 285.328 811.706 285.492ZM820.729 176.309C820.729 173.52 821.659 171.195 823.518 169.336C825.432 167.477 827.811 166.547 830.655 166.547C833.444 166.547 835.796 167.504 837.71 169.418C839.624 171.332 840.581 173.629 840.581 176.309C840.581 179.043 839.624 181.34 837.71 183.199C835.85 185.004 833.499 185.906 830.655 185.906C827.702 185.906 825.296 185.031 823.436 183.281C821.632 181.477 820.729 179.152 820.729 176.309Z" fill="#FAFAFA"/>
</svg>
