<svg width="638" height="144" viewBox="0 0 638 144" fill="none" xmlns="http://www.w3.org/2000/svg">
<path d="M31.2891 52.7422L60 27.3125C66.4531 21.7344 70.9648 17.3867 73.5352 14.2695C76.1602 11.1523 77.4727 8.55469 77.4727 6.47656C77.4727 5.10937 77.0898 4.125 76.3242 3.52344C75.6133 2.86719 74.2734 2.34766 72.3047 1.96484V0.652344C75.6953 0.816406 78.8398 0.953125 81.7383 1.0625C84.6367 1.11719 87.2344 1.14453 89.5312 1.14453C91.9922 1.14453 94.6445 1.11719 97.4883 1.0625C100.332 0.953125 103.395 0.816406 106.676 0.652344V1.96484C102.246 3.66016 96.9688 6.50391 90.8438 10.4961C84.7734 14.4883 77.582 19.8203 69.2695 26.4922L40.2305 49.707C50.0195 49.9258 57.7852 51.4023 63.5273 54.1367C69.2695 56.8164 74.6016 61.5469 79.5234 68.3281C81.6016 71.2266 84.5273 75.5742 88.3008 81.3711C97.8711 96.082 105.801 105.352 112.09 109.18L112.008 110.492C108.727 110.328 105.664 110.191 102.82 110.082C99.9766 110.027 97.2969 110 94.7812 110C93.5781 110 91.8555 110.027 89.6133 110.082C87.3711 110.191 84.6641 110.328 81.4922 110.492C77.8828 104.75 73.1797 97.0117 67.3828 87.2773C54.4219 65.5664 44.9609 54.7109 39 54.7109C36.375 54.7109 34.4336 55.5586 33.1758 57.2539C31.918 58.9492 31.2891 61.5742 31.2891 65.1289V72.1836C31.2891 87.2773 32.0547 96.9297 33.5859 101.141C35.1719 105.297 38.2617 107.977 42.8555 109.18V110.492C38.207 110.328 34.0781 110.191 30.4688 110.082C26.8594 110.027 23.7148 110 21.0352 110C17.8086 110 14.4727 110.027 11.0273 110.082C7.63672 110.191 4.16406 110.328 0.609375 110.492L0.527344 109.18C5.06641 108.086 8.12891 105.488 9.71484 101.387C11.3008 97.2305 12.0938 87.4961 12.0938 72.1836V15.2539C12.0938 11.3164 11.3555 8.33594 9.87891 6.3125C8.45703 4.23438 6.02344 2.73047 2.57812 1.80078V0.488281C5.85938 0.707031 9.08594 0.871094 12.2578 0.980469C15.4297 1.08984 18.5742 1.14453 21.6914 1.14453C24.8086 1.14453 27.9805 1.08984 31.207 0.980469C34.4883 0.871094 37.7695 0.707031 41.0508 0.488281V1.80078C37.5508 2.56641 35.0352 3.98828 33.5039 6.06641C32.0273 8.14453 31.2891 11.207 31.2891 15.2539V52.7422ZM131.121 65.7852C131.121 79.6211 133.719 90.2578 138.914 97.6953C144.109 105.133 151.492 108.852 161.062 108.852C170.469 108.852 177.742 105.16 182.883 97.7773C188.023 90.3398 190.594 79.7305 190.594 65.9492C190.594 52.2773 187.996 41.75 182.801 34.3672C177.605 26.9844 170.195 23.293 160.57 23.293C151.383 23.293 144.164 27.0391 138.914 34.5312C133.719 42.0234 131.121 52.4414 131.121 65.7852ZM112.008 65.293C112.008 52.1133 116.547 41.3125 125.625 32.8906C134.758 24.4687 146.57 20.2578 161.062 20.2578C175.5 20.2578 187.203 24.4961 196.172 32.9727C205.141 41.4492 209.625 52.4961 209.625 66.1133C209.625 79.7852 205.113 90.8594 196.09 99.3359C187.066 107.812 175.172 112.051 160.406 112.051C146.023 112.051 134.348 107.73 125.379 99.0898C116.465 90.4492 112.008 79.1836 112.008 65.293ZM219.551 31.5781L220.207 28.707C226.113 26.9023 231.254 23.8672 235.629 19.6016C240.059 15.3359 244.324 9.18359 248.426 1.14453H249.656C249.383 4.37109 249.164 8.03516 249 12.1367C248.836 16.2383 248.699 20.832 248.59 25.918L266.965 26V27.1484L265.242 31.5781H248.59V68.1641C248.59 83.6953 249.52 94.168 251.379 99.582C253.238 104.996 256.629 108.195 261.551 109.18V110.164C257.941 110.109 254.359 110.055 250.805 110C247.305 110 243.148 110 238.336 110C236.094 108.469 234.508 106.336 233.578 103.602C232.648 100.867 232.184 96.1641 232.184 89.4922V83.0938V76.6953V73.4141L233.168 31.5781H219.551ZM368.93 110.328C364.992 110.219 361.902 110.137 359.66 110.082C357.473 110.027 355.477 110 353.672 110H347.93C346.672 107.703 345.523 105.242 344.484 102.617C343.5 99.9375 342.652 97.0117 341.941 93.8398C338.605 99.6914 334.094 104.23 328.406 107.457C322.773 110.629 316.402 112.215 309.293 112.215C299.23 112.215 291.027 109.645 284.684 104.504C278.395 99.3633 275.25 92.7461 275.25 84.6523C275.25 75.3008 280.773 68.2188 291.82 63.4062C302.922 58.5391 319.219 56.1055 340.711 56.1055L341.777 56.0234C341.668 44.7031 339.508 36.418 335.297 31.168C331.141 25.918 324.551 23.293 315.527 23.293C307.598 23.293 300.898 25.3711 295.43 29.5273C290.016 33.6836 286.762 39.1797 285.668 46.0156H284.766L279.434 28.8711C285.066 25.9727 291.109 23.7852 297.562 22.3086C304.016 20.832 310.852 20.0938 318.07 20.0938C324.141 20.0938 329.582 20.75 334.395 22.0625C339.207 23.3203 343.445 25.2617 347.109 27.8867C351.047 30.6758 353.836 34.2578 355.477 38.6328C357.172 43.0078 358.02 49.3242 358.02 57.582V79.7305C358.02 89.3008 358.867 96.4102 360.562 101.059C362.312 105.652 365.102 108.359 368.93 109.18V110.328ZM341.777 59.6328C340.957 59.5781 340.082 59.5508 339.152 59.5508C338.223 59.4961 336.91 59.4688 335.215 59.4688C321.98 59.4688 311.836 61.7383 304.781 66.2773C297.727 70.8164 294.199 77.3242 294.199 85.8008C294.199 92.418 296.004 97.6406 299.613 101.469C303.277 105.242 308.254 107.129 314.543 107.129C324.059 107.129 330.977 103.848 335.297 97.2852C339.617 90.7227 341.777 80.0039 341.777 65.1289V59.6328ZM373.113 110.492V109.18C377.324 107.867 380.195 105.352 381.727 101.633C383.258 97.9141 384.023 89.2188 384.023 75.5469V71.5273V46.3438C384.023 39.2344 383.367 34.668 382.055 32.6445C380.742 30.5664 378.254 29.418 374.59 29.1992V27.8867C378.199 27.3945 381.973 26.6562 385.91 25.6719C389.848 24.6875 394.086 23.457 398.625 21.9805V49.2148C402.125 40.4102 406.5 33.6836 411.75 29.0352C417.055 24.332 422.934 21.9805 429.387 21.9805C430.316 21.9805 431.027 22.0078 431.52 22.0625C432.066 22.0625 432.504 22.0898 432.832 22.1445L426.844 41.0938H425.531C424.492 39.8359 423.289 38.8789 421.922 38.2227C420.609 37.5664 419.105 37.2383 417.41 37.2383C411.832 37.2383 407.566 39.7539 404.613 44.7852C401.715 49.7617 400.266 57.0625 400.266 66.6875V76.5312C400.266 89.875 401.004 98.3516 402.48 101.961C404.012 105.516 406.883 107.922 411.094 109.18L411.012 110.492C407.895 110.328 404.805 110.191 401.742 110.082C398.734 110.027 395.672 110 392.555 110C387.906 110 384.16 110.027 381.316 110.082C378.473 110.191 375.738 110.328 373.113 110.492ZM456.05 65.7852C456.05 79.6211 458.648 90.2578 463.843 97.6953C469.038 105.133 476.421 108.852 485.992 108.852C495.398 108.852 502.671 105.16 507.812 97.7773C512.953 90.3398 515.523 79.7305 515.523 65.9492C515.523 52.2773 512.925 41.75 507.73 34.3672C502.535 26.9844 495.124 23.293 485.499 23.293C476.312 23.293 469.093 27.0391 463.843 34.5312C458.648 42.0234 456.05 52.4414 456.05 65.7852ZM436.937 65.293C436.937 52.1133 441.476 41.3125 450.554 32.8906C459.687 24.4687 471.499 20.2578 485.992 20.2578C500.429 20.2578 512.132 24.4961 521.101 32.9727C530.07 41.4492 534.554 52.4961 534.554 66.1133C534.554 79.7852 530.042 90.8594 521.019 99.3359C511.995 107.812 500.101 112.051 485.335 112.051C470.953 112.051 459.277 107.73 450.308 99.0898C441.394 90.4492 436.937 79.1836 436.937 65.293Z" fill="#FAFAFA"/>
<path d="M585.295 103.438C575.725 103.438 568.287 105.023 562.983 108.195C557.733 111.312 555.108 115.66 555.108 121.238C555.108 126.98 557.897 131.52 563.475 134.855C569.053 138.246 576.655 139.941 586.28 139.941C597.053 139.941 605.557 138.164 611.791 134.609C618.08 131.109 621.225 126.379 621.225 120.418C621.225 114.84 618.19 110.629 612.12 107.785C606.104 104.887 597.162 103.438 585.295 103.438ZM587.838 23.1289C580.565 23.1289 574.659 25.7539 570.12 31.0039C565.58 36.1992 563.311 43.0352 563.311 51.5117C563.311 59.7695 565.526 66.3867 569.955 71.3633C574.44 76.2852 580.401 78.7461 587.838 78.7461C595.44 78.7461 601.291 76.2305 605.393 71.1992C609.495 66.168 611.545 58.9492 611.545 49.543C611.545 41.4492 609.412 35.0234 605.147 30.2656C600.881 25.5078 595.112 23.1289 587.838 23.1289ZM570.694 100.895C564.733 100.457 560.412 99.5 557.733 98.0234C555.053 96.4922 553.713 94.2773 553.713 91.3789C553.713 88.4805 555.409 86.0742 558.799 84.1602C562.19 82.1914 567.33 80.6602 574.221 79.5664C564.979 77.7617 557.815 74.3984 552.729 69.4766C547.698 64.5 545.182 58.4023 545.182 51.1836C545.182 42.3789 549.202 34.9961 557.241 29.0352C565.28 23.0742 575.315 20.0938 587.346 20.0938C589.37 20.0938 591.557 20.2578 593.909 20.5859C596.315 20.8594 599.377 21.3789 603.096 22.1445C607.416 17.5508 611.928 14.0508 616.631 11.6445C621.389 9.23828 626.065 8.03516 630.659 8.03516C631.588 8.03516 632.627 8.08984 633.776 8.19922C634.979 8.25391 636.291 8.36328 637.713 8.52734L632.053 26.3281H630.987C629.838 23.9766 627.979 22.0352 625.409 20.5039C622.838 18.918 620.213 18.125 617.534 18.125C615.565 18.125 613.678 18.5625 611.873 19.4375C610.069 20.2578 608.264 21.543 606.459 23.293C614.389 26.3555 620.268 30.1562 624.096 34.6953C627.924 39.2344 629.838 44.6758 629.838 51.0195C629.838 59.332 626.502 66.332 619.83 72.0195C613.213 77.6523 604.573 80.7969 593.909 81.4531C591.995 81.5625 589.397 81.6719 586.116 81.7812C576.491 82.1641 571.678 83.668 571.678 86.293C571.678 88.8086 577.803 90.5859 590.053 91.625C593.553 91.9531 596.287 92.1992 598.256 92.3633C611.819 93.5664 621.745 96.0273 628.034 99.7461C634.377 103.465 637.549 108.688 637.549 115.414C637.549 123.836 632.791 130.535 623.276 135.512C613.815 140.543 600.827 143.059 584.311 143.059C571.131 143.059 560.276 140.926 551.745 136.66C543.213 132.395 538.948 126.98 538.948 120.418C538.948 115.059 541.545 110.793 546.741 107.621C551.936 104.449 559.92 102.207 570.694 100.895Z" fill="#B70000"/>
</svg>
