<svg width="534" height="113" viewBox="0 0 534 113" fill="none" xmlns="http://www.w3.org/2000/svg">
<path d="M31.2891 52.7422L60 27.3125C66.4531 21.7344 70.9648 17.3867 73.5352 14.2695C76.1602 11.1523 77.4727 8.55469 77.4727 6.47656C77.4727 5.10938 77.0898 4.125 76.3242 3.52344C75.6133 2.86719 74.2734 2.34766 72.3047 1.96484V0.652344C75.6953 0.816406 78.8398 0.953125 81.7383 1.0625C84.6367 1.11719 87.2344 1.14453 89.5312 1.14453C91.9922 1.14453 94.6445 1.11719 97.4883 1.0625C100.332 0.953125 103.395 0.816406 106.676 0.652344V1.96484C102.246 3.66016 96.9688 6.50391 90.8438 10.4961C84.7734 14.4883 77.582 19.8203 69.2695 26.4922L40.2305 49.707C50.0195 49.9258 57.7852 51.4023 63.5273 54.1367C69.2695 56.8164 74.6016 61.5469 79.5234 68.3281C81.6016 71.2266 84.5273 75.5742 88.3008 81.3711C97.8711 96.082 105.801 105.352 112.09 109.18L112.008 110.492C108.727 110.328 105.664 110.191 102.82 110.082C99.9766 110.027 97.2969 110 94.7812 110C93.5781 110 91.8555 110.027 89.6133 110.082C87.3711 110.191 84.6641 110.328 81.4922 110.492C77.8828 104.75 73.1797 97.0117 67.3828 87.2773C54.4219 65.5664 44.9609 54.7109 39 54.7109C36.375 54.7109 34.4336 55.5586 33.1758 57.2539C31.918 58.9492 31.2891 61.5742 31.2891 65.1289V72.1836C31.2891 87.2773 32.0547 96.9297 33.5859 101.141C35.1719 105.297 38.2617 107.977 42.8555 109.18V110.492C38.207 110.328 34.0781 110.191 30.4688 110.082C26.8594 110.027 23.7148 110 21.0352 110C17.8086 110 14.4727 110.027 11.0273 110.082C7.63672 110.191 4.16406 110.328 0.609375 110.492L0.527344 109.18C5.06641 108.086 8.12891 105.488 9.71484 101.387C11.3008 97.2305 12.0938 87.4961 12.0938 72.1836V15.2539C12.0938 11.3164 11.3555 8.33594 9.87891 6.3125C8.45703 4.23438 6.02344 2.73047 2.57812 1.80078V0.488281C5.85938 0.707031 9.08594 0.871094 12.2578 0.980469C15.4297 1.08984 18.5742 1.14453 21.6914 1.14453C24.8086 1.14453 27.9805 1.08984 31.207 0.980469C34.4883 0.871094 37.7695 0.707031 41.0508 0.488281V1.80078C37.5508 2.56641 35.0352 3.98828 33.5039 6.06641C32.0273 8.14453 31.2891 11.207 31.2891 15.2539V52.7422Z" fill="#FAFAFA"/>
<path d="M133.831 65.7852C133.831 79.6211 136.429 90.2578 141.624 97.6953C146.82 105.133 154.202 108.852 163.773 108.852C173.179 108.852 180.452 105.16 185.593 97.7773C190.734 90.3398 193.304 79.7305 193.304 65.9492C193.304 52.2773 190.706 41.75 185.511 34.3672C180.316 26.9844 172.906 23.293 163.281 23.293C154.093 23.293 146.874 27.0391 141.624 34.5312C136.429 42.0234 133.831 52.4414 133.831 65.7852ZM114.718 65.293C114.718 52.1133 119.257 41.3125 128.335 32.8906C137.468 24.4688 149.281 20.2578 163.773 20.2578C178.21 20.2578 189.913 24.4961 198.882 32.9727C207.851 41.4492 212.335 52.4961 212.335 66.1133C212.335 79.7852 207.824 90.8594 198.8 99.3359C189.777 107.812 177.882 112.051 163.117 112.051C148.734 112.051 137.058 107.73 128.089 99.0898C119.175 90.4492 114.718 79.1836 114.718 65.293Z" fill="#FAFAFA"/>
<path d="M217.221 31.5781L217.877 28.707C223.784 26.9023 228.924 23.8672 233.299 19.6016C237.729 15.3359 241.995 9.18359 246.096 1.14453H247.327C247.053 4.37109 246.834 8.03516 246.67 12.1367C246.506 16.2383 246.37 20.832 246.26 25.918L264.635 26V27.1484L262.913 31.5781H246.26V68.1641C246.26 83.6953 247.19 94.168 249.049 99.582C250.909 104.996 254.299 108.195 259.221 109.18V110.164C255.612 110.109 252.03 110.055 248.475 110C244.975 110 240.819 110 236.006 110C233.764 108.469 232.178 106.336 231.248 103.602C230.319 100.867 229.854 96.1641 229.854 89.4922V83.0938V76.6953V73.4141L230.838 31.5781H217.221Z" fill="#FAFAFA"/>
<path d="M366.6 110.328C362.663 110.219 359.573 110.137 357.33 110.082C355.143 110.027 353.147 110 351.342 110H345.6C344.342 107.703 343.194 105.242 342.155 102.617C341.17 99.9375 340.323 97.0117 339.612 93.8398C336.276 99.6914 331.764 104.23 326.077 107.457C320.444 110.629 314.073 112.215 306.963 112.215C296.901 112.215 288.698 109.645 282.354 104.504C276.065 99.3633 272.92 92.7461 272.92 84.6523C272.92 75.3008 278.444 68.2188 289.491 63.4062C300.592 58.5391 316.889 56.1055 338.381 56.1055L339.448 56.0234C339.338 44.7031 337.178 36.418 332.967 31.168C328.811 25.918 322.221 23.293 313.198 23.293C305.268 23.293 298.569 25.3711 293.1 29.5273C287.686 33.6836 284.432 39.1797 283.338 46.0156H282.436L277.104 28.8711C282.737 25.9727 288.78 23.7852 295.233 22.3086C301.686 20.832 308.522 20.0938 315.741 20.0938C321.811 20.0938 327.252 20.75 332.065 22.0625C336.877 23.3203 341.116 25.2617 344.78 27.8867C348.717 30.6758 351.506 34.2578 353.147 38.6328C354.842 43.0078 355.69 49.3242 355.69 57.582V79.7305C355.69 89.3008 356.538 96.4102 358.233 101.059C359.983 105.652 362.772 108.359 366.6 109.18V110.328ZM339.448 59.6328C338.627 59.5781 337.752 59.5508 336.823 59.5508C335.893 59.4961 334.58 59.4688 332.885 59.4688C319.651 59.4688 309.506 61.7383 302.452 66.2773C295.397 70.8164 291.87 77.3242 291.87 85.8008C291.87 92.418 293.674 97.6406 297.284 101.469C300.948 105.242 305.924 107.129 312.213 107.129C321.729 107.129 328.647 103.848 332.967 97.2852C337.288 90.7227 339.448 80.0039 339.448 65.1289V59.6328Z" fill="#FAFAFA"/>
<path d="M370.784 110.492V109.18C374.995 107.867 377.866 105.352 379.397 101.633C380.928 97.9141 381.694 89.2188 381.694 75.5469V71.5273V46.3438C381.694 39.2344 381.038 34.668 379.725 32.6445C378.413 30.5664 375.924 29.418 372.26 29.1992V27.8867C375.87 27.3945 379.643 26.6562 383.58 25.6719C387.518 24.6875 391.756 23.457 396.295 21.9805V49.2148C399.795 40.4102 404.17 33.6836 409.42 29.0352C414.725 24.332 420.604 21.9805 427.057 21.9805C427.987 21.9805 428.698 22.0078 429.19 22.0625C429.737 22.0625 430.174 22.0898 430.502 22.1445L424.514 41.0938H423.202C422.163 39.8359 420.959 38.8789 419.592 38.2227C418.28 37.5664 416.776 37.2383 415.08 37.2383C409.502 37.2383 405.237 39.7539 402.284 44.7852C399.385 49.7617 397.936 57.0625 397.936 66.6875V76.5312C397.936 89.875 398.674 98.3516 400.151 101.961C401.682 105.516 404.553 107.922 408.764 109.18L408.682 110.492C405.565 110.328 402.475 110.191 399.413 110.082C396.405 110.027 393.342 110 390.225 110C385.577 110 381.83 110.027 378.987 110.082C376.143 110.191 373.409 110.328 370.784 110.492Z" fill="#FAFAFA"/>
<path d="M455.4 65.7852C455.4 79.6211 457.998 90.2578 463.193 97.6953C468.389 105.133 475.772 108.852 485.342 108.852C494.748 108.852 502.022 105.16 507.162 97.7773C512.303 90.3398 514.873 79.7305 514.873 65.9492C514.873 52.2773 512.275 41.75 507.08 34.3672C501.885 26.9844 494.475 23.293 484.85 23.293C475.662 23.293 468.443 27.0391 463.193 34.5312C457.998 42.0234 455.4 52.4414 455.4 65.7852ZM436.287 65.293C436.287 52.1133 440.826 41.3125 449.904 32.8906C459.037 24.4688 470.85 20.2578 485.342 20.2578C499.779 20.2578 511.483 24.4961 520.451 32.9727C529.42 41.4492 533.904 52.4961 533.904 66.1133C533.904 79.7852 529.393 90.8594 520.369 99.3359C511.346 107.812 499.451 112.051 484.686 112.051C470.303 112.051 458.627 107.73 449.658 99.0898C440.744 90.4492 436.287 79.1836 436.287 65.293Z" fill="#FAFAFA"/>
</svg>
