<svg xmlns="http://www.w3.org/2000/svg" viewBox="0 0 138.85 57.91"><defs><style>.cls-1{fill:#fff;}</style></defs><g id="レイヤー_2" data-name="レイヤー 2"><g id="レイヤー_1-2" data-name="レイヤー 1"><path class="cls-1" d="M32.24,6.84a37.29,37.29,0,0,0-5.66-1.57,34.81,34.81,0,0,0-7-.69,17.41,17.41,0,0,0-9.13,2.3,17.67,17.67,0,0,0-6.09,6,22.58,22.58,0,0,0-3,8.31,24.63,24.63,0,0,0,.21,9.14.79.79,0,0,1-.43.52.34.34,0,0,1-.52-.17A25.43,25.43,0,0,1,.48,20,23.82,23.82,0,0,1,4.4,10.8a21.31,21.31,0,0,1,7.52-6.53A22.74,22.74,0,0,1,22.75,1.79a31.35,31.35,0,0,1,7.05.78,32.7,32.7,0,0,1,6.09,2c.35.29.26.63-.26,1a47.53,47.53,0,0,0-8.13,8.22,56.51,56.51,0,0,0-6,9.66,50,50,0,0,0-3.74,10.44,46,46,0,0,0-1.26,10.57q0,5.75,2,8a6.72,6.72,0,0,0,5.31,2.26,15.32,15.32,0,0,0,8.87-3,40,40,0,0,0,8.92-9.35,136.48,136.48,0,0,0,9.66-15.92q5.09-9.62,11-22.75A3.36,3.36,0,0,1,63.73,2.4a5,5,0,0,1,2.35-.61c.93,0,1.39.21,1.39.61A35.24,35.24,0,0,0,64,7.58a82.06,82.06,0,0,0-3.78,7.57q-1.87,4.22-3.66,9T53.38,33.5q-1.4,4.57-2.22,8.62A35.43,35.43,0,0,0,50.33,49c0,3.31,1.08,5,3.22,5S57.9,52.37,60,49.12a.45.45,0,0,1,.61,0,.48.48,0,0,1,.26.56,33.31,33.31,0,0,1-2.13,2.92,24.66,24.66,0,0,1-2.48,2.61,15.91,15.91,0,0,1-2.57,1.91,4.67,4.67,0,0,1-2.3.74,3.73,3.73,0,0,1-3.53-2A9.94,9.94,0,0,1,46.77,51a49.72,49.72,0,0,1,1.3-10.35,81.86,81.86,0,0,1,4.09-13Q44.24,42.6,36.5,50.21T21.1,57.82A7.4,7.4,0,0,1,14.79,55c-1.42-1.88-2.13-4.57-2.13-8.05A44,44,0,0,1,14,36.24a54.49,54.49,0,0,1,3.87-10.57A61.12,61.12,0,0,1,32.24,6.84Z"/><path class="cls-1" d="M103,.16a20.2,20.2,0,0,1,9.73,1.08c.87.29.47,1.44-.47,1.1a20.54,20.54,0,0,0-9.09-1.25c-4.75.44-7.61,4-8.84,6.23s-2.12,3.87-2.88,5.26a100.49,100.49,0,0,0-5.31,11.31Q83.66,30,81.7,36.64A126.75,126.75,0,0,0,78.52,50a12.39,12.39,0,0,0-.17,3.52c.11,1,.52,1.53,1.22,1.53a2.75,2.75,0,0,0,1.91-1,14.7,14.7,0,0,0,1.74-2.22c.12-.12.27-.12.48,0a.44.44,0,0,1,.22.52,13.47,13.47,0,0,1-1.22,1.74A15.89,15.89,0,0,1,81,55.86a11.17,11.17,0,0,1-1.87,1.39,3.48,3.48,0,0,1-1.74.57,2,2,0,0,1-2-1.26A6.63,6.63,0,0,1,75,53.3a21.25,21.25,0,0,1,.35-2.79c.18-.87.38-1.8.61-2.78a16.16,16.16,0,0,1-2.09,3.52,33.11,33.11,0,0,1-2.69,3.09,19.55,19.55,0,0,1-2.74,2.31,8.32,8.32,0,0,1-2.31,1.17,4.11,4.11,0,0,1-2.83-1.26,5.32,5.32,0,0,1-1.35-4.05,18.9,18.9,0,0,1,4.22-11.83,16,16,0,0,1,4.53-3.78,11.09,11.09,0,0,1,5.52-1.44,5.19,5.19,0,0,1,1.7.26,5.76,5.76,0,0,1,1.35.7q1.56-4.7,3.78-9.83t4.83-10c1.74-3.28,4-7,5.5-9.36S97.29.79,103,.16ZM67.65,54.77A4,4,0,0,0,70,53.69a17.18,17.18,0,0,0,2.7-2.83,30.18,30.18,0,0,0,2.61-4,32.41,32.41,0,0,0,2.13-4.74c.17-.58.35-1.13.52-1.65a14.67,14.67,0,0,0,.44-1.57A2.57,2.57,0,0,0,77,37.33a4.78,4.78,0,0,0-2.17-.48,6.7,6.7,0,0,0-3.57,1.09,11,11,0,0,0-3.09,3A16.42,16.42,0,0,0,66,45.47a18.64,18.64,0,0,0-.83,5.74A4.08,4.08,0,0,0,66,53.9,2.15,2.15,0,0,0,67.65,54.77Z"/><path class="cls-1" d="M98.18,35.55a4,4,0,0,1,3.48,1.56,6.8,6.8,0,0,1,1.13,4.09,16.31,16.31,0,0,1-1.13,5.92,22.81,22.81,0,0,1-2.87,5.35A17,17,0,0,1,95,56.34a6.62,6.62,0,0,1-3.79,1.48,3.88,3.88,0,0,1-3.3-1.65,7.76,7.76,0,0,1-1.22-4.7,16.09,16.09,0,0,1,1-5.22,21.93,21.93,0,0,1,2.56-5.18,16.61,16.61,0,0,1,3.66-4A7,7,0,0,1,98.18,35.55ZM93,55.12a4.34,4.34,0,0,0,2.57-.91,8.63,8.63,0,0,0,2.22-2.44,13.31,13.31,0,0,0,1.52-3.52,15.18,15.18,0,0,0,.57-4.18A8.45,8.45,0,0,0,99,39.94a3.06,3.06,0,0,0-2.88-1.52,4.13,4.13,0,0,0-2.52.91,8.38,8.38,0,0,0-2.13,2.44A13.19,13.19,0,0,0,90,45.34a17.65,17.65,0,0,0-.52,4.3C89.48,53.3,90.64,55.12,93,55.12Z"/><path class="cls-1" d="M138.81,53.06c.08.07,0,.24-.05.32a.26.26,0,0,1-.39,0c-.14-.15-2.13-4.62-6.13-4.57s-4.11,4.42-6.63,7.56a4.22,4.22,0,0,1-3.35,1.53c-1.66.05-2.7-1.16-2.7-3.48a24.1,24.1,0,0,1,1-6.57,43.22,43.22,0,0,1,2.88-7.27,2.42,2.42,0,0,0,.34-1.21q0-1-.87-1c-2.14,0-4.51,1.48-7.09,4.44s-5,7.59-7.17,13.92a1.5,1.5,0,0,1-1,.82,4,4,0,0,1-1.48.31c-.64,0-.87-.26-.7-.79q1.49-3.73,3.09-8.44t2.83-9.3c.23-1.11,0-1.66-.61-1.66a2.51,2.51,0,0,0-1.74.87,16.78,16.78,0,0,0-1.83,2.26c-.11.12-.24.09-.39-.08a.53.53,0,0,1-.13-.52,16.94,16.94,0,0,1,2.61-3A5.13,5.13,0,0,1,113,35.63c1.45,0,1.94,1,1.48,3a40.41,40.41,0,0,1-1,4c-.41,1.42-.84,2.83-1.3,4.22A26.71,26.71,0,0,1,115,42.42a23.92,23.92,0,0,1,3.43-3.57A18.26,18.26,0,0,1,122,36.5a7.84,7.84,0,0,1,3.35-.87,2.28,2.28,0,0,1,1.61.53,1.57,1.57,0,0,1,.56,1.21,5.36,5.36,0,0,1-.52,2.27A44.65,44.65,0,0,0,124,46.55a20.36,20.36,0,0,0-1.26,6.66c0,1.45.68,2.22,1.4,2.17,2-.24,3.27-6.73,8-7S138.73,53,138.81,53.06Z"/></g></g></svg>