<svg width="848" height="157" viewBox="0 0 848 157" fill="none" xmlns="http://www.w3.org/2000/svg">
<path d="M0.410156 123.492L0.328125 122.18C5.79688 119.883 9.625 115.836 11.8125 110.039C14 104.242 15.0938 94.2891 15.0938 80.1797V73.4531V36.457C15.0938 29.0742 14.2461 24.043 12.5508 21.3633C10.9102 18.6836 7.95703 16.6055 3.69141 15.1289V13.8164C6.53516 13.9258 9.24219 14.0078 11.8125 14.0625C14.4375 14.1172 16.8711 14.1445 19.1133 14.1445C22.832 14.1445 25.7852 14.1445 27.9727 14.1445C30.1602 14.0898 32.3203 14.0352 34.4531 13.9805C39.0469 24.918 44.4883 36.8672 50.7773 49.8281C57.0664 62.7891 64.7773 77.9375 73.9102 95.2734L109.676 13.8164C110.223 13.8164 111.098 13.8438 112.301 13.8984C117.113 14.0625 120.449 14.1445 122.309 14.1445C125.316 14.1445 130.102 14.0352 136.664 13.8164C137.266 13.8164 137.73 13.8164 138.059 13.8164V15.1289C134.449 15.7305 131.961 17.3984 130.594 20.1328C129.227 22.8672 128.543 28.1445 128.543 35.9648V86.4141C128.543 100.633 129.309 109.875 130.84 114.141C132.426 118.352 135.516 121.031 140.109 122.18V123.492C136.828 123.328 133.574 123.191 130.348 123.082C127.176 123.027 123.266 123 118.617 123C115.609 123 112.41 123.027 109.02 123.082C105.684 123.191 102.184 123.328 98.5195 123.492L98.4375 122.18C102.922 121.086 105.93 118.461 107.461 114.305C109.047 110.148 109.84 100.441 109.84 85.1836V24.5625L65.3789 126.199H64.1484C56.6016 107.551 49.0547 89.9414 41.5078 73.3711C33.9609 56.8008 26.6328 41.707 19.5234 28.0898V76.8164C19.5234 93.5508 20.5625 104.68 22.6406 110.203C24.7188 115.727 28.4922 119.719 33.9609 122.18L33.8789 123.492C30.4883 123.328 27.4531 123.191 24.7734 123.082C22.1484 123.027 19.9336 123 18.1289 123C15.2305 123 12.3047 123.027 9.35156 123.082C6.39844 123.191 3.41797 123.328 0.410156 123.492Z" fill="#FAFAFA"/>
<path d="M146.59 123.492V122.18C150.965 120.812 153.945 117.969 155.531 113.648C157.172 109.328 157.992 100.004 157.992 85.6758V81.4922V62.543C157.992 53.7383 157.309 48.2695 155.941 46.1367C154.629 43.9492 152.059 42.7461 148.23 42.5273V41.2148C152.277 40.7227 156.461 39.9844 160.781 39C165.156 37.9609 169.777 36.6211 174.645 34.9805C174.645 35.582 174.535 39.6289 174.316 47.1211C174.098 54.6133 173.988 61.3125 173.988 67.2188V86.5781C173.988 100.633 174.781 109.738 176.367 113.895C177.953 117.996 180.961 120.758 185.391 122.18L185.309 123.492C182.738 123.328 180.031 123.191 177.188 123.082C174.398 123.027 170.57 123 165.703 123C161.547 123 158.02 123.027 155.121 123.082C152.277 123.191 149.434 123.328 146.59 123.492ZM155.613 14.3086C155.613 11.5195 156.543 9.19531 158.402 7.33594C160.316 5.47656 162.695 4.54688 165.539 4.54688C168.328 4.54688 170.68 5.50391 172.594 7.41797C174.508 9.33203 175.465 11.6289 175.465 14.3086C175.465 17.043 174.508 19.3398 172.594 21.1992C170.734 23.0039 168.383 23.9062 165.539 23.9062C162.586 23.9062 160.18 23.0312 158.32 21.2812C156.516 19.4766 155.613 17.1523 155.613 14.3086Z" fill="#FAFAFA"/>
<path d="M192.855 123V122.016C200.457 113.266 209.316 102.219 219.434 88.875C220.91 86.9609 221.977 85.5664 222.633 84.6914L246.34 53.6016L246.75 52.9453C251.18 47.0391 253.395 43.3477 253.395 41.8711C253.395 40.832 252.465 40.0664 250.605 39.5742C248.746 39.082 245.793 38.8359 241.746 38.8359C230.59 38.8359 221.922 40.1758 215.742 42.8555C209.617 45.5352 203.902 50.1289 198.598 56.6367L197.613 56.3086L205.652 35.4727H278.906V36.6211C262.828 56.4727 249.512 74.0273 238.957 89.2852C228.402 104.488 223.125 113.484 223.125 116.273C223.125 117.422 223.863 118.27 225.34 118.816C226.871 119.363 229.223 119.637 232.395 119.637C244.973 119.637 254.898 118.078 262.172 114.961C269.5 111.844 276.145 106.566 282.105 99.1289L283.254 99.457L275.379 123.328C274.832 123.328 273.984 123.301 272.836 123.246C267.312 123.082 263.457 123 261.27 123H250.031H192.855Z" fill="#FAFAFA"/>
<path d="M310.652 78.7852C310.652 92.6211 313.25 103.258 318.445 110.695C323.641 118.133 331.023 121.852 340.594 121.852C350 121.852 357.273 118.16 362.414 110.777C367.555 103.34 370.125 92.7305 370.125 78.9492C370.125 65.2773 367.527 54.75 362.332 47.3672C357.137 39.9844 349.727 36.293 340.102 36.293C330.914 36.293 323.695 40.0391 318.445 47.5312C313.25 55.0234 310.652 65.4414 310.652 78.7852ZM291.539 78.293C291.539 65.1133 296.078 54.3125 305.156 45.8906C314.289 37.4688 326.102 33.2578 340.594 33.2578C355.031 33.2578 366.734 37.4961 375.703 45.9727C384.672 54.4492 389.156 65.4961 389.156 79.1133C389.156 92.7852 384.645 103.859 375.621 112.336C366.598 120.812 354.703 125.051 339.938 125.051C325.555 125.051 313.879 120.73 304.91 112.09C295.996 103.449 291.539 92.1836 291.539 78.293Z" fill="#FAFAFA"/>
<path d="M441.578 116.438C432.007 116.438 424.57 118.023 419.265 121.195C414.015 124.312 411.39 128.66 411.39 134.238C411.39 139.98 414.179 144.52 419.757 147.855C425.335 151.246 432.937 152.941 442.562 152.941C453.335 152.941 461.839 151.164 468.074 147.609C474.363 144.109 477.507 139.379 477.507 133.418C477.507 127.84 474.472 123.629 468.402 120.785C462.386 117.887 453.445 116.438 441.578 116.438ZM444.12 36.1289C436.847 36.1289 430.941 38.7539 426.402 44.0039C421.863 49.1992 419.593 56.0352 419.593 64.5117C419.593 72.7695 421.808 79.3867 426.238 84.3633C430.722 89.2852 436.683 91.7461 444.12 91.7461C451.722 91.7461 457.574 89.2305 461.675 84.1992C465.777 79.168 467.828 71.9492 467.828 62.543C467.828 54.4492 465.695 48.0234 461.429 43.2656C457.163 38.5078 451.394 36.1289 444.12 36.1289ZM426.976 113.895C421.015 113.457 416.695 112.5 414.015 111.023C411.335 109.492 409.995 107.277 409.995 104.379C409.995 101.48 411.691 99.0742 415.081 97.1602C418.472 95.1914 423.613 93.6602 430.503 92.5664C421.261 90.7617 414.097 87.3984 409.011 82.4766C403.98 77.5 401.464 71.4023 401.464 64.1836C401.464 55.3789 405.484 47.9961 413.523 42.0352C421.562 36.0742 431.597 33.0938 443.628 33.0938C445.652 33.0938 447.839 33.2578 450.191 33.5859C452.597 33.8594 455.66 34.3789 459.378 35.1445C463.699 30.5508 468.21 27.0508 472.913 24.6445C477.671 22.2383 482.347 21.0352 486.941 21.0352C487.87 21.0352 488.91 21.0898 490.058 21.1992C491.261 21.2539 492.574 21.3633 493.995 21.5273L488.335 39.3281H487.269C486.12 36.9766 484.261 35.0352 481.691 33.5039C479.12 31.918 476.495 31.125 473.816 31.125C471.847 31.125 469.96 31.5625 468.156 32.4375C466.351 33.2578 464.546 34.543 462.742 36.293C470.671 39.3555 476.55 43.1562 480.378 47.6953C484.206 52.2344 486.12 57.6758 486.12 64.0195C486.12 72.332 482.785 79.332 476.113 85.0195C469.495 90.6523 460.855 93.7969 450.191 94.4531C448.277 94.5625 445.679 94.6719 442.398 94.7812C432.773 95.1641 427.96 96.668 427.96 99.293C427.96 101.809 434.085 103.586 446.335 104.625C449.835 104.953 452.57 105.199 454.538 105.363C468.101 106.566 478.027 109.027 484.316 112.746C490.66 116.465 493.831 121.688 493.831 128.414C493.831 136.836 489.074 143.535 479.558 148.512C470.097 153.543 457.109 156.059 440.593 156.059C427.413 156.059 416.558 153.926 408.027 149.66C399.495 145.395 395.23 139.98 395.23 133.418C395.23 128.059 397.828 123.793 403.023 120.621C408.218 117.449 416.203 115.207 426.976 113.895Z" fill="#FAFAFA"/>
<path d="M603.835 122.18V123H582.835C581.523 120.703 580.374 118.242 579.39 115.617C578.406 112.938 577.558 110.012 576.847 106.84C573.62 112.965 569.382 117.586 564.132 120.703C558.882 123.82 552.757 125.379 545.757 125.379C538.593 125.379 532.277 124.23 526.808 121.934C521.339 119.637 517.183 116.41 514.339 112.254C512.316 109.301 510.867 105.637 509.992 101.262C509.171 96.832 508.761 89.6953 508.761 79.8516V74.7656V58.3594C508.761 51.9062 508.078 47.75 506.71 45.8906C505.398 43.9766 502.882 42.8555 499.163 42.5273V41.2148C502.499 40.832 506.136 40.1758 510.074 39.2461C514.066 38.3164 519.124 36.8945 525.249 34.9805C525.031 39.7383 524.867 44.4961 524.757 49.2539C524.648 54.0117 524.593 58.7695 524.593 63.5273V74.4375C524.593 92.7578 526.48 105.062 530.253 111.352C534.027 117.641 540.644 120.785 550.105 120.785C558.691 120.785 565.308 117.121 569.956 109.793C574.66 102.41 577.011 91.8555 577.011 78.1289V62.543C577.011 53.7383 576.382 48.2695 575.124 46.1367C573.867 43.9492 571.406 42.7461 567.742 42.5273V41.2148C571.187 40.7773 574.906 40.0938 578.898 39.1641C582.89 38.1797 587.785 36.7852 593.581 34.9805C593.363 39.6836 593.199 44.5234 593.089 49.5C592.98 54.4766 592.925 59.7812 592.925 65.4141V85.1836C592.925 99.4023 593.718 108.891 595.304 113.648C596.89 118.406 599.734 121.25 603.835 122.18Z" fill="#FAFAFA"/>
<path d="M691.491 97.4883L693.952 100.688C690.178 108.727 685.037 114.852 678.53 119.062C672.022 123.273 664.338 125.379 655.479 125.379C641.534 125.379 630.104 121.086 621.19 112.5C612.276 103.914 607.819 92.9219 607.819 79.5234C607.819 65.7422 612.303 54.5859 621.272 46.0547C630.241 37.5234 641.998 33.2578 656.545 33.2578C663.436 33.2578 669.944 34.1055 676.069 35.8008C682.194 37.4961 687.936 40.0117 693.295 43.3477L687.799 61.3125H686.733C685.092 53.7109 681.647 47.668 676.397 43.1836C671.147 38.6992 664.912 36.457 657.694 36.457C648.506 36.457 641.096 40.1211 635.463 47.4492C629.885 54.7773 627.096 64.5664 627.096 76.8164C627.096 90.3242 629.995 100.961 635.791 108.727C641.643 116.438 649.573 120.293 659.58 120.293C666.526 120.293 672.705 118.379 678.12 114.551C683.534 110.668 687.991 104.98 691.491 97.4883Z" fill="#FAFAFA"/>
<path d="M698.26 123.492L698.178 122.18C702.389 120.977 705.26 118.516 706.791 114.797C708.322 111.023 709.088 102.793 709.088 90.1055V84.5273V24.8906C709.088 17.8359 708.432 13.2969 707.119 11.2734C705.861 9.25 703.4 8.12891 699.736 7.91016V6.59766C703.51 6.26953 707.529 5.61328 711.795 4.62891C716.115 3.58984 720.764 2.16797 725.74 0.363281C725.467 4.51953 725.248 9.14062 725.084 14.2266C724.975 19.3125 724.92 25.3828 724.92 32.4375V57.293C727.272 49.5273 731.346 43.5938 737.143 39.4922C742.994 35.3359 750.186 33.2578 758.717 33.2578C770.529 33.2578 779.197 36.5938 784.721 43.2656C790.299 49.8828 793.088 60.2734 793.088 74.4375V89.2031V91.0898C793.088 103.832 793.854 111.898 795.385 115.289C796.916 118.68 799.76 120.977 803.916 122.18L803.834 123.492C800.717 123.328 797.627 123.191 794.565 123.082C791.557 123.027 788.494 123 785.377 123C780.729 123 776.982 123.027 774.139 123.082C771.295 123.191 768.561 123.328 765.936 123.492V122.18C770.092 120.977 772.936 118.488 774.467 114.715C776.053 110.941 776.846 102.738 776.846 90.1055V84.5273V75.832C776.846 63.0898 774.932 53.6562 771.104 47.5312C767.275 41.4062 761.397 38.3438 753.467 38.3438C744.936 38.3438 738.127 41.7344 733.041 48.5156C727.955 55.2969 725.412 64.457 725.412 75.9961V89.5312C725.412 102.875 726.15 111.379 727.627 115.043C729.158 118.707 732.002 121.086 736.158 122.18V123.492C732.986 123.328 729.869 123.191 726.807 123.082C723.799 123.027 720.764 123 717.701 123C713.053 123 709.307 123.027 706.463 123.082C703.619 123.191 700.885 123.328 698.26 123.492Z" fill="#FAFAFA"/>
<path d="M808.346 123.492V122.18C812.721 120.812 815.701 117.969 817.287 113.648C818.928 109.328 819.748 100.004 819.748 85.6758V81.4922V62.543C819.748 53.7383 819.065 48.2695 817.697 46.1367C816.385 43.9492 813.815 42.7461 809.986 42.5273V41.2148C814.033 40.7227 818.217 39.9844 822.537 39C826.912 37.9609 831.533 36.6211 836.4 34.9805C836.4 35.582 836.291 39.6289 836.072 47.1211C835.854 54.6133 835.744 61.3125 835.744 67.2188V86.5781C835.744 100.633 836.537 109.738 838.123 113.895C839.709 117.996 842.717 120.758 847.147 122.18L847.065 123.492C844.494 123.328 841.787 123.191 838.943 123.082C836.154 123.027 832.326 123 827.459 123C823.303 123 819.775 123.027 816.877 123.082C814.033 123.191 811.19 123.328 808.346 123.492ZM817.369 14.3086C817.369 11.5195 818.299 9.19531 820.158 7.33594C822.072 5.47656 824.451 4.54688 827.295 4.54688C830.084 4.54688 832.436 5.50391 834.35 7.41797C836.264 9.33203 837.221 11.6289 837.221 14.3086C837.221 17.043 836.264 19.3398 834.35 21.1992C832.49 23.0039 830.139 23.9062 827.295 23.9062C824.342 23.9062 821.936 23.0312 820.076 21.2812C818.272 19.4766 817.369 17.1523 817.369 14.3086Z" fill="#FAFAFA"/>
</svg>
