<svg width="843" height="157" viewBox="0 0 843 157" fill="none" xmlns="http://www.w3.org/2000/svg">
<path d="M0.410156 123.492L0.328125 122.18C5.79687 119.883 9.625 115.836 11.8125 110.039C14 104.242 15.0938 94.2891 15.0938 80.1797V73.4531V36.457C15.0938 29.0742 14.2461 24.043 12.5508 21.3633C10.9102 18.6836 7.95703 16.6055 3.69141 15.1289V13.8164C6.53516 13.9258 9.24219 14.0078 11.8125 14.0625C14.4375 14.1172 16.8711 14.1445 19.1133 14.1445C22.832 14.1445 25.7852 14.1445 27.9727 14.1445C30.1602 14.0898 32.3203 14.0352 34.4531 13.9805C39.0469 24.918 44.4883 36.8672 50.7773 49.8281C57.0664 62.7891 64.7773 77.9375 73.9102 95.2734L109.676 13.8164C110.223 13.8164 111.098 13.8437 112.301 13.8984C117.113 14.0625 120.449 14.1445 122.309 14.1445C125.316 14.1445 130.102 14.0352 136.664 13.8164C137.266 13.8164 137.73 13.8164 138.059 13.8164V15.1289C134.449 15.7305 131.961 17.3984 130.594 20.1328C129.227 22.8672 128.543 28.1445 128.543 35.9648V86.4141C128.543 100.633 129.309 109.875 130.84 114.141C132.426 118.352 135.516 121.031 140.109 122.18V123.492C136.828 123.328 133.574 123.191 130.348 123.082C127.176 123.027 123.266 123 118.617 123C115.609 123 112.41 123.027 109.02 123.082C105.684 123.191 102.184 123.328 98.5195 123.492L98.4375 122.18C102.922 121.086 105.93 118.461 107.461 114.305C109.047 110.148 109.84 100.441 109.84 85.1836V24.5625L65.3789 126.199H64.1484C56.6016 107.551 49.0547 89.9414 41.5078 73.3711C33.9609 56.8008 26.6328 41.707 19.5234 28.0898V76.8164C19.5234 93.5508 20.5625 104.68 22.6406 110.203C24.7188 115.727 28.4922 119.719 33.9609 122.18L33.8789 123.492C30.4883 123.328 27.4531 123.191 24.7734 123.082C22.1484 123.027 19.9336 123 18.1289 123C15.2305 123 12.3047 123.027 9.35156 123.082C6.39844 123.191 3.41797 123.328 0.410156 123.492ZM146.59 123.492V122.18C150.965 120.812 153.945 117.969 155.531 113.648C157.172 109.328 157.992 100.004 157.992 85.6758V81.4922V62.543C157.992 53.7383 157.309 48.2695 155.941 46.1367C154.629 43.9492 152.059 42.7461 148.23 42.5273V41.2148C152.277 40.7227 156.461 39.9844 160.781 39C165.156 37.9609 169.777 36.6211 174.645 34.9805C174.645 35.582 174.535 39.6289 174.316 47.1211C174.098 54.6133 173.988 61.3125 173.988 67.2188V86.5781C173.988 100.633 174.781 109.738 176.367 113.895C177.953 117.996 180.961 120.758 185.391 122.18L185.309 123.492C182.738 123.328 180.031 123.191 177.188 123.082C174.398 123.027 170.57 123 165.703 123C161.547 123 158.02 123.027 155.121 123.082C152.277 123.191 149.434 123.328 146.59 123.492ZM155.613 14.3086C155.613 11.5195 156.543 9.19531 158.402 7.33594C160.316 5.47656 162.695 4.54688 165.539 4.54688C168.328 4.54688 170.68 5.50391 172.594 7.41797C174.508 9.33203 175.465 11.6289 175.465 14.3086C175.465 17.043 174.508 19.3398 172.594 21.1992C170.734 23.0039 168.383 23.9062 165.539 23.9062C162.586 23.9062 160.18 23.0312 158.32 21.2812C156.516 19.4766 155.613 17.1523 155.613 14.3086ZM192.855 123V122.016C200.457 113.266 209.316 102.219 219.434 88.875C220.91 86.9609 221.977 85.5664 222.633 84.6914L246.34 53.6016L246.75 52.9453C251.18 47.0391 253.395 43.3477 253.395 41.8711C253.395 40.832 252.465 40.0664 250.605 39.5742C248.746 39.082 245.793 38.8359 241.746 38.8359C230.59 38.8359 221.922 40.1758 215.742 42.8555C209.617 45.5352 203.902 50.1289 198.598 56.6367L197.613 56.3086L205.652 35.4727H278.906V36.6211C262.828 56.4727 249.512 74.0273 238.957 89.2852C228.402 104.488 223.125 113.484 223.125 116.273C223.125 117.422 223.863 118.27 225.34 118.816C226.871 119.363 229.223 119.637 232.395 119.637C244.973 119.637 254.898 118.078 262.172 114.961C269.5 111.844 276.145 106.566 282.105 99.1289L283.254 99.457L275.379 123.328C274.832 123.328 273.984 123.301 272.836 123.246C267.312 123.082 263.457 123 261.27 123H250.031H192.855ZM307.292 78.7852C307.292 92.6211 309.89 103.258 315.085 110.695C320.281 118.133 327.663 121.852 337.234 121.852C346.64 121.852 353.913 118.16 359.054 110.777C364.195 103.34 366.765 92.7305 366.765 78.9492C366.765 65.2773 364.167 54.75 358.972 47.3672C353.777 39.9844 346.367 36.293 336.742 36.293C327.554 36.293 320.335 40.0391 315.085 47.5312C309.89 55.0234 307.292 65.4414 307.292 78.7852ZM288.179 78.293C288.179 65.1133 292.718 54.3125 301.796 45.8906C310.929 37.4687 322.742 33.2578 337.234 33.2578C351.671 33.2578 363.374 37.4961 372.343 45.9727C381.312 54.4492 385.796 65.4961 385.796 79.1133C385.796 92.7852 381.285 103.859 372.261 112.336C363.238 120.812 351.343 125.051 336.578 125.051C322.195 125.051 310.519 120.73 301.55 112.09C292.636 103.449 288.179 92.1836 288.179 78.293ZM436.538 116.438C426.967 116.438 419.53 118.023 414.225 121.195C408.975 124.312 406.35 128.66 406.35 134.238C406.35 139.98 409.139 144.52 414.717 147.855C420.295 151.246 427.897 152.941 437.522 152.941C448.295 152.941 456.799 151.164 463.034 147.609C469.323 144.109 472.467 139.379 472.467 133.418C472.467 127.84 469.432 123.629 463.362 120.785C457.346 117.887 448.405 116.438 436.538 116.438ZM439.08 36.1289C431.807 36.1289 425.901 38.7539 421.362 44.0039C416.823 49.1992 414.553 56.0352 414.553 64.5117C414.553 72.7695 416.768 79.3867 421.198 84.3633C425.682 89.2852 431.643 91.7461 439.08 91.7461C446.682 91.7461 452.534 89.2305 456.635 84.1992C460.737 79.168 462.788 71.9492 462.788 62.543C462.788 54.4492 460.655 48.0234 456.389 43.2656C452.123 38.5078 446.354 36.1289 439.08 36.1289ZM421.936 113.895C415.975 113.457 411.655 112.5 408.975 111.023C406.295 109.492 404.955 107.277 404.955 104.379C404.955 101.48 406.651 99.0742 410.041 97.1602C413.432 95.1914 418.573 93.6602 425.463 92.5664C416.221 90.7617 409.057 87.3984 403.971 82.4766C398.94 77.5 396.424 71.4023 396.424 64.1836C396.424 55.3789 400.444 47.9961 408.483 42.0352C416.522 36.0742 426.557 33.0938 438.588 33.0938C440.612 33.0938 442.799 33.2578 445.151 33.5859C447.557 33.8594 450.62 34.3789 454.338 35.1445C458.659 30.5508 463.17 27.0508 467.873 24.6445C472.631 22.2383 477.307 21.0352 481.901 21.0352C482.83 21.0352 483.87 21.0898 485.018 21.1992C486.221 21.2539 487.534 21.3633 488.955 21.5273L483.295 39.3281H482.229C481.08 36.9766 479.221 35.0352 476.651 33.5039C474.08 31.918 471.455 31.125 468.776 31.125C466.807 31.125 464.92 31.5625 463.116 32.4375C461.311 33.2578 459.506 34.543 457.702 36.293C465.631 39.3555 471.51 43.1562 475.338 47.6953C479.166 52.2344 481.08 57.6758 481.08 64.0195C481.08 72.332 477.745 79.332 471.073 85.0195C464.455 90.6523 455.815 93.7969 445.151 94.4531C443.237 94.5625 440.639 94.6719 437.358 94.7812C427.733 95.1641 422.92 96.668 422.92 99.293C422.92 101.809 429.045 103.586 441.295 104.625C444.795 104.953 447.53 105.199 449.498 105.363C463.061 106.566 472.987 109.027 479.276 112.746C485.62 116.465 488.791 121.688 488.791 128.414C488.791 136.836 484.034 143.535 474.518 148.512C465.057 153.543 452.069 156.059 435.553 156.059C422.373 156.059 411.518 153.926 402.987 149.66C394.455 145.395 390.19 139.98 390.19 133.418C390.19 128.059 392.788 123.793 397.983 120.621C403.178 117.449 411.163 115.207 421.936 113.895ZM598.795 122.18V123H577.795C576.483 120.703 575.334 118.242 574.35 115.617C573.366 112.938 572.518 110.012 571.807 106.84C568.58 112.965 564.342 117.586 559.092 120.703C553.842 123.82 547.717 125.379 540.717 125.379C533.553 125.379 527.237 124.23 521.768 121.934C516.299 119.637 512.143 116.41 509.299 112.254C507.276 109.301 505.827 105.637 504.952 101.262C504.131 96.832 503.721 89.6953 503.721 79.8516V74.7656V58.3594C503.721 51.9062 503.038 47.75 501.67 45.8906C500.358 43.9766 497.842 42.8555 494.123 42.5273V41.2148C497.459 40.832 501.096 40.1758 505.034 39.2461C509.026 38.3164 514.084 36.8945 520.209 34.9805C519.991 39.7383 519.827 44.4961 519.717 49.2539C519.608 54.0117 519.553 58.7695 519.553 63.5273V74.4375C519.553 92.7578 521.44 105.062 525.213 111.352C528.987 117.641 535.604 120.785 545.065 120.785C553.651 120.785 560.268 117.121 564.916 109.793C569.62 102.41 571.971 91.8555 571.971 78.1289V62.543C571.971 53.7383 571.342 48.2695 570.084 46.1367C568.827 43.9492 566.366 42.7461 562.702 42.5273V41.2148C566.147 40.7773 569.866 40.0938 573.858 39.1641C577.85 38.1797 582.745 36.7852 588.541 34.9805C588.323 39.6836 588.159 44.5234 588.049 49.5C587.94 54.4766 587.885 59.7812 587.885 65.4141V85.1836C587.885 99.4023 588.678 108.891 590.264 113.648C591.85 118.406 594.694 121.25 598.795 122.18ZM684.771 97.4883L687.232 100.688C683.458 108.727 678.318 114.852 671.81 119.062C665.302 123.273 657.618 125.379 648.759 125.379C634.814 125.379 623.384 121.086 614.47 112.5C605.556 103.914 601.099 92.9219 601.099 79.5234C601.099 65.7422 605.583 54.5859 614.552 46.0547C623.521 37.5234 635.278 33.2578 649.825 33.2578C656.716 33.2578 663.224 34.1055 669.349 35.8008C675.474 37.4961 681.216 40.0117 686.575 43.3477L681.079 61.3125H680.013C678.372 53.7109 674.927 47.668 669.677 43.1836C664.427 38.6992 658.193 36.457 650.974 36.457C641.786 36.457 634.376 40.1211 628.743 47.4492C623.165 54.7773 620.376 64.5664 620.376 76.8164C620.376 90.3242 623.275 100.961 629.071 108.727C634.923 116.438 642.853 120.293 652.86 120.293C659.806 120.293 665.985 118.379 671.4 114.551C676.814 110.668 681.271 104.98 684.771 97.4883ZM693.22 123.492L693.138 122.18C697.349 120.977 700.22 118.516 701.751 114.797C703.282 111.023 704.048 102.793 704.048 90.1055V84.5273V24.8906C704.048 17.8359 703.392 13.2969 702.079 11.2734C700.821 9.25 698.36 8.12891 694.696 7.91016V6.59766C698.47 6.26953 702.489 5.61328 706.755 4.62891C711.075 3.58984 715.724 2.16797 720.7 0.363281C720.427 4.51953 720.208 9.14062 720.044 14.2266C719.935 19.3125 719.88 25.3828 719.88 32.4375V57.293C722.232 49.5273 726.306 43.5938 732.103 39.4922C737.954 35.3359 745.146 33.2578 753.677 33.2578C765.489 33.2578 774.157 36.5938 779.681 43.2656C785.259 49.8828 788.048 60.2734 788.048 74.4375V89.2031V91.0898C788.048 103.832 788.814 111.898 790.345 115.289C791.876 118.68 794.72 120.977 798.876 122.18L798.794 123.492C795.677 123.328 792.587 123.191 789.525 123.082C786.517 123.027 783.454 123 780.337 123C775.689 123 771.943 123.027 769.099 123.082C766.255 123.191 763.521 123.328 760.896 123.492V122.18C765.052 120.977 767.896 118.488 769.427 114.715C771.013 110.941 771.806 102.738 771.806 90.1055V84.5273V75.832C771.806 63.0898 769.892 53.6562 766.064 47.5312C762.235 41.4062 756.357 38.3438 748.427 38.3438C739.896 38.3438 733.087 41.7344 728.001 48.5156C722.915 55.2969 720.372 64.457 720.372 75.9961V89.5312C720.372 102.875 721.11 111.379 722.587 115.043C724.118 118.707 726.962 121.086 731.118 122.18V123.492C727.946 123.328 724.829 123.191 721.767 123.082C718.759 123.027 715.724 123 712.661 123C708.013 123 704.267 123.027 701.423 123.082C698.579 123.191 695.845 123.328 693.22 123.492ZM803.306 123.492V122.18C807.681 120.812 810.661 117.969 812.247 113.648C813.888 109.328 814.708 100.004 814.708 85.6758V81.4922V62.543C814.708 53.7383 814.025 48.2695 812.657 46.1367C811.345 43.9492 808.775 42.7461 804.946 42.5273V41.2148C808.993 40.7227 813.177 39.9844 817.497 39C821.872 37.9609 826.493 36.6211 831.36 34.9805C831.36 35.582 831.251 39.6289 831.032 47.1211C830.814 54.6133 830.704 61.3125 830.704 67.2188V86.5781C830.704 100.633 831.497 109.738 833.083 113.895C834.669 117.996 837.677 120.758 842.107 122.18L842.025 123.492C839.454 123.328 836.747 123.191 833.903 123.082C831.114 123.027 827.286 123 822.419 123C818.263 123 814.735 123.027 811.837 123.082C808.993 123.191 806.15 123.328 803.306 123.492ZM812.329 14.3086C812.329 11.5195 813.259 9.19531 815.118 7.33594C817.032 5.47656 819.411 4.54688 822.255 4.54688C825.044 4.54688 827.396 5.50391 829.31 7.41797C831.224 9.33203 832.181 11.6289 832.181 14.3086C832.181 17.043 831.224 19.3398 829.31 21.1992C827.45 23.0039 825.099 23.9062 822.255 23.9062C819.302 23.9062 816.896 23.0312 815.036 21.2812C813.232 19.4766 812.329 17.1523 812.329 14.3086Z" fill="#FAFAFA"/>
</svg>
