<svg width="829" height="157" viewBox="0 0 829 157" fill="none" xmlns="http://www.w3.org/2000/svg">
<path d="M0.410156 123.492L0.328125 122.18C5.79687 119.883 9.625 115.836 11.8125 110.039C14 104.242 15.0938 94.2891 15.0938 80.1797V73.4531V36.457C15.0938 29.0742 14.2461 24.043 12.5508 21.3633C10.9102 18.6836 7.95703 16.6055 3.69141 15.1289V13.8164C6.53516 13.9258 9.24219 14.0078 11.8125 14.0625C14.4375 14.1172 16.8711 14.1445 19.1133 14.1445C22.832 14.1445 25.7852 14.1445 27.9727 14.1445C30.1602 14.0898 32.3203 14.0352 34.4531 13.9805C39.0469 24.918 44.4883 36.8672 50.7773 49.8281C57.0664 62.7891 64.7773 77.9375 73.9102 95.2734L109.676 13.8164C110.223 13.8164 111.098 13.8437 112.301 13.8984C117.113 14.0625 120.449 14.1445 122.309 14.1445C125.316 14.1445 130.102 14.0352 136.664 13.8164C137.266 13.8164 137.73 13.8164 138.059 13.8164V15.1289C134.449 15.7305 131.961 17.3984 130.594 20.1328C129.227 22.8672 128.543 28.1445 128.543 35.9648V86.4141C128.543 100.633 129.309 109.875 130.84 114.141C132.426 118.352 135.516 121.031 140.109 122.18V123.492C136.828 123.328 133.574 123.191 130.348 123.082C127.176 123.027 123.266 123 118.617 123C115.609 123 112.41 123.027 109.02 123.082C105.684 123.191 102.184 123.328 98.5195 123.492L98.4375 122.18C102.922 121.086 105.93 118.461 107.461 114.305C109.047 110.148 109.84 100.441 109.84 85.1836V24.5625L65.3789 126.199H64.1484C56.6016 107.551 49.0547 89.9414 41.5078 73.3711C33.9609 56.8008 26.6328 41.707 19.5234 28.0898V76.8164C19.5234 93.5508 20.5625 104.68 22.6406 110.203C24.7188 115.727 28.4922 119.719 33.9609 122.18L33.8789 123.492C30.4883 123.328 27.4531 123.191 24.7734 123.082C22.1484 123.027 19.9336 123 18.1289 123C15.2305 123 12.3047 123.027 9.35156 123.082C6.39844 123.191 3.41797 123.328 0.410156 123.492ZM144.91 123.492V122.18C149.285 120.812 152.265 117.969 153.851 113.648C155.492 109.328 156.312 100.004 156.312 85.6758V81.4922V62.543C156.312 53.7383 155.629 48.2695 154.261 46.1367C152.949 43.9492 150.379 42.7461 146.55 42.5273V41.2148C150.597 40.7227 154.781 39.9844 159.101 39C163.476 37.9609 168.097 36.6211 172.965 34.9805C172.965 35.582 172.855 39.6289 172.636 47.1211C172.418 54.6133 172.308 61.3125 172.308 67.2188V86.5781C172.308 100.633 173.101 109.738 174.687 113.895C176.273 117.996 179.281 120.758 183.711 122.18L183.629 123.492C181.058 123.328 178.351 123.191 175.508 123.082C172.718 123.027 168.89 123 164.023 123C159.867 123 156.34 123.027 153.441 123.082C150.597 123.191 147.754 123.328 144.91 123.492ZM153.933 14.3086C153.933 11.5195 154.863 9.19531 156.722 7.33594C158.636 5.47656 161.015 4.54688 163.859 4.54688C166.648 4.54688 169 5.50391 170.914 7.41797C172.828 9.33203 173.785 11.6289 173.785 14.3086C173.785 17.043 172.828 19.3398 170.914 21.1992C169.054 23.0039 166.703 23.9062 163.859 23.9062C160.906 23.9062 158.5 23.0312 156.64 21.2812C154.836 19.4766 153.933 17.1523 153.933 14.3086ZM189.495 123V122.016C197.097 113.266 205.956 102.219 216.074 88.875C217.55 86.9609 218.617 85.5664 219.273 84.6914L242.98 53.6016L243.39 52.9453C247.82 47.0391 250.035 43.3477 250.035 41.8711C250.035 40.832 249.105 40.0664 247.245 39.5742C245.386 39.082 242.433 38.8359 238.386 38.8359C227.23 38.8359 218.562 40.1758 212.382 42.8555C206.257 45.5352 200.542 50.1289 195.238 56.6367L194.253 56.3086L202.292 35.4727H275.546V36.6211C259.468 56.4727 246.152 74.0273 235.597 89.2852C225.042 104.488 219.765 113.484 219.765 116.273C219.765 117.422 220.503 118.27 221.98 118.816C223.511 119.363 225.863 119.637 229.035 119.637C241.613 119.637 251.538 118.078 258.812 114.961C266.14 111.844 272.785 106.566 278.745 99.1289L279.894 99.457L272.019 123.328C271.472 123.328 270.624 123.301 269.476 123.246C263.952 123.082 260.097 123 257.91 123H246.671H189.495ZM302.252 78.7852C302.252 92.6211 304.85 103.258 310.045 110.695C315.241 118.133 322.623 121.852 332.194 121.852C341.6 121.852 348.873 118.16 354.014 110.777C359.155 103.34 361.725 92.7305 361.725 78.9492C361.725 65.2773 359.127 54.75 353.932 47.3672C348.737 39.9844 341.327 36.293 331.702 36.293C322.514 36.293 315.295 40.0391 310.045 47.5312C304.85 55.0234 302.252 65.4414 302.252 78.7852ZM283.139 78.293C283.139 65.1133 287.678 54.3125 296.756 45.8906C305.889 37.4687 317.702 33.2578 332.194 33.2578C346.631 33.2578 358.334 37.4961 367.303 45.9727C376.272 54.4492 380.756 65.4961 380.756 79.1133C380.756 92.7852 376.245 103.859 367.221 112.336C358.198 120.812 346.303 125.051 331.538 125.051C317.155 125.051 305.479 120.73 296.51 112.09C287.596 103.449 283.139 92.1836 283.139 78.293ZM429.818 116.438C420.247 116.438 412.81 118.023 407.505 121.195C402.255 124.312 399.63 128.66 399.63 134.238C399.63 139.98 402.419 144.52 407.997 147.855C413.575 151.246 421.177 152.941 430.802 152.941C441.575 152.941 450.079 151.164 456.314 147.609C462.603 144.109 465.747 139.379 465.747 133.418C465.747 127.84 462.712 123.629 456.642 120.785C450.626 117.887 441.685 116.438 429.818 116.438ZM432.36 36.1289C425.087 36.1289 419.181 38.7539 414.642 44.0039C410.103 49.1992 407.833 56.0352 407.833 64.5117C407.833 72.7695 410.048 79.3867 414.478 84.3633C418.962 89.2852 424.923 91.7461 432.36 91.7461C439.962 91.7461 445.814 89.2305 449.915 84.1992C454.017 79.168 456.068 71.9492 456.068 62.543C456.068 54.4492 453.935 48.0234 449.669 43.2656C445.403 38.5078 439.634 36.1289 432.36 36.1289ZM415.216 113.895C409.255 113.457 404.935 112.5 402.255 111.023C399.575 109.492 398.235 107.277 398.235 104.379C398.235 101.48 399.931 99.0742 403.321 97.1602C406.712 95.1914 411.853 93.6602 418.743 92.5664C409.501 90.7617 402.337 87.3984 397.251 82.4766C392.22 77.5 389.704 71.4023 389.704 64.1836C389.704 55.3789 393.724 47.9961 401.763 42.0352C409.802 36.0742 419.837 33.0938 431.868 33.0938C433.892 33.0938 436.079 33.2578 438.431 33.5859C440.837 33.8594 443.9 34.3789 447.618 35.1445C451.939 30.5508 456.45 27.0508 461.153 24.6445C465.911 22.2383 470.587 21.0352 475.181 21.0352C476.11 21.0352 477.15 21.0898 478.298 21.1992C479.501 21.2539 480.814 21.3633 482.235 21.5273L476.575 39.3281H475.509C474.36 36.9766 472.501 35.0352 469.931 33.5039C467.36 31.918 464.735 31.125 462.056 31.125C460.087 31.125 458.2 31.5625 456.396 32.4375C454.591 33.2578 452.786 34.543 450.982 36.293C458.911 39.3555 464.79 43.1562 468.618 47.6953C472.446 52.2344 474.36 57.6758 474.36 64.0195C474.36 72.332 471.025 79.332 464.353 85.0195C457.735 90.6523 449.095 93.7969 438.431 94.4531C436.517 94.5625 433.919 94.6719 430.638 94.7812C421.013 95.1641 416.2 96.668 416.2 99.293C416.2 101.809 422.325 103.586 434.575 104.625C438.075 104.953 440.81 105.199 442.778 105.363C456.341 106.566 466.267 109.027 472.556 112.746C478.9 116.465 482.071 121.688 482.071 128.414C482.071 136.836 477.314 143.535 467.798 148.512C458.337 153.543 445.349 156.059 428.833 156.059C415.653 156.059 404.798 153.926 396.267 149.66C387.735 145.395 383.47 139.98 383.47 133.418C383.47 128.059 386.068 123.793 391.263 120.621C396.458 117.449 404.443 115.207 415.216 113.895ZM588.715 122.18V123H567.715C566.403 120.703 565.254 118.242 564.27 115.617C563.286 112.938 562.438 110.012 561.727 106.84C558.5 112.965 554.262 117.586 549.012 120.703C543.762 123.82 537.637 125.379 530.637 125.379C523.473 125.379 517.157 124.23 511.688 121.934C506.219 119.637 502.063 116.41 499.219 112.254C497.196 109.301 495.747 105.637 494.872 101.262C494.051 96.832 493.641 89.6953 493.641 79.8516V74.7656V58.3594C493.641 51.9062 492.957 47.75 491.59 45.8906C490.278 43.9766 487.762 42.8555 484.043 42.5273V41.2148C487.379 40.832 491.016 40.1758 494.954 39.2461C498.946 38.3164 504.004 36.8945 510.129 34.9805C509.911 39.7383 509.747 44.4961 509.637 49.2539C509.528 54.0117 509.473 58.7695 509.473 63.5273V74.4375C509.473 92.7578 511.36 105.062 515.133 111.352C518.907 117.641 525.524 120.785 534.985 120.785C543.571 120.785 550.188 117.121 554.836 109.793C559.54 102.41 561.891 91.8555 561.891 78.1289V62.543C561.891 53.7383 561.262 48.2695 560.004 46.1367C558.747 43.9492 556.286 42.7461 552.622 42.5273V41.2148C556.067 40.7773 559.786 40.0938 563.778 39.1641C567.77 38.1797 572.665 36.7852 578.461 34.9805C578.243 39.6836 578.079 44.5234 577.969 49.5C577.86 54.4766 577.805 59.7812 577.805 65.4141V85.1836C577.805 99.4023 578.598 108.891 580.184 113.648C581.77 118.406 584.614 121.25 588.715 122.18ZM673.011 97.4883L675.472 100.688C671.698 108.727 666.557 114.852 660.05 119.062C653.542 123.273 645.858 125.379 636.999 125.379C623.054 125.379 611.624 121.086 602.71 112.5C593.796 103.914 589.339 92.9219 589.339 79.5234C589.339 65.7422 593.823 54.5859 602.792 46.0547C611.761 37.5234 623.518 33.2578 638.065 33.2578C644.956 33.2578 651.464 34.1055 657.589 35.8008C663.714 37.4961 669.456 40.0117 674.815 43.3477L669.319 61.3125H668.253C666.612 53.7109 663.167 47.668 657.917 43.1836C652.667 38.6992 646.432 36.457 639.214 36.457C630.026 36.457 622.616 40.1211 616.983 47.4492C611.405 54.7773 608.616 64.5664 608.616 76.8164C608.616 90.3242 611.515 100.961 617.311 108.727C623.163 116.438 631.093 120.293 641.1 120.293C648.046 120.293 654.225 118.379 659.64 114.551C665.054 110.668 669.511 104.98 673.011 97.4883ZM679.78 123.492L679.698 122.18C683.909 120.977 686.78 118.516 688.311 114.797C689.842 111.023 690.608 102.793 690.608 90.1055V84.5273V24.8906C690.608 17.8359 689.952 13.2969 688.639 11.2734C687.381 9.25 684.92 8.12891 681.256 7.91016V6.59766C685.03 6.26953 689.049 5.61328 693.315 4.62891C697.635 3.58984 702.284 2.16797 707.26 0.363281C706.987 4.51953 706.768 9.14062 706.604 14.2266C706.495 19.3125 706.44 25.3828 706.44 32.4375V57.293C708.792 49.5273 712.866 43.5938 718.663 39.4922C724.514 35.3359 731.706 33.2578 740.237 33.2578C752.049 33.2578 760.717 36.5938 766.241 43.2656C771.819 49.8828 774.608 60.2734 774.608 74.4375V89.2031V91.0898C774.608 103.832 775.374 111.898 776.905 115.289C778.436 118.68 781.28 120.977 785.436 122.18L785.354 123.492C782.237 123.328 779.147 123.191 776.085 123.082C773.077 123.027 770.014 123 766.897 123C762.249 123 758.503 123.027 755.659 123.082C752.815 123.191 750.081 123.328 747.456 123.492V122.18C751.612 120.977 754.456 118.488 755.987 114.715C757.573 110.941 758.366 102.738 758.366 90.1055V84.5273V75.832C758.366 63.0898 756.452 53.6562 752.624 47.5312C748.795 41.4062 742.917 38.3438 734.987 38.3438C726.456 38.3438 719.647 41.7344 714.561 48.5156C709.475 55.2969 706.932 64.457 706.932 75.9961V89.5312C706.932 102.875 707.67 111.379 709.147 115.043C710.678 118.707 713.522 121.086 717.678 122.18V123.492C714.506 123.328 711.389 123.191 708.327 123.082C705.319 123.027 702.284 123 699.221 123C694.573 123 690.827 123.027 687.983 123.082C685.139 123.191 682.405 123.328 679.78 123.492ZM789.866 123.492V122.18C794.241 120.812 797.221 117.969 798.807 113.648C800.448 109.328 801.268 100.004 801.268 85.6758V81.4922V62.543C801.268 53.7383 800.585 48.2695 799.217 46.1367C797.905 43.9492 795.335 42.7461 791.506 42.5273V41.2148C795.553 40.7227 799.737 39.9844 804.057 39C808.432 37.9609 813.053 36.6211 817.92 34.9805C817.92 35.582 817.811 39.6289 817.592 47.1211C817.374 54.6133 817.264 61.3125 817.264 67.2188V86.5781C817.264 100.633 818.057 109.738 819.643 113.895C821.229 117.996 824.237 120.758 828.667 122.18L828.585 123.492C826.014 123.328 823.307 123.191 820.463 123.082C817.674 123.027 813.846 123 808.979 123C804.823 123 801.295 123.027 798.397 123.082C795.553 123.191 792.71 123.328 789.866 123.492ZM798.889 14.3086C798.889 11.5195 799.819 9.19531 801.678 7.33594C803.592 5.47656 805.971 4.54688 808.815 4.54688C811.604 4.54688 813.956 5.50391 815.87 7.41797C817.784 9.33203 818.741 11.6289 818.741 14.3086C818.741 17.043 817.784 19.3398 815.87 21.1992C814.01 23.0039 811.659 23.9062 808.815 23.9062C805.862 23.9062 803.456 23.0312 801.596 21.2812C799.792 19.4766 798.889 17.1523 798.889 14.3086Z" fill="#111111"/>
</svg>
