<svg width="524" height="113" viewBox="0 0 524 113" fill="none" xmlns="http://www.w3.org/2000/svg">
<path d="M31.2891 52.7422L60 27.3125C66.4531 21.7344 70.9648 17.3867 73.5352 14.2695C76.1602 11.1523 77.4727 8.55469 77.4727 6.47656C77.4727 5.10937 77.0898 4.125 76.3242 3.52344C75.6133 2.86719 74.2734 2.34766 72.3047 1.96484V0.652344C75.6953 0.816406 78.8398 0.953125 81.7383 1.0625C84.6367 1.11719 87.2344 1.14453 89.5312 1.14453C91.9922 1.14453 94.6445 1.11719 97.4883 1.0625C100.332 0.953125 103.395 0.816406 106.676 0.652344V1.96484C102.246 3.66016 96.9688 6.50391 90.8438 10.4961C84.7734 14.4883 77.582 19.8203 69.2695 26.4922L40.2305 49.707C50.0195 49.9258 57.7852 51.4023 63.5273 54.1367C69.2695 56.8164 74.6016 61.5469 79.5234 68.3281C81.6016 71.2266 84.5273 75.5742 88.3008 81.3711C97.8711 96.082 105.801 105.352 112.09 109.18L112.008 110.492C108.727 110.328 105.664 110.191 102.82 110.082C99.9766 110.027 97.2969 110 94.7812 110C93.5781 110 91.8555 110.027 89.6133 110.082C87.3711 110.191 84.6641 110.328 81.4922 110.492C77.8828 104.75 73.1797 97.0117 67.3828 87.2773C54.4219 65.5664 44.9609 54.7109 39 54.7109C36.375 54.7109 34.4336 55.5586 33.1758 57.2539C31.918 58.9492 31.2891 61.5742 31.2891 65.1289V72.1836C31.2891 87.2773 32.0547 96.9297 33.5859 101.141C35.1719 105.297 38.2617 107.977 42.8555 109.18V110.492C38.207 110.328 34.0781 110.191 30.4688 110.082C26.8594 110.027 23.7148 110 21.0352 110C17.8086 110 14.4727 110.027 11.0273 110.082C7.63672 110.191 4.16406 110.328 0.609375 110.492L0.527344 109.18C5.06641 108.086 8.12891 105.488 9.71484 101.387C11.3008 97.2305 12.0938 87.4961 12.0938 72.1836V15.2539C12.0938 11.3164 11.3555 8.33594 9.87891 6.3125C8.45703 4.23438 6.02344 2.73047 2.57812 1.80078V0.488281C5.85938 0.707031 9.08594 0.871094 12.2578 0.980469C15.4297 1.08984 18.5742 1.14453 21.6914 1.14453C24.8086 1.14453 27.9805 1.08984 31.207 0.980469C34.4883 0.871094 37.7695 0.707031 41.0508 0.488281V1.80078C37.5508 2.56641 35.0352 3.98828 33.5039 6.06641C32.0273 8.14453 31.2891 11.207 31.2891 15.2539V52.7422ZM128.791 65.7852C128.791 79.6211 131.389 90.2578 136.584 97.6953C141.78 105.133 149.162 108.852 158.733 108.852C168.139 108.852 175.412 105.16 180.553 97.7773C185.694 90.3398 188.264 79.7305 188.264 65.9492C188.264 52.2773 185.666 41.75 180.471 34.3672C175.276 26.9844 167.866 23.293 158.241 23.293C149.053 23.293 141.834 27.0391 136.584 34.5312C131.389 42.0234 128.791 52.4414 128.791 65.7852ZM109.678 65.293C109.678 52.1133 114.217 41.3125 123.295 32.8906C132.428 24.4687 144.241 20.2578 158.733 20.2578C173.17 20.2578 184.873 24.4961 193.842 32.9727C202.811 41.4492 207.295 52.4961 207.295 66.1133C207.295 79.7852 202.784 90.8594 193.76 99.3359C184.737 107.812 172.842 112.051 158.077 112.051C143.694 112.051 132.018 107.73 123.049 99.0898C114.135 90.4492 109.678 79.1836 109.678 65.293ZM212.181 31.5781L212.837 28.707C218.744 26.9023 223.884 23.8672 228.259 19.6016C232.689 15.3359 236.955 9.18359 241.056 1.14453H242.287C242.013 4.37109 241.794 8.03516 241.63 12.1367C241.466 16.2383 241.33 20.832 241.22 25.918L259.595 26V27.1484L257.872 31.5781H241.22V68.1641C241.22 83.6953 242.15 94.168 244.009 99.582C245.869 104.996 249.259 108.195 254.181 109.18V110.164C250.572 110.109 246.99 110.055 243.435 110C239.935 110 235.779 110 230.966 110C228.724 108.469 227.138 106.336 226.208 103.602C225.279 100.867 224.814 96.1641 224.814 89.4922V83.0938V76.6953V73.4141L225.798 31.5781H212.181ZM361.56 110.328C357.622 110.219 354.533 110.137 352.29 110.082C350.103 110.027 348.107 110 346.302 110H340.56C339.302 107.703 338.154 105.242 337.115 102.617C336.13 99.9375 335.283 97.0117 334.572 93.8398C331.236 99.6914 326.724 104.23 321.037 107.457C315.404 110.629 309.033 112.215 301.923 112.215C291.861 112.215 283.658 109.645 277.314 104.504C271.025 99.3633 267.88 92.7461 267.88 84.6523C267.88 75.3008 273.404 68.2188 284.451 63.4062C295.552 58.5391 311.849 56.1055 333.341 56.1055L334.408 56.0234C334.298 44.7031 332.138 36.418 327.927 31.168C323.771 25.918 317.181 23.293 308.158 23.293C300.228 23.293 293.529 25.3711 288.06 29.5273C282.646 33.6836 279.392 39.1797 278.298 46.0156H277.396L272.064 28.8711C277.697 25.9727 283.74 23.7852 290.193 22.3086C296.646 20.832 303.482 20.0938 310.701 20.0938C316.771 20.0938 322.212 20.75 327.025 22.0625C331.837 23.3203 336.076 25.2617 339.74 27.8867C343.677 30.6758 346.466 34.2578 348.107 38.6328C349.802 43.0078 350.65 49.3242 350.65 57.582V79.7305C350.65 89.3008 351.497 96.4102 353.193 101.059C354.943 105.652 357.732 108.359 361.56 109.18V110.328ZM334.408 59.6328C333.587 59.5781 332.712 59.5508 331.783 59.5508C330.853 59.4961 329.54 59.4688 327.845 59.4688C314.611 59.4688 304.466 61.7383 297.412 66.2773C290.357 70.8164 286.83 77.3242 286.83 85.8008C286.83 92.418 288.634 97.6406 292.244 101.469C295.908 105.242 300.884 107.129 307.173 107.129C316.689 107.129 323.607 103.848 327.927 97.2852C332.247 90.7227 334.408 80.0039 334.408 65.1289V59.6328ZM365.744 110.492V109.18C369.955 107.867 372.826 105.352 374.357 101.633C375.888 97.9141 376.654 89.2188 376.654 75.5469V71.5273V46.3438C376.654 39.2344 375.997 34.668 374.685 32.6445C373.372 30.5664 370.884 29.418 367.22 29.1992V27.8867C370.83 27.3945 374.603 26.6562 378.54 25.6719C382.478 24.6875 386.716 23.457 391.255 21.9805V49.2148C394.755 40.4102 399.13 33.6836 404.38 29.0352C409.685 24.332 415.564 21.9805 422.017 21.9805C422.947 21.9805 423.658 22.0078 424.15 22.0625C424.697 22.0625 425.134 22.0898 425.462 22.1445L419.474 41.0938H418.162C417.122 39.8359 415.919 38.8789 414.552 38.2227C413.24 37.5664 411.736 37.2383 410.04 37.2383C404.462 37.2383 400.197 39.7539 397.244 44.7852C394.345 49.7617 392.896 57.0625 392.896 66.6875V76.5312C392.896 89.875 393.634 98.3516 395.111 101.961C396.642 105.516 399.513 107.922 403.724 109.18L403.642 110.492C400.525 110.328 397.435 110.191 394.372 110.082C391.365 110.027 388.302 110 385.185 110C380.537 110 376.79 110.027 373.947 110.082C371.103 110.191 368.369 110.328 365.744 110.492ZM445.32 65.7852C445.32 79.6211 447.918 90.2578 453.113 97.6953C458.309 105.133 465.692 108.852 475.262 108.852C484.668 108.852 491.942 105.16 497.082 97.7773C502.223 90.3398 504.793 79.7305 504.793 65.9492C504.793 52.2773 502.195 41.75 497 34.3672C491.805 26.9844 484.395 23.293 474.77 23.293C465.582 23.293 458.363 27.0391 453.113 34.5312C447.918 42.0234 445.32 52.4414 445.32 65.7852ZM426.207 65.293C426.207 52.1133 430.746 41.3125 439.824 32.8906C448.957 24.4687 460.77 20.2578 475.262 20.2578C489.699 20.2578 501.402 24.4961 510.371 32.9727C519.34 41.4492 523.824 52.4961 523.824 66.1133C523.824 79.7852 519.313 90.8594 510.289 99.3359C501.266 107.812 489.371 112.051 474.606 112.051C460.223 112.051 448.547 107.73 439.578 99.0898C430.664 90.4492 426.207 79.1836 426.207 65.293Z" fill="#111111"/>
</svg>
