<svg xmlns="http://www.w3.org/2000/svg" viewBox="0 0 321.17 116.39"><defs><style>.cls-1{fill:#fff;}</style></defs><g id="レイヤー_2" data-name="レイヤー 2"><g id="レイヤー_1-2" data-name="レイヤー 1"><path class="cls-1" d="M1.27,42.75l0-.51A4.8,4.8,0,0,0,4.7,39.35q.9-2.24.9-11.46V5.75a6.16,6.16,0,0,0-.81-3.52A5,5,0,0,0,2,.51V0c1.72.11,3,.17,4,.21s1.74,0,2.48,0c1.32,0,3.31-.07,6-.22l.54,0V.51a4.39,4.39,0,0,0-2.82,1.63,6.11,6.11,0,0,0-.9,3.61V21.11l10.63-8.94a69.21,69.21,0,0,0,6.72-6.25c1.27-1.46,1.91-2.65,1.91-3.59a1.49,1.49,0,0,0-.42-1.17A3.47,3.47,0,0,0,28.49.57V.06c1.36.07,2.59.11,3.68.15s2.06,0,2.91,0,1.94,0,3,0,2.24-.08,3.5-.15V.57a34.19,34.19,0,0,0-5.88,3.25Q32.16,6.16,27.31,10L15.85,19.16A22.86,22.86,0,0,1,25,20.92a16,16,0,0,1,6.15,5.47q1.23,1.75,3.47,5.22,5.47,8.51,9,10.51v.51c-.89,0-1.77,0-2.61-.05l-2.81,0-2.56,0c-.56,0-1.06,0-1.51.05q-2.7-3.77-6.78-10.06Q20,21,15.79,21a4.28,4.28,0,0,0-3.37,1.35,5.5,5.5,0,0,0-1.21,3.81v3.12q0,7.47.93,9.86a5,5,0,0,0,3.59,3.12l0,.51c-1.18-.06-2.36-.11-3.53-.14s-2.53,0-4.07,0c-1,0-2.07,0-3.2,0S2.55,42.69,1.27,42.75Z"/><path class="cls-1" d="M43.6,25.21a16.5,16.5,0,0,1,5.2-12.59Q54,7.73,62.25,7.74t13.37,4.93a17,17,0,0,1,5.13,12.86q0,8-5.13,12.91T62,43.36q-8.19,0-13.31-5T43.6,25.21Zm6,.07q0,7.95,3.31,12.33A11,11,0,0,0,62.25,42a10.85,10.85,0,0,0,9.22-4.31q3.23-4.32,3.23-12.34,0-7.86-3.3-12.21a10.87,10.87,0,0,0-9.21-4.34A10.92,10.92,0,0,0,53,13.13Q49.65,17.48,49.65,25.28Z"/><path class="cls-1" d="M82.1,12.06l.38-1a11.89,11.89,0,0,0,5.4-3.33A27,27,0,0,0,92.32.32h.51C92.74,1.57,92.67,3,92.6,4.6S92.5,8,92.48,10h7v.45l-.67,1.65H92.38l.16,15.13q.06,8.91,1.1,11.66a5.09,5.09,0,0,0,3.83,3.39v.45l-4.56-.08-3,0A4.45,4.45,0,0,1,88,40.24a21.1,21.1,0,0,1-.52-5.89v-4q.06-1.14.06-2l.25-16.3Z"/><path class="cls-1" d="M137.72,42.69h-.19c-2.32-.09-4-.13-5-.13h-1.76a21.65,21.65,0,0,1-2.35-6.27,13.06,13.06,0,0,1-5.22,5.32,16,16,0,0,1-7.8,1.81q-6.15,0-9.73-2.9a9.52,9.52,0,0,1-3.58-7.79q0-5.44,6.34-8.27T127,21.65l1.62,0q-.17-6.54-2.77-9.62t-8-3.09a13.06,13.06,0,0,0-8,2.28A10,10,0,0,0,106,17.73h-.35l-2-6.65a26.87,26.87,0,0,1,6.86-2.56,34.46,34.46,0,0,1,7.82-.85,23,23,0,0,1,7.24,1.05,12.6,12.6,0,0,1,5.08,3,9.5,9.5,0,0,1,2.26,4,30.24,30.24,0,0,1,.67,7.53v4.68q0,8.09.9,10.92a4.65,4.65,0,0,0,3.27,3.43ZM128.58,23,127.51,23l-1.73,0q-8.53,0-13.17,2.66A8.32,8.32,0,0,0,108,33.17a7.9,7.9,0,0,0,2.49,6.11,9.31,9.31,0,0,0,6.59,2.3,10.8,10.8,0,0,0,8.45-3.43q3.08-3.42,3.07-9.47V23Z"/><path class="cls-1" d="M139.74,42.75v-.51A4.82,4.82,0,0,0,143,39.46q.89-2.1.89-9V19.08q0-5.26-.75-6.41a3.33,3.33,0,0,0-2.88-1.21l0-.51c1.14-.25,2.38-.56,3.72-.92s2.85-.82,4.55-1.37l-.12,9.89a20.1,20.1,0,0,1,5.15-7.46,10.15,10.15,0,0,1,6.72-2.56l.79,0,.51,0-2.48,7.17h-.32a4.22,4.22,0,0,0-1.43-1.23,4,4,0,0,0-1.78-.4,5.36,5.36,0,0,0-4.92,3c-1.14,2-1.7,4.9-1.7,8.7v3.8c0,5.16.28,8.43.86,9.81a4.8,4.8,0,0,0,3.31,2.8l0,.51c-1.14-.06-2.27-.11-3.39-.14s-2.21,0-3.29,0c-.91,0-1.92,0-3,0S141.05,42.69,139.74,42.75Z"/><path class="cls-1" d="M161.93,25.21a16.5,16.5,0,0,1,5.2-12.59q5.2-4.89,13.45-4.88T194,12.67a17,17,0,0,1,5.13,12.86q0,8-5.13,12.91t-13.59,4.92q-8.19,0-13.31-5T161.93,25.21Zm6,.07q0,7.95,3.31,12.33a12,12,0,0,0,18.51.07Q193,33.36,193,25.34q0-7.86-3.3-12.21a12,12,0,0,0-18.44,0Q168,17.48,168,25.28Z"/><path class="cls-1" d="M0,103.75l0-.51a7.74,7.74,0,0,0,4.38-4.63Q5.6,95.31,5.6,86.79s0-.34,0-.89,0-1.08,0-1.59l.06-14.45c0-2.63-.32-4.51-1-5.62a6.19,6.19,0,0,0-3.46-2.6v-.51c.91,0,1.93,0,3.07.08l2,0c1.17,0,2.14,0,2.93,0s1.57,0,2.35-.09q4.2,9.69,8.23,18t8.26,16l15-33.95.79,0q2.26.09,3.12.09c1.08,0,2.86,0,5.32-.12h.22v.51a3.69,3.69,0,0,0-2.91,2q-.81,1.64-.81,6.13v19.6q0,8.13.91,10.67a4.84,4.84,0,0,0,3.51,3.23v.51c-1.53-.06-2.91-.11-4.14-.14s-2.3,0-3.21,0-2.1,0-3.25,0-2.37.08-3.66.14v-.51a4.72,4.72,0,0,0,3.5-3.17q.93-2.53.92-11.2V64.63L25.82,104.8h-.45q-3.78-9.1-7.91-18T7.39,66.13L7.32,80.89V85.8q0,9.2,1.21,12.61a7.91,7.91,0,0,0,4.33,4.83l0,.51c-1.21-.06-2.32-.11-3.33-.14s-1.91,0-2.72,0-2,0-3.1,0S1.35,103.69,0,103.75Z"/><path class="cls-1" d="M56.12,103.75v-.51a4.89,4.89,0,0,0,3.32-3q.91-2.33.91-9.58V78.68c0-2.55-.25-4.18-.75-4.91a3.41,3.41,0,0,0-2.82-1.18l0-.51a28.08,28.08,0,0,0,3.81-.78q2-.55,5-1.64c-.06,1.75-.11,3.5-.14,5.25s0,3.5,0,5.26v8.9c0,5.76.3,9.45.89,11.05a4.85,4.85,0,0,0,3.41,3.12v.51c-.89-.06-1.84-.11-2.84-.14s-2.35,0-4.07,0c-1.32,0-2.49,0-3.52,0S57.18,103.69,56.12,103.75Zm3.37-42.13a3.09,3.09,0,0,1,.87-2.24,3,3,0,0,1,2.22-.89,3,3,0,0,1,2.21.91,3,3,0,0,1,.91,2.22,2.93,2.93,0,0,1-.91,2.19,3.05,3.05,0,0,1-5.3-2.19Z"/><path class="cls-1" d="M94.2,103.56H72.67v-.38Q77.23,98,83.94,89.67l.93-1.14,6-7.49.35-.41q5.86-7.35,5.86-8.43c0-.42-.38-.73-1.13-.93A14.4,14.4,0,0,0,92.48,71q-7.74,0-11.31,1.56a17.4,17.4,0,0,0-6.55,5.35l-.32-.12,3-8.09h27.51v.44q-2.89,3.47-5.68,7.07t-5.65,7.58l-5.61,7.8c-2,2.8-3.37,4.77-4,5.91a5.67,5.67,0,0,0-1,2.43c0,.51.33.85,1,1a24.87,24.87,0,0,0,4.79.27A25.24,25.24,0,0,0,99,100.38a20.37,20.37,0,0,0,7.44-6.08l.44.13-3,9.26-2.1,0C98.07,103.59,95.55,103.56,94.2,103.56Z"/><path class="cls-1" d="M109.55,86.21a16.51,16.51,0,0,1,5.21-12.59q5.2-4.87,13.45-4.88t13.37,4.93a17.07,17.07,0,0,1,5.12,12.86q0,8-5.12,12.91T128,104.36q-8.17,0-13.3-5T109.55,86.21Zm6,.07q0,7.95,3.31,12.33a11,11,0,0,0,9.3,4.38,10.82,10.82,0,0,0,9.21-4.31q3.24-4.32,3.23-12.34,0-7.86-3.29-12.21a12,12,0,0,0-18.45,0Q115.6,78.48,115.6,86.28Z"/><path class="cls-1" d="M186.3,64.22l-2.2,6.87h-.38a5.41,5.41,0,0,0-2.12-2.29,5.61,5.61,0,0,0-3-.89,5,5,0,0,0-2.17.48,7.29,7.29,0,0,0-2.07,1.52,16.3,16.3,0,0,1,6.72,4.43,9.6,9.6,0,0,1,2.2,6.33,9.9,9.9,0,0,1-3.89,8.17q-3.88,3.07-11.11,3.64c-.59,0-1.44.1-2.54.16-3.68.22-5.52.89-5.54,2s2.6,1.95,7.8,2.42l1.65.13q9,.8,12.75,2.78a6.26,6.26,0,0,1,3.77,5.78q0,4.77-5.47,7.69T166,116.39q-7.52,0-12.34-2.45t-4.82-6.27a5.8,5.8,0,0,1,2.9-5q2.9-1.93,9-2.89a12.56,12.56,0,0,1-4.8-1.13,2.56,2.56,0,0,1-1.53-2.3,3.31,3.31,0,0,1,1.94-2.81,17.78,17.78,0,0,1,5.89-1.78,15.08,15.08,0,0,1-8.13-3.88,9.72,9.72,0,0,1-2.88-7.13,10.42,10.42,0,0,1,4.58-8.58,18.27,18.27,0,0,1,11.4-3.49,20,20,0,0,1,2.53.19c.92.13,2.07.33,3.45.61a18.35,18.35,0,0,1,5.11-4.06A11.45,11.45,0,0,1,183.59,64c.34,0,.75,0,1.21.05A14.51,14.51,0,0,1,186.3,64.22Zm-20.66,36.54q-5.7,0-8.9,1.9a5.8,5.8,0,0,0-3.2,5.2q0,3.38,3.49,5.3c2.32,1.28,5.54,1.93,9.66,1.93q6.81,0,10.78-2t4-5.51q0-3.27-4.08-5T165.64,100.76Zm1.75-30.91a10.44,10.44,0,0,0-7.75,3,10.84,10.84,0,0,0-3,7.93,10.33,10.33,0,0,0,3,7.8q3,2.84,8.16,2.83a9.39,9.39,0,0,0,7.4-3q2.66-3,2.66-8.34A10,10,0,0,0,175,72.6,10.44,10.44,0,0,0,167.39,69.85Z"/><path class="cls-1" d="M219.63,97.34a12.43,12.43,0,0,1-5,5.39,15.52,15.52,0,0,1-7.7,1.76,18.6,18.6,0,0,1-7.25-1.27,11,11,0,0,1-4.79-3.85,10.41,10.41,0,0,1-1.62-3.91,39.65,39.65,0,0,1-.48-7.34V79c0-2.7-.25-4.42-.75-5.17a3.47,3.47,0,0,0-2.85-1.24v-.51a28.89,28.89,0,0,0,4-.81c1.43-.4,3.07-.93,4.92-1.61-.09,1.83-.15,3.62-.2,5.35s-.06,3.37-.06,4.93v5.24q0,10.8,2.31,14.23t8,3.42q6,0,8.83-4t2.79-12.58V80.86c0-3.73-.25-6-.74-6.87a3.26,3.26,0,0,0-2.89-1.4l0-.51a38.44,38.44,0,0,0,4.31-1c1.45-.4,2.95-.89,4.5-1.46-.08,1.73-.14,3.45-.19,5.16s-.06,3.41-.06,5.12v6.29q0,10.58.89,13.54c.59,2,1.69,3.14,3.28,3.47v.45l-.8,0c-2.14-.07-3.66-.1-4.55-.1h-1.65a27.67,27.67,0,0,1-1.31-2.94A22.59,22.59,0,0,1,219.63,97.34Z"/><path class="cls-1" d="M261.83,93.66l1,1.24a16.52,16.52,0,0,1-5.89,7.13,15.45,15.45,0,0,1-8.72,2.46,17.94,17.94,0,0,1-13.07-5A17.15,17.15,0,0,1,230,86.69q0-8,5.13-13t13.46-5a27.22,27.22,0,0,1,7.37,1,25.36,25.36,0,0,1,6.58,2.93l-2.17,7h-.31a12.29,12.29,0,0,0-4-7.06A11,11,0,0,0,248.74,70a11.25,11.25,0,0,0-9.26,4.22q-3.4,4.22-3.41,11.57,0,7.83,3.6,12.28a12.9,12.9,0,0,0,17,2.25A16.88,16.88,0,0,0,261.83,93.66Z"/><path class="cls-1" d="M265.55,103.75v-.51a4.85,4.85,0,0,0,3.17-2.69q.87-2,.87-7.75V65.55q0-4.35-.73-5.39a3.6,3.6,0,0,0-2.8-1.2v-.51a30.33,30.33,0,0,0,4.11-.84A36.85,36.85,0,0,0,274.66,56q-.07,3-.16,7.45-.17,6-.16,6.75v8.15A11.7,11.7,0,0,1,279,71.24a15,15,0,0,1,8.93-2.5q7.26,0,10.41,3.9T301.46,86v5.92q0,6.53.86,8.57a4.68,4.68,0,0,0,3.18,2.73v.51c-1.12-.06-2.23-.11-3.32-.14s-2.2,0-3.33,0c-.83,0-1.78,0-2.87,0s-2.27.08-3.56.14l0-.51a4.58,4.58,0,0,0,3.18-2.73q.85-2.07.86-8.57V85.26q0-8-2.34-11.38t-7.56-3.42a10.73,10.73,0,0,0-8.83,3.89q-3.18,3.91-3.17,11v4.87c0,5.39.28,8.8.86,10.22a4.68,4.68,0,0,0,3.25,2.83v.51c-1.13-.06-2.23-.11-3.32-.14s-2.15,0-3.21,0c-1.55,0-2.81,0-3.77,0S266.44,103.69,265.55,103.75Z"/><path class="cls-1" d="M307.6,103.75v-.51a4.88,4.88,0,0,0,3.33-3q.92-2.33.91-9.58V78.68c0-2.55-.25-4.18-.75-4.91a3.41,3.41,0,0,0-2.82-1.18l0-.51a28.08,28.08,0,0,0,3.81-.78q2-.55,5-1.64c-.06,1.75-.11,3.5-.14,5.25s0,3.5,0,5.26v8.9c0,5.76.3,9.45.89,11.05a4.85,4.85,0,0,0,3.41,3.12v.51c-.9-.06-1.84-.11-2.84-.14s-2.35,0-4.07,0c-1.32,0-2.49,0-3.52,0S308.67,103.69,307.6,103.75ZM311,61.62a3.09,3.09,0,0,1,.87-2.24,3,3,0,0,1,2.22-.89,3,3,0,0,1,2.21.91,3,3,0,0,1,.91,2.22,2.93,2.93,0,0,1-.91,2.19,3.05,3.05,0,0,1-5.3-2.19Z"/></g></g></svg>