<svg width="117" height="322" viewBox="0 0 117 322" fill="none" xmlns="http://www.w3.org/2000/svg">
<g clip-path="url(#clip0)">
<path d="M74.031 1.87891H74.541C74.707 2.64273 75.0571 3.35445 75.5608 3.95222C76.0644 4.54999 76.7064 5.01571 77.431 5.30891C78.9244 5.90891 82.7443 6.20891 88.891 6.20891L111.031 6.20891C112.259 6.2967 113.485 6.01457 114.551 5.39891C115.422 4.68857 116.027 3.70574 116.271 2.60891H116.781C116.671 4.32891 116.611 5.60891 116.571 6.60891C116.531 7.60891 116.571 8.34891 116.571 9.08891C116.571 10.4089 116.641 12.3989 116.791 15.0889V15.6289H116.271C116.109 14.5147 115.526 13.5051 114.641 12.8089C113.56 12.1409 112.299 11.8263 111.031 11.9089L95.671 11.9089L104.611 22.5389C106.543 24.9147 108.631 27.1596 110.861 29.2589C112.321 30.5289 113.511 31.1689 114.451 31.1689C114.665 31.1873 114.88 31.1592 115.082 31.0867C115.284 31.0143 115.468 30.899 115.621 30.7489C115.956 30.2584 116.159 29.6903 116.211 29.0989H116.721C116.651 30.4589 116.611 31.6889 116.571 32.7789C116.531 33.8689 116.571 34.8389 116.571 35.6889C116.571 36.5389 116.571 37.6289 116.571 38.6889C116.571 39.7489 116.651 40.9289 116.721 42.1889H116.211C115.323 40.127 114.235 38.1575 112.961 36.3089C111.401 33.9489 109.341 31.1522 106.781 27.9189L97.621 16.4589C97.6688 19.5974 97.0696 22.7121 95.861 25.6089C94.6052 28.1008 92.7194 30.221 90.391 31.7589C89.2243 32.5789 87.4843 33.7356 85.171 35.2289C79.4977 38.8756 75.9944 41.8756 74.661 44.2289H74.151C74.151 43.3389 74.151 42.4589 74.201 41.6189V38.8089V36.2489C74.201 35.6889 74.201 35.1889 74.151 34.7389C76.6643 32.9389 80.0177 30.6789 84.211 27.9589C91.9244 23.0589 95.781 19.2056 95.781 16.3989C95.8167 15.7726 95.7143 15.146 95.481 14.5637C95.2477 13.9813 94.8893 13.4574 94.431 13.0289C93.3577 12.162 91.9978 11.7301 90.621 11.8189H87.501C82.521 11.8189 79.2344 12.1289 77.641 12.7489C76.8638 13.0412 76.1715 13.5224 75.6268 14.1492C75.0821 14.7759 74.7021 15.5285 74.521 16.3389H74.011C74.071 15.1589 74.121 13.9789 74.151 12.8089C74.181 11.6389 74.151 10.2789 74.151 8.73891C74.151 7.73891 74.151 6.66891 74.151 5.53891C74.151 4.40891 74.091 3.15891 74.031 1.87891Z" fill="white"/>
<path d="M91.571 44.2087C93.9188 44.1292 96.2564 44.552 98.4276 45.4488C100.599 46.3456 102.554 47.6956 104.161 49.4087C107.421 52.8753 109.048 57.3587 109.041 62.8587C109.034 68.3587 107.391 72.8153 104.111 76.2287C102.447 77.9381 100.443 79.2783 98.2269 80.1622C96.0113 81.046 93.6345 81.4537 91.251 81.3587C85.9177 81.3587 81.6143 79.6487 78.341 76.2287C75.0677 72.8087 73.4277 68.2687 73.421 62.6087C73.421 57.1487 75.0877 52.712 78.421 49.2987C81.7543 45.8853 86.1377 44.1887 91.571 44.2087ZM91.501 50.2087C86.201 50.2087 82.091 51.312 79.171 53.5187C77.7312 54.5977 76.578 56.0135 75.8127 57.6419C75.0473 59.2702 74.6931 61.0615 74.781 62.8587C74.6907 64.6307 75.0364 66.3979 75.7879 68.0054C76.5393 69.6128 77.6734 71.0114 79.091 72.0787C81.971 74.232 86.0843 75.3087 91.431 75.3087C96.671 75.3087 100.741 74.2087 103.641 72.0087C105.061 70.9444 106.199 69.5486 106.956 67.9432C107.713 66.3377 108.064 64.5715 107.981 62.7987C108.058 61.0306 107.704 59.2704 106.95 57.6695C106.195 56.0686 105.063 54.675 103.651 53.6087C100.751 51.3753 96.701 50.2587 91.501 50.2587V50.2087Z" fill="white"/>
<path d="M104.721 82.709L105.721 83.089C106.321 85.1574 107.472 87.0238 109.051 88.489C111.267 90.3571 113.769 91.8563 116.461 92.929V93.439C115.211 93.349 113.781 93.279 112.181 93.209C110.581 93.139 108.781 93.109 106.781 93.089V100.089H106.331L104.681 99.419V92.989L89.5509 93.149C83.6109 93.189 79.7243 93.5557 77.8909 94.249C77.0382 94.5314 76.2753 95.0346 75.6799 95.7073C75.0845 96.3799 74.6778 97.1982 74.5009 98.079H74.0509L74.1309 93.519V90.519C74.6818 89.6162 75.5362 88.939 76.5409 88.609C78.4701 88.1601 80.4529 87.985 82.4309 88.089H86.4309C87.1909 88.129 87.8576 88.149 88.4309 88.149L104.731 88.399L104.721 82.709Z" fill="white"/>
<path d="M74.0905 138.33V138.14C74.1805 135.82 74.2204 134.14 74.2204 133.14V131.38C76.1759 130.276 78.2912 129.483 80.4904 129.03C78.2477 127.843 76.3991 126.029 75.1704 123.81C73.9158 121.405 73.2929 118.721 73.3605 116.01C73.3605 111.91 74.3271 108.666 76.2604 106.28C77.1885 105.115 78.3767 104.185 79.7296 103.563C81.0826 102.941 82.5625 102.646 84.0504 102.7C87.6771 102.7 90.4338 104.813 92.3204 109.04C94.2071 113.266 95.1438 119.456 95.1304 127.61V129.23C99.4904 129.116 102.697 128.193 104.75 126.46C106.804 124.726 107.834 122.06 107.84 118.46C107.973 115.616 107.172 112.807 105.56 110.46C103.978 108.374 101.641 106.991 99.0504 106.61V106.26L105.7 104.26C106.863 106.419 107.724 108.727 108.26 111.12C108.841 113.685 109.127 116.309 109.11 118.94C109.149 121.394 108.794 123.838 108.06 126.18C107.477 128.087 106.448 129.828 105.06 131.26C103.932 132.329 102.559 133.105 101.06 133.52C98.5884 134.057 96.0586 134.282 93.5304 134.19H88.8504C83.4571 134.19 79.8171 134.49 77.9305 135.09C77.1181 135.277 76.3711 135.68 75.7676 136.255C75.1642 136.83 74.7265 137.557 74.5005 138.36L74.0905 138.33ZM93.7804 129.19V128.12V126.39C93.7804 120.703 92.8938 116.313 91.1204 113.22C90.4258 111.825 89.3536 110.654 88.0259 109.839C86.6982 109.024 85.1683 108.598 83.6105 108.61C82.4727 108.56 81.3377 108.756 80.2831 109.186C79.2285 109.616 78.2792 110.269 77.5005 111.1C75.9082 112.915 75.0835 115.278 75.2004 117.69C75.1213 119.263 75.3873 120.835 75.9798 122.294C76.5723 123.754 77.477 125.067 78.6304 126.14C80.9104 128.193 84.0671 129.216 88.1004 129.21H93.7804V129.19Z" fill="white"/>
<path d="M74.032 140.35H74.542C74.7226 141.071 75.0676 141.74 75.5498 142.305C76.0321 142.871 76.6386 143.317 77.322 143.61C78.722 144.203 81.722 144.5 86.322 144.5H97.702C101.209 144.5 103.345 144.25 104.112 143.75C104.534 143.405 104.865 142.962 105.076 142.46C105.287 141.958 105.371 141.412 105.322 140.87H105.832C106.082 142.01 106.392 143.25 106.752 144.59C107.112 145.93 107.572 147.44 108.122 149.14L98.232 149.02C101.078 150.146 103.63 151.907 105.692 154.17C107.337 156.022 108.247 158.412 108.252 160.89V161.68V162.19L101.082 159.71V159.39C101.595 159.012 102.015 158.523 102.312 157.96C102.581 157.405 102.718 156.796 102.712 156.18C102.732 155.159 102.461 154.154 101.929 153.282C101.398 152.411 100.629 151.709 99.712 151.26C97.712 150.12 94.812 149.56 91.012 149.56H87.212C82.052 149.56 78.782 149.84 77.402 150.42C76.7083 150.713 76.0934 151.165 75.607 151.74C75.1205 152.315 74.7763 152.997 74.602 153.73H74.092C74.152 152.59 74.202 151.46 74.232 150.34C74.262 149.22 74.232 148.13 74.232 147.05C74.232 146.14 74.232 145.13 74.232 144.05C74.232 142.97 74.092 141.66 74.032 140.35Z" fill="white"/>
<path d="M91.571 162.539C93.9188 162.459 96.2564 162.882 98.4276 163.779C100.599 164.676 102.554 166.026 104.161 167.739C107.421 171.205 109.048 175.689 109.041 181.189C109.034 186.689 107.391 191.162 104.111 194.609C102.447 196.318 100.443 197.658 98.2269 198.542C96.0113 199.426 93.6345 199.834 91.251 199.739C85.9177 199.739 81.6143 198.029 78.341 194.609C75.0677 191.189 73.4277 186.659 73.421 181.019C73.421 175.559 75.0877 171.122 78.421 167.709C81.7543 164.295 86.1377 162.572 91.571 162.539ZM91.501 168.539C86.201 168.539 82.091 169.642 79.171 171.849C77.8026 172.969 76.6988 174.379 75.9387 175.976C75.1786 177.573 74.781 179.318 74.7743 181.087C74.7676 182.856 75.152 184.604 75.9 186.207C76.648 187.81 77.7411 189.228 79.101 190.359C81.981 192.525 86.0943 193.609 91.441 193.609C96.681 193.609 100.751 192.509 103.651 190.309C105.003 189.183 106.091 187.773 106.837 186.18C107.583 184.586 107.97 182.848 107.97 181.089C107.97 179.329 107.583 177.591 106.837 175.998C106.091 174.405 105.003 172.995 103.651 171.869C100.751 169.695 96.701 168.609 91.501 168.609V168.539Z" fill="white"/>
<path d="M13.0302 0.609375L13.5402 0.609375C13.9567 1.62629 14.5851 2.54285 15.3834 3.29806C16.1817 4.05327 17.1317 4.62983 18.1702 4.98938C20.3702 5.80271 24.3102 6.20937 29.9902 6.20937C29.9902 6.20937 30.3302 6.20937 30.8802 6.20937C31.4302 6.20937 31.9602 6.20937 32.4702 6.20937L46.9202 6.26937C49.5502 6.26937 51.4302 5.94937 52.5402 5.26937C53.7949 4.46647 54.7181 3.23799 55.1402 1.80938H55.6502C55.6502 2.71938 55.6502 3.73937 55.5702 4.87937V6.87937C55.5702 8.04937 55.5702 9.01937 55.5702 9.80937C55.5702 10.5994 55.5702 11.3794 55.6602 12.1594C49.2002 14.9594 43.2002 17.7027 37.6602 20.3894C32.1202 23.076 26.7868 25.8294 21.6602 28.6494L55.6102 43.6494V44.4394C55.5502 45.946 55.5202 46.986 55.5202 47.5594C55.5202 48.6394 55.5202 50.4194 55.6402 52.8794V53.0994H55.1302C55.0666 52.4858 54.8502 51.898 54.5008 51.3896C54.1514 50.8813 53.6802 50.4686 53.1302 50.1894C52.0368 49.6494 49.9935 49.3794 47.0002 49.3794H27.4002C21.9802 49.3794 18.4235 49.6827 16.7302 50.2894C15.9345 50.5457 15.2188 51.0037 14.6527 51.6188C14.0867 52.234 13.6896 52.9852 13.5002 53.7994H12.9902C13.0502 52.2694 13.1002 50.8894 13.1302 49.6594C13.1602 48.4294 13.1302 47.3594 13.1302 46.4494C13.1302 45.5394 13.1302 44.3494 13.1302 43.1994C13.1302 42.0494 13.0502 40.8294 12.9902 39.5394H13.5002C13.6747 40.3498 14.0595 41.0999 14.616 41.7143C15.1725 42.3287 15.881 42.7857 16.6702 43.0394C18.3568 43.6594 22.0902 43.966 27.8702 43.9594H52.1502L11.9802 26.4294V25.9794C18.0468 23.4594 24.0468 20.8227 29.9802 18.0694C35.9135 15.316 42.8035 11.9594 50.6502 7.99937L35.8902 7.92938L30.9802 7.92938C24.8468 7.92938 20.6435 8.33271 18.3702 9.13937C17.3048 9.47874 16.3234 10.0401 15.4909 10.7865C14.6583 11.5329 13.9935 12.4473 13.5402 13.4694H13.0302C13.0902 12.2594 13.1402 11.1494 13.1702 10.1394C13.2002 9.12937 13.1702 8.22937 13.1702 7.41937C13.1702 6.60937 13.1702 5.41938 13.1702 4.31938C13.1702 3.21938 13.0902 1.95938 13.0302 0.609375Z" fill="white"/>
<path d="M13.0317 56.7285H13.5417C13.7415 57.4807 14.1179 58.1743 14.6397 58.7518C15.1615 59.3292 15.8136 59.7738 16.5417 60.0485C18.0951 60.6552 21.2884 60.9585 26.1217 60.9585H38.1017C40.6517 60.9585 42.2817 60.7085 43.0117 60.2085C43.4143 59.8627 43.7306 59.4277 43.9354 58.9382C44.1403 58.4486 44.2281 57.918 44.1917 57.3885H44.7017C44.8734 58.675 45.134 59.9481 45.4817 61.1985C45.8484 62.5319 46.3951 64.1985 47.1217 66.1985C45.3717 66.1385 43.6217 66.0885 41.8717 66.0585C40.1217 66.0285 38.3717 66.0585 36.6117 66.0585H27.7117C21.9517 66.0585 18.2617 66.3585 16.6617 66.9485C15.899 67.2124 15.2142 67.6625 14.6694 68.258C14.1246 68.8534 13.737 69.5754 13.5417 70.3585H13.0317C13.0917 69.4685 13.1417 68.5185 13.1717 67.5185C13.2017 66.5185 13.1717 65.1685 13.1717 63.4485C13.1717 62.1285 13.1717 60.9585 13.1717 59.9285C13.1717 58.8985 13.0917 57.7885 13.0317 56.7285ZM55.1617 60.0985C55.5743 60.0866 55.985 60.1574 56.3698 60.3069C56.7545 60.4563 57.1054 60.6813 57.4017 60.9685C57.6944 61.2577 57.9244 61.6041 58.0775 61.986C58.2306 62.3679 58.3036 62.7772 58.2917 63.1885C58.2996 63.5996 58.2229 64.0079 58.0663 64.3881C57.9098 64.7682 57.6768 65.1122 57.3817 65.3985C57.0942 65.6948 56.7487 65.9285 56.3667 66.0851C55.9847 66.2417 55.5745 66.3177 55.1617 66.3085C54.7534 66.3178 54.3477 66.2417 53.9705 66.085C53.5934 65.9283 53.2532 65.6945 52.9717 65.3985C52.5089 64.9762 52.1874 64.4216 52.0509 63.8101C51.9144 63.1986 51.9695 62.5599 52.2088 61.9808C52.4481 61.4017 52.8599 60.9104 53.3882 60.5736C53.9166 60.2369 54.5358 60.071 55.1617 60.0985V60.0985Z" fill="white"/>
<path d="M13.2201 94.8093V73.2793H13.6001C17.0534 76.3193 21.5567 80.076 27.1101 84.5493L28.2501 85.4793L35.7401 91.4793L36.1501 91.8293C41.0501 95.736 43.8601 97.6893 44.5801 97.6893C45.0001 97.6893 45.3101 97.3093 45.5101 96.5593C45.74 95.4178 45.8307 94.2526 45.7801 93.0893C45.7801 87.9293 45.2601 84.1593 44.2201 81.7793C43.0026 79.1892 41.1649 76.9394 38.8701 75.2293L38.9901 74.9093L47.0801 77.9093V105.419H46.6401C44.3267 103.493 41.9701 101.599 39.5701 99.7393C37.1701 97.8793 34.6434 95.996 31.9901 94.0893L24.1901 88.4793C21.3901 86.4793 19.4201 85.1093 18.2801 84.4793C17.5596 83.9603 16.7272 83.6178 15.8501 83.4793C15.3401 83.4793 15.0001 83.8093 14.8501 84.4793C14.6059 86.0635 14.5155 87.6677 14.5801 89.2693C14.4553 92.8054 15.0753 96.3283 16.4001 99.6093C17.8045 102.539 19.8891 105.09 22.4801 107.049L22.3501 107.489L13.0901 104.489V102.389C13.1901 98.6793 13.2201 96.1593 13.2201 94.8093Z" fill="white"/>
<path d="M30.571 110.159C32.9194 110.082 35.2574 110.507 37.4285 111.405C39.5997 112.303 41.554 113.655 43.161 115.369C46.4077 118.836 48.0343 123.319 48.041 128.819C48.0477 134.319 46.4043 138.776 43.111 142.189C41.4438 143.893 39.4382 145.23 37.2232 146.111C35.0083 146.993 32.6332 147.401 30.251 147.309C24.9177 147.309 20.6143 145.603 17.341 142.189C14.0677 138.776 12.4277 134.249 12.421 128.609C12.421 123.163 14.0877 118.729 17.421 115.309C20.7543 111.889 25.1377 110.173 30.571 110.159ZM30.501 116.159C25.201 116.159 21.091 117.263 18.171 119.469C16.7388 120.546 15.5911 121.955 14.8278 123.576C14.0644 125.197 13.7085 126.98 13.791 128.769C13.6998 130.54 14.0451 132.306 14.7967 133.912C15.5482 135.518 16.6829 136.915 18.101 137.979C20.981 140.139 25.0943 141.216 30.441 141.209C35.681 141.209 39.751 140.113 42.651 137.919C44.0046 136.793 45.0938 135.383 45.8414 133.789C46.5889 132.194 46.9764 130.455 46.9764 128.694C46.9764 126.934 46.5889 125.194 45.8414 123.6C45.0938 122.006 44.0046 120.596 42.651 119.469C39.751 117.296 35.701 116.209 30.501 116.209V116.159Z" fill="white"/>
<path d="M52.5612 186.909L45.6913 184.709V184.329C46.6463 183.863 47.4427 183.125 47.9812 182.209C48.5565 181.314 48.8651 180.273 48.8712 179.209C48.8761 178.459 48.712 177.717 48.3913 177.039C48.0111 176.265 47.4964 175.564 46.8712 174.969C45.9795 177.544 44.4564 179.855 42.4413 181.689C40.664 183.159 38.417 183.94 36.1113 183.889C34.5383 183.937 32.9767 183.609 31.5558 182.932C30.135 182.256 28.8959 181.25 27.9413 179.999C25.8946 177.413 24.6812 173.709 24.3012 168.889C24.3012 168.299 24.2013 167.449 24.1413 166.349C23.9213 162.669 23.2513 160.829 22.1413 160.809C21.0313 160.789 20.1913 163.409 19.7213 168.609L19.5912 170.259C19.0579 176.259 18.1312 180.509 16.8112 183.009C16.3233 184.135 15.5153 185.092 14.4876 185.763C13.46 186.433 12.2581 186.786 11.0312 186.779C7.85125 186.779 5.28791 184.956 3.34125 181.309C1.39458 177.663 0.411251 172.763 0.391251 166.609C0.391251 161.596 1.20791 157.483 2.84125 154.269C4.47458 151.056 6.56459 149.449 9.11125 149.449C10.1255 149.453 11.1209 149.723 11.9982 150.232C12.8756 150.741 13.6041 151.471 14.1113 152.349C15.3979 154.283 16.3613 157.283 17.0013 161.349C17.057 159.69 17.4411 158.059 18.1312 156.549C18.3282 156.101 18.6495 155.719 19.0572 155.447C19.4648 155.176 19.9417 155.028 20.4313 155.019C21.0317 155.057 21.6106 155.257 22.1057 155.599C22.6008 155.941 22.9934 156.411 23.2412 156.959C24.1724 158.804 24.7747 160.797 25.0212 162.849C25.456 159.807 26.8098 156.971 28.9013 154.719C29.8313 153.779 30.9434 153.039 32.1693 152.544C33.3953 152.049 34.7094 151.809 36.0312 151.839C37.726 151.847 39.3933 152.269 40.8884 153.067C42.3835 153.865 43.6614 155.016 44.6113 156.419C47.0166 159.722 48.2454 163.736 48.1012 167.819C48.0915 168.666 48.0281 169.511 47.9112 170.349C47.7812 171.269 47.5812 172.419 47.3012 173.799C48.9491 175.246 50.3241 176.977 51.3613 178.909C52.2556 180.532 52.7429 182.347 52.7812 184.199C52.7812 184.539 52.7812 184.949 52.7312 185.409C52.7006 185.912 52.6439 186.413 52.5612 186.909V186.909ZM16.0212 166.249C16.0212 162.449 15.3879 159.483 14.1212 157.349C13.6377 156.385 12.895 155.575 11.9764 155.01C11.0578 154.444 9.99982 154.146 8.92125 154.149C6.66792 154.149 4.90125 155.313 3.62125 157.639C2.34125 159.959 1.69125 163.179 1.69125 167.299C1.69125 171.839 2.35792 175.433 3.69125 178.079C5.02459 180.726 6.86125 182.059 9.20125 182.079C11.3812 182.079 13.0479 180.719 14.2012 177.999C15.3546 175.279 15.9612 171.363 16.0212 166.249V166.249ZM46.9313 167.999C46.9884 166.571 46.7517 165.146 46.2356 163.813C45.7196 162.48 44.9352 161.267 43.9313 160.249C42.8788 159.242 41.6342 158.457 40.2717 157.942C38.9092 157.426 37.4568 157.191 36.0013 157.249C34.5639 157.178 33.1275 157.409 31.7843 157.925C30.4411 158.442 29.2207 159.233 28.2012 160.249C26.3079 162.249 25.3646 164.969 25.3712 168.409C25.2967 169.787 25.527 171.165 26.0455 172.444C26.564 173.723 27.3581 174.872 28.3712 175.809C30.3712 177.583 33.1513 178.469 36.7113 178.469C38.0862 178.532 39.4593 178.311 40.7447 177.819C42.03 177.327 43.2 176.574 44.1813 175.609C45.123 174.588 45.8513 173.388 46.3235 172.081C46.7957 170.775 47.0023 169.387 46.9313 167.999V167.999Z" fill="white"/>
<path d="M19.4402 220.239C17.1804 219.154 15.3015 217.411 14.0502 215.239C12.8093 212.867 12.203 210.214 12.2902 207.539C12.2263 205.062 12.6581 202.597 13.5602 200.289C14.3624 198.359 15.6978 196.697 17.4102 195.499C18.5888 194.697 19.9196 194.145 21.3202 193.879C23.7467 193.492 26.2039 193.331 28.6602 193.399H37.7802C40.4802 193.399 42.2002 193.149 42.9502 192.649C43.3642 192.303 43.6918 191.865 43.9071 191.37C44.1223 190.876 44.2193 190.338 44.1902 189.799H44.7002C44.8755 191.15 45.1462 192.486 45.5102 193.799C45.9102 195.229 46.4402 196.869 47.1202 198.719C45.2902 198.629 43.5002 198.569 41.7702 198.519C40.0402 198.469 38.4002 198.459 36.8402 198.459H31.6002C24.4002 198.459 19.6568 199.229 17.3702 200.769C15.0835 202.309 13.9435 204.975 13.9502 208.769C13.9502 212.769 15.2835 215.712 17.9502 217.599C20.6168 219.485 24.8102 220.415 30.5302 220.389H35.9202C39.6502 220.389 41.9202 220.139 42.7902 219.649C43.2531 219.329 43.6253 218.895 43.8707 218.388C44.116 217.882 44.2261 217.32 44.1902 216.759H44.7002C44.9505 218.213 45.2844 219.653 45.7002 221.069C46.1002 222.519 46.5902 224.019 47.1602 225.569C45.4302 225.489 43.7102 225.429 42.0002 225.379C40.2902 225.329 38.5902 225.319 36.8802 225.319H30.5902C23.5368 225.319 19.0235 225.615 17.0502 226.209C15.0502 226.799 13.9102 227.899 13.5802 229.489H13.1302V228.689C13.2002 226.549 13.2302 225.029 13.2302 224.139V222.489C14.1839 221.995 15.1656 221.558 16.1702 221.179C17.235 220.784 18.3281 220.47 19.4402 220.239V220.239Z" fill="white"/>
<path d="M23.1217 262.44L21.8817 263.44C18.9928 262.196 16.5192 260.152 14.7517 257.55C13.0787 254.955 12.2219 251.917 12.2917 248.83C12.207 246.428 12.6059 244.033 13.4648 241.787C14.3237 239.542 15.6252 237.492 17.2917 235.76C18.9524 234.062 20.9476 232.728 23.151 231.841C25.3544 230.955 27.7179 230.535 30.0917 230.61C35.4251 230.61 39.7584 232.32 43.0917 235.74C46.4251 239.16 48.0917 243.647 48.0917 249.2C48.0972 251.691 47.7607 254.171 47.0917 256.57C46.4331 258.892 45.4465 261.107 44.1617 263.15L37.1617 260.98V260.67C39.9001 260.174 42.3891 258.764 44.2217 256.67C45.9354 254.622 46.8453 252.02 46.7817 249.35C46.8555 247.584 46.5118 245.824 45.7786 244.216C45.0454 242.607 43.9433 241.193 42.5617 240.09C39.7484 237.823 35.8917 236.687 30.9917 236.68C25.7717 236.68 21.6784 237.88 18.7117 240.28C16.3189 242.346 14.7679 245.218 14.3531 248.352C13.9383 251.486 14.6887 254.663 16.4617 257.28C18.2099 259.535 20.5013 261.311 23.1217 262.44Z" fill="white"/>
<path d="M13.0312 266.16H13.5413C13.7266 266.855 14.0641 267.5 14.5294 268.048C14.9946 268.596 15.5759 269.034 16.2312 269.33C17.5646 269.91 20.1479 270.2 23.9812 270.2H51.2312C54.1312 270.2 55.9279 269.957 56.6213 269.47C57.0138 269.12 57.3247 268.687 57.532 268.203C57.7393 267.72 57.8381 267.196 57.8213 266.67H58.3312C58.5161 268.058 58.7967 269.431 59.1712 270.78C59.6104 272.31 60.1482 273.81 60.7812 275.27C58.7812 275.224 56.2979 275.17 53.3312 275.11C49.3312 274.997 47.0813 274.943 46.5813 274.95H38.4313C41.3017 275.557 43.8394 277.22 45.5413 279.61C47.2969 282.248 48.1721 285.374 48.0413 288.54C48.0413 293.38 46.7413 296.85 44.1413 298.95C41.5413 301.05 37.0879 302.09 30.7813 302.07H24.8613C20.5079 302.07 17.6513 302.357 16.2913 302.93C15.6203 303.212 15.0243 303.645 14.5504 304.197C14.0765 304.749 13.7378 305.404 13.5612 306.11H13.0512C13.1112 304.99 13.1613 303.88 13.1913 302.79C13.2213 301.7 13.1913 300.59 13.1913 299.46C13.1913 298.63 13.1913 297.68 13.1913 296.59C13.1913 295.5 13.1112 294.32 13.0512 293.03H13.5612C13.7304 293.739 14.0663 294.398 14.5412 294.951C15.016 295.504 15.616 295.936 16.2913 296.21C17.6713 296.777 20.5279 297.063 24.8613 297.07H31.5212C36.8546 297.07 40.6479 296.29 42.9013 294.73C45.1546 293.17 46.2946 290.65 46.3213 287.17C46.4073 285.497 46.1003 283.827 45.4248 282.293C44.7493 280.76 43.7241 279.406 42.4313 278.34C39.8246 276.22 36.1579 275.163 31.4313 275.17H26.5612C21.1712 275.17 17.7612 275.45 16.3412 276.03C15.6436 276.306 15.0224 276.744 14.5299 277.31C14.0374 277.876 13.688 278.551 13.5113 279.28H13.0013C13.0613 278.15 13.1113 277.05 13.1413 275.96C13.1713 274.87 13.1413 273.81 13.1413 272.75C13.1413 271.2 13.1413 269.94 13.1413 268.98C13.1413 268.02 13.0912 267.05 13.0312 266.16Z" fill="white"/>
<path d="M13.0317 308.209H13.5417C13.7393 308.963 14.1148 309.659 14.6368 310.239C15.1588 310.818 15.812 311.264 16.5417 311.539C18.0951 312.152 21.2884 312.456 26.1217 312.449H38.1017C40.6517 312.449 42.2817 312.199 43.0117 311.699C43.4143 311.353 43.7306 310.918 43.9354 310.429C44.1403 309.939 44.2281 309.408 44.1917 308.879H44.7017C44.8734 310.165 45.134 311.439 45.4817 312.689C45.8484 314.022 46.3951 315.689 47.1217 317.689C45.3717 317.629 43.6217 317.579 41.8717 317.549C40.1217 317.519 38.3717 317.549 36.6117 317.549H27.7117C21.9517 317.549 18.2617 317.849 16.6617 318.439C15.899 318.703 15.2142 319.153 14.6694 319.748C14.1246 320.344 13.737 321.066 13.5417 321.849H13.0317C13.0917 320.949 13.1417 320.009 13.1717 319.009C13.2017 318.009 13.1717 316.659 13.1717 314.939C13.1717 313.619 13.1717 312.449 13.1717 311.419C13.1717 310.389 13.0917 309.279 13.0317 308.209ZM55.1617 311.609C55.5743 311.597 55.985 311.668 56.3698 311.817C56.7545 311.967 57.1054 312.192 57.4017 312.479C57.6944 312.768 57.9244 313.115 58.0775 313.496C58.2306 313.878 58.3036 314.288 58.2917 314.699C58.2996 315.11 58.2229 315.518 58.0663 315.898C57.9098 316.279 57.6768 316.623 57.3817 316.909C57.0942 317.205 56.7487 317.439 56.3667 317.596C55.9847 317.752 55.5745 317.828 55.1617 317.819C54.7534 317.828 54.3477 317.752 53.9705 317.595C53.5934 317.439 53.2532 317.205 52.9717 316.909C52.5089 316.487 52.1874 315.932 52.0509 315.321C51.9144 314.709 51.9695 314.07 52.2088 313.491C52.4481 312.912 52.8599 312.421 53.3882 312.084C53.9166 311.747 54.5358 311.581 55.1617 311.609V311.609Z" fill="white"/>
</g>
<defs>
<clipPath id="clip0">
<rect x="116.781" y="0.609375" width="321.17" height="116.39" transform="rotate(90 116.781 0.609375)" fill="white"/>
</clipPath>
</defs>
</svg>
