<svg width="12" height="173" viewBox="0 0 12 173" fill="none" xmlns="http://www.w3.org/2000/svg">
<path d="M3 5.576V6.656L8.112 3.26L8.148 3.296L11.52 6.404V5.228L7.032 1.184L11.52 1.184V0.26L3 0.26V1.184L5.892 1.184L7.452 2.612L3 5.576ZM2.856 9.95319C2.856 11.6092 4.044 12.7012 6 12.7012C7.956 12.7012 9.144 11.6092 9.144 9.95319C9.144 8.28519 7.956 7.19319 6 7.19319C4.044 7.19319 2.856 8.28519 2.856 9.95319ZM3.588 9.95319C3.588 8.78919 4.44 8.08119 6 8.08119C7.56 8.08119 8.412 8.78919 8.412 9.95319C8.412 11.1052 7.56 11.8132 6 11.8132C4.44 11.8132 3.588 11.1052 3.588 9.95319ZM8.304 13.502V14.606H4.668C3.6 14.606 2.892 15.002 2.892 16.166C2.892 16.502 2.928 16.742 3 16.994H3.768C3.72 16.79 3.684 16.622 3.684 16.382C3.684 15.758 3.996 15.446 4.704 15.446H8.304V16.994H9V15.446H10.944L10.584 14.606H9V13.502H8.304ZM2.856 19.967C2.856 20.999 3.36 21.767 4.2 22.055C3.756 22.067 3.324 22.103 3 22.163V23.039C3.492 22.907 4.164 22.847 5.1 22.847H6.66C8.4 22.847 9.144 22.151 9.144 20.543C9.144 19.163 8.364 18.227 7.128 18.155V19.055C7.98 19.103 8.448 19.655 8.448 20.555C8.448 21.575 7.956 22.007 6.72 22.007H6.624L6.468 20.675C6.348 19.727 6.18 19.139 5.928 18.707C5.628 18.227 5.16 17.975 4.584 17.975C3.552 17.975 2.856 18.767 2.856 19.967ZM3.552 20.159C3.552 19.355 3.96 18.851 4.608 18.851C5.268 18.851 5.616 19.295 5.76 20.315L6 22.019H5.616C4.392 22.019 3.552 21.275 3.552 20.159ZM7.536 25.752H9V24.972H3V25.8H5.748C6.504 25.8 7.308 25.908 7.86 26.46C8.148 26.76 8.316 27.168 8.316 27.744V27.84H9.132C9.144 27.756 9.144 27.696 9.144 27.612C9.144 26.688 8.46 26.028 7.536 25.752ZM2.856 31.3048C2.856 32.9608 4.044 34.0528 6 34.0528C7.956 34.0528 9.144 32.9608 9.144 31.3048C9.144 29.6368 7.956 28.5448 6 28.5448C4.044 28.5448 2.856 29.6368 2.856 31.3048ZM3.588 31.3048C3.588 30.1408 4.44 29.4328 6 29.4328C7.56 29.4328 8.412 30.1408 8.412 31.3048C8.412 32.4568 7.56 33.1648 6 33.1648C4.44 33.1648 3.588 32.4568 3.588 31.3048ZM3 39.0608V39.9128H9.792C10.104 39.9128 10.38 39.9008 10.644 39.8768V39.9128C10.452 39.9488 10.02 40.0568 9.744 40.1648L3 42.6248V43.5248L9.744 45.9848C10.02 46.0808 10.452 46.1888 10.644 46.2248V46.2728C10.38 46.2368 10.104 46.2248 9.792 46.2248H3V47.0888H11.52V45.7688L4.704 43.2968C4.344 43.1648 4.248 43.1288 3.972 43.0808V43.0568C4.248 43.0088 4.344 42.9848 4.704 42.8528L11.52 40.3688V39.0608H3ZM10.08 49.4277V50.3757H11.4V49.4277H10.08ZM3 49.4877V50.3157H9V49.4877H3ZM3.648 51.9091H3V56.5171H3.72V52.9531L8.376 56.3491H9V52.0531H8.292V55.3411L3.648 51.9091ZM2.856 59.9454C2.856 61.6014 4.044 62.6934 6 62.6934C7.956 62.6934 9.144 61.6014 9.144 59.9454C9.144 58.2774 7.956 57.1854 6 57.1854C4.044 57.1854 2.856 58.2774 2.856 59.9454ZM3.588 59.9454C3.588 58.7814 4.44 58.0734 6 58.0734C7.56 58.0734 8.412 58.7814 8.412 59.9454C8.412 61.0974 7.56 61.8054 6 61.8054C4.44 61.8054 3.588 61.0974 3.588 59.9454ZM9.228 68.9416C9.228 69.0856 9.204 69.2056 9.18 69.3136H9.924C9.948 69.1936 9.96 69.0856 9.96 68.9656C9.96 68.1856 9.504 67.7296 8.88 67.5496C9.048 67.2256 9.144 66.8296 9.144 66.3736C9.144 65.0296 8.292 64.1896 7.128 64.1896C6.528 64.1896 6.012 64.4176 5.64 64.8136C5.448 64.2976 5.052 63.9616 4.488 63.9616C4.044 63.9616 3.66 64.1776 3.456 64.6816C3.252 64.0336 2.76 63.6856 2.184 63.6856C1.272 63.6856 0.516 64.3576 0.516 66.3616C0.516 68.3656 1.26 69.2536 2.388 69.2536C3.432 69.2536 4.02 68.5936 4.02 67.2976V65.7256C4.02 65.0056 4.32 64.7056 4.704 64.7056C5.016 64.7056 5.244 64.9216 5.364 65.2216C5.196 65.5456 5.1 65.9296 5.1 66.3736C5.1 67.7296 5.964 68.5576 7.128 68.5576C7.716 68.5576 8.22 68.3416 8.58 67.9576C9 68.1136 9.228 68.4496 9.228 68.9416ZM5.748 66.3736C5.748 65.5336 6.324 64.9816 7.128 64.9816C7.932 64.9816 8.496 65.5336 8.496 66.3736C8.496 67.2136 7.92 67.7656 7.116 67.7656C6.312 67.7656 5.748 67.2136 5.748 66.3736ZM3.288 67.1176C3.288 67.9816 2.952 68.4136 2.34 68.4136C1.68 68.4136 1.212 67.9456 1.212 66.4576C1.212 65.2816 1.524 64.5016 2.328 64.5016C2.736 64.5016 3.12 64.7416 3.312 65.2336C3.3 65.3776 3.288 65.5336 3.288 65.7016V67.1176ZM2.856 72.4183C2.856 73.3303 3.444 74.0863 4.236 74.3623H3L3 75.1543H9V74.3143H5.724C4.512 74.3143 3.576 73.6543 3.576 72.5623C3.576 71.7463 4.104 71.1943 5.28 71.1943H9V70.3663H5.196C3.768 70.3663 2.856 70.9183 2.856 72.4183ZM2.856 79.5969C2.856 80.9169 3.648 81.8049 5.004 82.0209L5.124 81.2169C4.128 81.0609 3.588 80.4969 3.588 79.5969C3.588 78.4449 4.476 77.7609 6.012 77.7609C7.512 77.7609 8.412 78.4449 8.412 79.5609C8.412 80.4729 7.872 81.0489 6.876 81.1689L6.972 82.0209C8.34 81.8769 9.144 80.9649 9.144 79.5969C9.144 77.9169 7.956 76.8729 6 76.8729C4.068 76.8729 2.856 77.9289 2.856 79.5969ZM3 83.8133V84.6413H6.156C7.56 84.6413 8.424 85.3253 8.424 86.4173C8.424 87.3653 7.824 87.8573 6.672 87.8573H3V88.6973H6.72C8.328 88.6973 9.168 88.0013 9.168 86.6933C9.168 85.7093 8.664 84.9893 7.728 84.6413H11.7V83.8133H3ZM10.08 90.7245V91.6725H11.4V90.7245H10.08ZM3 90.7845V91.6125H9V90.7845H3ZM8.592 93.818C8.928 94.538 9.36 94.766 10.248 94.766H11.52V93.626H10.176V94.226H10.14C9.588 94.226 9.3 94.13 9.024 93.59L8.592 93.818ZM2.856 98.2712C2.856 99.6752 3.588 100.491 4.656 100.491C5.532 100.491 6.048 100.011 6.252 98.9552L6.48 97.7792C6.612 97.1552 6.876 96.7832 7.44 96.7832C8.076 96.7832 8.46 97.3112 8.46 98.1392C8.46 99.0152 8.04 99.5312 7.308 99.6512L7.488 100.479C8.556 100.371 9.144 99.4832 9.144 98.1752C9.144 96.8192 8.412 95.9672 7.404 95.9672C6.492 95.9672 5.952 96.5312 5.76 97.5152L5.532 98.6912C5.412 99.3152 5.172 99.6632 4.584 99.6632C3.984 99.6632 3.552 99.1712 3.552 98.2952C3.552 97.3352 4.008 96.7352 4.86 96.5912L4.716 95.7392C3.516 95.9312 2.856 96.8672 2.856 98.2712ZM11.52 108.505V105.541H3V106.465H6.588V108.505C6.588 110.221 7.56 111.313 9.084 111.313C10.572 111.313 11.52 110.221 11.52 108.505ZM7.38 108.421V106.465H10.728V108.421C10.728 109.585 10.092 110.329 9.084 110.329C8.04 110.329 7.38 109.585 7.38 108.421ZM2.856 114.613C2.856 116.269 4.044 117.361 6 117.361C7.956 117.361 9.144 116.269 9.144 114.613C9.144 112.945 7.956 111.853 6 111.853C4.044 111.853 2.856 112.945 2.856 114.613ZM3.588 114.613C3.588 113.449 4.44 112.741 6 112.741C7.56 112.741 8.412 113.449 8.412 114.613C8.412 115.765 7.56 116.473 6 116.473C4.44 116.473 3.588 115.765 3.588 114.613ZM7.536 119.854H9V119.074H3V119.902H5.748C6.504 119.902 7.308 120.01 7.86 120.562C8.148 120.862 8.316 121.27 8.316 121.846V121.942H9.132C9.144 121.858 9.144 121.798 9.144 121.714C9.144 120.79 8.46 120.13 7.536 119.854ZM8.304 122.732V123.836H4.668C3.6 123.836 2.892 124.232 2.892 125.396C2.892 125.732 2.928 125.972 3 126.224H3.768C3.72 126.02 3.684 125.852 3.684 125.612C3.684 124.988 3.996 124.676 4.704 124.676H8.304V126.224H9V124.676H10.944L10.584 123.836H9V122.732H8.304ZM9 130.632V129.072H9.888C10.668 129.072 11.028 129.36 11.028 130.032C11.028 130.224 11.004 130.428 10.968 130.632H11.688C11.748 130.428 11.772 130.188 11.772 129.924C11.772 128.88 11.076 128.244 9.996 128.244H9V127.116H8.304V128.244H3V129.072H8.304V130.632H9ZM2.856 134.09C2.856 135.746 4.044 136.838 6 136.838C7.956 136.838 9.144 135.746 9.144 134.09C9.144 132.422 7.956 131.33 6 131.33C4.044 131.33 2.856 132.422 2.856 134.09ZM3.588 134.09C3.588 132.926 4.44 132.218 6 132.218C7.56 132.218 8.412 132.926 8.412 134.09C8.412 135.242 7.56 135.95 6 135.95C4.44 135.95 3.588 135.242 3.588 134.09ZM11.7 139.438L11.7 138.61H3V139.438H11.7ZM10.08 141.713V142.661H11.4V141.713H10.08ZM3 141.773V142.601H9V141.773H3ZM2.856 147.074C2.856 148.73 4.044 149.822 6 149.822C7.956 149.822 9.144 148.73 9.144 147.074C9.144 145.406 7.956 144.314 6 144.314C4.044 144.314 2.856 145.406 2.856 147.074ZM3.588 147.074C3.588 145.91 4.44 145.202 6 145.202C7.56 145.202 8.412 145.91 8.412 147.074C8.412 148.226 7.56 148.934 6 148.934C4.44 148.934 3.588 148.226 3.588 147.074ZM2.856 156.642C2.856 158.046 3.588 158.862 4.656 158.862C5.532 158.862 6.048 158.382 6.252 157.326L6.48 156.15C6.612 155.526 6.876 155.154 7.44 155.154C8.076 155.154 8.46 155.682 8.46 156.51C8.46 157.386 8.04 157.902 7.308 158.022L7.488 158.85C8.556 158.742 9.144 157.854 9.144 156.546C9.144 155.19 8.412 154.338 7.404 154.338C6.492 154.338 5.952 154.902 5.76 155.886L5.532 157.062C5.412 157.686 5.172 158.034 4.584 158.034C3.984 158.034 3.552 157.542 3.552 156.666C3.552 155.706 4.008 155.106 4.86 154.962L4.716 154.11C3.516 154.302 2.856 155.238 2.856 156.642ZM10.08 160.557V161.505H11.4V160.557H10.08ZM3 160.617V161.445H9V160.617H3ZM8.304 162.834V163.938H4.668C3.6 163.938 2.892 164.334 2.892 165.498C2.892 165.834 2.928 166.074 3 166.326H3.768C3.72 166.122 3.684 165.954 3.684 165.714C3.684 165.09 3.996 164.778 4.704 164.778H8.304V166.326H9V164.778H10.944L10.584 163.938H9V162.834H8.304ZM6.36 172.456C8.184 172.456 9.144 171.532 9.144 169.924C9.144 168.268 7.932 167.26 5.964 167.26C3.948 167.26 2.856 168.256 2.856 169.96C2.856 171.172 3.48 172.048 4.596 172.42L4.884 171.712C4.068 171.46 3.6 170.86 3.6 170.02C3.6 168.856 4.428 168.112 5.784 168.1V172.456H6.36ZM6.468 171.604V168.1C7.704 168.124 8.472 168.796 8.472 169.912C8.472 170.98 7.812 171.604 6.576 171.604H6.468Z" fill="#FAFAFA"/>
</svg>
