<svg width="764" height="81" fill="none" xmlns="http://www.w3.org/2000/svg"><path d="M70.734 70.637l.583.812.584-.419-.21-.686-.957.293zm-58.449-.66l-.679.734.002.001.677-.735zm0-51.594l-.668-.744-.001.001.67.743zm43.317-7.77l-.267.964.006.002.26-.966zm13.152 5.739l.962.272.203-.717-.629-.4-.536.845zm-3.555 12.543l-.196.98.906.181.252-.889-.962-.273zm-1.015-.204l-.961.277.168.585.596.119.197-.98zM56.16 15.336l-.634.773.008.006.626-.78zm-33.617 4.52l-.774-.634-.002.003.776.63zm.05 48.75l-.784.62.002.002.783-.622zm34.888 3.757l.647.763.003-.004-.65-.759zm8.175-14.828l-.148-.989-.702.105-.132.697.982.187zm1.016-.152l.956-.293-.252-.824-.853.128.149.989zm3.48 12.441c-4.353 3.123-8.945 5.426-13.779 6.916l.59 1.91c5.051-1.556 9.837-3.959 14.354-7.2l-1.166-1.626zM56.372 76.74c-4.834 1.49-10.167 2.24-16.006 2.24v2c6.01 0 11.545-.772 16.596-2.33l-.59-1.91zm-16.006 2.24c-11.27 0-20.375-3.268-27.405-9.74l-1.354 1.472c7.46 6.867 17.076 10.269 28.76 10.269v-2zm-27.403-9.738C5.978 62.782 2.47 54.357 2.47 43.875h-2c0 10.982 3.701 19.959 11.137 26.836l1.358-1.469zM2.47 43.875c0-10.237 3.504-18.456 10.486-24.75l-1.34-1.485C4.176 24.346.47 33.123.47 43.875h2zm10.484-24.748c7.027-6.304 16.202-9.494 27.617-9.494v-2c-11.808 0-21.49 3.31-28.953 10.006l1.336 1.488zM40.57 9.633c5.163 0 10.083.65 14.765 1.944l.533-1.928c-4.865-1.345-9.966-2.016-15.298-2.016v2zm14.771 1.946c4.68 1.261 8.97 3.134 12.877 5.616l1.072-1.687c-4.084-2.596-8.562-4.549-13.428-5.86l-.52 1.93zm12.45 4.5l-3.554 12.543 1.924.545 3.555-12.543-1.924-.545zm-2.396 11.835l-1.015-.203-.392 1.961 1.015.203.392-1.961zm-.25.5c-1.765-6.123-4.529-10.78-8.358-13.858l-1.253 1.56c3.415 2.744 6 6.992 7.689 12.852l1.921-.553zm-8.35-13.851C52.99 11.44 48.11 9.918 42.246 9.918v2c5.51 0 9.908 1.423 13.28 4.19l1.269-1.545zM42.246 9.918c-8.535 0-15.397 3.095-20.477 9.304l1.548 1.267c4.67-5.708 10.944-8.571 18.93-8.571v-2zm-20.48 9.307c-5.026 6.186-7.485 14.473-7.485 24.752h2c0-9.967 2.382-17.76 7.038-23.49l-1.552-1.262zm-7.485 24.752c0 10.413 2.476 18.863 7.528 25.249l1.569-1.241c-4.698-5.937-7.097-13.907-7.097-24.008h-2zm7.53 25.251c5.07 6.373 11.811 9.569 20.13 9.569v-2c-7.727 0-13.885-2.932-18.565-8.814l-1.565 1.245zm20.13 9.569c6.309 0 11.724-1.882 16.187-5.671L56.833 71.6c-4.068 3.455-9.012 5.196-14.892 5.196v2zm16.19-5.674c4.46-3.823 7.286-8.98 8.508-15.401l-1.965-.374c-1.148 6.037-3.773 10.766-7.844 14.256l1.301 1.519zm7.674-14.599l1.015-.152-.296-1.978-1.016.152.297 1.978zm-.09-.848l4.063 13.254 1.912-.586-4.062-13.254-1.912.586zm75.756 19.816h1v-.799l-.779-.176-.221.975zm0 .508v1h1v-1h-1zm-13 0l-.869.496.288.504h.581v-1zm-2.133-4.57l-.939.344.002.007.937-.351zm-1.574-5.434l.975-.219-.594-2.65-1.266 2.403.885.466zm-38.696 3.352l.826-.565-.826.565zm-2.691-6.805l-.983.182v.007l.002.007.98-.196zm-2.031-34.277l-.825.565.01.014.009.013.806-.592zm-4.672-2.082h-1v.915l.912.08.088-.995zm0-.813l-.114-.993-.886.101v.892h1zm6.754-1.219l-.227-.974-.003.001.23.973zm9.394-2.64l1 .046.065-1.427-1.363.426.298.955zm27.676 46.312l-.843-.537-.001.002.844.535zm3.199-39.406l-.867.498.006.01.861-.508zm-4.57-2.234h-1v.942l.94.056.06-.998zm0-.813l-.126-.992-.874.111v.881h1zm6.906-1.27l.227.975.013-.003-.24-.971zm9.09-2.59l.999.047.066-1.425-1.362.424.297.955zm5.348 53.981V78h2v-.508h-2zm1-.492h-13v2h13v-2zm-12.132.504a30.43 30.43 0 01-2.065-4.425l-1.873.702a32.608 32.608 0 002.201 4.715l1.737-.992zm-2.063-4.42a42.218 42.218 0 01-1.537-5.307l-1.951.438c.448 2 .985 3.854 1.611 5.56l1.877-.69zm-3.397-5.554c-1.923 3.65-4.426 6.365-7.497 8.188l1.021 1.72c3.429-2.036 6.174-5.043 8.245-8.976l-1.769-.932zm-7.497 8.188c-3.074 1.825-6.684 2.755-10.864 2.755v2c4.486 0 8.459-1 11.885-3.035l-1.021-1.72zm-10.864 2.755c-4.329 0-8.104-.694-11.344-2.055l-.774 1.844c3.53 1.483 7.577 2.21 12.118 2.21v-2zm-11.344-2.055c-3.24-1.361-5.647-3.247-7.28-5.635l-1.651 1.13c1.887 2.758 4.626 4.866 8.157 6.349l.774-1.844zm-7.28-5.636c-1.16-1.693-2.015-3.828-2.537-6.435l-1.96.392c.561 2.81 1.501 5.21 2.846 7.174l1.65-1.13zm-2.534-6.421c-.49-2.646-.745-6.985-.745-13.072h-2c0 6.1.253 10.597.779 13.436l1.966-.364zm-.745-13.072v-3.148h-2v3.148h2zm0-3.148V37.984h-2v10.157h2zm0-10.157c0-2.026-.107-3.727-.33-5.088-.22-1.333-.569-2.454-1.134-3.223l-1.611 1.185c.281.383.567 1.124.771 2.363.2 1.212.304 2.795.304 4.763h2zM82.17 29.7c-1.062-1.549-2.988-2.299-5.408-2.512l-.176 1.992c2.184.192 3.372.83 3.935 1.651l1.65-1.13zm-4.496-1.516v-.813h-2v.813h2zm-.886.18c2.11-.242 4.401-.656 6.87-1.238l-.46-1.947c-2.407.568-4.619.967-6.638 1.199l.228 1.987zm6.867-1.238c2.504-.583 5.662-1.471 9.466-2.66l-.597-1.909c-3.78 1.181-6.885 2.054-9.323 2.621l.454 1.948zm8.168-3.66a386.522 386.522 0 00-.305 8.859l2 .046c.067-2.938.168-5.876.303-8.813l-1.998-.092zm-.305 8.859a385.356 385.356 0 00-.102 8.859h2c0-2.938.034-5.876.101-8.813l-2-.046zm-.102 8.859v6.754h2v-6.754h-2zm0 6.754c0 5.7.293 10.494.888 14.37.591 3.86 1.493 6.886 2.758 8.996l1.715-1.03c-1.07-1.783-1.92-4.512-2.497-8.27-.573-3.74-.864-8.425-.864-14.066h-2zm3.646 23.366c2.57 4.282 7.055 6.325 13.147 6.325v-2c-5.622 0-9.33-1.85-11.432-5.354l-1.715 1.029zm13.147 6.325c5.662 0 10.075-2.447 13.133-7.27l-1.688-1.07c-2.697 4.25-6.477 6.34-11.445 6.34v2zm13.132-7.267c3.057-4.798 4.524-11.55 4.524-20.14h-2c0 8.407-1.444 14.722-4.21 19.065l1.686 1.075zm4.524-20.14v-9.648h-2v9.649h2zm0-9.648c0-2.743-.098-4.995-.298-6.741-.196-1.702-.503-3.066-1.008-3.923l-1.723 1.016c.273.463.55 1.453.744 3.136.188 1.639.285 3.806.285 6.512h2zm-1.301-10.654c-1.015-1.765-2.937-2.589-5.378-2.735l-.119 1.997c2.097.125 3.221.79 3.763 1.734l1.734-.997zm-4.437-1.736v-.813h-2v.813h2zm-.874.18c2.172-.277 4.508-.707 7.007-1.288l-.454-1.948c-2.443.569-4.712.985-6.805 1.251l.252 1.984zm7.02-1.291c2.497-.616 5.548-1.486 9.147-2.607l-.594-1.91c-3.578 1.115-6.587 1.972-9.032 2.575l.479 1.942zm7.851-3.608a363.04 363.04 0 00-.305 9.013l1.999.044c.068-3.073.169-6.061.304-8.964l-1.998-.093zm-.305 9.013c-.068 3.089-.102 6.38-.102 9.874h2c0-3.481.034-6.758.101-9.83l-1.999-.044zm-.102 9.874V54.59h2V42.352h-2zm0 12.238c0 8.78.483 14.814 1.524 17.937l1.897-.632c-.923-2.768-1.421-8.481-1.421-17.305h-2zm1.524 17.937c1.067 3.202 3.058 5.272 6.009 5.94l.442-1.95c-2.128-.482-3.658-1.934-4.554-4.622l-1.897.632zm11.407 5.778h-1v1.064l1.063-.066-.063-.998zm0-.813l-.297-.955-.703.22v.735h1zm5.535-47.379l-.845.534.006.01.839-.544zm-4.621-2.133h-1v.942l.941.057.059-.998zm0-.812l-.135-.99-.865.117v.873h1zm14.879-3.656h1v-1.377l-1.309.426.309.95zm0 16.86h-1l1.93.368-.93-.369zm8.125-12.493l.663.749h.001l-.664-.75zm12.239-4.317l-.111.994.055.006h.056v-1zm.812.051l.954.302.347-1.099-1.137-.19-.164.987zm-3.707 11.73v1h.733l.221-.698-.954-.301zm-.812 0l-.771.638.3.363h.471v-1zm-2.235-1.777l-.447.895.007.003.007.004.433-.902zm-10.715 4.063l-.862-.506-.002.003.864.503zm-1.32 35.394l-.926.38.004.008.004.008.918-.396zm5.332 4.47l.998.062.05-.794-.762-.227-.286.958zm-.051.812l-.052.998.989.052.061-.988-.998-.062zm-5.738-.254l.036-1h-.018l-.018 1zm-12.645 0l-.019-1h-.019l.038 1zm-4.078.254v-.813h-2v.813h2zm-.702.142c2.859-.891 4.886-2.64 5.959-5.246l-1.849-.761c-.823 1.998-2.351 3.364-4.705 4.097l.595 1.91zm5.959-5.246c.536-1.302.9-3.354 1.138-6.057.24-2.732.359-6.225.359-10.472h-2c0 4.217-.118 7.646-.351 10.297-.236 2.68-.583 4.47-.995 5.47l1.849.762zm1.497-16.53v-2.487h-2v2.488h2zm0-2.487v-15.59h-2v15.59h2zm0-15.59c0-2.226-.102-4.085-.315-5.563-.208-1.45-.536-2.648-1.065-3.462l-1.678 1.088c.285.439.566 1.28.764 2.658.193 1.348.294 3.103.294 5.279h2zm-1.373-9.015c-1.057-1.674-2.983-2.452-5.407-2.597l-.119 1.997c2.113.126 3.267.77 3.835 1.668l1.691-1.068zm-4.467-1.599v-.812h-2v.813h2zm-.865.179a66.325 66.325 0 007.116-1.392l-.485-1.94a64.343 64.343 0 01-6.901 1.35l.27 1.982zm7.116-1.392a119.704 119.704 0 007.938-2.304l-.619-1.902a117.572 117.572 0 01-7.804 2.266l.485 1.94zm6.628-3.255v16.86h2v-16.86h-2zm1.93 17.228c2.128-5.353 4.759-9.369 7.858-12.112l-1.326-1.498c-3.401 3.012-6.186 7.324-8.391 12.872l1.859.738zm7.859-12.113c3.12-2.766 6.529-4.115 10.254-4.115v-2c-4.264 0-8.134 1.562-11.581 4.619l1.327 1.496zm10.254-4.115c.565 0 .961.017 1.21.044l.221-1.987c-.36-.04-.844-.057-1.431-.057v2zm1.321.05c.313 0 .522.017.648.038l.328-1.973a6.1 6.1 0 00-.976-.064v2zm-.141-1.25l-3.708 11.73 1.908.603 3.707-11.73-1.907-.603zm-2.754 11.032h-.812v2h.812v-2zm-.042.363c-.728-.882-1.586-1.569-2.572-2.042l-.866 1.803c.706.339 1.338.837 1.897 1.513l1.541-1.274zm-2.558-2.035c-.971-.486-2.059-.715-3.24-.715v2c.919 0 1.692.177 2.346.504l.894-1.789zm-3.24-.715c-3.827 0-6.787 1.762-8.784 5.166l1.725 1.012c1.658-2.826 3.98-4.178 7.059-4.178v-2zm-8.786 5.169c-1.924 3.304-2.827 8.032-2.827 14.062h2c0-5.887.891-10.199 2.555-13.056l-1.728-1.006zm-2.827 14.062v6.093h2v-6.093h-2zm0 6.093c0 4.145.114 7.554.346 10.218.23 2.634.581 4.636 1.099 5.903l1.852-.757c-.396-.967-.731-2.706-.958-5.32-.225-2.583-.339-5.928-.339-10.044h-2zm1.453 16.138c1.081 2.511 3.116 4.18 5.964 5.031l.572-1.916c-2.366-.707-3.885-2.016-4.7-3.906l-1.836.791zm5.252 4.01l-.051.813 1.996.125.051-.812-1.996-.125zm1-.123a340.74 340.74 0 00-5.755-.255l-.072 2c1.89.067 3.797.151 5.722.252l.105-1.997zm-5.773-.255c-1.868-.034-3.77-.051-5.706-.051v2c1.924 0 3.814.017 5.67.05l.036-2zM158.683 77c-2.88 0-5.206.017-6.976.051l.039 2c1.751-.034 4.063-.051 6.937-.051v-2zm-6.995.052a213.13 213.13 0 00-5.102.255l.125 1.996c1.616-.101 3.301-.185 5.054-.253l-.077-1.998zm36.243 1.253h-1v1.064l1.063-.066-.063-.998zm0-.813l-.297-.955-.703.22v.735h1zm5.536-47.379l-.846.534.007.01.839-.544zm-4.622-2.133h-1v.942l.941.057.059-.998zm0-.812l-.135-.99-.865.117v.873h1zm14.879-3.656h1v-1.377l-1.309.426.309.95zm0 16.86h-1l1.93.368-.93-.369zm8.125-12.493l.663.749h.001l-.664-.75zm12.239-4.317l-.111.994.055.006h.056v-1zm.812.051l.954.302.347-1.099-1.136-.19-.165.987zm-3.707 11.73v1h.733l.221-.698-.954-.301zm-.812 0l-.771.638.3.363h.471v-1zm-2.235-1.777l-.447.895.007.003.008.004.432-.902zm-10.715 4.063l-.862-.506-.002.003.864.503zm-1.32 35.394l-.925.38.003.008.004.008.918-.396zm5.332 4.47l.998.062.05-.794-.762-.227-.286.958zm-.051.812l-.052.998.989.052.061-.988-.998-.062zm-5.738-.254l.036-1h-.018l-.018 1zm-12.644 0l-.02-1h-.019l.039 1zm-4.079.254v-.813h-2v.813h2zm-.702.142c2.86-.891 4.886-2.64 5.959-5.246l-1.849-.761c-.823 1.998-2.351 3.364-4.705 4.097l.595 1.91zm5.959-5.246c.536-1.302.9-3.354 1.138-6.057.241-2.732.359-6.225.359-10.472h-2c0 4.217-.118 7.646-.351 10.297-.236 2.68-.583 4.47-.995 5.47l1.849.762zm1.497-16.53v-2.487h-2v2.488h2zm0-2.487v-15.59h-2v15.59h2zm0-15.59c0-2.226-.102-4.085-.315-5.563-.208-1.45-.536-2.648-1.064-3.462l-1.678 1.088c.284.439.565 1.28.763 2.658.194 1.348.294 3.103.294 5.279h2zm-1.373-9.015c-1.057-1.674-2.983-2.452-5.407-2.597l-.119 1.997c2.113.126 3.267.77 3.835 1.668l1.691-1.068zm-4.467-1.599v-.812h-2v.813h2zm-.864.179a66.356 66.356 0 007.115-1.392l-.485-1.94a64.343 64.343 0 01-6.901 1.35l.271 1.982zm7.115-1.392a119.53 119.53 0 007.938-2.304l-.619-1.902a117.572 117.572 0 01-7.804 2.266l.485 1.94zm6.628-3.255v16.86h2v-16.86h-2zm1.93 17.228c2.128-5.353 4.759-9.369 7.858-12.112l-1.326-1.498c-3.401 3.012-6.186 7.324-8.391 12.872l1.859.738zm7.859-12.113c3.12-2.766 6.529-4.115 10.254-4.115v-2c-4.264 0-8.134 1.562-11.581 4.619l1.327 1.496zm10.254-4.115c.565 0 .961.017 1.21.044l.221-1.987c-.36-.04-.844-.057-1.431-.057v2zm1.321.05c.313 0 .522.017.648.038l.329-1.973a6.122 6.122 0 00-.977-.064v2zm-.141-1.25l-3.707 11.73 1.907.603 3.707-11.73-1.907-.603zm-2.754 11.032h-.812v2h.812v-2zm-.041.363c-.729-.882-1.586-1.569-2.573-2.042l-.865 1.803c.706.339 1.338.837 1.896 1.513l1.542-1.274zm-2.559-2.035c-.971-.486-2.059-.715-3.24-.715v2c.919 0 1.692.177 2.346.504l.894-1.789zm-3.24-.715c-3.827 0-6.786 1.762-8.784 5.166l1.725 1.012c1.658-2.826 3.98-4.178 7.059-4.178v-2zm-8.786 5.169c-1.924 3.304-2.827 8.032-2.827 14.062h2c0-5.887.891-10.199 2.556-13.056l-1.729-1.006zm-2.827 14.062v6.093h2v-6.093h-2zm0 6.093c0 4.145.115 7.554.347 10.218.229 2.634.58 4.636 1.099 5.903l1.851-.757c-.396-.967-.73-2.706-.958-5.32-.225-2.583-.339-5.928-.339-10.044h-2zm1.453 16.138c1.081 2.511 3.117 4.18 5.964 5.031l.572-1.916c-2.366-.707-3.885-2.016-4.699-3.906l-1.837.791zm5.252 4.01l-.051.813 1.996.125.051-.812-1.996-.125zm1-.123a340.74 340.74 0 00-5.755-.255l-.072 2c1.89.067 3.798.151 5.722.252l.105-1.997zm-5.773-.255c-1.868-.034-3.77-.051-5.705-.051v2c1.923 0 3.813.017 5.669.05l.036-2zM199.967 77c-2.881 0-5.207.017-6.977.051l.039 2c1.751-.034 4.063-.051 6.938-.051v-2zm-6.996.052c-1.768.067-3.468.152-5.102.255l.125 1.996c1.616-.101 3.301-.185 5.054-.253l-.077-1.998zm94.49-33.177l.001 1 1.128-.001-.137-1.12-.992.121zm-43.825.05l-.001-1-.933.002-.063.93.997.069zm-.253 3.86l-.999-.062v.015l-.001.015 1 .032zm5.484 21.684l-.78.625.002.003.778-.628zm38.035-13.813l.798-.603-1.207-1.596-.552 1.923.961.276zm1.574 2.082l.961.278.139-.481-.302-.4-.798.603zm-10.156 16.25l.616.788h.001l-.617-.788zM239.828 71.5l-.696.718.002.002.694-.72zm-.254-41.082l-.705-.71-.002.003.707.707zm39.457-2.234l-.625.78.002.002.623-.782zM243.84 41.69l-.983-.186-.226 1.186h1.209v-1zm31.027 0v1h1.039l-.04-1.038-.999.038zm-4.215-12.695l-.771.637.004.005.767-.642zm-20.922-.101l-.723-.691.723.69zm37.729 13.98l-43.824.05.003 2 43.824-.05-.003-2zm-44.82.983c-.102 1.49-.187 2.779-.255 3.865l1.997.124c.067-1.08.152-2.365.253-3.853l-1.995-.136zm-.256 3.895a83.218 83.218 0 00-.051 2.571h2c0-.628.016-1.462.05-2.507l-1.999-.064zm-.051 2.571c0 8.3 1.876 14.931 5.755 19.77l1.56-1.25c-3.502-4.37-5.315-10.502-5.315-18.52h-2zm5.757 19.773c3.902 4.833 9.297 7.227 16.063 7.227v-2c-6.234 0-11.029-2.175-14.507-6.483l-1.556 1.256zm16.063 7.227c5.597 0 10.491-1.886 14.636-5.641l-1.343-1.483c-3.776 3.422-8.192 5.124-13.293 5.124v2zm14.636-5.641c4.133-3.745 7.142-9.02 9.075-15.75l-1.922-.553c-1.859 6.473-4.707 11.388-8.496 14.82l1.343 1.483zm7.316-15.424l1.575 2.082 1.595-1.206-1.574-2.082-1.596 1.206zm1.412 1.202c-2.022 6.99-5.309 12.208-9.813 15.74l1.234 1.574c4.907-3.848 8.391-9.464 10.5-16.759l-1.921-.555zm-9.812 15.74c-4.464 3.493-10.108 5.272-17.005 5.272v2c7.254 0 13.357-1.878 18.237-5.697l-1.232-1.575zm-17.005 5.272c-8.164 0-14.864-2.576-20.177-7.693l-1.388 1.44c5.723 5.513 12.937 8.253 21.565 8.253v-2zm-20.175-7.691c-5.28-5.117-7.923-11.522-7.923-19.29h-2c0 8.279 2.841 15.212 8.531 20.726l1.392-1.436zm-7.923-19.29c0-8.515 2.583-15.27 7.68-20.367l-1.414-1.414c-5.533 5.533-8.266 12.828-8.266 21.781h2zm7.678-20.365c5.133-5.1 11.873-7.682 20.318-7.682v-2c-8.888 0-16.163 2.734-21.728 8.264l1.41 1.418zm20.318-7.682c7.342 0 13.25 1.866 17.809 5.519l1.25-1.56c-4.988-3.999-11.369-5.959-19.059-5.959v2zm17.811 5.521c4.583 3.647 7.276 8.63 8.06 15.03l1.985-.242c-.841-6.871-3.768-12.349-8.799-16.353l-1.246 1.565zM243.84 42.691h31.027v-2H243.84v2zm32.026-1.038c-.209-5.5-1.659-9.967-4.447-13.299l-1.534 1.284c2.425 2.897 3.785 6.893 3.983 12.091l1.998-.075zm-4.443-13.294c-2.771-3.355-6.444-5.035-10.927-5.035v2c3.913 0 7.011 1.434 9.385 4.309l1.542-1.274zm-10.927-5.035c-4.535 0-8.386 1.633-11.489 4.88l1.446 1.381c2.72-2.846 6.046-4.26 10.043-4.26v-2zm-11.489 4.88c-3.05 3.193-5.077 7.657-6.15 13.3l1.965.374c1.026-5.393 2.926-9.46 5.631-12.293l-1.446-1.381zm45.663 50.1h-1v1.065l1.062-.066-.062-.998zm0-.812l-.294-.956-.706.217v.74h1zm5.433-47.023l-.849.528.008.013.009.013.832-.554zm-4.519-2.082h-1v.94l.939.058.061-.998zm0-.813l-.132-.991-.868.115v.876h1zm7.109-1.37l.243.97.009-.003-.252-.968zm7.769-2.388h1v-1.41l-1.33.466.33.944zm0 15.387h-1l1.959.285-.959-.285zm7.872-12.543l.611.791h.002l-.613-.79zm29.808 1.98l-.77.638.006.007.764-.644zm6.551 44.485l-.921.389.003.008.004.01.914-.407zm5.383 4.367l.998.063.05-.796-.765-.226-.283.96zm-.051.813l-.053.998.989.052.062-.988-.998-.062zm-5.738-.254l.035-1h-.017l-.018 1zm-12.645 0l-.019-1h-.019l.038 1zm-5.078.254h-1v1.064l1.062-.066-.062-.998zm0-.813l-.281-.96-.719.211v.75h1zM316.15 31.891l-.8-.6-.003.004.803.596zm1.98 45.601h1v-.768l-.742-.198-.258.966zm0 .813l-.052.998 1.052.056v-1.054h-1zm-5.738-.254l.036-1h-.018l-.018 1zm-12.644 0l-.02-1h-.019l.039 1zm-4.078.254v-.813h-2v.813h2zm-.707.143c2.785-.854 4.778-2.528 5.855-5.029l-1.836-.791c-.819 1.9-2.313 3.205-4.606 3.908l.587 1.912zm5.855-5.029c.539-1.25.905-3.134 1.144-5.566.241-2.457.36-5.56.36-9.302h-2c0 3.706-.118 6.739-.351 9.106-.235 2.392-.58 4.02-.989 4.97l1.836.792zm1.504-14.868v-4.367h-2v4.367h2zm0-4.367V39h-2v15.184h2zm0-15.184c0-2.259-.102-4.139-.315-5.626-.208-1.454-.536-2.656-1.072-3.46l-1.664 1.11c.277.415.558 1.243.756 2.633.194 1.357.295 3.133.295 5.343h2zm-1.37-9.06c-1.025-1.648-2.925-2.407-5.308-2.551l-.121 1.996c2.085.126 3.199.755 3.731 1.612l1.698-1.056zm-4.368-1.553v-.813h-2v.813h2zm-.869.179a64.926 64.926 0 007.22-1.393l-.485-1.94c-2.403.6-4.736 1.05-6.998 1.35l.263 1.983zm7.23-1.395c2.501-.651 5.117-1.455 7.848-2.41l-.661-1.889a98.209 98.209 0 01-7.691 2.363l.504 1.936zm6.517-3.355v15.387h2V23.816h-2zm1.959 15.672c1.616-5.442 4.143-9.421 7.524-12.037l-1.223-1.582c-3.796 2.937-6.517 7.32-8.218 13.05l1.917.569zm7.526-12.038c3.412-2.647 7.77-4.005 13.148-4.005v-2c-5.725 0-10.542 1.452-14.374 4.425l1.226 1.58zm13.148-4.005c7.094 0 12.109 2.007 15.277 5.833l1.54-1.275c-3.671-4.434-9.353-6.558-16.817-6.558v2zm15.283 5.84c3.23 3.832 4.944 9.98 4.944 18.652h2c0-8.864-1.739-15.58-5.415-19.94l-1.529 1.288zm4.944 18.652v9.141h2v-9.14h-2zm0 9.141c0 4.28.114 7.781.346 10.495.229 2.68.58 4.699 1.104 5.94l1.842-.777c-.39-.925-.725-2.664-.953-5.333-.225-2.635-.339-6.073-.339-10.325h-2zm1.457 16.453c1.089 2.45 3.148 4.075 6.014 4.92l.566-1.918c-2.416-.712-3.945-1.998-4.752-3.814l-1.828.812zm5.299 3.899l-.051.812 1.996.125.051-.812-1.996-.125zm1-.124a340.855 340.855 0 00-5.756-.255l-.071 2c1.89.067 3.797.151 5.721.252l.106-1.997zm-5.773-.255c-1.868-.034-3.77-.051-5.706-.051v2c1.924 0 3.814.017 5.67.05l.036-2zM348.599 77c-2.88 0-5.207.017-6.976.051l.038 2c1.752-.034 4.064-.051 6.938-.051v-2zm-6.995.052a213.13 213.13 0 00-5.102.255l.124 1.996a212.08 212.08 0 015.055-.253l-.077-1.998zm-4.04 1.253v-.813h-2v.813h2zm-.718.147c2.797-.82 4.793-2.5 5.869-5.038l-1.841-.781c-.819 1.931-2.31 3.23-4.591 3.9l.563 1.919zm5.869-5.038c.536-1.263.902-3.153 1.141-5.587.242-2.456.36-5.552.36-9.276h-2c0 3.69-.118 6.713-.35 9.08-.235 2.391-.58 4.03-.992 5.002l1.841.781zm1.501-14.863v-4.367h-2v4.367h2zm0-4.367V48.8h-2v5.383h2zm0-5.383c0-7.95-1.187-14.019-3.706-18.05l-1.696 1.06c2.22 3.553 3.402 9.164 3.402 16.99h2zm-3.706-18.05c-2.573-4.116-6.553-6.157-11.766-6.157v2c4.604 0 7.903 1.75 10.07 5.217l1.696-1.06zm-11.766-6.157c-5.562 0-10.057 2.247-13.394 6.697l1.6 1.2c2.96-3.947 6.861-5.897 11.794-5.897v-2zm-13.397 6.7c-3.282 4.424-4.869 10.328-4.869 17.608h2c0-7.006 1.528-12.443 4.475-16.416l-1.606-1.191zm-4.869 17.608v8.38h2v-8.38h-2zm0 8.38c0 4.145.119 7.559.36 10.233.238 2.644.602 4.66 1.139 5.945l1.846-.771c-.411-.983-.758-2.734-.993-5.354-.234-2.59-.352-5.939-.352-10.054h-2zm1.499 16.178c1.077 2.576 3.081 4.248 5.896 4.998l.515-1.932c-2.263-.604-3.746-1.877-4.565-3.837l-1.846.77zm5.153 4.032v.813h2v-.813h-2zm1.053-.186a340.74 340.74 0 00-5.755-.255l-.072 2c1.891.067 3.798.151 5.722.252l.105-1.997zm-5.773-.255c-1.868-.034-3.77-.051-5.705-.051v2c1.924 0 3.813.017 5.669.05l.036-2zM306.705 77c-2.881 0-5.207.017-6.977.051l.039 2c1.751-.034 4.063-.051 6.938-.051v-2zm-6.996.052c-1.768.067-3.468.152-5.102.255l.125 1.996c1.616-.101 3.301-.185 5.054-.253l-.077-1.998zm65.494-47.599l-.975-.223-.28 1.223h1.255v-1zm.406-1.777l-.292-.957-.554.17-.129.564.975.223zm9.547-5.637l-.694-.72-.004.004.698.716zm7.922-11.426v-1h-.613l-.278.546.891.454zm.761 0l.997.085.092-1.085h-1.089v1zm-.66 15.336l-1-.021-.021 1.017 1.017.004.004-1zm11.375.051h1v-.995l-.995-.005-.005 1zm0 .71l.932.363.068-.175v-.187h-1zm-1.066 2.743v1h.684l.248-.637-.932-.363zm-10.309 0v-1h-1v1h1zm8.024 48.04h1v-.82l-.804-.161-.196.98zm0 .609l-.015 1 1.015.015v-1.015h-1zM384.55 78l.016-1h-.016v1zm-7.718 0l-.564.826.255.174h.309v-1zm-3.809-22.648l-1-.024v.024h1zm.609-25.899l1 .024.024-1.024h-1.024v1zm-7.454.223l.406-1.777-1.95-.446-.406 1.777 1.95.446zm-.277-1.044c3.807-1.163 7.129-3.124 9.953-5.877l-1.396-1.432c-2.593 2.528-5.636 4.325-9.141 5.396l.584 1.913zm9.948-5.873c2.851-2.744 5.551-6.658 8.119-11.691l-1.781-.91c-2.51 4.92-5.091 8.624-7.725 11.16l1.387 1.441zm7.229-11.146h.761v-2h-.761v2zm-.235-1.084a155.258 155.258 0 00-.409 6.849l1.998.08c.101-2.528.236-4.781.404-6.76l-1.993-.17zm-.409 6.849a467.03 467.03 0 00-.255 8.55l2 .043c.068-3.144.152-5.981.253-8.513l-1.998-.08zm.741 9.571L394.55 27l.009-2-11.375-.05-.009 2zM393.554 26v.71h2V26h-2zm.068.349l-1.066 2.742 1.864.725 1.066-2.743-1.864-.724zm-.134 2.104h-10.309v2h10.309v-2zm-11.309 1v22.649h2V29.453h-2zm0 22.649c0 9.597.568 16.242 1.781 19.774l1.892-.65c-1.09-3.171-1.673-9.493-1.673-19.124h-2zm1.781 19.774c1.247 3.63 3.596 5.907 7.047 6.597l.392-1.961c-2.643-.529-4.492-2.214-5.547-5.286l-1.892.65zm6.243 5.616v.61h2v-.61h-2zm1.015-.39L384.566 77l-.031 2 6.653.101.03-2zM384.55 77H376.832v2H384.55v-2zm-7.154.174c-1.198-.818-2.052-1.955-2.563-3.457l-1.894.644c.641 1.884 1.75 3.387 3.329 4.465l1.128-1.652zm-2.563-3.457c-.517-1.522-.81-4.286-.81-8.412h-2c0 4.134.283 7.193.916 9.056l1.894-.644zm-.81-8.412v-3.961h-2v3.96h2zm0-3.961v-3.961h-2v3.96h2zm0-3.961v-2.031h-2v2.03h2zm0-2.008l.609-25.898-1.999-.047-.61 25.898 2 .047zm-.391-26.922h-8.429v2h8.429v-2zm60.172-17.433l-.998-.063-.044.7.642.28.4-.917zm.051-.813l.05-.999-.987-.049-.061.986.998.062zm2.996.152l.068-.997h-.009l-.008-.001-.051.998zm19.195-.152h1V9.171l-1.035.037.035.999zm0 .813l.196.98.804-.16v-.82h-1zm-3.808 8.785l-.967.254.002.008.002.008.963-.27zm2.132 6.093l-.924.382.001.001.923-.383zm14.473 34.938l-.924.383.944 2.278.91-2.292-.93-.37zm20.719-52.203v-1h-.679l-.251.63.93.37zm.812 0l.919-.396-.261-.604h-.658v1zm22.446 52.101l-.919.396 1.021 2.368.843-2.437-.945-.327zm10.613-30.672l-.943-.332-.002.005.945.328zm1.879-6.906l-.98-.199-.002.011.982.188zm-.609-10.308l-.779.627.006.008.006.007.767-.642zm-3.961-1.829h-1v.91l.906.086.094-.995zm0-.71l.062-.998-1.062-.067v1.065h1zm4.722.254l-.044.998.011.001h.011l.022-1zm9.141 0l.023 1 .011-.001h.011l-.045-1zm4.418-.254h1V9.236l-1.07.075.07.998zm0 .71l.164.987.836-.14v-.846h-1zm-6.195 6.5l-.869-.496-.001.003.87.494zm-8.43 19.5l-.937-.348h-.001l.938.349zm-15.945 42.962v1h.695l.242-.653-.937-.347zm-.407 0l-.925.38.255.62h.67v-1zm-22.445-54.692l.925-.38-.944-2.3-.912 2.314.931.366zM464.07 79.981v1h.681l.249-.634-.93-.366zm-.407 0l-.931.362.248.638h.683v-1zm-22.597-58.043l.932-.363-.001-.001-.931.363zm-3.707-7.668l-.835.55.007.01.007.01.821-.57zm-2.557-3.188l.051-.813-1.996-.124-.051.812 1.996.125zm-.997.124c.676.034 1.675.084 2.995.152l.102-1.997-2.997-.153-.1 1.998zm2.978.151c3.49.237 6.075.358 7.736.358v-2c-1.589 0-4.116-.117-7.6-.353l-.136 1.995zm7.736.358c1.589 0 4.119-.103 7.574-.307l-.117-1.996c-3.451.203-5.931.303-7.457.303v2zm7.574-.307c1.724-.101 3.053-.168 3.989-.202l-.071-1.998c-.96.034-2.306.102-4.035.204l.117 1.996zm2.953-1.201v.813h2v-.813h-2zm.804-.168c-1.744.349-3.16.885-4.047 1.728l1.377 1.45c.467-.443 1.421-.889 3.062-1.217l-.392-1.961zm-4.047 1.728c-.942.895-1.327 2.166-1.327 3.62h2c0-1.12.292-1.778.704-2.17l-1.377-1.45zm-1.327 3.62c0 1.149.282 2.723.795 4.672l1.934-.509c-.503-1.91-.729-3.28-.729-4.163h-2zm.799 4.688a56.065 56.065 0 002.171 6.205l1.849-.763a53.988 53.988 0 01-2.095-5.983l-1.925.54zm2.172 6.206l14.472 34.938 1.848-.766-14.473-34.937-1.847.765zm16.326 34.924l20.718-52.203-1.859-.738-20.718 52.203 1.859.738zm19.789-51.572h.812v-2h-.812v2zm-.106-.605l22.445 52.102 1.837-.791-22.445-52.102-1.837.791zm24.309 52.033l10.613-30.671-1.89-.655-10.613 30.672 1.89.654zm10.611-30.666a48.655 48.655 0 001.918-7.051l-1.964-.376a46.74 46.74 0 01-1.84 6.762l1.886.665zm1.916-7.04c.48-2.366.731-4.335.731-5.886h-2c0 1.36-.223 3.182-.691 5.488l1.96.398zm.731-5.886c0-2.157-.465-3.965-1.554-5.264l-1.533 1.285c.671.8 1.087 2.073 1.087 3.979h2zm-1.542-5.25c-1.067-1.322-2.676-2.01-4.646-2.195l-.187 1.991c1.619.153 2.65.684 3.276 1.46l1.557-1.255zm-3.739-1.2v-.71h-2v.71h2zm-1.063.288c1.631.102 3.211.186 4.741.255l.089-1.999a261.842 261.842 0 01-4.705-.252l-.125 1.996zm4.763.255c1.565.034 3.112.051 4.643.051v-2c-1.516 0-3.049-.017-4.599-.05l-.044 2zm4.643.051c1.531 0 3.045-.017 4.543-.05l-.046-2c-1.482.033-2.981.05-4.497.05v2zm4.565-.051a183.84 183.84 0 004.442-.256l-.139-1.995c-1.447.101-2.912.185-4.394.253l.091 1.998zm3.373-1.253v.71h2v-.71h-2zm.835-.276c-1.223.204-2.382.999-3.479 2.15-1.11 1.165-2.248 2.79-3.42 4.84l1.737.993c1.13-1.978 2.176-3.451 3.131-4.453.968-1.016 1.756-1.456 2.36-1.557l-.329-1.973zm-6.9 6.993c-2.31 4.068-5.143 10.631-8.497 19.645l1.874.697c3.349-8.997 6.136-15.434 8.362-19.355l-1.739-.987zm-8.498 19.646l-15.945 42.96 1.875.696 15.945-42.96-1.875-.696zM508.453 78.98h-.407v2h.407v-2zm.518.62l-22.445-54.692-1.85.76 22.445 54.691 1.85-.76zM484.67 24.923l-21.531 54.691 1.861.733 21.531-54.692-1.861-.732zm-20.6 54.058h-.407v2h.407v-2zm.525.637l-22.597-58.043-1.864.725 22.598 58.043 1.863-.725zm-22.598-58.044c-1.394-3.57-2.664-6.217-3.817-7.876l-1.642 1.143c1.013 1.456 2.214 3.92 3.596 7.46l1.863-.727zm-3.803-7.855c-1.123-1.702-2.444-2.942-3.99-3.616l-.8 1.833c1.094.477 2.143 1.403 3.12 2.884l1.67-1.101zm143.128 56.715l.82.571.002-.003-.822-.568zM554.103 31.28l-.819-.574-.003.004.822.57zm-8.227-1.015l-.678-.735-.002.002.68.733zm43.672.05l.687-.726-.687.726zm-43.824 40.93l-.696.718.002.002.694-.72zm2.555-20.617c0 8.67 1.624 15.487 5.004 20.327l1.64-1.146c-3.052-4.369-4.644-10.72-4.644-19.181h-2zm5.004 20.327c3.415 4.888 8.301 7.333 14.531 7.333v-2c-5.619 0-9.874-2.16-12.891-6.479l-1.64 1.145zm14.531 7.333c6.132 0 10.949-2.431 14.328-7.284l-1.641-1.143c-2.986 4.288-7.174 6.427-12.687 6.427v2zm14.33-7.287c3.344-4.838 4.951-11.637 4.951-20.271h-2c0 8.427-1.575 14.764-4.596 19.134l1.645 1.137zm4.951-20.271c0-8.57-1.625-15.322-5.006-20.127l-1.636 1.151c3.051 4.336 4.642 10.618 4.642 18.976h2zm-5.006-20.127c-3.418-4.856-8.322-7.28-14.58-7.28v2c5.658 0 9.929 2.147 12.944 6.431l1.636-1.15zm-14.58-7.28c-6.012 0-10.787 2.477-14.225 7.383l1.638 1.148c3.062-4.37 7.224-6.53 12.587-6.53v-2zm-14.228 7.387c-3.375 4.867-5.002 11.544-5.002 19.918h2c0-8.147 1.588-14.368 4.646-18.778l-1.644-1.14zm-14.834 19.613c0-7.9 2.708-14.314 8.109-19.325l-1.36-1.466c-5.838 5.416-8.749 12.374-8.749 20.791h2zm8.107-19.323c5.439-5.016 12.495-7.556 21.26-7.556v-2c-9.178 0-16.747 2.674-22.616 8.085l1.356 1.47zm21.26-7.556c8.728 0 15.712 2.556 21.047 7.598l1.374-1.453c-5.769-5.453-13.275-8.145-22.421-8.145v2zm21.047 7.598c5.331 5.038 8.015 11.603 8.015 19.789h2c0-8.673-2.867-15.785-8.641-21.242l-1.374 1.453zm8.015 19.789c0 8.22-2.701 14.8-8.063 19.838l1.369 1.457c5.809-5.457 8.694-12.587 8.694-21.295h-2zm-8.063 19.838c-5.366 5.04-12.467 7.6-21.406 7.6v2c9.343 0 16.969-2.688 22.775-8.143l-1.369-1.457zm-21.406 7.6c-8.688 0-15.653-2.602-20.989-7.744l-1.388 1.44c5.767 5.557 13.258 8.303 22.377 8.303v-2zm-20.987-7.742c-5.3-5.137-7.973-11.84-7.973-20.204h-2c0 8.834 2.844 16.08 8.581 21.64l1.392-1.436zm58.868 7.777h-1v1.064l1.063-.066-.063-.998zm0-.813l-.297-.955-.703.22v.735h1zm5.535-47.379l-.845.534.006.01.839-.544zm-4.621-2.133h-1v.942l.941.057.059-.998zm0-.812l-.135-.99-.865.117v.873h1zm14.879-3.656h1v-1.377l-1.309.426.309.95zm0 16.86h-1l1.93.368-.93-.369zm8.125-12.493l.663.749h.001l-.664-.75zm12.239-4.317l-.111.994.055.006h.056v-1zm.812.051l.954.302.347-1.099-1.137-.19-.164.987zm-3.707 11.73v1h.733l.221-.698-.954-.301zm-.813 0l-.77.638.299.363h.471v-1zm-2.234-1.777l-.447.895.007.003.007.004.433-.902zm-10.715 4.063l-.862-.506-.002.003.864.503zm-1.32 35.394l-.926.38.004.008.004.008.918-.396zm5.332 4.47l.998.062.05-.794-.762-.227-.286.958zm-.051.812l-.052.998.988.052.062-.988-.998-.062zm-5.738-.254l.036-1h-.018l-.018 1zm-12.645 0l-.019-1h-.019l.038 1zm-4.078.254v-.813h-2v.813h2zm-.702.142c2.859-.891 4.886-2.64 5.959-5.246l-1.849-.761c-.823 1.998-2.351 3.364-4.705 4.097l.595 1.91zm5.959-5.246c.536-1.302.9-3.354 1.138-6.057.24-2.732.359-6.225.359-10.472h-2c0 4.217-.118 7.646-.351 10.297-.236 2.68-.583 4.47-.995 5.47l1.849.762zm1.497-16.53v-2.487h-2v2.488h2zm0-2.487v-15.59h-2v15.59h2zm0-15.59c0-2.226-.102-4.085-.315-5.563-.208-1.45-.537-2.648-1.065-3.462l-1.678 1.088c.285.439.566 1.28.764 2.658.193 1.348.294 3.103.294 5.279h2zm-1.373-9.015c-1.057-1.674-2.983-2.452-5.407-2.597l-.119 1.997c2.112.126 3.267.77 3.835 1.668l1.691-1.068zm-4.467-1.599v-.812h-2v.813h2zm-.865.179a66.325 66.325 0 007.116-1.392l-.485-1.94a64.343 64.343 0 01-6.901 1.35l.27 1.982zm7.116-1.392a119.704 119.704 0 007.938-2.304l-.619-1.902a117.572 117.572 0 01-7.804 2.266l.485 1.94zm6.628-3.255v16.86h2v-16.86h-2zm1.93 17.228c2.128-5.353 4.759-9.369 7.858-12.112l-1.326-1.498c-3.401 3.012-6.186 7.324-8.391 12.872l1.859.738zm7.859-12.113c3.12-2.766 6.529-4.115 10.254-4.115v-2c-4.264 0-8.134 1.562-11.581 4.619l1.327 1.496zm10.254-4.115c.565 0 .961.017 1.21.044l.221-1.987c-.36-.04-.844-.057-1.431-.057v2zm1.321.05c.313 0 .522.017.648.038l.328-1.973a6.1 6.1 0 00-.976-.064v2zm-.142-1.25l-3.707 11.73 1.908.603 3.707-11.73-1.908-.603zm-2.753 11.032h-.813v2h.813v-2zm-.042.363c-.728-.882-1.586-1.569-2.572-2.042l-.866 1.803c.706.339 1.338.837 1.897 1.513l1.541-1.274zm-2.558-2.035c-.971-.486-2.059-.715-3.24-.715v2c.919 0 1.692.177 2.346.504l.894-1.789zm-3.24-.715c-3.827 0-6.787 1.762-8.784 5.166l1.725 1.012c1.658-2.826 3.98-4.178 7.059-4.178v-2zm-8.786 5.169c-1.924 3.304-2.827 8.032-2.827 14.062h2c0-5.887.891-10.199 2.555-13.056l-1.728-1.006zm-2.827 14.062v6.093h2v-6.093h-2zm0 6.093c0 4.145.114 7.554.346 10.218.23 2.634.581 4.636 1.099 5.903l1.852-.757c-.396-.967-.731-2.706-.958-5.32-.225-2.583-.339-5.928-.339-10.044h-2zm1.453 16.138c1.081 2.511 3.116 4.18 5.964 5.031l.572-1.916c-2.366-.707-3.886-2.016-4.7-3.906l-1.836.791zm5.252 4.01l-.051.813 1.996.125.051-.812-1.996-.125zm1-.123a340.74 340.74 0 00-5.755-.255l-.072 2c1.89.067 3.797.151 5.722.252l.105-1.997zm-5.773-.255c-1.868-.034-3.77-.051-5.706-.051v2c1.924 0 3.814.017 5.67.05l.036-2zM617.323 77c-2.88 0-5.206.017-6.976.051l.039 2c1.751-.034 4.063-.051 6.937-.051v-2zm-6.995.052a213.13 213.13 0 00-5.102.255l.125 1.996c1.616-.101 3.301-.185 5.054-.253l-.077-1.998zm35.736 1.253l-.998.062.061.99.991-.054-.054-.998zm-.051-.813l-.298-.955-.749.234.049.784.998-.063zm5.332-4.773l-.926-.378-.003.006.929.372zm-4.367-65.864h-1v.943l.94.056.06-.999zm0-.812l-.124-.992-.876.11v.882h1zm7.668-1.422l-.231-.973h-.003l.234.973zm8.531-2.437l.998.058.087-1.469-1.398.46.313.95zm-.406 44.433h-1v2.163l1.647-1.401-.647-.762zm12.898-10.969l-.644-.765-.004.004.648.761zm7.059-10.562l-.646.763.017.015.019.015.61-.793zm-2.285-.965h-1v.78l.757.19.243-.97zm0-.61l.053-.998-1.053-.057v1.056h1zm4.011.153l-.024 1h.001l.023-1zm14.168 0l-.02-1 .02 1zm4.469-.152l.997-.072-.069-.977-.979.05.051.999zm.051.71l.184.984.877-.165-.064-.89-.997.072zM681.61 34.938l.592.807.005-.004-.597-.803zm-1.167.864l.596.802.004-.002-.6-.8zm-12.442 9.242l-.596-.803-2.398 1.782 2.987.02.007-.999zm20.973 12.137l-.823.568.004.005.819-.573zm3.047 4.52l-.835.55.002.002.833-.553zm14.726 15.792h1v-.605l-.536-.28-.464.885zm0 .813l-.052.998 1.052.056v-1.054h-1zm-4.012-.153l-.025 1h.001l.024-1zm-10.054 0l-.025-1h-.001l.026 1zm-4.012.153l-.861.507.307.522.604-.03-.05-1zm-4.672-7.973l-.865.501.002.003.863-.504zm-20.363-20.617l-.865-.502-.006.01-.006.011.877.48zm.559 22.547l-.943.334.004.01.939-.344zm5.535 5.23h1v-.744l-.713-.214-.287.958zm0 .813l-.067.997 1.067.072v-1.07h-1zm-4.875-.254l.039-1h-.02l-.019 1zm-13.356 0l-.019-1h-.019l.038 1zm-4.435.191l-.051-.812-1.996.125.051.812 1.996-.125zm-.752.205c2.872-.895 4.895-2.686 5.963-5.357l-1.857-.743c-.827 2.07-2.358 3.46-4.701 4.19l.595 1.91zm5.961-5.35c.549-1.345.927-3.38 1.174-6.023.249-2.667.373-6.035.373-10.097h-2c0 4.029-.123 7.33-.364 9.91-.244 2.605-.603 4.395-1.035 5.454l1.852.756zm1.547-16.12v-4.672h-2v4.672h2zm0-4.672V18.94h-2v33.364h2zm0-33.364c0-2.76-.102-5.014-.312-6.747-.204-1.679-.525-3.037-1.075-3.862l-1.664 1.11c.262.393.55 1.32.753 2.993.196 1.619.298 3.783.298 6.506h2zm-1.387-10.609c-1.065-1.598-2.989-2.331-5.394-2.475l-.119 1.997c2.132.127 3.289.748 3.849 1.587l1.664-1.109zm-4.453-1.477v-.812h-2v.812h2zm-.876.18a70.977 70.977 0 007.777-1.442l-.467-1.944a69.03 69.03 0 01-7.558 1.402l.248 1.984zm7.775-1.441c2.739-.65 5.61-1.471 8.613-2.46l-.626-1.9a103.567 103.567 0 01-8.449 2.414l.462 1.946zm7.302-3.47a223.583 223.583 0 00-.307 8.265l2 .042c.068-3.174.169-5.903.303-8.189l-1.996-.117zm-.307 8.265c-.067 3.192-.101 7.11-.101 11.752h2c0-4.634.033-8.537.101-11.71l-2-.042zm-.101 11.752v24.476h2V22.141h-2zm1.647 25.238l12.899-10.969-1.296-1.523-12.898 10.968 1.295 1.524zm12.895-10.965c2.982-2.508 5.076-4.472 6.223-5.87l-1.546-1.268c-1.02 1.242-2.988 3.104-5.965 5.607l1.288 1.53zm6.223-5.87c1.125-1.371 1.852-2.733 1.852-4.036h-2c0 .593-.357 1.499-1.398 2.768l1.546 1.268zm1.852-4.036c0-.885-.338-1.667-1.051-2.215l-1.219 1.586c.168.129.27.295.27.629h2zm-1.014-2.185c-.622-.527-1.571-.893-2.689-1.172l-.485 1.94c1.049.262 1.624.54 1.882.758l1.292-1.526zm-1.931-.202v-.61h-2v.61h2zm-1.054.39c1.263.068 2.611.119 4.041.153l.048-2c-1.413-.033-2.74-.084-3.982-.15l-.107 1.996zm4.042.153c1.468.034 3.644.05 6.523.05v-2c-2.876 0-5.033-.016-6.477-.05l-.046 2zm6.523.05c3.455 0 6.019-.016 7.689-.05l-.041-2c-1.648.034-4.196.05-7.648.05v2zm7.689-.05c1.666-.034 3.166-.085 4.499-.154l-.102-1.997a145.37 145.37 0 01-4.438.151l.041 2zm3.45-1.081l.051.71 1.995-.142-.051-.71-1.995.142zm.865-.343c-6.54 1.224-13.859 4.89-21.944 10.895l1.193 1.605c7.962-5.913 14.997-9.389 21.119-10.534l-.368-1.966zM681.019 34.13c-.509.373-.901.663-1.176.87l1.2 1.6c.266-.2.652-.485 1.159-.857l-1.183-1.613zm-1.173.867l-12.441 9.242 1.192 1.606 12.442-9.242-1.193-1.606zm-11.852 11.045c4.601.033 8.266.845 11.056 2.366l.957-1.756c-3.169-1.728-7.189-2.575-11.999-2.61l-.014 2zm11.056 2.366c2.776 1.514 5.816 4.58 9.101 9.339l1.646-1.136c-3.351-4.856-6.607-8.223-9.79-9.959l-.957 1.756zm9.105 9.344a222.12 222.12 0 013.031 4.498l1.669-1.103c-1.322-2-2.343-3.515-3.062-4.542l-1.638 1.147zm3.033 4.5c5.5 8.284 10.525 13.733 15.095 16.125l.928-1.772c-4.096-2.144-8.889-7.223-14.357-15.46l-1.666 1.106zm14.559 15.24v.812h2v-.813h-2zm1.053-.187c-1.297-.068-2.643-.12-4.04-.153l-.049 1.999c1.379.034 2.707.084 3.984.151l.105-1.997zm-4.04-.153a240.465 240.465 0 00-5.661-.051v2c2.4 0 4.27.016 5.611.05l.05-2zm-5.661-.051c-1.598 0-3.079.017-4.443.05l.05 2c1.344-.034 2.809-.05 4.393-.05v-2zm-4.444.05c-1.328.035-2.674.086-4.036.154l.1 1.997c1.346-.067 2.675-.117 3.987-.151l-.051-2zm-3.124.645c-1.117-1.894-2.673-4.55-4.67-7.97l-1.727 1.01c1.997 3.42 3.555 6.078 4.674 7.975l1.723-1.015zm-4.668-7.966c-4.291-7.41-7.907-13.006-10.844-16.759-1.467-1.874-2.789-3.322-3.965-4.31-1.139-.957-2.3-1.621-3.424-1.621v2c.382 0 1.075.26 2.137 1.152 1.024.861 2.249 2.187 3.677 4.012 2.852 3.644 6.413 9.144 10.688 16.528l1.731-1.002zm-18.233-22.69c-1.683 0-3.044.664-3.861 2.072l1.73 1.004c.401-.692 1.038-1.076 2.131-1.076v-2zm-3.873 2.093c-.707 1.29-.986 3.344-.986 5.965h2c0-2.593.296-4.194.74-5.003l-1.754-.962zm-.986 5.965c0 4.366.118 7.993.359 10.874.238 2.862.601 5.059 1.12 6.523l1.885-.668c-.429-1.21-.777-3.195-1.012-6.02-.234-2.807-.352-6.373-.352-10.709h-2zm1.483 17.407c1.089 2.968 3.174 4.94 6.186 5.844l.575-1.916c-2.404-.72-4.009-2.235-4.884-4.617l-1.877.69zm5.474 4.886v.813h2v-.813h-2zm1.066-.185a180.279 180.279 0 00-4.902-.255l-.079 1.998c1.719.067 3.335.152 4.848.252l.133-1.995zm-4.922-.256c-1.736-.034-4.13-.051-7.179-.051v2c3.044 0 5.423.017 7.14.05l.039-1.999zM657.693 77c-2.341 0-4.413.017-6.215.051l.038 2c1.787-.034 3.845-.051 6.177-.051v-2zm-6.234.052c-1.766.067-3.583.152-5.45.254l.109 1.997c1.857-.101 3.663-.185 5.418-.253l-.077-1.998zm58.435-2.505l-.957-.29-.255.841.802.361.41-.912zm3.554-11.73v-1h-.742l-.215.71.957.29zm.61 0l.993-.117-.104-.884h-.889v1zm6.652 10.511l-.563.827.005.003.558-.83zm26.914.406l-.601-.799-.004.004.605.795zm1.777-15.691l-.593.805.007.005.586-.81zm-14.218-3.656l-.137.99h.003l.134-.99zm-16.707-5.23l-.591.806.591-.807zm1.879-22.243l-.555-.832-.003.002.558.83zm29.3-3.656l-.172.985.009.002.163-.987zm9.344 2.539l.957.291.266-.873-.846-.344-.377.926zM755.952 35.8v1h.741l.216-.709-.957-.291zm-.609 0l-.961.276.207.724h.754v-1zm-5.738-8.684l-.586.811.006.004.006.004.574-.819zM738.89 45.144l.101-.994h-.001l-.1.995zm18.433 4.672l-.552.834.006.004.546-.838zm-2.437 24.426l.576.817.004-.002-.58-.815zm-33.414 4.012l-.198.98h.002l.196-.98zm-10.621-3.417l3.554-11.73-1.914-.58-3.554 11.73 1.914.58zm2.597-11.02h.61v-2h-.61v2zm-.384-.884c.545 4.649 2.941 8.4 7.083 11.222l1.126-1.653c-3.712-2.528-5.751-5.784-6.222-9.802l-1.987.233zm7.088 11.225c4.129 2.776 9.262 4.131 15.335 4.131v-2c-5.776 0-10.494-1.286-14.219-3.79l-1.116 1.659zm15.335 4.131c5.136 0 9.412-1.224 12.743-3.759l-1.211-1.591c-2.899 2.205-6.714 3.35-11.532 3.35v2zm12.738-3.756c3.377-2.541 5.122-5.84 5.122-9.838h-2c0 3.315-1.404 6.043-4.324 8.24l1.202 1.598zm5.122-9.838c0-3.246-1.073-5.806-3.359-7.462l-1.173 1.62c1.64 1.188 2.532 3.063 2.532 5.842h2zm-3.352-7.457c-1.129-.831-2.955-1.529-5.346-2.144-2.423-.623-5.538-1.188-9.333-1.698l-.267 1.982c3.755.505 6.785 1.057 9.101 1.653 2.348.604 3.857 1.226 4.658 1.817l1.187-1.61zm-14.676-3.842c-7.818-1.078-13.178-2.796-16.253-5.047l-1.181 1.614c3.493 2.557 9.271 4.326 17.161 5.414l.273-1.98zm-16.253-5.047c-2.996-2.193-4.516-5.33-4.516-9.552h-2c0 4.782 1.764 8.552 5.335 11.166l1.181-1.614zm-4.516-9.552c0-4.497 2.063-8.165 6.362-11.053l-1.115-1.66c-4.774 3.206-7.247 7.46-7.247 12.713h2zm6.359-11.05c4.357-2.906 10.154-4.403 17.473-4.403v-2c-7.577 0-13.799 1.549-18.582 4.738l1.109 1.664zm17.473-4.403c3.979 0 7.678.3 11.101.899l.344-1.97c-3.55-.62-7.366-.93-11.445-.93v2zm11.11.9c3.428.566 6.468 1.395 9.13 2.479l.754-1.852c-2.823-1.15-6.011-2.014-9.558-2.6l-.326 1.973zm8.55 1.262l-3.046 10.003 1.913.583 3.047-10.004-1.914-.582zm-2.09 9.295h-.609v2h.609v-2zm.352.724c-1.166-4.062-3.191-7.172-6.126-9.227l-1.147 1.638c2.481 1.737 4.282 4.416 5.351 8.14l1.922-.551zm-6.114-9.219c-2.89-2.085-6.6-3.083-11.046-3.083v2c4.153 0 7.416.93 9.875 2.705l1.171-1.622zm-11.046-3.083c-4.833 0-8.9 1.157-12.123 3.548l1.191 1.607c2.802-2.079 6.421-3.155 10.932-3.155v-2zm-12.123 3.548c-3.23 2.395-4.924 5.452-4.924 9.131h2c0-2.956 1.318-5.45 4.115-7.524l-1.191-1.607zm-4.924 9.131c0 3.099 1.276 5.514 3.824 7.096l1.055-1.699c-1.922-1.194-2.879-2.943-2.879-5.397h-2zm3.824 7.096c2.449 1.522 6.806 2.532 12.869 3.142l.2-1.99c-6.058-.61-9.995-1.596-12.014-2.851l-1.055 1.699zm12.867 3.141c8.966.914 14.888 2.458 17.983 4.51l1.105-1.666c-3.541-2.348-9.908-3.919-18.885-4.833l-.203 1.99zm17.989 4.515c2.997 1.957 4.523 4.92 4.523 9.065h2c0-4.725-1.792-8.364-5.43-10.74l-1.093 1.675zm4.523 9.065c0 5.844-2.32 10.379-6.994 13.709l1.16 1.629c5.211-3.712 7.834-8.86 7.834-15.338h-2zm-6.991 13.706c-4.712 3.325-11.371 5.048-20.091 5.048v2c8.951 0 16.071-1.764 21.244-5.414l-1.153-1.634zm-20.091 5.048c-4.374 0-8.557-.401-12.55-1.2l-.392 1.962c4.131.826 8.446 1.238 12.942 1.238v-2zm-12.549-1.2a53.35 53.35 0 01-11.365-3.638l-.82 1.824a55.335 55.335 0 0011.79 3.775l.395-1.96z" fill="#fff"/></svg>