<svg width="764" height="81" viewBox="0 0 764 81" fill="none" xmlns="http://www.w3.org/2000/svg">
<path d="M70.7344 70.6367L71.3174 71.4492L71.901 71.0304L71.6905 70.3437L70.7344 70.6367ZM12.2852 69.9766L11.6062 70.7107L11.6079 70.7123L12.2852 69.9766ZM12.2852 18.3828L11.6173 17.6385L11.6156 17.64L12.2852 18.3828ZM55.6016 10.6133L55.335 11.5771L55.3413 11.5788L55.6016 10.6133ZM68.7539 16.3516L69.716 16.6242L69.9192 15.9073L69.2903 15.5076L68.7539 16.3516ZM65.1992 28.8945L65.0031 29.8751L65.9093 30.0564L66.1613 29.1672L65.1992 28.8945ZM64.1836 28.6914L63.2227 28.9683L63.3911 29.5527L63.9875 29.672L64.1836 28.6914ZM56.1602 15.3359L55.5257 16.109L55.5337 16.1154L56.1602 15.3359ZM22.543 19.8555L21.769 19.2222L21.7669 19.2249L22.543 19.8555ZM22.5938 68.6055L21.8095 69.226L21.8112 69.2281L22.5938 68.6055ZM57.4805 72.3633L58.1278 73.1255L58.1313 73.1225L57.4805 72.3633ZM65.6562 57.5352L65.5079 56.5462L64.8064 56.6514L64.6739 57.3483L65.6562 57.5352ZM66.6719 57.3828L67.628 57.0898L67.3755 56.2661L66.5235 56.3939L66.6719 57.3828ZM70.1514 69.8242C65.7994 72.9471 61.2073 75.2498 56.3734 76.7397L56.9625 78.6509C62.0141 77.094 66.7996 74.691 71.3174 71.4492L70.1514 69.8242ZM56.3734 76.7397C51.5388 78.2298 46.2061 78.9805 40.3672 78.9805V80.9805C46.3773 80.9805 51.9117 80.2077 56.9625 78.6509L56.3734 76.7397ZM40.3672 78.9805C29.0973 78.9805 19.9924 75.7124 12.9624 69.2408L11.6079 70.7123C19.0675 77.5793 28.684 80.9805 40.3672 80.9805V78.9805ZM12.9642 69.2424C5.97807 62.7811 2.46875 54.3568 2.46875 43.875H0.46875C0.46875 54.8568 4.17036 63.8335 11.6062 70.7107L12.9642 69.2424ZM2.46875 43.875C2.46875 33.6377 5.97254 25.4194 12.9547 19.1256L11.6156 17.64C4.1759 24.3463 0.46875 33.1228 0.46875 43.875H2.46875ZM12.953 19.1271C19.9801 12.8225 29.1546 9.63281 40.5703 9.63281V7.63281C28.762 7.63281 19.0798 10.9432 11.6173 17.6385L12.953 19.1271ZM40.5703 9.63281C45.733 9.63281 50.6534 10.2822 55.335 11.5771L55.8681 9.64947C51.0029 8.30376 45.9024 7.63281 40.5703 7.63281V9.63281ZM55.3413 11.5788C60.0215 12.8401 64.3118 14.7131 68.2175 17.1955L69.2903 15.5076C65.2064 12.9119 60.7285 10.9593 55.8618 9.64773L55.3413 11.5788ZM67.7918 16.0789L64.2371 28.6219L66.1613 29.1672L69.716 16.6242L67.7918 16.0789ZM65.3953 27.914L64.3797 27.7108L63.9875 29.672L65.0031 29.8751L65.3953 27.914ZM65.1445 28.4145C63.3801 22.2909 60.6163 17.6345 56.7866 14.5565L55.5337 16.1154C58.9488 18.8603 61.534 23.1075 63.2227 28.9683L65.1445 28.4145ZM56.7946 14.563C52.9896 11.44 48.1111 9.91797 42.2461 9.91797V11.918C47.756 11.918 52.1536 13.3413 55.5257 16.1089L56.7946 14.563ZM42.2461 9.91797C33.7108 9.91797 26.8493 13.013 21.769 19.2222L23.3169 20.4887C27.9867 14.7812 34.2606 11.918 42.2461 11.918V9.91797ZM21.7669 19.2249C16.7404 25.4113 14.2812 33.6982 14.2812 43.9766H16.2812C16.2812 34.0102 18.6632 26.2163 23.3191 20.4861L21.7669 19.2249ZM14.2812 43.9766C14.2812 54.3903 16.7571 62.8403 21.8095 69.226L23.378 67.985C18.6804 62.0478 16.2812 54.0785 16.2812 43.9766H14.2812ZM21.8112 69.2281C26.8813 75.6009 33.622 78.7969 41.9414 78.7969V76.7969C34.2139 76.7969 28.0562 73.8653 23.3763 67.9829L21.8112 69.2281ZM41.9414 78.7969C48.2496 78.7969 53.6648 76.9155 58.1278 73.1255L56.8332 71.601C52.7649 75.0559 47.8207 76.7969 41.9414 76.7969V78.7969ZM58.1313 73.1225C62.5912 69.2998 65.4171 64.1438 66.6386 57.722L64.6739 57.3483C63.5256 63.3848 60.901 68.1143 56.8297 71.604L58.1313 73.1225ZM65.8046 58.5241L66.8202 58.3717L66.5235 56.3939L65.5079 56.5462L65.8046 58.5241ZM65.7158 57.6759L69.7783 70.9298L71.6905 70.3437L67.628 57.0898L65.7158 57.6759ZM141.471 77.4922H142.471V76.6935L141.692 76.5169L141.471 77.4922ZM141.471 78V79H142.471V78H141.471ZM128.471 78L127.602 78.4961L127.89 79H128.471V78ZM126.338 73.4297L125.399 73.7745L125.401 73.7808L126.338 73.4297ZM124.764 67.9961L125.739 67.7774L125.145 65.1262L123.879 67.53L124.764 67.9961ZM86.0683 71.3477L86.8936 70.783L86.8932 70.7824L86.0683 71.3477ZM83.3769 64.543L82.3936 64.7251L82.3949 64.7321L82.3963 64.7391L83.3769 64.543ZM81.3456 30.2656L80.5209 30.8312L80.5302 30.8447L80.54 30.858L81.3456 30.2656ZM76.6738 28.1836H75.6738V29.0992L76.5859 29.1797L76.6738 28.1836ZM76.6738 27.3711L76.5597 26.3776L75.6738 26.4793V27.3711H76.6738ZM83.4277 26.1523L83.2008 25.1784L83.1979 25.1791L83.4277 26.1523ZM92.8222 23.5117L93.8211 23.5576L93.8867 22.1314L92.5239 22.5572L92.8222 23.5117ZM120.498 69.8242L119.655 69.2869L119.654 69.2886L120.498 69.8242ZM123.697 30.418L122.83 30.9165L122.836 30.926L123.697 30.418ZM119.127 28.1836H118.127V29.1257L119.067 29.1818L119.127 28.1836ZM119.127 27.3711L119.001 26.3791L118.127 26.49V27.3711H119.127ZM126.033 26.1016L126.26 27.0756L126.273 27.0725L126.033 26.1016ZM135.123 23.5117L136.122 23.5582L136.188 22.1328L134.826 22.5569L135.123 23.5117ZM140.471 77.4922V78H142.471V77.4922H140.471ZM141.471 77H128.471V79H141.471V77ZM129.339 77.5039C128.554 76.1311 127.866 74.6564 127.274 73.0786L125.401 73.7808C126.029 75.4529 126.762 77.0252 127.602 78.4961L129.339 77.5039ZM127.276 73.0849C126.684 71.4724 126.171 69.7039 125.739 67.7774L123.788 68.2148C124.236 70.2154 124.773 72.0693 125.399 73.7745L127.276 73.0849ZM123.879 67.53C121.956 71.1808 119.453 73.8949 116.382 75.7183L117.403 77.438C120.832 75.4019 123.577 72.3947 125.648 68.4622L123.879 67.53ZM116.382 75.7183C113.308 77.5435 109.698 78.4727 105.518 78.4727V80.4727C110.004 80.4727 113.977 79.4722 117.403 77.438L116.382 75.7183ZM105.518 78.4727C101.189 78.4727 97.4144 77.7787 94.1743 76.4179L93.3998 78.2618C96.9305 79.7447 100.977 80.4727 105.518 80.4727V78.4727ZM94.1743 76.4179C90.9341 75.057 88.5273 73.1707 86.8936 70.783L85.243 71.9123C87.1301 74.6705 89.8691 76.7789 93.3998 78.2618L94.1743 76.4179ZM86.8932 70.7824C85.7332 69.0894 84.879 66.9545 84.3575 64.3469L82.3963 64.7391C82.9581 67.5481 83.8982 69.9497 85.2434 71.9129L86.8932 70.7824ZM84.3602 64.3609C83.8702 61.7153 83.6152 57.3759 83.6152 51.2891H81.6152C81.6152 57.3897 81.8679 61.8862 82.3936 64.7251L84.3602 64.3609ZM83.6152 51.2891V48.1406H81.6152V51.2891H83.6152ZM83.6152 48.1406V37.9844H81.6152V48.1406H83.6152ZM83.6152 37.9844C83.6152 35.958 83.5083 34.2567 83.2845 32.8963C83.0652 31.5626 82.7164 30.4418 82.1513 29.6732L80.54 30.858C80.8212 31.2405 81.1072 31.9817 81.311 33.2209C81.5105 34.4334 81.6152 36.016 81.6152 37.9844H83.6152ZM82.1704 29.7001C81.1083 28.1512 79.182 27.401 76.7616 27.1875L76.5859 29.1797C78.7697 29.3724 79.958 30.0102 80.5209 30.8312L82.1704 29.7001ZM77.6738 28.1836V27.3711H75.6738V28.1836H77.6738ZM76.7878 28.3646C78.8987 28.1223 81.1892 27.7084 83.6575 27.1256L83.1979 25.1791C80.7911 25.7474 78.579 26.1459 76.5597 26.3776L76.7878 28.3646ZM83.6545 27.1263C86.1593 26.543 89.3168 25.6549 93.1205 24.4662L92.5239 22.5572C88.7443 23.7384 85.6387 24.6107 83.2009 25.1784L83.6545 27.1263ZM91.8232 23.4658C91.6875 26.4187 91.5857 29.3717 91.5178 32.3247L93.5172 32.3706C93.5848 29.433 93.6861 26.4953 93.8211 23.5576L91.8232 23.4658ZM91.5178 32.3247C91.4499 35.2776 91.4159 38.2306 91.4159 41.1836H93.4159C93.4159 38.2459 93.4497 35.3083 93.5172 32.3706L91.5178 32.3247ZM91.4159 41.1836V47.9375H93.4159V41.1836H91.4159ZM91.4159 47.9375C91.4159 53.6375 91.7091 58.4317 92.3035 62.3078C92.8953 66.1677 93.7967 69.1941 95.0624 71.3036L96.7773 70.2746C95.7071 68.4908 94.8565 65.7619 94.2804 62.0047C93.7067 58.2636 93.4159 53.5786 93.4159 47.9375H91.4159ZM95.0624 71.3036C97.6318 75.586 102.117 77.6289 108.209 77.6289V75.6289C102.587 75.6289 98.8797 73.7786 96.7773 70.2746L95.0624 71.3036ZM108.209 77.6289C113.871 77.6289 118.284 75.1817 121.342 70.3599L119.654 69.2886C116.957 73.5397 113.177 75.6289 108.209 75.6289V77.6289ZM121.341 70.3615C124.398 65.5636 125.865 58.8112 125.865 50.2227H123.865C123.865 58.6289 122.421 64.9442 119.655 69.2869L121.341 70.3615ZM125.865 50.2227V40.5742H123.865V50.2227H125.865ZM125.865 40.5742C125.865 37.8305 125.767 35.5792 125.567 33.833C125.371 32.1306 125.064 30.7671 124.559 29.91L122.836 30.926C123.109 31.3891 123.386 32.3785 123.58 34.0615C123.768 35.7008 123.865 37.8675 123.865 40.5742H125.865ZM124.564 29.9195C123.549 28.155 121.627 27.331 119.186 27.1854L119.067 29.1818C121.164 29.307 122.288 29.9726 122.83 30.9164L124.564 29.9195ZM120.127 28.1836V27.3711H118.127V28.1836H120.127ZM119.253 28.3631C121.425 28.0873 123.761 27.6574 126.26 27.0755L125.806 25.1276C123.363 25.6967 121.094 26.1132 119.001 26.3791L119.253 28.3631ZM126.273 27.0725C128.77 26.4566 131.821 25.5871 135.42 24.4665L134.826 22.5569C131.248 23.6707 128.239 24.5277 125.794 25.1306L126.273 27.0725ZM134.124 23.4653C133.988 26.3853 133.886 29.3896 133.819 32.478L135.818 32.522C135.886 29.4489 135.987 26.461 136.122 23.5582L134.124 23.4653ZM133.819 32.478C133.751 35.567 133.717 38.8582 133.717 42.3516H135.717C135.717 38.871 135.751 35.5945 135.818 32.522L133.819 32.478ZM133.717 42.3516V54.5898H135.717V42.3516H133.717ZM133.717 54.5898C133.717 63.3699 134.2 69.4044 135.241 72.5272L137.138 71.8947C136.215 69.1269 135.717 63.414 135.717 54.5898H133.717ZM135.241 72.5272C136.308 75.7294 138.299 77.7986 141.25 78.4674L141.692 76.5169C139.564 76.0347 138.034 74.5831 137.138 71.8947L135.241 72.5272ZM146.648 78.3047H145.648V79.3691L146.711 79.3027L146.648 78.3047ZM146.648 77.4922L146.351 76.5375L145.648 76.7564V77.4922H146.648ZM152.183 30.1133L151.338 30.6473L151.344 30.6575L152.183 30.1133ZM147.562 27.9805H146.562V28.9225L147.503 28.9787L147.562 27.9805ZM147.562 27.168L147.427 26.1771L146.562 26.2951V27.168H147.562ZM162.441 23.5117H163.441V22.1348L162.132 22.5608L162.441 23.5117ZM162.441 40.3711H161.441L163.371 40.7405L162.441 40.3711ZM170.566 27.8789L171.229 28.6276L171.23 28.6272L170.566 27.8789ZM182.805 23.5625L182.694 24.5564L182.749 24.5625H182.805V23.5625ZM183.617 23.6133L184.571 23.9146L184.918 22.8163L183.781 22.6269L183.617 23.6133ZM179.91 35.3438V36.3438H180.643L180.864 35.6451L179.91 35.3438ZM179.098 35.3438L178.327 35.9806L178.627 36.3438H179.098V35.3438ZM176.863 33.5664L176.416 34.4608L176.423 34.4644L176.43 34.4679L176.863 33.5664ZM166.148 37.6289L165.286 37.1227L165.284 37.1256L166.148 37.6289ZM164.828 73.0234L163.902 73.4021L163.906 73.4106L163.91 73.4191L164.828 73.0234ZM170.16 77.4922L171.158 77.5546L171.208 76.7615L170.446 76.534L170.16 77.4922ZM170.109 78.3047L170.057 79.3033L171.046 79.3553L171.107 78.3671L170.109 78.3047ZM164.371 78.0508L164.407 77.0514L164.398 77.0511L164.389 77.0509L164.371 78.0508ZM151.726 78.0508L151.707 77.051L151.698 77.0512L151.688 77.0515L151.726 78.0508ZM147.648 78.3047V77.4922H145.648V78.3047H147.648ZM146.946 78.4469C149.805 77.5556 151.832 75.807 152.905 73.2011L151.056 72.4396C150.233 74.4378 148.705 75.8038 146.351 76.5375L146.946 78.4469ZM152.905 73.2011C153.441 71.8993 153.805 69.847 154.043 67.1444C154.283 64.4123 154.402 60.9186 154.402 56.6719H152.402C152.402 60.8887 152.284 64.3182 152.051 66.9689C151.815 69.6491 151.468 71.4392 151.056 72.4396L152.905 73.2011ZM154.402 56.6719V54.1836H152.402V56.6719H154.402ZM154.402 54.1836V38.5938H152.402V54.1836H154.402ZM154.402 38.5938C154.402 36.3681 154.3 34.5091 154.087 33.0306C153.879 31.5812 153.551 30.3832 153.022 29.5691L151.344 30.6575C151.629 31.0959 151.91 31.9376 152.108 33.3151C152.301 34.6634 152.402 36.4183 152.402 38.5938H154.402ZM153.029 29.5793C151.972 27.9053 150.046 27.1269 147.622 26.9822L147.503 28.9787C149.616 29.1048 150.77 29.7484 151.338 30.6473L153.029 29.5793ZM148.562 27.9805V27.168H146.562V27.9805H148.562ZM147.697 28.1588C149.972 27.8487 152.344 27.3843 154.813 26.767L154.328 24.8267C151.922 25.4282 149.622 25.8779 147.427 26.1771L147.697 28.1588ZM154.813 26.767C157.276 26.1511 159.922 25.3827 162.751 24.4627L162.132 22.5608C159.34 23.4689 156.739 24.2239 154.328 24.8267L154.813 26.767ZM161.441 23.5117V40.3711H163.441V23.5117H161.441ZM163.371 40.7405C165.499 35.3868 168.13 31.3715 171.229 28.6276L169.903 27.1302C166.502 30.1415 163.717 34.4543 161.512 40.0017L163.371 40.7405ZM171.23 28.6272C174.35 25.8606 177.759 24.5117 181.484 24.5117V22.5117C177.22 22.5117 173.35 24.0743 169.903 27.1306L171.23 28.6272ZM181.484 24.5117C182.049 24.5117 182.445 24.5287 182.694 24.5564L182.915 22.5686C182.555 22.5286 182.071 22.5117 181.484 22.5117V24.5117ZM182.805 24.5625C183.118 24.5625 183.327 24.5788 183.453 24.5997L183.781 22.6269C183.501 22.5801 183.168 22.5625 182.805 22.5625V24.5625ZM182.664 23.312L178.956 35.0424L180.864 35.6451L184.571 23.9146L182.664 23.312ZM179.91 34.3438H179.098V36.3438H179.91V34.3438ZM179.868 34.7069C179.14 33.8252 178.282 33.1385 177.296 32.6649L176.43 34.4679C177.136 34.8068 177.768 35.305 178.327 35.9806L179.868 34.7069ZM177.31 32.672C176.339 32.1863 175.251 31.957 174.07 31.957V33.957C174.989 33.957 175.762 34.1341 176.416 34.4608L177.31 32.672ZM174.07 31.957C170.243 31.957 167.283 33.7194 165.286 37.1227L167.011 38.1351C168.669 35.3092 170.991 33.957 174.07 33.957V31.957ZM165.284 37.1256C163.36 40.4298 162.457 45.1576 162.457 51.1875H164.457C164.457 45.3008 165.348 40.9895 167.012 38.1322L165.284 37.1256ZM162.457 51.1875V57.2812H164.457V51.1875H162.457ZM162.457 57.2812C162.457 61.4262 162.571 64.835 162.803 67.4989C163.033 70.1332 163.384 72.1345 163.902 73.4021L165.754 72.6448C165.358 71.678 165.023 69.9385 164.796 67.3253C164.571 64.7419 164.457 61.3967 164.457 57.2812H162.457ZM163.91 73.4191C164.991 75.9302 167.026 77.5999 169.874 78.4504L170.446 76.534C168.08 75.8272 166.561 74.5177 165.746 72.6278L163.91 73.4191ZM169.162 77.4298L169.111 78.2423L171.107 78.3671L171.158 77.5546L169.162 77.4298ZM170.162 77.3061C168.227 77.2042 166.308 77.1193 164.407 77.0514L164.335 79.0501C166.225 79.1176 168.132 79.202 170.057 79.3033L170.162 77.3061ZM164.389 77.0509C162.521 77.017 160.619 77 158.683 77V79C160.607 79 162.497 79.0169 164.353 79.0506L164.389 77.0509ZM158.683 77C155.803 77 153.477 77.0169 151.707 77.051L151.746 79.0506C153.497 79.0169 155.809 79 158.683 79V77ZM151.688 77.0515C149.92 77.1195 148.219 77.2045 146.586 77.3066L146.711 79.3027C148.327 79.2017 150.012 79.1175 151.765 79.05L151.688 77.0515ZM187.931 78.3047H186.931V79.3691L187.994 79.3027L187.931 78.3047ZM187.931 77.4922L187.634 76.5375L186.931 76.7564V77.4922H187.931ZM193.467 30.1133L192.621 30.6473L192.628 30.6575L193.467 30.1133ZM188.845 27.9805H187.845V28.9225L188.786 28.9787L188.845 27.9805ZM188.845 27.168L188.71 26.1771L187.845 26.2951V27.168H188.845ZM203.724 23.5117H204.724V22.1348L203.415 22.5608L203.724 23.5117ZM203.724 40.3711H202.724L204.654 40.7405L203.724 40.3711ZM211.849 27.8789L212.512 28.6276L212.513 28.6272L211.849 27.8789ZM224.088 23.5625L223.977 24.5564L224.032 24.5625H224.088V23.5625ZM224.9 23.6133L225.854 23.9146L226.201 22.8163L225.065 22.6269L224.9 23.6133ZM221.193 35.3438V36.3438H221.926L222.147 35.6451L221.193 35.3438ZM220.381 35.3438L219.61 35.9806L219.91 36.3438H220.381V35.3438ZM218.146 33.5664L217.699 34.4608L217.706 34.4644L217.714 34.4679L218.146 33.5664ZM207.431 37.6289L206.569 37.1227L206.567 37.1256L207.431 37.6289ZM206.111 73.0234L205.186 73.4021L205.189 73.4106L205.193 73.4191L206.111 73.0234ZM211.443 77.4922L212.441 77.5546L212.491 76.7615L211.729 76.534L211.443 77.4922ZM211.392 78.3047L211.34 79.3033L212.329 79.3553L212.39 78.3671L211.392 78.3047ZM205.654 78.0508L205.69 77.0514L205.681 77.0511L205.672 77.0509L205.654 78.0508ZM193.01 78.0508L192.99 77.051L192.981 77.0512L192.971 77.0515L193.01 78.0508ZM188.931 78.3047V77.4922H186.931V78.3047H188.931ZM188.229 78.4469C191.089 77.5556 193.115 75.807 194.188 73.2011L192.339 72.4396C191.516 74.4378 189.988 75.8038 187.634 76.5375L188.229 78.4469ZM194.188 73.2011C194.724 71.8993 195.088 69.847 195.326 67.1444C195.567 64.4123 195.685 60.9186 195.685 56.6719H193.685C193.685 60.8887 193.567 64.3182 193.334 66.9689C193.098 69.6491 192.751 71.4392 192.339 72.4396L194.188 73.2011ZM195.685 56.6719V54.1836H193.685V56.6719H195.685ZM195.685 54.1836V38.5938H193.685V54.1836H195.685ZM195.685 38.5938C195.685 36.3681 195.583 34.5091 195.37 33.0306C195.162 31.5812 194.834 30.3832 194.306 29.5691L192.628 30.6575C192.912 31.0959 193.193 31.9376 193.391 33.3151C193.585 34.6634 193.685 36.4183 193.685 38.5938H195.685ZM194.312 29.5793C193.255 27.9053 191.329 27.1269 188.905 26.9822L188.786 28.9787C190.899 29.1048 192.053 29.7484 192.621 30.6473L194.312 29.5793ZM189.845 27.9805V27.168H187.845V27.9805H189.845ZM188.981 28.1588C191.255 27.8487 193.627 27.3843 196.096 26.767L195.611 24.8267C193.205 25.4282 190.905 25.8779 188.71 26.1771L188.981 28.1588ZM196.096 26.767C198.559 26.1511 201.206 25.3827 204.034 24.4627L203.415 22.5608C200.623 23.4689 198.022 24.2239 195.611 24.8267L196.096 26.767ZM202.724 23.5117V40.3711H204.724V23.5117H202.724ZM204.654 40.7405C206.782 35.3868 209.413 31.3715 212.512 28.6276L211.186 27.1302C207.785 30.1415 205 34.4543 202.795 40.0017L204.654 40.7405ZM212.513 28.6272C215.633 25.8606 219.042 24.5117 222.767 24.5117V22.5117C218.503 22.5117 214.633 24.0743 211.186 27.1306L212.513 28.6272ZM222.767 24.5117C223.332 24.5117 223.728 24.5287 223.977 24.5564L224.198 22.5686C223.838 22.5286 223.354 22.5117 222.767 22.5117V24.5117ZM224.088 24.5625C224.401 24.5625 224.61 24.5788 224.736 24.5997L225.065 22.6269C224.784 22.5801 224.451 22.5625 224.088 22.5625V24.5625ZM223.947 23.312L220.24 35.0424L222.147 35.6451L225.854 23.9146L223.947 23.312ZM221.193 34.3438H220.381V36.3438H221.193V34.3438ZM221.152 34.7069C220.423 33.8252 219.566 33.1385 218.579 32.6649L217.714 34.4679C218.42 34.8068 219.052 35.305 219.61 35.9806L221.152 34.7069ZM218.593 32.672C217.622 32.1863 216.534 31.957 215.353 31.957V33.957C216.272 33.957 217.045 34.1341 217.699 34.4608L218.593 32.672ZM215.353 31.957C211.526 31.957 208.567 33.7194 206.569 37.1227L208.294 38.1351C209.952 35.3092 212.274 33.957 215.353 33.957V31.957ZM206.567 37.1256C204.643 40.4298 203.74 45.1576 203.74 51.1875H205.74C205.74 45.3008 206.631 40.9895 208.296 38.1322L206.567 37.1256ZM203.74 51.1875V57.2812H205.74V51.1875H203.74ZM203.74 57.2812C203.74 61.4262 203.855 64.835 204.087 67.4989C204.316 70.1332 204.667 72.1345 205.186 73.4021L207.037 72.6448C206.641 71.678 206.307 69.9385 206.079 67.3253C205.854 64.7419 205.74 61.3967 205.74 57.2812H203.74ZM205.193 73.4191C206.274 75.9302 208.31 77.5999 211.157 78.4504L211.729 76.534C209.363 75.8272 207.844 74.5177 207.03 72.6278L205.193 73.4191ZM210.445 77.4298L210.394 78.2423L212.39 78.3671L212.441 77.5546L210.445 77.4298ZM211.445 77.3061C209.51 77.2042 207.591 77.1193 205.69 77.0514L205.618 79.0501C207.508 79.1176 209.416 79.202 211.34 79.3033L211.445 77.3061ZM205.672 77.0509C203.804 77.017 201.902 77 199.967 77V79C201.89 79 203.78 79.0169 205.636 79.0506L205.672 77.0509ZM199.967 77C197.086 77 194.76 77.0169 192.99 77.051L193.029 79.0506C194.78 79.0169 197.092 79 199.967 79V77ZM192.971 77.0515C191.203 77.1195 189.503 77.2045 187.869 77.3066L187.994 79.3027C189.61 79.2017 191.295 79.1175 193.048 79.05L192.971 77.0515ZM287.461 43.875L287.462 44.875L288.59 44.8737L288.453 43.7535L287.461 43.875ZM243.636 43.9258L243.635 42.9258L242.702 42.9269L242.639 43.8578L243.636 43.9258ZM243.383 47.7852L242.384 47.7228L242.384 47.7378L242.383 47.7529L243.383 47.7852ZM248.867 69.4688L248.087 70.0941L248.089 70.097L248.867 69.4688ZM286.902 55.6562L287.7 55.0531L286.493 53.4573L285.941 55.3802L286.902 55.6562ZM288.476 57.7383L289.437 58.016L289.576 57.5348L289.274 57.1352L288.476 57.7383ZM278.32 73.9883L278.936 74.7758L278.937 74.7752L278.32 73.9883ZM239.828 71.5L239.132 72.2181L239.134 72.2202L239.828 71.5ZM239.574 30.418L238.869 29.7086L238.867 29.7109L239.574 30.418ZM279.031 28.1836L278.406 28.9639L278.408 28.9661L279.031 28.1836ZM243.84 41.6914L242.857 41.5046L242.631 42.6914H243.84V41.6914ZM274.867 41.6914V42.6914H275.906L275.866 41.6535L274.867 41.6914ZM270.652 28.9961L269.881 29.633L269.885 29.6379L270.652 28.9961ZM249.73 28.8945L249.007 28.2037L249.007 28.2039L249.73 28.8945ZM287.459 42.875L243.635 42.9258L243.638 44.9258L287.462 44.875L287.459 42.875ZM242.639 43.8578C242.537 45.3486 242.452 46.637 242.384 47.7228L244.381 47.8475C244.448 46.7666 244.533 45.4821 244.634 43.9938L242.639 43.8578ZM242.383 47.7529C242.349 48.8074 242.332 49.6657 242.332 50.3242H244.332C244.332 49.6963 244.348 48.8619 244.382 47.8174L242.383 47.7529ZM242.332 50.3242C242.332 58.6244 244.208 65.2554 248.087 70.0941L249.647 68.8434C246.145 64.4738 244.332 58.3417 244.332 50.3242H242.332ZM248.089 70.097C251.991 74.9295 257.386 77.3242 264.152 77.3242V75.3242C257.918 75.3242 253.123 73.1486 249.645 68.8405L248.089 70.097ZM264.152 77.3242C269.749 77.3242 274.643 75.4378 278.788 71.6825L277.445 70.2003C273.669 73.6221 269.253 75.3242 264.152 75.3242V77.3242ZM278.788 71.6825C282.921 67.9379 285.93 62.6625 287.863 55.9323L285.941 55.3802C284.082 61.8531 281.234 66.7678 277.445 70.2003L278.788 71.6825ZM286.104 56.2594L287.679 58.3414L289.274 57.1352L287.7 55.0531L286.104 56.2594ZM287.516 57.4606C285.494 64.4519 282.207 69.6694 277.703 73.2014L278.937 74.7752C283.844 70.927 287.328 65.3111 289.437 58.016L287.516 57.4606ZM277.704 73.2008C273.24 76.6942 267.596 78.4727 260.699 78.4727V80.4727C267.953 80.4727 274.056 78.5949 278.936 74.7758L277.704 73.2008ZM260.699 78.4727C252.535 78.4727 245.835 75.8974 240.522 70.7798L239.134 72.2202C244.857 77.7328 252.071 80.4727 260.699 80.4727V78.4727ZM240.524 70.7819C235.244 65.6655 232.601 59.2603 232.601 51.4922H230.601C230.601 59.771 233.442 66.7043 239.132 72.2181L240.524 70.7819ZM232.601 51.4922C232.601 42.9766 235.184 36.2222 240.281 31.1251L238.867 29.7109C233.334 35.244 230.601 42.539 230.601 51.4922H232.601ZM240.279 31.1273C245.412 26.0265 252.152 23.4453 260.597 23.4453V21.4453C251.709 21.4453 244.434 24.1793 238.869 29.7086L240.279 31.1273ZM260.597 23.4453C267.939 23.4453 273.847 25.3108 278.406 28.9639L279.656 27.4033C274.668 23.4054 268.287 21.4453 260.597 21.4453V23.4453ZM278.408 28.9661C282.991 32.6131 285.684 37.5962 286.468 43.9965L288.453 43.7535C287.612 36.883 284.685 31.4051 279.654 27.4011L278.408 28.9661ZM243.84 42.6914H274.867V40.6914H243.84V42.6914ZM275.866 41.6535C275.657 36.1535 274.207 31.686 271.419 28.3543L269.885 29.6379C272.31 32.5354 273.67 36.5314 273.868 41.7294L275.866 41.6535ZM271.423 28.3592C268.652 25.0045 264.979 23.3242 260.496 23.3242V25.3242C264.409 25.3242 267.507 26.7585 269.881 29.633L271.423 28.3592ZM260.496 23.3242C255.961 23.3242 252.11 24.9566 249.007 28.2037L250.453 29.5854C253.173 26.7387 256.499 25.3242 260.496 25.3242V23.3242ZM249.007 28.2039C245.957 31.3971 243.93 35.8611 242.857 41.5046L244.822 41.8782C245.848 36.4852 247.748 32.418 250.453 29.5852L249.007 28.2039ZM294.67 78.3047H293.67V79.3691L294.732 79.3027L294.67 78.3047ZM294.67 77.4922L294.376 76.5361L293.67 76.7529V77.4922H294.67ZM300.103 30.4688L299.254 30.9967L299.262 31.0102L299.271 31.0235L300.103 30.4688ZM295.584 28.3867H294.584V29.3279L295.523 29.3849L295.584 28.3867ZM295.584 27.5742L295.452 26.5829L294.584 26.6979V27.5742H295.584ZM302.693 26.2031L302.936 27.1733L302.945 27.1709L302.693 26.2031ZM310.462 23.8164H311.462V22.4069L310.132 22.8725L310.462 23.8164ZM310.462 39.2031H309.462L311.421 39.4878L310.462 39.2031ZM318.334 26.6602L318.945 27.4511L318.947 27.4503L318.334 26.6602ZM348.142 28.6406L347.372 29.2783L347.378 29.2851L348.142 28.6406ZM354.693 73.125L353.772 73.5137L353.775 73.5225L353.779 73.5311L354.693 73.125ZM360.076 77.4922L361.074 77.5546L361.124 76.7586L360.359 76.533L360.076 77.4922ZM360.025 78.3047L359.972 79.3033L360.961 79.3553L361.023 78.3671L360.025 78.3047ZM354.287 78.0508L354.322 77.0514L354.314 77.0511L354.305 77.0509L354.287 78.0508ZM341.642 78.0508L341.623 77.051L341.613 77.0512L341.604 77.0515L341.642 78.0508ZM336.564 78.3047H335.564V79.3691L336.626 79.3027L336.564 78.3047ZM336.564 77.4922L336.283 76.5326L335.564 76.7434V77.4922H336.564ZM316.15 31.8906L315.35 31.2906L315.347 31.2948L316.15 31.8906ZM318.13 77.4922H319.13V76.7239L318.388 76.526L318.13 77.4922ZM318.13 78.3047L318.078 79.3033L319.13 79.3587V78.3047H318.13ZM312.392 78.0508L312.428 77.0514L312.419 77.0511L312.41 77.0509L312.392 78.0508ZM299.748 78.0508L299.728 77.051L299.719 77.0512L299.709 77.0515L299.748 78.0508ZM295.67 78.3047V77.4922H293.67V78.3047H295.67ZM294.963 78.4482C297.748 77.5941 299.741 75.9203 300.818 73.4191L298.982 72.6278C298.163 74.5276 296.669 75.833 294.376 76.5361L294.963 78.4482ZM300.818 73.4191C301.357 72.1699 301.723 70.2848 301.962 67.8527C302.203 65.3957 302.322 62.2921 302.322 58.5508H300.322C300.322 62.2574 300.204 65.2898 299.971 67.6571C299.736 70.0492 299.391 71.6764 298.982 72.6278L300.818 73.4191ZM302.322 58.5508V54.1836H300.322V58.5508H302.322ZM302.322 54.1836V39H300.322V54.1836H302.322ZM302.322 39C302.322 36.7412 302.22 34.8611 302.007 33.3742C301.799 31.92 301.471 30.7177 300.935 29.914L299.271 31.0235C299.548 31.4386 299.829 32.2675 300.027 33.657C300.221 35.0139 300.322 36.79 300.322 39H302.322ZM300.952 29.9408C299.927 28.292 298.027 27.533 295.644 27.3886L295.523 29.3849C297.608 29.5113 298.722 30.1403 299.254 30.9967L300.952 29.9408ZM296.584 28.3867V27.5742H294.584V28.3867H296.584ZM295.715 28.5656C298.057 28.2555 300.464 27.7911 302.935 27.1733L302.45 25.233C300.047 25.8339 297.714 26.2835 295.452 26.5829L295.715 28.5656ZM302.945 27.1709C305.446 26.52 308.062 25.7161 310.793 24.7603L310.132 22.8725C307.447 23.8125 304.883 24.5998 302.441 25.2354L302.945 27.1709ZM309.462 23.8164V39.2031H311.462V23.8164H309.462ZM311.421 39.4878C313.037 34.0456 315.564 30.0667 318.945 27.4511L317.722 25.8692C313.926 28.8057 311.205 33.1888 309.504 38.9184L311.421 39.4878ZM318.947 27.4503C322.359 24.8033 326.717 23.4453 332.095 23.4453V21.4453C326.37 21.4453 321.553 22.8972 317.721 25.87L318.947 27.4503ZM332.095 23.4453C339.189 23.4453 344.204 25.4522 347.372 29.2783L348.912 28.0029C345.241 23.5686 339.559 21.4453 332.095 21.4453V23.4453ZM347.378 29.2851C350.608 33.1173 352.322 39.2654 352.322 47.9375H354.322C354.322 39.0731 352.583 32.3567 348.907 27.9961L347.378 29.2851ZM352.322 47.9375V57.0781H354.322V47.9375H352.322ZM352.322 57.0781C352.322 61.3577 352.436 64.8592 352.668 67.5734C352.897 70.2531 353.248 72.2719 353.772 73.5137L355.614 72.7363C355.224 71.8114 354.889 70.0724 354.661 67.4031C354.436 64.7684 354.322 61.3298 354.322 57.0781H352.322ZM353.779 73.5311C354.868 75.9808 356.927 77.6062 359.793 78.4514L360.359 76.533C357.943 75.8208 356.414 74.5348 355.607 72.7189L353.779 73.5311ZM359.078 77.4298L359.027 78.2423L361.023 78.3671L361.074 77.5546L359.078 77.4298ZM360.078 77.3061C358.142 77.2042 356.224 77.1193 354.322 77.0514L354.251 79.0501C356.141 79.1176 358.048 79.202 359.972 79.3033L360.078 77.3061ZM354.305 77.0509C352.437 77.017 350.535 77 348.599 77V79C350.523 79 352.413 79.0169 354.269 79.0506L354.305 77.0509ZM348.599 77C345.719 77 343.392 77.0169 341.623 77.051L341.661 79.0506C343.413 79.0169 345.725 79 348.599 79V77ZM341.604 77.0515C339.836 77.1195 338.135 77.2045 336.502 77.3066L336.626 79.3027C338.243 79.2017 339.928 79.1175 341.681 79.05L341.604 77.0515ZM337.564 78.3047V77.4922H335.564V78.3047H337.564ZM336.846 78.4518C339.643 77.6313 341.639 75.9513 342.715 73.414L340.874 72.6329C340.055 74.5643 338.564 75.8635 336.283 76.5326L336.846 78.4518ZM342.715 73.414C343.251 72.151 343.617 70.2607 343.856 67.8273C344.098 65.3705 344.216 62.2753 344.216 58.5508H342.216C342.216 62.2403 342.098 65.2643 341.866 67.6317C341.631 70.0225 341.286 71.6615 340.874 72.6329L342.715 73.414ZM344.216 58.5508V54.1836H342.216V58.5508H344.216ZM344.216 54.1836V48.8008H342.216V54.1836H344.216ZM344.216 48.8008C344.216 40.8501 343.029 34.782 340.51 30.7513L338.814 31.8112C341.034 35.3638 342.216 40.9754 342.216 48.8008H344.216ZM340.51 30.7513C337.937 26.6346 333.957 24.5938 328.744 24.5938V26.5938C333.348 26.5938 336.647 28.3446 338.814 31.8112L340.51 30.7513ZM328.744 24.5938C323.182 24.5938 318.687 26.8409 315.35 31.2906L316.95 32.4906C319.91 28.5445 323.811 26.5938 328.744 26.5938V24.5938ZM315.347 31.2948C312.065 35.7182 310.478 41.6219 310.478 48.9023H312.478C312.478 41.8964 314.006 36.4589 316.953 32.4865L315.347 31.2948ZM310.478 48.9023V57.2812H312.478V48.9023H310.478ZM310.478 57.2812C310.478 61.4268 310.597 64.8408 310.838 67.5145C311.076 70.1591 311.44 72.1742 311.977 73.4598L313.823 72.6886C313.412 71.706 313.065 69.9548 312.83 67.3351C312.596 64.7445 312.478 61.3961 312.478 57.2812H310.478ZM311.977 73.4598C313.054 76.0363 315.058 77.7078 317.873 78.4584L318.388 76.526C316.125 75.9224 314.642 74.6485 313.823 72.6886L311.977 73.4598ZM317.13 77.4922V78.3047H319.13V77.4922H317.13ZM318.183 77.3061C316.248 77.2042 314.329 77.1193 312.428 77.0514L312.356 79.0501C314.247 79.1176 316.154 79.202 318.078 79.3033L318.183 77.3061ZM312.41 77.0509C310.542 77.017 308.64 77 306.705 77V79C308.629 79 310.518 79.0169 312.374 79.0506L312.41 77.0509ZM306.705 77C303.824 77 301.498 77.0169 299.728 77.051L299.767 79.0506C301.518 79.0169 303.83 79 306.705 79V77ZM299.709 77.0515C297.941 77.1195 296.241 77.2045 294.607 77.3066L294.732 79.3027C296.348 79.2017 298.033 79.1175 299.786 79.05L299.709 77.0515ZM365.203 29.4531L364.228 29.2303L363.948 30.4531H365.203V29.4531ZM365.609 27.6758L365.317 26.7194L364.763 26.8886L364.634 27.453L365.609 27.6758ZM375.156 22.0391L374.462 21.3187L374.458 21.3231L375.156 22.0391ZM383.078 10.6133V9.61328H382.465L382.187 10.1588L383.078 10.6133ZM383.839 10.6133L384.836 10.6977L384.928 9.61328H383.839V10.6133ZM383.179 25.9492L382.179 25.9277L382.158 26.9447L383.175 26.9492L383.179 25.9492ZM394.554 26H395.554V25.0045L394.559 25L394.554 26ZM394.554 26.7109L395.486 27.0734L395.554 26.8985V26.7109H394.554ZM393.488 29.4531V30.4531H394.172L394.42 29.8156L393.488 29.4531ZM383.179 29.4531V28.4531H382.179V29.4531H383.179ZM391.203 77.4922H392.203V76.6724L391.399 76.5116L391.203 77.4922ZM391.203 78.1016L391.188 79.1014L392.203 79.1168V78.1016H391.203ZM384.55 78L384.566 77.0001L384.558 77H384.55V78ZM376.832 78L376.268 78.8258L376.523 79H376.832V78ZM373.023 55.3516L372.023 55.328L372.023 55.3398V55.3516H373.023ZM373.632 29.4531L374.632 29.4766L374.656 28.4531H373.632V29.4531ZM366.178 29.6759L366.584 27.8986L364.634 27.453L364.228 29.2303L366.178 29.6759ZM365.901 28.6321C369.708 27.4689 373.03 25.5083 375.854 22.7551L374.458 21.3231C371.865 23.8511 368.822 25.6483 365.317 26.7194L365.901 28.6321ZM375.849 22.7594C378.7 20.0147 381.4 16.1014 383.968 11.0678L382.187 10.1588C379.677 15.0783 377.096 18.7821 374.462 21.3187L375.849 22.7594ZM383.078 11.6133H383.839V9.61328H383.078V11.6133ZM382.843 10.5288C382.672 12.5443 382.536 14.8278 382.434 17.378L384.432 17.4579C384.533 14.93 384.668 12.677 384.836 10.6977L382.843 10.5288ZM382.434 17.378C382.332 19.9245 382.247 22.7745 382.179 25.9277L384.179 25.9707C384.247 22.8271 384.331 19.9896 384.432 17.4579L382.434 17.378ZM383.175 26.9492L394.55 27L394.559 25L383.184 24.9492L383.175 26.9492ZM393.554 26V26.7109H395.554V26H393.554ZM393.622 26.3485L392.556 29.0907L394.42 29.8156L395.486 27.0734L393.622 26.3485ZM393.488 28.4531H383.179V30.4531H393.488V28.4531ZM382.179 29.4531V52.1016H384.179V29.4531H382.179ZM382.179 52.1016C382.179 61.699 382.747 68.3439 383.96 71.8756L385.852 71.226C384.762 68.0545 384.179 61.7333 384.179 52.1016H382.179ZM383.96 71.8756C385.207 75.5069 387.556 77.7827 391.007 78.4728L391.399 76.5116C388.756 75.983 386.907 74.2978 385.852 71.226L383.96 71.8756ZM390.203 77.4922V78.1016H392.203V77.4922H390.203ZM391.218 77.1017C388.984 77.0678 386.766 77.034 384.566 77.0001L384.535 78.9999C386.736 79.0337 388.953 79.0676 391.188 79.1014L391.218 77.1017ZM384.55 77C384.546 77 384.542 77 384.538 77C384.533 77 384.529 77 384.525 77C384.521 77 384.516 77 384.512 77C384.508 77 384.504 77 384.499 77C384.495 77 384.491 77 384.487 77C384.482 77 384.478 77 384.474 77C384.47 77 384.465 77 384.461 77C384.457 77 384.453 77 384.448 77C384.444 77 384.44 77 384.436 77C384.431 77 384.427 77 384.423 77C384.419 77 384.414 77 384.41 77C384.406 77 384.402 77 384.397 77C384.393 77 384.389 77 384.384 77C384.38 77 384.376 77 384.372 77C384.367 77 384.363 77 384.359 77C384.355 77 384.35 77 384.346 77C384.342 77 384.337 77 384.333 77C384.329 77 384.325 77 384.32 77C384.316 77 384.312 77 384.307 77C384.303 77 384.299 77 384.295 77C384.29 77 384.286 77 384.282 77C384.277 77 384.273 77 384.269 77C384.264 77 384.26 77 384.256 77C384.252 77 384.247 77 384.243 77C384.239 77 384.234 77 384.23 77C384.226 77 384.221 77 384.217 77C384.213 77 384.208 77 384.204 77C384.2 77 384.196 77 384.191 77C384.187 77 384.183 77 384.178 77C384.174 77 384.17 77 384.165 77C384.161 77 384.157 77 384.152 77C384.148 77 384.144 77 384.139 77C384.135 77 384.131 77 384.126 77C384.122 77 384.118 77 384.113 77C384.109 77 384.105 77 384.1 77C384.096 77 384.092 77 384.087 77C384.083 77 384.079 77 384.074 77C384.07 77 384.066 77 384.061 77C384.057 77 384.052 77 384.048 77C384.044 77 384.039 77 384.035 77C384.031 77 384.026 77 384.022 77C384.018 77 384.013 77 384.009 77C384.005 77 384 77 383.996 77C383.991 77 383.987 77 383.983 77C383.978 77 383.974 77 383.97 77C383.965 77 383.961 77 383.957 77C383.952 77 383.948 77 383.943 77C383.939 77 383.935 77 383.93 77C383.926 77 383.921 77 383.917 77C383.913 77 383.908 77 383.904 77C383.9 77 383.895 77 383.891 77C383.886 77 383.882 77 383.878 77C383.873 77 383.869 77 383.864 77C383.86 77 383.856 77 383.851 77C383.847 77 383.842 77 383.838 77C383.834 77 383.829 77 383.825 77C383.82 77 383.816 77 383.812 77C383.807 77 383.803 77 383.798 77C383.794 77 383.79 77 383.785 77C383.781 77 383.776 77 383.772 77C383.767 77 383.763 77 383.759 77C383.754 77 383.75 77 383.745 77C383.741 77 383.736 77 383.732 77C383.728 77 383.723 77 383.719 77C383.714 77 383.71 77 383.705 77C383.701 77 383.697 77 383.692 77C383.688 77 383.683 77 383.679 77C383.674 77 383.67 77 383.666 77C383.661 77 383.657 77 383.652 77C383.648 77 383.643 77 383.639 77C383.634 77 383.63 77 383.626 77C383.621 77 383.617 77 383.612 77C383.608 77 383.603 77 383.599 77C383.594 77 383.59 77 383.585 77C383.581 77 383.576 77 383.572 77C383.568 77 383.563 77 383.559 77C383.554 77 383.55 77 383.545 77C383.541 77 383.536 77 383.532 77C383.527 77 383.523 77 383.518 77C383.514 77 383.509 77 383.505 77C383.5 77 383.496 77 383.492 77C383.487 77 383.483 77 383.478 77C383.474 77 383.469 77 383.465 77C383.46 77 383.456 77 383.451 77C383.447 77 383.442 77 383.438 77C383.433 77 383.429 77 383.424 77C383.42 77 383.415 77 383.411 77C383.406 77 383.402 77 383.397 77C383.393 77 383.388 77 383.384 77C383.379 77 383.375 77 383.37 77C383.366 77 383.361 77 383.357 77C383.352 77 383.348 77 383.343 77C383.338 77 383.334 77 383.329 77C383.325 77 383.32 77 383.316 77C383.311 77 383.307 77 383.302 77C383.298 77 383.293 77 383.289 77C383.284 77 383.28 77 383.275 77C383.271 77 383.266 77 383.262 77C383.257 77 383.252 77 383.248 77C383.243 77 383.239 77 383.234 77C383.23 77 383.225 77 383.221 77C383.216 77 383.212 77 383.207 77C383.202 77 383.198 77 383.193 77C383.189 77 383.184 77 383.18 77C383.175 77 383.171 77 383.166 77C383.162 77 383.157 77 383.152 77C383.148 77 383.143 77 383.139 77C383.134 77 383.13 77 383.125 77C383.12 77 383.116 77 383.111 77C383.107 77 383.102 77 383.098 77C383.093 77 383.088 77 383.084 77C383.079 77 383.075 77 383.07 77C383.066 77 383.061 77 383.056 77C383.052 77 383.047 77 383.043 77C383.038 77 383.033 77 383.029 77C383.024 77 383.02 77 383.015 77C383.011 77 383.006 77 383.001 77C382.997 77 382.992 77 382.988 77C382.983 77 382.978 77 382.974 77C382.969 77 382.965 77 382.96 77C382.955 77 382.951 77 382.946 77C382.942 77 382.937 77 382.932 77C382.928 77 382.923 77 382.918 77C382.914 77 382.909 77 382.905 77C382.9 77 382.895 77 382.891 77C382.886 77 382.882 77 382.877 77C382.872 77 382.868 77 382.863 77C382.858 77 382.854 77 382.849 77C382.845 77 382.84 77 382.835 77C382.831 77 382.826 77 382.821 77C382.817 77 382.812 77 382.807 77C382.803 77 382.798 77 382.794 77C382.789 77 382.784 77 382.78 77C382.775 77 382.77 77 382.766 77C382.761 77 382.756 77 382.752 77C382.747 77 382.742 77 382.738 77C382.733 77 382.728 77 382.724 77C382.719 77 382.714 77 382.71 77C382.705 77 382.701 77 382.696 77C382.691 77 382.687 77 382.682 77C382.677 77 382.673 77 382.668 77C382.663 77 382.659 77 382.654 77C382.649 77 382.644 77 382.64 77C382.635 77 382.63 77 382.626 77C382.621 77 382.616 77 382.612 77C382.607 77 382.602 77 382.598 77C382.593 77 382.588 77 382.584 77C382.579 77 382.574 77 382.57 77C382.565 77 382.56 77 382.556 77C382.551 77 382.546 77 382.541 77C382.537 77 382.532 77 382.527 77C382.523 77 382.518 77 382.513 77C382.509 77 382.504 77 382.499 77C382.494 77 382.49 77 382.485 77C382.48 77 382.476 77 382.471 77C382.466 77 382.461 77 382.457 77C382.452 77 382.447 77 382.443 77C382.438 77 382.433 77 382.428 77C382.424 77 382.419 77 382.414 77C382.41 77 382.405 77 382.4 77C382.395 77 382.391 77 382.386 77C382.381 77 382.376 77 382.372 77C382.367 77 382.362 77 382.357 77C382.353 77 382.348 77 382.343 77C382.339 77 382.334 77 382.329 77C382.324 77 382.32 77 382.315 77C382.31 77 382.305 77 382.301 77C382.296 77 382.291 77 382.286 77C382.282 77 382.277 77 382.272 77C382.267 77 382.263 77 382.258 77C382.253 77 382.248 77 382.243 77C382.239 77 382.234 77 382.229 77C382.224 77 382.22 77 382.215 77C382.21 77 382.205 77 382.201 77C382.196 77 382.191 77 382.186 77C382.181 77 382.177 77 382.172 77C382.167 77 382.162 77 382.158 77C382.153 77 382.148 77 382.143 77C382.138 77 382.134 77 382.129 77C382.124 77 382.119 77 382.115 77C382.11 77 382.105 77 382.1 77C382.095 77 382.091 77 382.086 77C382.081 77 382.076 77 382.071 77C382.067 77 382.062 77 382.057 77C382.052 77 382.047 77 382.043 77C382.038 77 382.033 77 382.028 77C382.023 77 382.019 77 382.014 77C382.009 77 382.004 77 381.999 77C381.994 77 381.99 77 381.985 77C381.98 77 381.975 77 381.97 77C381.966 77 381.961 77 381.956 77C381.951 77 381.946 77 381.941 77C381.937 77 381.932 77 381.927 77C381.922 77 381.917 77 381.912 77C381.908 77 381.903 77 381.898 77C381.893 77 381.888 77 381.883 77C381.879 77 381.874 77 381.869 77C381.864 77 381.859 77 381.854 77C381.85 77 381.845 77 381.84 77C381.835 77 381.83 77 381.825 77C381.82 77 381.816 77 381.811 77C381.806 77 381.801 77 381.796 77C381.791 77 381.786 77 381.782 77C381.777 77 381.772 77 381.767 77C381.762 77 381.757 77 381.752 77C381.748 77 381.743 77 381.738 77C381.733 77 381.728 77 381.723 77C381.718 77 381.713 77 381.709 77C381.704 77 381.699 77 381.694 77C381.689 77 381.684 77 381.679 77C381.674 77 381.67 77 381.665 77C381.66 77 381.655 77 381.65 77C381.645 77 381.64 77 381.635 77C381.63 77 381.626 77 381.621 77C381.616 77 381.611 77 381.606 77C381.601 77 381.596 77 381.591 77C381.586 77 381.581 77 381.577 77C381.572 77 381.567 77 381.562 77C381.557 77 381.552 77 381.547 77C381.542 77 381.537 77 381.532 77C381.527 77 381.523 77 381.518 77C381.513 77 381.508 77 381.503 77C381.498 77 381.493 77 381.488 77C381.483 77 381.478 77 381.473 77C381.468 77 381.463 77 381.459 77C381.454 77 381.449 77 381.444 77C381.439 77 381.434 77 381.429 77C381.424 77 381.419 77 381.414 77C381.409 77 381.404 77 381.399 77C381.394 77 381.389 77 381.384 77C381.38 77 381.375 77 381.37 77C381.365 77 381.36 77 381.355 77C381.35 77 381.345 77 381.34 77C381.335 77 381.33 77 381.325 77C381.32 77 381.315 77 381.31 77C381.305 77 381.3 77 381.295 77C381.29 77 381.285 77 381.28 77C381.275 77 381.27 77 381.265 77C381.261 77 381.256 77 381.251 77C381.246 77 381.241 77 381.236 77C381.231 77 381.226 77 381.221 77C381.216 77 381.211 77 381.206 77C381.201 77 381.196 77 381.191 77C381.186 77 381.181 77 381.176 77C381.171 77 381.166 77 381.161 77C381.156 77 381.151 77 381.146 77C381.141 77 381.136 77 381.131 77C381.126 77 381.121 77 381.116 77C381.111 77 381.106 77 381.101 77C381.096 77 381.091 77 381.086 77C381.081 77 381.076 77 381.071 77C381.066 77 381.061 77 381.056 77C381.051 77 381.046 77 381.041 77C381.036 77 381.031 77 381.026 77C381.021 77 381.016 77 381.011 77C381.006 77 381.001 77 380.996 77C380.991 77 380.986 77 380.981 77C380.976 77 380.97 77 380.965 77C380.96 77 380.955 77 380.95 77C380.945 77 380.94 77 380.935 77C380.93 77 380.925 77 380.92 77C380.915 77 380.91 77 380.905 77C380.9 77 380.895 77 380.89 77C380.885 77 380.88 77 380.875 77C380.87 77 380.865 77 380.86 77C380.855 77 380.849 77 380.844 77C380.839 77 380.834 77 380.829 77C380.824 77 380.819 77 380.814 77C380.809 77 380.804 77 380.799 77C380.794 77 380.789 77 380.784 77C380.779 77 380.774 77 380.768 77C380.763 77 380.758 77 380.753 77C380.748 77 380.743 77 380.738 77C380.733 77 380.728 77 380.723 77C380.718 77 380.713 77 380.708 77C380.702 77 380.697 77 380.692 77C380.687 77 380.682 77 380.677 77C380.672 77 380.667 77 380.662 77C380.657 77 380.652 77 380.646 77C380.641 77 380.636 77 380.631 77C380.626 77 380.621 77 380.616 77C380.611 77 380.606 77 380.601 77C380.595 77 380.59 77 380.585 77C380.58 77 380.575 77 380.57 77C380.565 77 380.56 77 380.555 77C380.549 77 380.544 77 380.539 77C380.534 77 380.529 77 380.524 77C380.519 77 380.514 77 380.508 77C380.503 77 380.498 77 380.493 77C380.488 77 380.483 77 380.478 77C380.473 77 380.467 77 380.462 77C380.457 77 380.452 77 380.447 77C380.442 77 380.437 77 380.431 77C380.426 77 380.421 77 380.416 77C380.411 77 380.406 77 380.401 77C380.395 77 380.39 77 380.385 77C380.38 77 380.375 77 380.37 77C380.365 77 380.359 77 380.354 77C380.349 77 380.344 77 380.339 77C380.334 77 380.328 77 380.323 77C380.318 77 380.313 77 380.308 77C380.303 77 380.297 77 380.292 77C380.287 77 380.282 77 380.277 77C380.272 77 380.266 77 380.261 77C380.256 77 380.251 77 380.246 77C380.241 77 380.235 77 380.23 77C380.225 77 380.22 77 380.215 77C380.21 77 380.204 77 380.199 77C380.194 77 380.189 77 380.184 77C380.178 77 380.173 77 380.168 77C380.163 77 380.158 77 380.152 77C380.147 77 380.142 77 380.137 77C380.132 77 380.126 77 380.121 77C380.116 77 380.111 77 380.106 77C380.1 77 380.095 77 380.09 77C380.085 77 380.08 77 380.074 77C380.069 77 380.064 77 380.059 77C380.054 77 380.048 77 380.043 77C380.038 77 380.033 77 380.027 77C380.022 77 380.017 77 380.012 77C380.007 77 380.001 77 379.996 77C379.991 77 379.986 77 379.98 77C379.975 77 379.97 77 379.965 77C379.959 77 379.954 77 379.949 77C379.944 77 379.939 77 379.933 77C379.928 77 379.923 77 379.918 77C379.912 77 379.907 77 379.902 77C379.897 77 379.891 77 379.886 77C379.881 77 379.876 77 379.87 77C379.865 77 379.86 77 379.855 77C379.849 77 379.844 77 379.839 77C379.834 77 379.828 77 379.823 77C379.818 77 379.813 77 379.807 77C379.802 77 379.797 77 379.791 77C379.786 77 379.781 77 379.776 77C379.77 77 379.765 77 379.76 77C379.755 77 379.749 77 379.744 77C379.739 77 379.733 77 379.728 77C379.723 77 379.718 77 379.712 77C379.707 77 379.702 77 379.696 77C379.691 77 379.686 77 379.681 77C379.675 77 379.67 77 379.665 77C379.659 77 379.654 77 379.649 77C379.644 77 379.638 77 379.633 77C379.628 77 379.622 77 379.617 77C379.612 77 379.606 77 379.601 77C379.596 77 379.591 77 379.585 77C379.58 77 379.575 77 379.569 77C379.564 77 379.559 77 379.553 77C379.548 77 379.543 77 379.537 77C379.532 77 379.527 77 379.521 77C379.516 77 379.511 77 379.506 77C379.5 77 379.495 77 379.49 77C379.484 77 379.479 77 379.474 77C379.468 77 379.463 77 379.458 77C379.452 77 379.447 77 379.442 77C379.436 77 379.431 77 379.426 77C379.42 77 379.415 77 379.41 77C379.404 77 379.399 77 379.394 77C379.388 77 379.383 77 379.377 77C379.372 77 379.367 77 379.361 77C379.356 77 379.351 77 379.345 77C379.34 77 379.335 77 379.329 77C379.324 77 379.319 77 379.313 77C379.308 77 379.303 77 379.297 77C379.292 77 379.286 77 379.281 77C379.276 77 379.27 77 379.265 77C379.26 77 379.254 77 379.249 77C379.243 77 379.238 77 379.233 77C379.227 77 379.222 77 379.217 77C379.211 77 379.206 77 379.2 77C379.195 77 379.19 77 379.184 77C379.179 77 379.174 77 379.168 77C379.163 77 379.157 77 379.152 77C379.147 77 379.141 77 379.136 77C379.13 77 379.125 77 379.12 77C379.114 77 379.109 77 379.103 77C379.098 77 379.093 77 379.087 77C379.082 77 379.076 77 379.071 77C379.066 77 379.06 77 379.055 77C379.049 77 379.044 77 379.039 77C379.033 77 379.028 77 379.022 77C379.017 77 379.011 77 379.006 77C379.001 77 378.995 77 378.99 77C378.984 77 378.979 77 378.974 77C378.968 77 378.963 77 378.957 77C378.952 77 378.946 77 378.941 77C378.936 77 378.93 77 378.925 77C378.919 77 378.914 77 378.908 77C378.903 77 378.897 77 378.892 77C378.887 77 378.881 77 378.876 77C378.87 77 378.865 77 378.859 77C378.854 77 378.848 77 378.843 77C378.838 77 378.832 77 378.827 77C378.821 77 378.816 77 378.81 77C378.805 77 378.799 77 378.794 77C378.788 77 378.783 77 378.778 77C378.772 77 378.767 77 378.761 77C378.756 77 378.75 77 378.745 77C378.739 77 378.734 77 378.728 77C378.723 77 378.717 77 378.712 77C378.706 77 378.701 77 378.695 77C378.69 77 378.685 77 378.679 77C378.674 77 378.668 77 378.663 77C378.657 77 378.652 77 378.646 77C378.641 77 378.635 77 378.63 77C378.624 77 378.619 77 378.613 77C378.608 77 378.602 77 378.597 77C378.591 77 378.586 77 378.58 77C378.575 77 378.569 77 378.564 77C378.558 77 378.553 77 378.547 77C378.542 77 378.536 77 378.531 77C378.525 77 378.52 77 378.514 77C378.509 77 378.503 77 378.498 77C378.492 77 378.487 77 378.481 77C378.476 77 378.47 77 378.465 77C378.459 77 378.453 77 378.448 77C378.442 77 378.437 77 378.431 77C378.426 77 378.42 77 378.415 77C378.409 77 378.404 77 378.398 77C378.393 77 378.387 77 378.382 77C378.376 77 378.37 77 378.365 77C378.359 77 378.354 77 378.348 77C378.343 77 378.337 77 378.332 77C378.326 77 378.321 77 378.315 77C378.31 77 378.304 77 378.298 77C378.293 77 378.287 77 378.282 77C378.276 77 378.271 77 378.265 77C378.26 77 378.254 77 378.248 77C378.243 77 378.237 77 378.232 77C378.226 77 378.221 77 378.215 77C378.209 77 378.204 77 378.198 77C378.193 77 378.187 77 378.182 77C378.176 77 378.17 77 378.165 77C378.159 77 378.154 77 378.148 77C378.143 77 378.137 77 378.131 77C378.126 77 378.12 77 378.115 77C378.109 77 378.103 77 378.098 77C378.092 77 378.087 77 378.081 77C378.075 77 378.07 77 378.064 77C378.059 77 378.053 77 378.048 77C378.042 77 378.036 77 378.031 77C378.025 77 378.02 77 378.014 77C378.008 77 378.003 77 377.997 77C377.991 77 377.986 77 377.98 77C377.975 77 377.969 77 377.963 77C377.958 77 377.952 77 377.947 77C377.941 77 377.935 77 377.93 77C377.924 77 377.918 77 377.913 77C377.907 77 377.902 77 377.896 77C377.89 77 377.885 77 377.879 77C377.873 77 377.868 77 377.862 77C377.857 77 377.851 77 377.845 77C377.84 77 377.834 77 377.828 77C377.823 77 377.817 77 377.811 77C377.806 77 377.8 77 377.795 77C377.789 77 377.783 77 377.778 77C377.772 77 377.766 77 377.761 77C377.755 77 377.749 77 377.744 77C377.738 77 377.732 77 377.727 77C377.721 77 377.715 77 377.71 77C377.704 77 377.698 77 377.693 77C377.687 77 377.681 77 377.676 77C377.67 77 377.664 77 377.659 77C377.653 77 377.647 77 377.642 77C377.636 77 377.63 77 377.625 77C377.619 77 377.613 77 377.608 77C377.602 77 377.596 77 377.591 77C377.585 77 377.579 77 377.574 77C377.568 77 377.562 77 377.557 77C377.551 77 377.545 77 377.539 77C377.534 77 377.528 77 377.522 77C377.517 77 377.511 77 377.505 77C377.5 77 377.494 77 377.488 77C377.482 77 377.477 77 377.471 77C377.465 77 377.46 77 377.454 77C377.448 77 377.443 77 377.437 77C377.431 77 377.425 77 377.42 77C377.414 77 377.408 77 377.403 77C377.397 77 377.391 77 377.385 77C377.38 77 377.374 77 377.368 77C377.363 77 377.357 77 377.351 77C377.345 77 377.34 77 377.334 77C377.328 77 377.322 77 377.317 77C377.311 77 377.305 77 377.299 77C377.294 77 377.288 77 377.282 77C377.277 77 377.271 77 377.265 77C377.259 77 377.254 77 377.248 77C377.242 77 377.236 77 377.231 77C377.225 77 377.219 77 377.213 77C377.208 77 377.202 77 377.196 77C377.19 77 377.185 77 377.179 77C377.173 77 377.167 77 377.162 77C377.156 77 377.15 77 377.144 77C377.139 77 377.133 77 377.127 77C377.121 77 377.115 77 377.11 77C377.104 77 377.098 77 377.092 77C377.087 77 377.081 77 377.075 77C377.069 77 377.063 77 377.058 77C377.052 77 377.046 77 377.04 77C377.035 77 377.029 77 377.023 77C377.017 77 377.011 77 377.006 77C377 77 376.994 77 376.988 77C376.983 77 376.977 77 376.971 77C376.965 77 376.959 77 376.954 77C376.948 77 376.942 77 376.936 77C376.93 77 376.925 77 376.919 77C376.913 77 376.907 77 376.901 77C376.896 77 376.89 77 376.884 77C376.878 77 376.872 77 376.866 77C376.861 77 376.855 77 376.849 77C376.843 77 376.837 77 376.832 77V79C376.837 79 376.843 79 376.849 79C376.855 79 376.861 79 376.866 79C376.872 79 376.878 79 376.884 79C376.89 79 376.896 79 376.901 79C376.907 79 376.913 79 376.919 79C376.925 79 376.93 79 376.936 79C376.942 79 376.948 79 376.954 79C376.959 79 376.965 79 376.971 79C376.977 79 376.983 79 376.988 79C376.994 79 377 79 377.006 79C377.011 79 377.017 79 377.023 79C377.029 79 377.035 79 377.04 79C377.046 79 377.052 79 377.058 79C377.063 79 377.069 79 377.075 79C377.081 79 377.087 79 377.092 79C377.098 79 377.104 79 377.11 79C377.115 79 377.121 79 377.127 79C377.133 79 377.139 79 377.144 79C377.15 79 377.156 79 377.162 79C377.167 79 377.173 79 377.179 79C377.185 79 377.19 79 377.196 79C377.202 79 377.208 79 377.213 79C377.219 79 377.225 79 377.231 79C377.236 79 377.242 79 377.248 79C377.254 79 377.259 79 377.265 79C377.271 79 377.277 79 377.282 79C377.288 79 377.294 79 377.299 79C377.305 79 377.311 79 377.317 79C377.322 79 377.328 79 377.334 79C377.34 79 377.345 79 377.351 79C377.357 79 377.363 79 377.368 79C377.374 79 377.38 79 377.385 79C377.391 79 377.397 79 377.403 79C377.408 79 377.414 79 377.42 79C377.425 79 377.431 79 377.437 79C377.443 79 377.448 79 377.454 79C377.46 79 377.465 79 377.471 79C377.477 79 377.482 79 377.488 79C377.494 79 377.5 79 377.505 79C377.511 79 377.517 79 377.522 79C377.528 79 377.534 79 377.539 79C377.545 79 377.551 79 377.557 79C377.562 79 377.568 79 377.574 79C377.579 79 377.585 79 377.591 79C377.596 79 377.602 79 377.608 79C377.613 79 377.619 79 377.625 79C377.63 79 377.636 79 377.642 79C377.647 79 377.653 79 377.659 79C377.664 79 377.67 79 377.676 79C377.681 79 377.687 79 377.693 79C377.698 79 377.704 79 377.71 79C377.715 79 377.721 79 377.727 79C377.732 79 377.738 79 377.744 79C377.749 79 377.755 79 377.761 79C377.766 79 377.772 79 377.778 79C377.783 79 377.789 79 377.795 79C377.8 79 377.806 79 377.811 79C377.817 79 377.823 79 377.828 79C377.834 79 377.84 79 377.845 79C377.851 79 377.857 79 377.862 79C377.868 79 377.873 79 377.879 79C377.885 79 377.89 79 377.896 79C377.902 79 377.907 79 377.913 79C377.918 79 377.924 79 377.93 79C377.935 79 377.941 79 377.947 79C377.952 79 377.958 79 377.963 79C377.969 79 377.975 79 377.98 79C377.986 79 377.991 79 377.997 79C378.003 79 378.008 79 378.014 79C378.02 79 378.025 79 378.031 79C378.036 79 378.042 79 378.048 79C378.053 79 378.059 79 378.064 79C378.07 79 378.075 79 378.081 79C378.087 79 378.092 79 378.098 79C378.103 79 378.109 79 378.115 79C378.12 79 378.126 79 378.131 79C378.137 79 378.143 79 378.148 79C378.154 79 378.159 79 378.165 79C378.17 79 378.176 79 378.182 79C378.187 79 378.193 79 378.198 79C378.204 79 378.209 79 378.215 79C378.221 79 378.226 79 378.232 79C378.237 79 378.243 79 378.248 79C378.254 79 378.26 79 378.265 79C378.271 79 378.276 79 378.282 79C378.287 79 378.293 79 378.298 79C378.304 79 378.31 79 378.315 79C378.321 79 378.326 79 378.332 79C378.337 79 378.343 79 378.348 79C378.354 79 378.359 79 378.365 79C378.37 79 378.376 79 378.382 79C378.387 79 378.393 79 378.398 79C378.404 79 378.409 79 378.415 79C378.42 79 378.426 79 378.431 79C378.437 79 378.442 79 378.448 79C378.453 79 378.459 79 378.465 79C378.47 79 378.476 79 378.481 79C378.487 79 378.492 79 378.498 79C378.503 79 378.509 79 378.514 79C378.52 79 378.525 79 378.531 79C378.536 79 378.542 79 378.547 79C378.553 79 378.558 79 378.564 79C378.569 79 378.575 79 378.58 79C378.586 79 378.591 79 378.597 79C378.602 79 378.608 79 378.613 79C378.619 79 378.624 79 378.63 79C378.635 79 378.641 79 378.646 79C378.652 79 378.657 79 378.663 79C378.668 79 378.674 79 378.679 79C378.685 79 378.69 79 378.695 79C378.701 79 378.706 79 378.712 79C378.717 79 378.723 79 378.728 79C378.734 79 378.739 79 378.745 79C378.75 79 378.756 79 378.761 79C378.767 79 378.772 79 378.778 79C378.783 79 378.788 79 378.794 79C378.799 79 378.805 79 378.81 79C378.816 79 378.821 79 378.827 79C378.832 79 378.838 79 378.843 79C378.848 79 378.854 79 378.859 79C378.865 79 378.87 79 378.876 79C378.881 79 378.887 79 378.892 79C378.897 79 378.903 79 378.908 79C378.914 79 378.919 79 378.925 79C378.93 79 378.936 79 378.941 79C378.946 79 378.952 79 378.957 79C378.963 79 378.968 79 378.974 79C378.979 79 378.984 79 378.99 79C378.995 79 379.001 79 379.006 79C379.011 79 379.017 79 379.022 79C379.028 79 379.033 79 379.039 79C379.044 79 379.049 79 379.055 79C379.06 79 379.066 79 379.071 79C379.076 79 379.082 79 379.087 79C379.093 79 379.098 79 379.103 79C379.109 79 379.114 79 379.12 79C379.125 79 379.13 79 379.136 79C379.141 79 379.147 79 379.152 79C379.157 79 379.163 79 379.168 79C379.174 79 379.179 79 379.184 79C379.19 79 379.195 79 379.2 79C379.206 79 379.211 79 379.217 79C379.222 79 379.227 79 379.233 79C379.238 79 379.243 79 379.249 79C379.254 79 379.26 79 379.265 79C379.27 79 379.276 79 379.281 79C379.286 79 379.292 79 379.297 79C379.303 79 379.308 79 379.313 79C379.319 79 379.324 79 379.329 79C379.335 79 379.34 79 379.345 79C379.351 79 379.356 79 379.361 79C379.367 79 379.372 79 379.377 79C379.383 79 379.388 79 379.394 79C379.399 79 379.404 79 379.41 79C379.415 79 379.42 79 379.426 79C379.431 79 379.436 79 379.442 79C379.447 79 379.452 79 379.458 79C379.463 79 379.468 79 379.474 79C379.479 79 379.484 79 379.49 79C379.495 79 379.5 79 379.506 79C379.511 79 379.516 79 379.521 79C379.527 79 379.532 79 379.537 79C379.543 79 379.548 79 379.553 79C379.559 79 379.564 79 379.569 79C379.575 79 379.58 79 379.585 79C379.591 79 379.596 79 379.601 79C379.606 79 379.612 79 379.617 79C379.622 79 379.628 79 379.633 79C379.638 79 379.644 79 379.649 79C379.654 79 379.659 79 379.665 79C379.67 79 379.675 79 379.681 79C379.686 79 379.691 79 379.696 79C379.702 79 379.707 79 379.712 79C379.718 79 379.723 79 379.728 79C379.733 79 379.739 79 379.744 79C379.749 79 379.755 79 379.76 79C379.765 79 379.77 79 379.776 79C379.781 79 379.786 79 379.791 79C379.797 79 379.802 79 379.807 79C379.813 79 379.818 79 379.823 79C379.828 79 379.834 79 379.839 79C379.844 79 379.849 79 379.855 79C379.86 79 379.865 79 379.87 79C379.876 79 379.881 79 379.886 79C379.891 79 379.897 79 379.902 79C379.907 79 379.912 79 379.918 79C379.923 79 379.928 79 379.933 79C379.939 79 379.944 79 379.949 79C379.954 79 379.959 79 379.965 79C379.97 79 379.975 79 379.98 79C379.986 79 379.991 79 379.996 79C380.001 79 380.007 79 380.012 79C380.017 79 380.022 79 380.027 79C380.033 79 380.038 79 380.043 79C380.048 79 380.054 79 380.059 79C380.064 79 380.069 79 380.074 79C380.08 79 380.085 79 380.09 79C380.095 79 380.1 79 380.106 79C380.111 79 380.116 79 380.121 79C380.126 79 380.132 79 380.137 79C380.142 79 380.147 79 380.152 79C380.158 79 380.163 79 380.168 79C380.173 79 380.178 79 380.184 79C380.189 79 380.194 79 380.199 79C380.204 79 380.21 79 380.215 79C380.22 79 380.225 79 380.23 79C380.235 79 380.241 79 380.246 79C380.251 79 380.256 79 380.261 79C380.266 79 380.272 79 380.277 79C380.282 79 380.287 79 380.292 79C380.297 79 380.303 79 380.308 79C380.313 79 380.318 79 380.323 79C380.328 79 380.334 79 380.339 79C380.344 79 380.349 79 380.354 79C380.359 79 380.365 79 380.37 79C380.375 79 380.38 79 380.385 79C380.39 79 380.395 79 380.401 79C380.406 79 380.411 79 380.416 79C380.421 79 380.426 79 380.431 79C380.437 79 380.442 79 380.447 79C380.452 79 380.457 79 380.462 79C380.467 79 380.473 79 380.478 79C380.483 79 380.488 79 380.493 79C380.498 79 380.503 79 380.508 79C380.514 79 380.519 79 380.524 79C380.529 79 380.534 79 380.539 79C380.544 79 380.549 79 380.555 79C380.56 79 380.565 79 380.57 79C380.575 79 380.58 79 380.585 79C380.59 79 380.595 79 380.601 79C380.606 79 380.611 79 380.616 79C380.621 79 380.626 79 380.631 79C380.636 79 380.641 79 380.646 79C380.652 79 380.657 79 380.662 79C380.667 79 380.672 79 380.677 79C380.682 79 380.687 79 380.692 79C380.697 79 380.702 79 380.708 79C380.713 79 380.718 79 380.723 79C380.728 79 380.733 79 380.738 79C380.743 79 380.748 79 380.753 79C380.758 79 380.763 79 380.768 79C380.774 79 380.779 79 380.784 79C380.789 79 380.794 79 380.799 79C380.804 79 380.809 79 380.814 79C380.819 79 380.824 79 380.829 79C380.834 79 380.839 79 380.844 79C380.849 79 380.855 79 380.86 79C380.865 79 380.87 79 380.875 79C380.88 79 380.885 79 380.89 79C380.895 79 380.9 79 380.905 79C380.91 79 380.915 79 380.92 79C380.925 79 380.93 79 380.935 79C380.94 79 380.945 79 380.95 79C380.955 79 380.96 79 380.965 79C380.97 79 380.976 79 380.981 79C380.986 79 380.991 79 380.996 79C381.001 79 381.006 79 381.011 79C381.016 79 381.021 79 381.026 79C381.031 79 381.036 79 381.041 79C381.046 79 381.051 79 381.056 79C381.061 79 381.066 79 381.071 79C381.076 79 381.081 79 381.086 79C381.091 79 381.096 79 381.101 79C381.106 79 381.111 79 381.116 79C381.121 79 381.126 79 381.131 79C381.136 79 381.141 79 381.146 79C381.151 79 381.156 79 381.161 79C381.166 79 381.171 79 381.176 79C381.181 79 381.186 79 381.191 79C381.196 79 381.201 79 381.206 79C381.211 79 381.216 79 381.221 79C381.226 79 381.231 79 381.236 79C381.241 79 381.246 79 381.251 79C381.256 79 381.261 79 381.265 79C381.27 79 381.275 79 381.28 79C381.285 79 381.29 79 381.295 79C381.3 79 381.305 79 381.31 79C381.315 79 381.32 79 381.325 79C381.33 79 381.335 79 381.34 79C381.345 79 381.35 79 381.355 79C381.36 79 381.365 79 381.37 79C381.375 79 381.38 79 381.384 79C381.389 79 381.394 79 381.399 79C381.404 79 381.409 79 381.414 79C381.419 79 381.424 79 381.429 79C381.434 79 381.439 79 381.444 79C381.449 79 381.454 79 381.459 79C381.463 79 381.468 79 381.473 79C381.478 79 381.483 79 381.488 79C381.493 79 381.498 79 381.503 79C381.508 79 381.513 79 381.518 79C381.523 79 381.527 79 381.532 79C381.537 79 381.542 79 381.547 79C381.552 79 381.557 79 381.562 79C381.567 79 381.572 79 381.577 79C381.581 79 381.586 79 381.591 79C381.596 79 381.601 79 381.606 79C381.611 79 381.616 79 381.621 79C381.626 79 381.63 79 381.635 79C381.64 79 381.645 79 381.65 79C381.655 79 381.66 79 381.665 79C381.67 79 381.674 79 381.679 79C381.684 79 381.689 79 381.694 79C381.699 79 381.704 79 381.709 79C381.713 79 381.718 79 381.723 79C381.728 79 381.733 79 381.738 79C381.743 79 381.748 79 381.752 79C381.757 79 381.762 79 381.767 79C381.772 79 381.777 79 381.782 79C381.786 79 381.791 79 381.796 79C381.801 79 381.806 79 381.811 79C381.816 79 381.82 79 381.825 79C381.83 79 381.835 79 381.84 79C381.845 79 381.85 79 381.854 79C381.859 79 381.864 79 381.869 79C381.874 79 381.879 79 381.883 79C381.888 79 381.893 79 381.898 79C381.903 79 381.908 79 381.912 79C381.917 79 381.922 79 381.927 79C381.932 79 381.937 79 381.941 79C381.946 79 381.951 79 381.956 79C381.961 79 381.966 79 381.97 79C381.975 79 381.98 79 381.985 79C381.99 79 381.994 79 381.999 79C382.004 79 382.009 79 382.014 79C382.019 79 382.023 79 382.028 79C382.033 79 382.038 79 382.043 79C382.047 79 382.052 79 382.057 79C382.062 79 382.067 79 382.071 79C382.076 79 382.081 79 382.086 79C382.091 79 382.095 79 382.1 79C382.105 79 382.11 79 382.115 79C382.119 79 382.124 79 382.129 79C382.134 79 382.138 79 382.143 79C382.148 79 382.153 79 382.158 79C382.162 79 382.167 79 382.172 79C382.177 79 382.181 79 382.186 79C382.191 79 382.196 79 382.201 79C382.205 79 382.21 79 382.215 79C382.22 79 382.224 79 382.229 79C382.234 79 382.239 79 382.243 79C382.248 79 382.253 79 382.258 79C382.263 79 382.267 79 382.272 79C382.277 79 382.282 79 382.286 79C382.291 79 382.296 79 382.301 79C382.305 79 382.31 79 382.315 79C382.32 79 382.324 79 382.329 79C382.334 79 382.339 79 382.343 79C382.348 79 382.353 79 382.357 79C382.362 79 382.367 79 382.372 79C382.376 79 382.381 79 382.386 79C382.391 79 382.395 79 382.4 79C382.405 79 382.41 79 382.414 79C382.419 79 382.424 79 382.428 79C382.433 79 382.438 79 382.443 79C382.447 79 382.452 79 382.457 79C382.461 79 382.466 79 382.471 79C382.476 79 382.48 79 382.485 79C382.49 79 382.494 79 382.499 79C382.504 79 382.509 79 382.513 79C382.518 79 382.523 79 382.527 79C382.532 79 382.537 79 382.541 79C382.546 79 382.551 79 382.556 79C382.56 79 382.565 79 382.57 79C382.574 79 382.579 79 382.584 79C382.588 79 382.593 79 382.598 79C382.602 79 382.607 79 382.612 79C382.616 79 382.621 79 382.626 79C382.63 79 382.635 79 382.64 79C382.644 79 382.649 79 382.654 79C382.659 79 382.663 79 382.668 79C382.673 79 382.677 79 382.682 79C382.687 79 382.691 79 382.696 79C382.701 79 382.705 79 382.71 79C382.714 79 382.719 79 382.724 79C382.728 79 382.733 79 382.738 79C382.742 79 382.747 79 382.752 79C382.756 79 382.761 79 382.766 79C382.77 79 382.775 79 382.78 79C382.784 79 382.789 79 382.794 79C382.798 79 382.803 79 382.807 79C382.812 79 382.817 79 382.821 79C382.826 79 382.831 79 382.835 79C382.84 79 382.845 79 382.849 79C382.854 79 382.858 79 382.863 79C382.868 79 382.872 79 382.877 79C382.882 79 382.886 79 382.891 79C382.895 79 382.9 79 382.905 79C382.909 79 382.914 79 382.918 79C382.923 79 382.928 79 382.932 79C382.937 79 382.942 79 382.946 79C382.951 79 382.955 79 382.96 79C382.965 79 382.969 79 382.974 79C382.978 79 382.983 79 382.988 79C382.992 79 382.997 79 383.001 79C383.006 79 383.011 79 383.015 79C383.02 79 383.024 79 383.029 79C383.033 79 383.038 79 383.043 79C383.047 79 383.052 79 383.056 79C383.061 79 383.066 79 383.07 79C383.075 79 383.079 79 383.084 79C383.088 79 383.093 79 383.098 79C383.102 79 383.107 79 383.111 79C383.116 79 383.12 79 383.125 79C383.13 79 383.134 79 383.139 79C383.143 79 383.148 79 383.152 79C383.157 79 383.162 79 383.166 79C383.171 79 383.175 79 383.18 79C383.184 79 383.189 79 383.193 79C383.198 79 383.202 79 383.207 79C383.212 79 383.216 79 383.221 79C383.225 79 383.23 79 383.234 79C383.239 79 383.243 79 383.248 79C383.252 79 383.257 79 383.262 79C383.266 79 383.271 79 383.275 79C383.28 79 383.284 79 383.289 79C383.293 79 383.298 79 383.302 79C383.307 79 383.311 79 383.316 79C383.32 79 383.325 79 383.329 79C383.334 79 383.338 79 383.343 79C383.348 79 383.352 79 383.357 79C383.361 79 383.366 79 383.37 79C383.375 79 383.379 79 383.384 79C383.388 79 383.393 79 383.397 79C383.402 79 383.406 79 383.411 79C383.415 79 383.42 79 383.424 79C383.429 79 383.433 79 383.438 79C383.442 79 383.447 79 383.451 79C383.456 79 383.46 79 383.465 79C383.469 79 383.474 79 383.478 79C383.483 79 383.487 79 383.492 79C383.496 79 383.5 79 383.505 79C383.509 79 383.514 79 383.518 79C383.523 79 383.527 79 383.532 79C383.536 79 383.541 79 383.545 79C383.55 79 383.554 79 383.559 79C383.563 79 383.568 79 383.572 79C383.576 79 383.581 79 383.585 79C383.59 79 383.594 79 383.599 79C383.603 79 383.608 79 383.612 79C383.617 79 383.621 79 383.626 79C383.63 79 383.634 79 383.639 79C383.643 79 383.648 79 383.652 79C383.657 79 383.661 79 383.666 79C383.67 79 383.674 79 383.679 79C383.683 79 383.688 79 383.692 79C383.697 79 383.701 79 383.705 79C383.71 79 383.714 79 383.719 79C383.723 79 383.728 79 383.732 79C383.736 79 383.741 79 383.745 79C383.75 79 383.754 79 383.759 79C383.763 79 383.767 79 383.772 79C383.776 79 383.781 79 383.785 79C383.79 79 383.794 79 383.798 79C383.803 79 383.807 79 383.812 79C383.816 79 383.82 79 383.825 79C383.829 79 383.834 79 383.838 79C383.842 79 383.847 79 383.851 79C383.856 79 383.86 79 383.864 79C383.869 79 383.873 79 383.878 79C383.882 79 383.886 79 383.891 79C383.895 79 383.9 79 383.904 79C383.908 79 383.913 79 383.917 79C383.921 79 383.926 79 383.93 79C383.935 79 383.939 79 383.943 79C383.948 79 383.952 79 383.957 79C383.961 79 383.965 79 383.97 79C383.974 79 383.978 79 383.983 79C383.987 79 383.991 79 383.996 79C384 79 384.005 79 384.009 79C384.013 79 384.018 79 384.022 79C384.026 79 384.031 79 384.035 79C384.039 79 384.044 79 384.048 79C384.052 79 384.057 79 384.061 79C384.066 79 384.07 79 384.074 79C384.079 79 384.083 79 384.087 79C384.092 79 384.096 79 384.1 79C384.105 79 384.109 79 384.113 79C384.118 79 384.122 79 384.126 79C384.131 79 384.135 79 384.139 79C384.144 79 384.148 79 384.152 79C384.157 79 384.161 79 384.165 79C384.17 79 384.174 79 384.178 79C384.183 79 384.187 79 384.191 79C384.196 79 384.2 79 384.204 79C384.208 79 384.213 79 384.217 79C384.221 79 384.226 79 384.23 79C384.234 79 384.239 79 384.243 79C384.247 79 384.252 79 384.256 79C384.26 79 384.264 79 384.269 79C384.273 79 384.277 79 384.282 79C384.286 79 384.29 79 384.295 79C384.299 79 384.303 79 384.307 79C384.312 79 384.316 79 384.32 79C384.325 79 384.329 79 384.333 79C384.337 79 384.342 79 384.346 79C384.35 79 384.355 79 384.359 79C384.363 79 384.367 79 384.372 79C384.376 79 384.38 79 384.384 79C384.389 79 384.393 79 384.397 79C384.402 79 384.406 79 384.41 79C384.414 79 384.419 79 384.423 79C384.427 79 384.431 79 384.436 79C384.44 79 384.444 79 384.448 79C384.453 79 384.457 79 384.461 79C384.465 79 384.47 79 384.474 79C384.478 79 384.482 79 384.487 79C384.491 79 384.495 79 384.499 79C384.504 79 384.508 79 384.512 79C384.516 79 384.521 79 384.525 79C384.529 79 384.533 79 384.538 79C384.542 79 384.546 79 384.55 79V77ZM377.396 77.1742C376.198 76.3564 375.344 75.2188 374.833 73.7172L372.939 74.361C373.58 76.2447 374.689 77.7478 376.268 78.8258L377.396 77.1742ZM374.833 73.7172C374.316 72.1952 374.023 69.4311 374.023 65.3047H372.023C372.023 69.4387 372.306 72.4976 372.939 74.361L374.833 73.7172ZM374.023 65.3047V61.3438H372.023V65.3047H374.023ZM374.023 61.3438V57.3828H372.023V61.3438H374.023ZM374.023 57.3828V55.3516H372.023V57.3828H374.023ZM374.023 55.3751L374.632 29.4766L372.633 29.4296L372.023 55.328L374.023 55.3751ZM373.632 28.4531H365.203V30.4531H373.632V28.4531ZM433.804 11.0195L432.806 10.9572L432.762 11.6563L433.404 11.9362L433.804 11.0195ZM433.855 10.207L433.905 9.20828L432.918 9.15896L432.857 10.1447L433.855 10.207ZM436.851 10.3594L436.919 9.36168L436.91 9.36111L436.902 9.36069L436.851 10.3594ZM456.046 10.207H457.046V9.17068L456.011 9.20767L456.046 10.207ZM456.046 11.0195L456.242 12.0001L457.046 11.8393V11.0195H456.046ZM452.238 19.8047L451.271 20.0592L451.273 20.0671L451.275 20.0749L452.238 19.8047ZM454.37 25.8984L453.446 26.2799L453.447 26.2811L454.37 25.8984ZM468.843 60.8359L467.919 61.2186L468.863 63.4968L469.773 61.2048L468.843 60.8359ZM489.562 8.63281V7.63281H488.883L488.632 8.26392L489.562 8.63281ZM490.374 8.63281L491.293 8.23717L491.032 7.63281H490.374V8.63281ZM512.82 60.7344L511.901 61.13L512.922 63.4982L513.765 61.0614L512.82 60.7344ZM523.433 30.0625L522.49 29.7297L522.488 29.7355L523.433 30.0625ZM525.312 23.1562L524.332 22.9574L524.33 22.9685L525.312 23.1562ZM524.703 12.8477L523.924 13.4754L523.93 13.4829L523.936 13.4903L524.703 12.8477ZM520.742 11.0195H519.742V11.9296L520.648 12.0151L520.742 11.0195ZM520.742 10.3086L520.804 9.31054L519.742 9.24414V10.3086H520.742ZM525.464 10.5625L525.42 11.5615L525.431 11.562L525.442 11.5623L525.464 10.5625ZM534.605 10.5625L534.628 11.5622L534.639 11.562L534.65 11.5615L534.605 10.5625ZM539.023 10.3086H540.023V9.2364L538.953 9.31102L539.023 10.3086ZM539.023 11.0195L539.187 12.0059L540.023 11.8667V11.0195H539.023ZM532.828 17.5195L531.959 17.0234L531.958 17.0258L532.828 17.5195ZM524.398 37.0195L523.461 36.6707L523.46 36.6716L524.398 37.0195ZM508.453 79.9805V80.9805H509.148L509.39 80.3284L508.453 79.9805ZM508.046 79.9805L507.121 80.3601L507.376 80.9805H508.046V79.9805ZM485.601 25.2891L486.526 24.9094L485.582 22.6082L484.67 24.9227L485.601 25.2891ZM464.07 79.9805V80.9805H464.751L465 80.3468L464.07 79.9805ZM463.663 79.9805L462.732 80.3433L462.98 80.9805H463.663V79.9805ZM441.066 21.9375L441.998 21.5747L441.997 21.5738L441.066 21.9375ZM437.359 14.2695L436.524 14.8201L436.531 14.8304L436.538 14.8406L437.359 14.2695ZM434.802 11.0819L434.853 10.2694L432.857 10.1447L432.806 10.9572L434.802 11.0819ZM433.805 11.2058C434.481 11.2396 435.48 11.2904 436.8 11.3581L436.902 9.36069C435.582 9.29297 434.583 9.24217 433.905 9.20828L433.805 11.2058ZM436.783 11.3571C440.273 11.5943 442.858 11.7148 444.519 11.7148V9.71484C442.93 9.71484 440.403 9.59845 436.919 9.36168L436.783 11.3571ZM444.519 11.7148C446.108 11.7148 448.638 11.6117 452.093 11.4084L451.976 9.41188C448.525 9.61489 446.045 9.71484 444.519 9.71484V11.7148ZM452.093 11.4084C453.817 11.307 455.146 11.2398 456.082 11.2064L456.011 9.20767C455.051 9.24193 453.705 9.31017 451.976 9.41188L452.093 11.4084ZM455.046 10.207V11.0195H457.046V10.207H455.046ZM455.85 10.039C454.106 10.3877 452.69 10.9242 451.803 11.7672L453.18 13.2172C453.647 12.7737 454.601 12.3284 456.242 12.0001L455.85 10.039ZM451.803 11.7672C450.861 12.6618 450.476 13.9327 450.476 15.3867H452.476C452.476 14.2679 452.768 13.609 453.18 13.2172L451.803 11.7672ZM450.476 15.3867C450.476 16.5356 450.758 18.11 451.271 20.0592L453.205 19.5502C452.702 17.64 452.476 16.2691 452.476 15.3867H450.476ZM451.275 20.0749C451.829 22.0476 452.553 24.1161 453.446 26.2799L455.295 25.5169C454.427 23.4151 453.73 21.4212 453.2 19.5344L451.275 20.0749ZM453.447 26.2811L467.919 61.2186L469.767 60.4532L455.294 25.5157L453.447 26.2811ZM469.773 61.2048L490.491 9.00171L488.632 8.26392L467.914 60.467L469.773 61.2048ZM489.562 9.63281H490.374V7.63281H489.562V9.63281ZM489.456 9.02846L511.901 61.13L513.738 60.3387L491.293 8.23717L489.456 9.02846ZM513.765 61.0614L524.378 30.3895L522.488 29.7355L511.875 60.4074L513.765 61.0614ZM524.376 30.3953C525.204 28.0479 525.844 25.6974 526.294 23.344L524.33 22.9685C523.899 25.2193 523.286 27.4729 522.49 29.7297L524.376 30.3953ZM526.292 23.3551C526.772 20.9894 527.023 19.0198 527.023 17.4688H525.023C525.023 18.8291 524.8 20.6512 524.332 22.9574L526.292 23.3551ZM527.023 17.4688C527.023 15.3124 526.558 13.5039 525.469 12.205L523.936 13.4903C524.607 14.2904 525.023 15.5626 525.023 17.4688H527.023ZM525.481 12.2199C524.414 10.8972 522.805 10.2097 520.835 10.024L520.648 12.0151C522.267 12.1679 523.298 12.6992 523.924 13.4754L525.481 12.2199ZM521.742 11.0195V10.3086H519.742V11.0195H521.742ZM520.679 11.3066C522.31 11.4086 523.89 11.4935 525.42 11.5615L525.509 9.56349C523.992 9.49606 522.423 9.41175 520.804 9.31054L520.679 11.3066ZM525.442 11.5623C527.007 11.5963 528.554 11.6133 530.085 11.6133V9.61328C528.569 9.61328 527.036 9.59644 525.486 9.56274L525.442 11.5623ZM530.085 11.6133C531.616 11.6133 533.13 11.5963 534.628 11.5622L534.582 9.56276C533.1 9.59644 531.601 9.61328 530.085 9.61328V11.6133ZM534.65 11.5615C536.148 11.4934 537.628 11.4083 539.092 11.3062L538.953 9.31102C537.506 9.41201 536.041 9.49618 534.559 9.56353L534.65 11.5615ZM538.023 10.3086V11.0195H540.023V10.3086H538.023ZM538.858 10.0331C537.635 10.2371 536.476 11.0319 535.379 12.1831C534.269 13.3477 533.131 14.9728 531.959 17.0234L533.696 18.0157C534.826 16.0376 535.872 14.565 536.827 13.563C537.795 12.5475 538.583 12.1067 539.187 12.0059L538.858 10.0331ZM531.958 17.0258C529.648 21.0941 526.815 27.6572 523.461 36.6707L525.335 37.3683C528.684 28.3714 531.471 21.9345 533.697 18.0133L531.958 17.0258ZM523.46 36.6716L507.515 79.6325L509.39 80.3284L525.335 37.3675L523.46 36.6716ZM508.453 78.9805H508.046V80.9805H508.453V78.9805ZM508.971 79.6008L486.526 24.9094L484.676 25.6687L507.121 80.3601L508.971 79.6008ZM484.67 24.9227L463.139 79.6141L465 80.3468L486.531 25.6554L484.67 24.9227ZM464.07 78.9805H463.663V80.9805H464.07V78.9805ZM464.595 79.6177L441.998 21.5747L440.134 22.3003L462.732 80.3433L464.595 79.6177ZM441.997 21.5738C440.603 18.0039 439.333 15.3567 438.18 13.6985L436.538 14.8406C437.551 16.2969 438.752 18.7618 440.134 22.3012L441.997 21.5738ZM438.194 13.7189C437.071 12.0174 435.75 10.777 434.204 10.1028L433.404 11.9362C434.498 12.4131 435.547 13.3393 436.524 14.8201L438.194 13.7189ZM581.322 70.4336L582.142 71.005L582.144 71.0022L581.322 70.4336ZM554.103 31.2812L553.284 30.7074L553.281 30.7114L554.103 31.2812ZM545.876 30.2656L545.198 29.5305L545.196 29.5325L545.876 30.2656ZM589.548 30.3164L590.235 29.5896L589.548 30.3164ZM545.724 71.2461L545.028 71.9641L545.03 71.9663L545.724 71.2461ZM548.279 50.6289C548.279 59.2981 549.903 66.1163 553.283 70.9555L554.923 69.8102C551.871 65.441 550.279 59.0899 550.279 50.6289H548.279ZM553.283 70.9555C556.698 75.8444 561.584 78.2891 567.814 78.2891V76.2891C562.195 76.2891 557.94 74.1296 554.923 69.8102L553.283 70.9555ZM567.814 78.2891C573.946 78.2891 578.763 75.858 582.142 71.005L580.501 69.8622C577.515 74.1498 573.327 76.2891 567.814 76.2891V78.2891ZM582.144 71.0022C585.488 66.1643 587.095 59.3652 587.095 50.7305H585.095C585.095 59.1582 583.52 65.4945 580.499 69.865L582.144 71.0022ZM587.095 50.7305C587.095 42.1605 585.47 35.4094 582.089 30.6042L580.453 31.7552C583.504 36.0906 585.095 42.3733 585.095 50.7305H587.095ZM582.089 30.6042C578.671 25.7476 573.767 23.3242 567.509 23.3242V25.3242C573.167 25.3242 577.438 27.4711 580.453 31.7552L582.089 30.6042ZM567.509 23.3242C561.497 23.3242 556.722 25.8009 553.284 30.7074L554.922 31.8551C557.984 27.4855 562.146 25.3242 567.509 25.3242V23.3242ZM553.281 30.7114C549.906 35.5779 548.279 42.2546 548.279 50.6289H550.279C550.279 42.4824 551.867 36.2606 554.925 31.8511L553.281 30.7114ZM538.447 50.3242C538.447 42.4235 541.155 36.0098 546.556 30.9987L545.196 29.5325C539.358 34.9485 536.447 41.9072 536.447 50.3242H538.447ZM546.554 31.0008C551.993 25.9855 559.049 23.4453 567.814 23.4453V21.4453C558.636 21.4453 551.067 24.1186 545.198 29.5305L546.554 31.0008ZM567.814 23.4453C576.542 23.4453 583.526 26.0007 588.861 31.0432L590.235 29.5896C584.466 24.1373 576.96 21.4453 567.814 21.4453V23.4453ZM588.861 31.0432C594.192 36.0811 596.876 42.6458 596.876 50.832H598.876C598.876 42.1588 596.009 35.0465 590.235 29.5896L588.861 31.0432ZM596.876 50.832C596.876 59.0514 594.175 65.632 588.813 70.6696L590.182 72.1273C595.991 66.6701 598.876 59.5397 598.876 50.832H596.876ZM588.813 70.6696C583.447 75.7102 576.346 78.2695 567.407 78.2695V80.2695C576.75 80.2695 584.376 77.5815 590.182 72.1273L588.813 70.6696ZM567.407 78.2695C558.719 78.2695 551.754 75.6675 546.418 70.5259L545.03 71.9663C550.797 77.5226 558.288 80.2695 567.407 80.2695V78.2695ZM546.42 70.5281C541.12 65.3907 538.447 58.6879 538.447 50.3242H536.447C536.447 59.1584 539.291 66.4036 545.028 71.9641L546.42 70.5281ZM605.288 78.3047H604.288V79.3691L605.351 79.3027L605.288 78.3047ZM605.288 77.4922L604.991 76.5375L604.288 76.7564V77.4922H605.288ZM610.823 30.1133L609.978 30.6473L609.984 30.6575L610.823 30.1133ZM606.202 27.9805H605.202V28.9225L606.143 28.9787L606.202 27.9805ZM606.202 27.168L606.067 26.1771L605.202 26.2951V27.168H606.202ZM621.081 23.5117H622.081V22.1348L620.772 22.5608L621.081 23.5117ZM621.081 40.3711H620.081L622.011 40.7405L621.081 40.3711ZM629.206 27.8789L629.869 28.6276L629.87 28.6272L629.206 27.8789ZM641.445 23.5625L641.334 24.5564L641.389 24.5625H641.445V23.5625ZM642.257 23.6133L643.211 23.9146L643.558 22.8163L642.421 22.6269L642.257 23.6133ZM638.55 35.3438V36.3438H639.283L639.504 35.6451L638.55 35.3438ZM637.737 35.3438L636.967 35.9806L637.266 36.3438H637.737V35.3438ZM635.503 33.5664L635.056 34.4608L635.063 34.4644L635.07 34.4679L635.503 33.5664ZM624.788 37.6289L623.926 37.1227L623.924 37.1256L624.788 37.6289ZM623.468 73.0234L622.542 73.4021L622.546 73.4106L622.55 73.4191L623.468 73.0234ZM628.8 77.4922L629.798 77.5546L629.848 76.7615L629.086 76.534L628.8 77.4922ZM628.749 78.3047L628.697 79.3033L629.685 79.3553L629.747 78.3671L628.749 78.3047ZM623.011 78.0508L623.047 77.0514L623.038 77.0511L623.029 77.0509L623.011 78.0508ZM610.366 78.0508L610.347 77.051L610.338 77.0512L610.328 77.0515L610.366 78.0508ZM606.288 78.3047V77.4922H604.288V78.3047H606.288ZM605.586 78.4469C608.445 77.5556 610.472 75.807 611.545 73.2011L609.696 72.4396C608.873 74.4378 607.345 75.8038 604.991 76.5375L605.586 78.4469ZM611.545 73.2011C612.081 71.8993 612.445 69.847 612.683 67.1444C612.923 64.4123 613.042 60.9186 613.042 56.6719H611.042C611.042 60.8887 610.924 64.3182 610.691 66.9689C610.455 69.6491 610.108 71.4392 609.696 72.4396L611.545 73.2011ZM613.042 56.6719V54.1836H611.042V56.6719H613.042ZM613.042 54.1836V38.5938H611.042V54.1836H613.042ZM613.042 38.5938C613.042 36.3681 612.94 34.5091 612.727 33.0306C612.519 31.5812 612.19 30.3832 611.662 29.5691L609.984 30.6575C610.269 31.0959 610.55 31.9376 610.748 33.3151C610.941 34.6634 611.042 36.4183 611.042 38.5938H613.042ZM611.669 29.5793C610.612 27.9053 608.686 27.1269 606.262 26.9822L606.143 28.9787C608.255 29.1048 609.41 29.7484 609.978 30.6473L611.669 29.5793ZM607.202 27.9805V27.168H605.202V27.9805H607.202ZM606.337 28.1588C608.612 27.8487 610.984 27.3843 613.453 26.767L612.968 24.8267C610.562 25.4282 608.262 25.8779 606.067 26.1771L606.337 28.1588ZM613.453 26.767C615.916 26.1511 618.562 25.3827 621.391 24.4627L620.772 22.5608C617.98 23.4689 615.379 24.2239 612.968 24.8267L613.453 26.767ZM620.081 23.5117V40.3711H622.081V23.5117H620.081ZM622.011 40.7405C624.139 35.3868 626.77 31.3715 629.869 28.6276L628.543 27.1302C625.142 30.1415 622.357 34.4543 620.152 40.0017L622.011 40.7405ZM629.87 28.6272C632.99 25.8606 636.399 24.5117 640.124 24.5117V22.5117C635.86 22.5117 631.99 24.0743 628.543 27.1306L629.87 28.6272ZM640.124 24.5117C640.689 24.5117 641.085 24.5287 641.334 24.5564L641.555 22.5686C641.195 22.5286 640.711 22.5117 640.124 22.5117V24.5117ZM641.445 24.5625C641.758 24.5625 641.967 24.5788 642.093 24.5997L642.421 22.6269C642.141 22.5801 641.808 22.5625 641.445 22.5625V24.5625ZM641.303 23.312L637.596 35.0424L639.504 35.6451L643.211 23.9146L641.303 23.312ZM638.55 34.3438H637.737V36.3438H638.55V34.3438ZM638.508 34.7069C637.78 33.8252 636.922 33.1385 635.936 32.6649L635.07 34.4679C635.776 34.8068 636.408 35.305 636.967 35.9806L638.508 34.7069ZM635.95 32.672C634.979 32.1863 633.891 31.957 632.71 31.957V33.957C633.629 33.957 634.402 34.1341 635.056 34.4608L635.95 32.672ZM632.71 31.957C628.883 31.957 625.923 33.7194 623.926 37.1227L625.651 38.1351C627.309 35.3092 629.631 33.957 632.71 33.957V31.957ZM623.924 37.1256C622 40.4298 621.097 45.1576 621.097 51.1875H623.097C623.097 45.3008 623.988 40.9895 625.652 38.1322L623.924 37.1256ZM621.097 51.1875V57.2812H623.097V51.1875H621.097ZM621.097 57.2812C621.097 61.4262 621.211 64.835 621.443 67.4989C621.673 70.1332 622.024 72.1345 622.542 73.4021L624.394 72.6448C623.998 71.678 623.663 69.9385 623.436 67.3253C623.211 64.7419 623.097 61.3967 623.097 57.2812H621.097ZM622.55 73.4191C623.631 75.9302 625.666 77.5999 628.514 78.4504L629.086 76.534C626.72 75.8272 625.2 74.5177 624.386 72.6278L622.55 73.4191ZM627.802 77.4298L627.751 78.2423L629.747 78.3671L629.798 77.5546L627.802 77.4298ZM628.802 77.3061C626.867 77.2042 624.948 77.1193 623.047 77.0514L622.975 79.0501C624.865 79.1176 626.772 79.202 628.697 79.3033L628.802 77.3061ZM623.029 77.0509C621.161 77.017 619.259 77 617.323 77V79C619.247 79 621.137 79.0169 622.993 79.0506L623.029 77.0509ZM617.323 77C614.443 77 612.117 77.0169 610.347 77.051L610.386 79.0506C612.137 79.0169 614.449 79 617.323 79V77ZM610.328 77.0515C608.56 77.1195 606.859 77.2045 605.226 77.3066L605.351 79.3027C606.967 79.2017 608.652 79.1175 610.405 79.05L610.328 77.0515ZM646.064 78.3047L645.066 78.3671L645.127 79.3572L646.118 79.3032L646.064 78.3047ZM646.013 77.4922L645.715 76.5375L644.966 76.7711L645.015 77.5546L646.013 77.4922ZM651.345 72.7188L650.419 72.3406L650.416 72.3474L651.345 72.7188ZM646.978 6.85547H645.978V7.79755L646.918 7.85369L646.978 6.85547ZM646.978 6.04297L646.854 5.05069L645.978 5.16019V6.04297H646.978ZM654.646 4.62109L654.415 3.64815L654.412 3.64882L654.646 4.62109ZM663.177 2.18359L664.175 2.24232L664.262 0.773238L662.864 1.23384L663.177 2.18359ZM662.771 46.6172H661.771V48.7803L663.418 47.379L662.771 46.6172ZM675.669 35.6484L675.025 34.8831L675.021 34.8866L675.669 35.6484ZM682.728 25.0859L682.082 25.8493L682.099 25.8644L682.118 25.8786L682.728 25.0859ZM680.443 24.1211H679.443V24.9019L680.2 25.0912L680.443 24.1211ZM680.443 23.5117L680.496 22.5132L679.443 22.4562V23.5117H680.443ZM684.454 23.6641L684.43 24.6638L684.431 24.6638L684.454 23.6641ZM698.622 23.6641L698.602 22.6643L698.622 23.6641ZM703.091 23.5117L704.088 23.4405L704.019 22.4628L703.04 22.513L703.091 23.5117ZM703.142 24.2227L703.326 25.2056L704.203 25.0414L704.139 24.1514L703.142 24.2227ZM681.61 34.9375L682.202 35.7439L682.207 35.7403L681.61 34.9375ZM680.443 35.8008L681.039 36.6035L681.043 36.6008L680.443 35.8008ZM668.001 45.043L667.405 44.2402L665.007 46.0215L667.994 46.0429L668.001 45.043ZM688.974 57.1797L688.151 57.7477L688.155 57.7531L688.974 57.1797ZM692.021 61.6992L691.186 62.2507L691.188 62.2523L692.021 61.6992ZM706.747 77.4922H707.747V76.8869L707.211 76.6062L706.747 77.4922ZM706.747 78.3047L706.695 79.3033L707.747 79.3587V78.3047H706.747ZM702.735 78.1523L702.71 79.152L702.711 79.152L702.735 78.1523ZM692.681 78.1523L692.656 77.1527L692.655 77.1527L692.681 78.1523ZM688.669 78.3047L687.808 78.8124L688.115 79.3337L688.719 79.3034L688.669 78.3047ZM683.997 70.332L683.132 70.8331L683.134 70.8364L683.997 70.332ZM663.634 49.7148L662.769 49.2127L662.763 49.2233L662.757 49.234L663.634 49.7148ZM664.193 72.2617L663.25 72.5958L663.254 72.6063L664.193 72.2617ZM669.728 77.4922H670.728V76.7482L670.015 76.5344L669.728 77.4922ZM669.728 78.3047L669.661 79.3025L670.728 79.3736V78.3047H669.728ZM664.853 78.0508L664.892 77.0515L664.882 77.0512L664.872 77.051L664.853 78.0508ZM651.497 78.0508L651.478 77.051L651.469 77.0511L651.459 77.0515L651.497 78.0508ZM647.062 78.2423L647.011 77.4298L645.015 77.5546L645.066 78.3671L647.062 78.2423ZM646.31 78.4469C649.182 77.552 651.205 75.761 652.273 73.0901L650.416 72.3474C649.589 74.4161 648.058 75.8074 645.715 76.5375L646.31 78.4469ZM652.271 73.0969C652.82 71.7519 653.198 69.7162 653.445 67.0736C653.694 64.4072 653.818 61.0387 653.818 56.9766H651.818C651.818 61.0056 651.695 64.3063 651.454 66.8873C651.21 69.4922 650.851 71.282 650.419 72.3406L652.271 73.0969ZM653.818 56.9766V52.3047H651.818V56.9766H653.818ZM653.818 52.3047V18.9414H651.818V52.3047H653.818ZM653.818 18.9414C653.818 16.1805 653.716 13.9266 653.506 12.1941C653.302 10.5154 652.981 9.15731 652.431 8.33202L650.767 9.44142C651.029 9.83488 651.317 10.762 651.52 12.4348C651.716 14.0539 651.818 16.218 651.818 18.9414H653.818ZM652.431 8.33202C651.366 6.73443 649.442 6.00083 647.037 5.85725L646.918 7.85369C649.05 7.98094 650.207 8.60151 650.767 9.44142L652.431 8.33202ZM647.978 6.85547V6.04297H645.978V6.85547H647.978ZM647.102 7.03525C649.58 6.72543 652.173 6.24429 654.879 5.59337L654.412 3.64882C651.769 4.28436 649.25 4.75113 646.854 5.05069L647.102 7.03525ZM654.877 5.59403C657.616 4.94348 660.487 4.12291 663.49 3.13335L662.864 1.23384C659.908 2.20781 657.092 3.01225 654.415 3.64816L654.877 5.59403ZM662.179 2.12487C662.042 4.4431 661.94 7.19841 661.872 10.3889L663.872 10.4314C663.94 7.25732 664.041 4.52826 664.175 2.24232L662.179 2.12487ZM661.872 10.3889C661.805 13.5807 661.771 17.4984 661.771 22.1406H663.771C663.771 17.5068 663.804 13.6042 663.872 10.4314L661.872 10.3889ZM661.771 22.1406V46.6172H663.771V22.1406H661.771ZM663.418 47.379L676.317 36.4102L675.021 34.8866L662.123 45.8554L663.418 47.379ZM676.313 36.4138C679.295 33.9061 681.389 31.9424 682.536 30.5445L680.99 29.2758C679.97 30.5185 678.002 32.3803 675.025 34.8831L676.313 36.4138ZM682.536 30.5445C683.661 29.1727 684.388 27.8107 684.388 26.5078H682.388C682.388 27.1008 682.031 28.007 680.99 29.2758L682.536 30.5445ZM684.388 26.5078C684.388 25.6228 684.05 24.8414 683.337 24.2933L682.118 25.8786C682.286 26.0076 682.388 26.1741 682.388 26.5078H684.388ZM683.374 24.3226C682.752 23.7962 681.803 23.4304 680.685 23.151L680.2 25.0912C681.249 25.3534 681.824 25.6309 682.082 25.8493L683.374 24.3226ZM681.443 24.1211V23.5117H679.443V24.1211H681.443ZM680.389 24.5103C681.652 24.5786 683 24.6297 684.43 24.6638L684.478 22.6643C683.065 22.6307 681.738 22.5803 680.496 22.5132L680.389 24.5103ZM684.431 24.6638C685.899 24.6979 688.075 24.7148 690.954 24.7148V22.7148C688.078 22.7148 685.921 22.6979 684.477 22.6643L684.431 24.6638ZM690.954 24.7148C694.409 24.7148 696.973 24.6979 698.643 24.6639L698.602 22.6643C696.954 22.6979 694.406 22.7148 690.954 22.7148V24.7148ZM698.643 24.6639C700.309 24.6298 701.809 24.5788 703.142 24.5104L703.04 22.513C701.732 22.5801 700.253 22.6306 698.602 22.6643L698.643 24.6639ZM702.093 23.583L702.144 24.2939L704.139 24.1514L704.088 23.4405L702.093 23.583ZM702.958 23.2397C696.418 24.4638 689.099 28.1308 681.014 34.1347L682.207 35.7403C690.169 29.8275 697.204 26.3513 703.326 25.2056L702.958 23.2397ZM681.019 34.1311C680.51 34.5041 680.118 34.7944 679.843 35.0008L681.043 36.6008C681.309 36.4009 681.695 36.1156 682.202 35.7439L681.019 34.1311ZM679.846 34.998L667.405 44.2402L668.597 45.8457L681.039 36.6035L679.846 34.998ZM667.994 46.0429C672.595 46.076 676.26 46.8877 679.05 48.4091L680.007 46.6534C676.838 44.9248 672.818 44.0776 668.008 44.043L667.994 46.0429ZM679.05 48.4091C681.826 49.9234 684.866 52.9888 688.151 57.7477L689.797 56.6117C686.446 51.756 683.19 48.3891 680.007 46.6534L679.05 48.4091ZM688.155 57.7531C688.858 58.7576 689.867 60.2552 691.186 62.2507L692.855 61.1478C691.533 59.1484 690.512 57.633 689.793 56.6062L688.155 57.7531ZM691.188 62.2523C696.688 70.5367 701.713 75.9858 706.283 78.3782L707.211 76.6062C703.115 74.4621 698.322 69.3826 692.854 61.1461L691.188 62.2523ZM705.747 77.4922V78.3047H707.747V77.4922H705.747ZM706.8 77.3061C705.503 77.2378 704.157 77.1867 702.76 77.1526L702.711 79.152C704.09 79.1857 705.418 79.2361 706.695 79.3033L706.8 77.3061ZM702.76 77.1527C701.394 77.1185 699.505 77.1016 697.099 77.1016V79.1016C699.499 79.1016 701.369 79.1185 702.71 79.152L702.76 77.1527ZM697.099 77.1016C695.501 77.1016 694.02 77.1186 692.656 77.1527L692.706 79.152C694.05 79.1184 695.515 79.1016 697.099 79.1016V77.1016ZM692.655 77.1527C691.327 77.1867 689.981 77.2378 688.619 77.3059L688.719 79.3034C690.065 79.2361 691.394 79.1857 692.706 79.152L692.655 77.1527ZM689.531 77.797C688.414 75.9028 686.858 73.2465 684.861 69.8276L683.134 70.8364C685.131 74.2561 686.689 76.9149 687.808 78.8124L689.531 77.797ZM684.863 69.831C680.572 62.4205 676.956 56.8255 674.019 53.0722C672.552 51.198 671.23 49.7503 670.054 48.762C668.915 47.8052 667.754 47.1406 666.63 47.1406V49.1406C667.012 49.1406 667.705 49.4007 668.767 50.2931C669.791 51.1541 671.016 52.4804 672.444 54.3048C675.296 57.9485 678.857 63.4493 683.132 70.8331L684.863 69.831ZM666.63 47.1406C664.947 47.1406 663.586 47.8054 662.769 49.2127L664.499 50.217C664.9 49.5253 665.537 49.1406 666.63 49.1406V47.1406ZM662.757 49.234C662.05 50.5239 661.771 52.5785 661.771 55.1992H663.771C663.771 52.6064 664.067 51.0048 664.511 50.1957L662.757 49.234ZM661.771 55.1992C661.771 59.5645 661.889 63.1916 662.13 66.0733C662.368 68.9347 662.731 71.1317 663.25 72.5958L665.135 71.9277C664.706 70.7172 664.358 68.7333 664.123 65.9072C663.889 63.1014 663.771 59.5345 663.771 55.1992H661.771ZM663.254 72.6063C664.343 75.5737 666.428 77.5462 669.44 78.45L670.015 76.5344C667.611 75.8131 666.006 74.2987 665.131 71.9171L663.254 72.6063ZM668.728 77.4922V78.3047H670.728V77.4922H668.728ZM669.794 77.3069C668.261 77.2047 666.626 77.1196 664.892 77.0515L664.813 79.05C666.532 79.1174 668.148 79.2016 669.661 79.3025L669.794 77.3069ZM664.872 77.051C663.136 77.0169 660.742 77 657.693 77V79C660.737 79 663.116 79.0169 664.833 79.0506L664.872 77.051ZM657.693 77C655.352 77 653.28 77.017 651.478 77.051L651.516 79.0506C653.303 79.0169 655.361 79 657.693 79V77ZM651.459 77.0515C649.693 77.1194 647.876 77.2043 646.009 77.3062L646.118 79.3032C647.975 79.2019 649.781 79.1175 651.536 79.05L651.459 77.0515ZM709.894 74.5469L708.937 74.2569L708.682 75.0984L709.484 75.459L709.894 74.5469ZM713.448 62.8164V61.8164H712.706L712.491 62.5264L713.448 62.8164ZM714.058 62.8164L715.051 62.7L714.947 61.8164H714.058V62.8164ZM720.71 73.3281L720.147 74.1547L720.152 74.158L720.71 73.3281ZM747.624 73.7344L747.023 72.9354L747.019 72.9385L747.624 73.7344ZM749.401 58.043L748.808 58.8481L748.815 58.8529L749.401 58.043ZM735.183 54.3867L735.046 55.3773L735.049 55.3778L735.183 54.3867ZM718.476 49.1562L717.885 49.9632L718.476 49.1562ZM720.355 26.9141L719.8 26.082L719.797 26.0839L720.355 26.9141ZM749.655 23.2578L749.483 24.2429L749.492 24.2445L749.655 23.2578ZM758.999 25.7969L759.956 26.0882L760.222 25.2151L759.376 24.8708L758.999 25.7969ZM755.952 35.8008V36.8008H756.693L756.909 36.0921L755.952 35.8008ZM755.343 35.8008L754.382 36.0766L754.589 36.8008H755.343V35.8008ZM749.605 27.1172L749.019 27.9281L749.025 27.9323L749.031 27.9364L749.605 27.1172ZM738.89 45.1445L738.991 44.1497L738.99 44.1495L738.89 45.1445ZM757.323 49.8164L756.771 50.6498L756.777 50.6537L757.323 49.8164ZM754.886 74.2422L755.462 75.0593L755.466 75.0567L754.886 74.2422ZM721.472 78.2539L721.274 79.2342L721.276 79.2345L721.472 78.2539ZM710.851 74.8369L714.405 63.1064L712.491 62.5264L708.937 74.2569L710.851 74.8369ZM713.448 63.8164H714.058V61.8164H713.448V63.8164ZM713.064 62.9328C713.609 67.5817 716.005 71.3334 720.147 74.1547L721.273 72.5016C717.561 69.9739 715.522 66.7178 715.051 62.7L713.064 62.9328ZM720.152 74.158C724.281 76.9345 729.414 78.2891 735.487 78.2891V76.2891C729.711 76.2891 724.993 75.003 721.268 72.4983L720.152 74.158ZM735.487 78.2891C740.623 78.2891 744.899 77.0647 748.23 74.5302L747.019 72.9385C744.12 75.1436 740.305 76.2891 735.487 76.2891V78.2891ZM748.225 74.5333C751.602 71.9917 753.347 68.693 753.347 64.6953H751.347C751.347 68.0101 749.943 70.7375 747.023 72.9354L748.225 74.5333ZM753.347 64.6953C753.347 61.4487 752.274 58.8888 749.988 57.233L748.815 58.8529C750.455 60.0409 751.347 61.9159 751.347 64.6953H753.347ZM749.995 57.2379C748.866 56.4067 747.04 55.709 744.649 55.094C742.226 54.471 739.111 53.9062 735.316 53.3956L735.049 55.3778C738.804 55.8829 741.834 56.4352 744.15 57.031C746.498 57.6347 748.007 58.2574 748.808 58.848L749.995 57.2379ZM735.319 53.3961C727.501 52.3178 722.141 50.5998 719.066 48.3493L717.885 49.9632C721.378 52.52 727.156 54.289 735.046 55.3773L735.319 53.3961ZM719.066 48.3493C716.07 46.1561 714.55 43.0199 714.55 38.7969H712.55C712.55 43.5791 714.314 47.3492 717.885 49.9632L719.066 48.3493ZM714.55 38.7969C714.55 34.2996 716.613 30.6317 720.912 27.7442L719.797 26.0839C715.023 29.2902 712.55 33.5441 712.55 38.7969H714.55ZM720.909 27.7461C725.266 24.8414 731.063 23.3438 738.382 23.3438V21.3438C730.805 21.3438 724.583 22.893 719.8 26.082L720.909 27.7461ZM738.382 23.3438C742.361 23.3438 746.06 23.6447 749.483 24.2429L749.827 22.2727C746.277 21.6522 742.461 21.3438 738.382 21.3438V23.3438ZM749.492 24.2445C752.92 24.8101 755.96 25.6387 758.622 26.723L759.376 24.8708C756.553 23.7207 753.365 22.8566 749.818 22.2712L749.492 24.2445ZM758.042 25.5055L754.996 35.5094L756.909 36.0921L759.956 26.0882L758.042 25.5055ZM755.952 34.8008H755.343V36.8008H755.952V34.8008ZM756.304 35.525C755.138 31.4627 753.113 28.3527 750.178 26.298L749.031 27.9364C751.512 29.6733 753.313 32.3524 754.382 36.0766L756.304 35.525ZM750.19 26.3062C747.3 24.2211 743.59 23.2227 739.144 23.2227V25.2227C743.297 25.2227 746.56 26.1539 749.019 27.9281L750.19 26.3062ZM739.144 23.2227C734.311 23.2227 730.244 24.3803 727.021 26.771L728.212 28.3775C731.014 26.2994 734.633 25.2227 739.144 25.2227V23.2227ZM727.021 26.771C723.791 29.1657 722.097 32.2233 722.097 35.9023H724.097C724.097 32.9459 725.415 30.4515 728.212 28.3775L727.021 26.771ZM722.097 35.9023C722.097 39.001 723.373 41.4155 725.921 42.9979L726.976 41.299C725.054 40.1053 724.097 38.3558 724.097 35.9023H722.097ZM725.921 42.9979C728.37 44.5195 732.727 45.5299 738.79 46.1395L738.99 44.1495C732.932 43.5404 728.995 42.5535 726.976 41.299L725.921 42.9979ZM738.788 46.1394C747.754 47.0528 753.676 48.5972 756.771 50.6498L757.876 48.9831C754.335 46.6346 747.968 45.0644 738.991 44.1497L738.788 46.1394ZM756.777 50.6537C759.774 52.6112 761.3 55.5741 761.3 59.7188H763.3C763.3 54.9936 761.508 51.355 757.87 48.9791L756.777 50.6537ZM761.3 59.7188C761.3 65.5627 758.98 70.0979 754.306 73.4277L755.466 75.0567C760.677 71.3448 763.3 66.1977 763.3 59.7188H761.3ZM754.309 73.4251C749.597 76.7497 742.938 78.4727 734.218 78.4727V80.4727C743.169 80.4727 750.289 78.7086 755.462 75.0593L754.309 73.4251ZM734.218 78.4727C729.844 78.4727 725.661 78.072 721.668 77.2733L721.276 79.2345C725.407 80.0608 729.722 80.4727 734.218 80.4727V78.4727ZM721.669 77.2736C717.713 76.4757 713.925 75.2626 710.304 73.6348L709.484 75.459C713.243 77.1489 717.173 78.4072 721.274 79.2342L721.669 77.2736Z" fill="white"/>
</svg>
